G04*
G04 #@! TF.GenerationSoftware,Altium Limited,Altium Designer,23.4.1 (23)*
G04*
G04 Layer_Color=2752767*
%FSAX24Y24*%
%MOIN*%
G70*
G04*
G04 #@! TF.SameCoordinates,4129E8A8-1810-4653-8DC5-D3D8C58473D2*
G04*
G04*
G04 #@! TF.FilePolarity,Positive*
G04*
G01*
G75*
%ADD10C,0.0020*%
D10*
X037261Y029018D02*
Y029178D01*
X037421D01*
Y029018D01*
X037261D01*
X035793Y028873D02*
Y029033D01*
X035953D01*
Y028873D01*
X035793D01*
X036536Y028737D02*
Y028897D01*
X036696D01*
Y028737D01*
X036536D01*
X036964Y028004D02*
Y028164D01*
X037124D01*
Y028004D01*
X036964D01*
X037211Y028063D02*
Y028223D01*
X037371D01*
Y028063D01*
X037211D01*
X037457Y027974D02*
Y028134D01*
X037617D01*
Y027974D01*
X037457D01*
X035147Y029372D02*
Y029532D01*
X035307D01*
Y029372D01*
X035147D01*
X037261Y028706D02*
Y028866D01*
X037421D01*
Y028706D01*
X037261D01*
X036728Y028919D02*
Y029079D01*
X036888D01*
Y028919D01*
X036728D01*
X036266Y027807D02*
Y027967D01*
X036426D01*
Y027807D01*
X036266D01*
X036443Y027699D02*
Y027859D01*
X036603D01*
Y027699D01*
X036443D01*
X037585Y027925D02*
Y028085D01*
X037745D01*
Y027925D01*
X037585D01*
X036032Y027957D02*
Y028117D01*
X036192D01*
Y027957D01*
X036032D01*
X036738Y028063D02*
Y028223D01*
X036898D01*
Y028063D01*
X036738D01*
X035729Y027774D02*
Y027934D01*
X035889D01*
Y027774D01*
X035729D01*
X037260Y030071D02*
Y030231D01*
X037420D01*
Y030071D01*
X037260D01*
X037112Y030169D02*
Y030329D01*
X037272D01*
Y030169D01*
X037112D01*
X035547Y029687D02*
Y029847D01*
X035707D01*
Y029687D01*
X035547D01*
X036029Y029785D02*
Y029945D01*
X036189D01*
Y029785D01*
X036029D01*
X036266D02*
Y029945D01*
X036426D01*
Y029785D01*
X036266D01*
X036640D02*
Y029945D01*
X036800D01*
Y029785D01*
X036640D01*
X036492D02*
Y029945D01*
X036652D01*
Y029785D01*
X036492D01*
X035665Y030022D02*
Y030182D01*
X035825D01*
Y030022D01*
X035665D01*
X037836Y028383D02*
Y028543D01*
X037996D01*
Y028383D01*
X037836D01*
X037703Y029234D02*
Y029394D01*
X037863D01*
Y029234D01*
X037703D01*
X035547Y028014D02*
Y028174D01*
X035707D01*
Y028014D01*
X035547D01*
X035197Y029667D02*
Y029827D01*
X035357D01*
Y029667D01*
X035197D01*
X035065Y028004D02*
Y028164D01*
X035225D01*
Y028004D01*
X035065D01*
X037496Y028860D02*
Y029020D01*
X037656D01*
Y028860D01*
X037496D01*
X038096Y028112D02*
Y028272D01*
X038256D01*
Y028112D01*
X038096D01*
X035793Y029785D02*
Y029945D01*
X035953D01*
Y029785D01*
X035793D01*
M02*
