G04*
G04 #@! TF.GenerationSoftware,Altium Limited,Altium Designer,23.4.1 (23)*
G04*
G04 Layer_Color=16711935*
%FSAX24Y24*%
%MOIN*%
G70*
G04*
G04 #@! TF.SameCoordinates,4129E8A8-1810-4653-8DC5-D3D8C58473D2*
G04*
G04*
G04 #@! TF.FilePolarity,Positive*
G04*
G01*
G75*
%ADD33C,0.0010*%
%ADD35C,0.0000*%
D33*
X035129Y028807D02*
X035629Y029307D01*
X035955Y028599D02*
Y029307D01*
X035129Y028599D02*
X035955D01*
X035129D02*
Y029307D01*
X035955D01*
X035117Y028548D02*
X035527D01*
Y028958D01*
X035117D02*
X035527D01*
X035117Y028548D02*
Y028958D01*
X036306Y029344D02*
X037094D01*
Y028556D02*
Y029344D01*
X036306Y028556D02*
X037094D01*
X036306D02*
Y029344D01*
X036594D02*
X037094Y028844D01*
X036810Y029460D02*
X037310Y028960D01*
X036454Y029460D02*
X036552D01*
X036454Y029420D02*
Y029460D01*
Y029420D02*
X036552D01*
Y029460D01*
X036651D02*
X036749D01*
X036651Y029420D02*
Y029460D01*
Y029420D02*
X036749D01*
Y029460D01*
X036848D02*
X036946D01*
X036848Y029420D02*
Y029460D01*
Y029420D02*
X036946D01*
Y029460D01*
X037310Y029196D02*
Y029294D01*
X037270D02*
X037310D01*
X037270Y029196D02*
Y029294D01*
Y029196D02*
X037310D01*
Y028999D02*
Y029098D01*
X037270D02*
X037310D01*
X037270Y028999D02*
Y029098D01*
Y028999D02*
X037310D01*
Y028802D02*
Y028901D01*
X037270D02*
X037310D01*
X037270Y028802D02*
Y028901D01*
Y028802D02*
X037310D01*
Y028606D02*
Y028704D01*
X037270D02*
X037310D01*
X037270Y028606D02*
Y028704D01*
Y028606D02*
X037310D01*
X036848Y028440D02*
X036946D01*
Y028480D01*
X036848D02*
X036946D01*
X036848Y028440D02*
Y028480D01*
X036651Y028440D02*
X036749D01*
Y028480D01*
X036651D02*
X036749D01*
X036651Y028440D02*
Y028480D01*
X036454Y028440D02*
X036552D01*
Y028480D01*
X036454D02*
X036552D01*
X036454Y028440D02*
Y028480D01*
X036090Y028606D02*
Y028704D01*
Y028606D02*
X036130D01*
Y028704D01*
X036090D02*
X036130D01*
X036090Y028802D02*
Y028901D01*
Y028802D02*
X036130D01*
Y028901D01*
X036090D02*
X036130D01*
X036090Y028999D02*
Y029098D01*
Y028999D02*
X036130D01*
Y029098D01*
X036090D02*
X036130D01*
X036090Y029196D02*
Y029294D01*
Y029196D02*
X036130D01*
Y029294D01*
X036090D02*
X036130D01*
X036090Y028440D02*
X037310D01*
X036090D02*
Y029460D01*
X037310D01*
Y028440D02*
Y029460D01*
X035068Y029647D02*
Y029867D01*
Y029647D02*
X035498D01*
Y029867D01*
X035068D02*
X035498D01*
X035338Y029647D02*
X035498D01*
Y029867D01*
X035338D02*
X035498D01*
X035338Y029647D02*
Y029867D01*
X035068D02*
X035228D01*
X035068Y029647D02*
Y029867D01*
Y029647D02*
X035228D01*
Y029867D01*
X035200Y027980D02*
X035480D01*
Y027820D02*
Y027980D01*
X035200Y027820D02*
X035480D01*
X035200D02*
Y027980D01*
Y028140D02*
X035480D01*
X035200D02*
Y028300D01*
X035480D01*
Y028140D02*
Y028300D01*
X035200Y027820D02*
Y028300D01*
X035480D01*
Y027820D02*
Y028300D01*
X035200Y027820D02*
X035480D01*
X035203Y029971D02*
Y030251D01*
X035043Y029971D02*
X035203D01*
X035043D02*
Y030251D01*
X035203D01*
X035363Y029971D02*
Y030251D01*
X035523D01*
Y029971D02*
Y030251D01*
X035363Y029971D02*
X035523D01*
X035043Y030251D02*
X035523D01*
Y029971D02*
Y030251D01*
X035043Y029971D02*
X035523D01*
X035043D02*
Y030251D01*
X035993Y029086D02*
Y029366D01*
Y029086D02*
X036153D01*
Y029366D01*
X035993D02*
X036153D01*
X035833Y029086D02*
Y029366D01*
X035673D02*
X035833D01*
X035673Y029086D02*
Y029366D01*
Y029086D02*
X035833D01*
X035673Y029366D02*
X036153D01*
X035673Y029086D02*
Y029366D01*
Y029086D02*
X036153D01*
Y029366D01*
X035402Y029086D02*
Y029366D01*
Y029086D02*
X035562D01*
Y029366D01*
X035402D02*
X035562D01*
X035242Y029086D02*
Y029366D01*
X035082D02*
X035242D01*
X035082Y029086D02*
Y029366D01*
Y029086D02*
X035242D01*
X035082Y029366D02*
X035562D01*
X035082Y029086D02*
Y029366D01*
Y029086D02*
X035562D01*
Y029366D01*
X037249Y028845D02*
X037529D01*
Y029005D01*
X037249D02*
X037529D01*
X037249Y028845D02*
Y029005D01*
Y028685D02*
X037529D01*
X037249Y028525D02*
Y028685D01*
Y028525D02*
X037529D01*
Y028685D01*
X037249Y028525D02*
Y029005D01*
Y028525D02*
X037529D01*
Y029005D01*
X037249D02*
X037529D01*
X037643Y028845D02*
X037923D01*
Y029005D01*
X037643D02*
X037923D01*
X037643Y028845D02*
Y029005D01*
Y028685D02*
X037923D01*
X037643Y028525D02*
Y028685D01*
Y028525D02*
X037923D01*
Y028685D01*
X037643Y028525D02*
Y029005D01*
Y028525D02*
X037923D01*
Y029005D01*
X037643D02*
X037923D01*
X035833Y028613D02*
Y028893D01*
X035673D02*
X035833D01*
X035673Y028613D02*
Y028893D01*
Y028613D02*
X035833D01*
X035993D02*
Y028893D01*
Y028613D02*
X036153D01*
Y028893D01*
X035993D02*
X036153D01*
X035673Y028613D02*
X036153D01*
Y028893D01*
X035673D02*
X036153D01*
X035673Y028613D02*
Y028893D01*
X037525Y028629D02*
X037805D01*
X037525D02*
Y028789D01*
X037805D01*
Y028629D02*
Y028789D01*
X037525Y028469D02*
X037805D01*
Y028309D02*
Y028469D01*
X037525Y028309D02*
X037805D01*
X037525D02*
Y028469D01*
X037805Y028309D02*
Y028789D01*
X037525Y028309D02*
X037805D01*
X037525D02*
Y028789D01*
X037805D01*
X037525Y029224D02*
X037805D01*
Y029064D02*
Y029224D01*
X037525Y029064D02*
X037805D01*
X037525D02*
Y029224D01*
Y029384D02*
X037805D01*
X037525D02*
Y029544D01*
X037805D01*
Y029384D02*
Y029544D01*
X037525Y029064D02*
Y029544D01*
X037805D01*
Y029064D02*
Y029544D01*
X037525Y029064D02*
X037805D01*
D35*
X035202Y028958D02*
G03*
X035442Y028958I000120J000000D01*
G01*
M02*
