G04*
G04 #@! TF.GenerationSoftware,Altium Limited,Altium Designer,23.4.1 (23)*
G04*
G04 Layer_Color=128*
%FSAX24Y24*%
%MOIN*%
G70*
G04*
G04 #@! TF.SameCoordinates,4129E8A8-1810-4653-8DC5-D3D8C58473D2*
G04*
G04*
G04 #@! TF.FilePolarity,Positive*
G04*
G01*
G75*
%ADD16R,0.0150X0.0280*%
%ADD17R,0.0280X0.0150*%
%ADD26R,0.0079X0.0236*%
%ADD27R,0.0236X0.0079*%
%ADD28R,0.0227X0.0138*%
%ADD29R,0.0138X0.0227*%
%ADD30R,0.0150X0.0200*%
D16*
X035108Y030111D02*
D03*
X035458D02*
D03*
D17*
X035340Y027885D02*
D03*
Y028235D02*
D03*
X037665Y028724D02*
D03*
Y028374D02*
D03*
Y029129D02*
D03*
Y029479D02*
D03*
D26*
X035227Y029229D02*
D03*
X035385D02*
D03*
X035542D02*
D03*
X035700D02*
D03*
X035857D02*
D03*
Y028678D02*
D03*
X035700D02*
D03*
X035542D02*
D03*
X035385D02*
D03*
X035227D02*
D03*
D27*
X035857Y028953D02*
D03*
X035227D02*
D03*
D28*
X037176Y029245D02*
D03*
Y029048D02*
D03*
Y028852D02*
D03*
Y028655D02*
D03*
X036223D02*
D03*
Y028852D02*
D03*
Y029048D02*
D03*
Y029245D02*
D03*
D29*
X036897Y028574D02*
D03*
X036700D02*
D03*
X036503D02*
D03*
Y029327D02*
D03*
X036700D02*
D03*
X036897D02*
D03*
D30*
X035108Y029757D02*
D03*
X035458D02*
D03*
M02*
