G04*
G04 #@! TF.GenerationSoftware,Altium Limited,Altium Designer,23.4.1 (23)*
G04*
G04 Layer_Color=8421504*
%FSAX24Y24*%
%MOIN*%
G70*
G04*
G04 #@! TF.SameCoordinates,4129E8A8-1810-4653-8DC5-D3D8C58473D2*
G04*
G04*
G04 #@! TF.FilePolarity,Positive*
G04*
G01*
G75*
%ADD12R,0.0148X0.0138*%
%ADD13R,0.0138X0.0148*%
%ADD14R,0.0315X0.0354*%
%ADD15R,0.0157X0.0236*%
%ADD16R,0.0150X0.0280*%
%ADD17R,0.0280X0.0150*%
G36*
X035115Y028561D02*
Y028691D01*
X035175D01*
X035235Y028611D01*
Y028561D01*
X035115D01*
D02*
G37*
G36*
Y028946D02*
Y028816D01*
X035175D01*
X035235Y028896D01*
Y028946D01*
X035115D01*
D02*
G37*
G36*
X035530Y028561D02*
Y028691D01*
X035470D01*
X035410Y028611D01*
Y028561D01*
X035530D01*
D02*
G37*
G36*
Y028946D02*
Y028816D01*
X035470D01*
X035410Y028896D01*
Y028946D01*
X035530D01*
D02*
G37*
D12*
X036995Y029048D02*
D03*
Y028852D02*
D03*
X036405D02*
D03*
Y029048D02*
D03*
D13*
X036995Y028655D02*
D03*
X036798D02*
D03*
X036602D02*
D03*
X036405D02*
D03*
Y029245D02*
D03*
X036602D02*
D03*
X036798D02*
D03*
X036995D02*
D03*
D14*
X038137Y030111D02*
D03*
X035263D02*
D03*
Y027789D02*
D03*
X038137D02*
D03*
D15*
X036346Y029580D02*
D03*
X037054D02*
D03*
X036818D02*
D03*
X036582D02*
D03*
X036109D02*
D03*
X037291D02*
D03*
X037527D02*
D03*
X037763D02*
D03*
X035873D02*
D03*
X035637D02*
D03*
X037054Y028320D02*
D03*
X036346D02*
D03*
X036582D02*
D03*
X036818D02*
D03*
X037291D02*
D03*
X036109D02*
D03*
X035873D02*
D03*
X035637D02*
D03*
X037527D02*
D03*
X037763D02*
D03*
D16*
X036088Y029226D02*
D03*
X035738D02*
D03*
X035497D02*
D03*
X035147D02*
D03*
X035738Y028753D02*
D03*
X036088D02*
D03*
D17*
X037389Y028940D02*
D03*
Y028590D02*
D03*
X037783Y028940D02*
D03*
Y028590D02*
D03*
M02*
