G04*
G04 #@! TF.GenerationSoftware,Altium Limited,Altium Designer,23.4.1 (23)*
G04*
G04 Layer_Color=32896*
%FSAX24Y24*%
%MOIN*%
G70*
G04*
G04 #@! TF.SameCoordinates,4129E8A8-1810-4653-8DC5-D3D8C58473D2*
G04*
G04*
G04 #@! TF.FilePolarity,Positive*
G04*
G01*
G75*
%ADD10C,0.0020*%
%ADD33C,0.0010*%
G36*
X036638Y029629D02*
X036640Y029626D01*
X036642Y029624D01*
X036643Y029622D01*
X036645Y029620D01*
X036646Y029619D01*
X036647Y029618D01*
X036648Y029618D01*
X036648Y029618D01*
X036648Y029618D01*
X036651Y029615D01*
X036654Y029613D01*
X036657Y029611D01*
X036660Y029609D01*
X036662Y029608D01*
X036663Y029607D01*
X036664Y029607D01*
X036665Y029606D01*
X036665Y029606D01*
X036666Y029606D01*
X036666D01*
Y029594D01*
X036664Y029595D01*
X036661Y029596D01*
X036659Y029597D01*
X036657Y029598D01*
X036655Y029599D01*
X036654Y029600D01*
X036653Y029600D01*
X036653Y029600D01*
X036653D01*
X036650Y029602D01*
X036648Y029603D01*
X036646Y029605D01*
X036644Y029606D01*
X036643Y029607D01*
X036642Y029608D01*
X036641Y029609D01*
X036641Y029609D01*
Y029530D01*
X036629D01*
Y029631D01*
X036637D01*
X036638Y029629D01*
D02*
G37*
G36*
X036771Y029573D02*
Y029570D01*
X036771Y029567D01*
X036771Y029564D01*
X036771Y029562D01*
X036770Y029560D01*
X036770Y029558D01*
X036770Y029556D01*
X036769Y029554D01*
X036769Y029553D01*
X036769Y029551D01*
X036768Y029550D01*
X036768Y029549D01*
X036768Y029549D01*
X036768Y029548D01*
X036767Y029548D01*
Y029548D01*
X036766Y029544D01*
X036764Y029541D01*
X036762Y029539D01*
X036760Y029537D01*
X036758Y029535D01*
X036756Y029534D01*
X036756Y029534D01*
X036755Y029534D01*
X036755Y029533D01*
X036755D01*
X036751Y029532D01*
X036747Y029531D01*
X036743Y029530D01*
X036740Y029529D01*
X036738Y029529D01*
X036737Y029529D01*
X036735Y029529D01*
X036734D01*
X036733Y029529D01*
X036732D01*
X036726Y029529D01*
X036724Y029529D01*
X036722Y029530D01*
X036720Y029530D01*
X036718Y029530D01*
X036716Y029531D01*
X036714Y029531D01*
X036713Y029532D01*
X036712Y029532D01*
X036711Y029533D01*
X036710Y029533D01*
X036709Y029534D01*
X036709Y029534D01*
X036708Y029534D01*
X036708D01*
X036705Y029536D01*
X036702Y029539D01*
X036700Y029541D01*
X036699Y029543D01*
X036697Y029545D01*
X036697Y029547D01*
X036696Y029548D01*
X036696Y029548D01*
X036696Y029548D01*
Y029549D01*
X036695Y029550D01*
X036695Y029552D01*
X036694Y029556D01*
X036693Y029560D01*
X036693Y029564D01*
X036693Y029566D01*
X036692Y029568D01*
Y029569D01*
X036692Y029570D01*
Y029571D01*
Y029572D01*
Y029573D01*
Y029573D01*
Y029631D01*
X036706D01*
Y029573D01*
Y029569D01*
X036706Y029566D01*
X036706Y029563D01*
X036707Y029561D01*
X036707Y029559D01*
X036708Y029556D01*
X036708Y029554D01*
X036709Y029553D01*
X036709Y029552D01*
X036710Y029550D01*
X036710Y029549D01*
X036711Y029549D01*
X036711Y029548D01*
X036712Y029548D01*
X036712Y029547D01*
X036712Y029547D01*
X036713Y029546D01*
X036715Y029545D01*
X036718Y029543D01*
X036721Y029542D01*
X036725Y029542D01*
X036728Y029541D01*
X036729Y029541D01*
X036730D01*
X036731Y029541D01*
X036733D01*
X036736Y029541D01*
X036739Y029541D01*
X036741Y029542D01*
X036743Y029542D01*
X036745Y029543D01*
X036746Y029543D01*
X036747Y029544D01*
X036747Y029544D01*
X036749Y029545D01*
X036751Y029547D01*
X036752Y029549D01*
X036754Y029550D01*
X036754Y029551D01*
X036755Y029552D01*
X036755Y029553D01*
X036756Y029553D01*
X036756Y029555D01*
X036756Y029556D01*
X036757Y029559D01*
X036757Y029562D01*
X036758Y029565D01*
X036758Y029568D01*
Y029570D01*
X036758Y029571D01*
Y029571D01*
Y029572D01*
Y029573D01*
Y029573D01*
Y029631D01*
X036771D01*
Y029573D01*
D02*
G37*
G36*
X036604Y028860D02*
X036591Y028850D01*
X036591D01*
X036591Y028850D01*
X036590Y028850D01*
X036589Y028849D01*
X036588Y028849D01*
X036589D01*
X036589Y028849D01*
X036589Y028848D01*
X036589Y028848D01*
X036590Y028847D01*
X036591Y028847D01*
X036591Y028847D01*
X036604Y028837D01*
Y028831D01*
X036584Y028846D01*
X036566Y028833D01*
Y028839D01*
X036576Y028846D01*
X036576Y028846D01*
X036576Y028846D01*
X036577Y028847D01*
X036578Y028847D01*
X036579Y028848D01*
X036580Y028849D01*
X036580Y028849D01*
X036580Y028849D01*
X036580Y028849D01*
X036580Y028849D01*
X036579Y028850D01*
X036578Y028850D01*
X036578Y028851D01*
X036576Y028852D01*
X036566Y028860D01*
Y028865D01*
X036584Y028852D01*
X036604Y028866D01*
Y028860D01*
D02*
G37*
G36*
X036793Y029055D02*
X036781Y029048D01*
X036780Y029047D01*
X036779Y029046D01*
X036778Y029046D01*
X036777Y029045D01*
X036776Y029044D01*
X036775Y029044D01*
X036775Y029044D01*
X036775Y029044D01*
X036777Y029042D01*
X036778Y029042D01*
X036779Y029041D01*
X036780Y029041D01*
X036781Y029040D01*
X036781Y029040D01*
X036781Y029040D01*
X036793Y029032D01*
Y029026D01*
X036771Y029041D01*
X036754D01*
Y029046D01*
X036771D01*
X036793Y029061D01*
Y029055D01*
D02*
G37*
G36*
X035656Y029820D02*
X035653Y029819D01*
X035651Y029817D01*
X035649Y029815D01*
X035647Y029814D01*
X035645Y029812D01*
X035643Y029811D01*
X035643Y029810D01*
X035643Y029810D01*
X035642Y029809D01*
X035642Y029809D01*
X035640Y029806D01*
X035637Y029803D01*
X035635Y029800D01*
X035634Y029797D01*
X035632Y029795D01*
X035632Y029794D01*
X035631Y029793D01*
X035631Y029792D01*
X035631Y029792D01*
X035630Y029791D01*
Y029791D01*
X035619D01*
X035619Y029793D01*
X035620Y029796D01*
X035621Y029798D01*
X035622Y029800D01*
X035623Y029802D01*
X035624Y029803D01*
X035625Y029804D01*
X035625Y029804D01*
Y029804D01*
X035626Y029807D01*
X035628Y029809D01*
X035629Y029811D01*
X035631Y029813D01*
X035632Y029814D01*
X035633Y029815D01*
X035633Y029816D01*
X035633Y029816D01*
X035555D01*
Y029828D01*
X035656D01*
Y029820D01*
D02*
G37*
G36*
X035582Y029757D02*
X035585Y029755D01*
X035588Y029753D01*
X035590Y029751D01*
X035592Y029749D01*
X035593Y029748D01*
X035595Y029747D01*
X035595Y029746D01*
X035596Y029746D01*
X035596Y029745D01*
X035597Y029743D01*
X035599Y029741D01*
X035600Y029740D01*
X035600Y029739D01*
X035600Y029738D01*
X035601Y029738D01*
X035601Y029740D01*
X035601Y029743D01*
X035602Y029745D01*
X035603Y029747D01*
X035603Y029749D01*
X035604Y029751D01*
X035605Y029752D01*
X035606Y029754D01*
X035607Y029755D01*
X035607Y029756D01*
X035608Y029757D01*
X035609Y029758D01*
X035609Y029758D01*
X035609Y029759D01*
X035610Y029759D01*
X035610Y029759D01*
X035611Y029760D01*
X035613Y029761D01*
X035616Y029763D01*
X035619Y029764D01*
X035622Y029765D01*
X035624Y029766D01*
X035625Y029766D01*
X035626D01*
X035627Y029766D01*
X035627D01*
X035628D01*
X035628D01*
X035631Y029766D01*
X035634Y029766D01*
X035636Y029765D01*
X035638Y029764D01*
X035640Y029763D01*
X035642Y029763D01*
X035643Y029762D01*
X035643Y029762D01*
X035643D01*
X035645Y029760D01*
X035647Y029758D01*
X035649Y029757D01*
X035650Y029755D01*
X035651Y029753D01*
X035652Y029752D01*
X035652Y029751D01*
X035653Y029751D01*
Y029751D01*
X035653Y029749D01*
X035653Y029748D01*
X035654Y029745D01*
X035655Y029741D01*
X035655Y029738D01*
X035655Y029735D01*
Y029734D01*
X035655Y029732D01*
Y029686D01*
X035555D01*
Y029699D01*
X035599D01*
Y029716D01*
X035599Y029718D01*
Y029719D01*
X035599Y029720D01*
X035599Y029721D01*
Y029721D01*
X035599Y029722D01*
Y029722D01*
X035598Y029724D01*
X035598Y029725D01*
X035597Y029726D01*
X035597Y029727D01*
X035597Y029728D01*
X035596Y029728D01*
X035596Y029728D01*
X035595Y029729D01*
X035594Y029730D01*
X035592Y029732D01*
X035591Y029733D01*
X035590Y029734D01*
X035590Y029735D01*
X035590Y029735D01*
X035588Y029736D01*
X035585Y029738D01*
X035583Y029739D01*
X035581Y029741D01*
X035579Y029742D01*
X035577Y029743D01*
X035577Y029744D01*
X035576Y029744D01*
X035576Y029744D01*
X035576D01*
X035555Y029758D01*
Y029774D01*
X035582Y029757D01*
D02*
G37*
G36*
X035615Y029455D02*
Y029452D01*
X035614Y029449D01*
X035614Y029447D01*
X035614Y029444D01*
X035614Y029442D01*
X035613Y029440D01*
X035613Y029438D01*
X035613Y029436D01*
X035612Y029435D01*
X035612Y029433D01*
X035612Y029432D01*
X035611Y029431D01*
X035611Y029431D01*
X035611Y029430D01*
X035611Y029430D01*
Y029430D01*
X035609Y029426D01*
X035607Y029424D01*
X035605Y029421D01*
X035603Y029419D01*
X035601Y029418D01*
X035599Y029416D01*
X035599Y029416D01*
X035598Y029416D01*
X035598Y029416D01*
X035598D01*
X035594Y029414D01*
X035591Y029413D01*
X035587Y029412D01*
X035583Y029411D01*
X035582Y029411D01*
X035580Y029411D01*
X035578Y029411D01*
X035577D01*
X035576Y029411D01*
X035575D01*
X035570Y029411D01*
X035567Y029411D01*
X035565Y029412D01*
X035563Y029412D01*
X035561Y029413D01*
X035559Y029413D01*
X035558Y029414D01*
X035556Y029414D01*
X035555Y029415D01*
X035554Y029415D01*
X035553Y029415D01*
X035553Y029416D01*
X035552Y029416D01*
X035552Y029416D01*
X035552D01*
X035548Y029418D01*
X035546Y029421D01*
X035544Y029423D01*
X035542Y029426D01*
X035541Y029428D01*
X035540Y029429D01*
X035540Y029430D01*
X035539Y029430D01*
X035539Y029430D01*
Y029431D01*
X035539Y029432D01*
X035538Y029434D01*
X035537Y029438D01*
X035537Y029442D01*
X035536Y029446D01*
X035536Y029448D01*
X035536Y029450D01*
Y029451D01*
X035536Y029452D01*
Y029453D01*
Y029454D01*
Y029455D01*
Y029455D01*
Y029513D01*
X035549D01*
Y029455D01*
Y029452D01*
X035549Y029448D01*
X035550Y029446D01*
X035550Y029443D01*
X035550Y029441D01*
X035551Y029438D01*
X035551Y029437D01*
X035552Y029435D01*
X035553Y029434D01*
X035553Y029432D01*
X035554Y029432D01*
X035554Y029431D01*
X035555Y029430D01*
X035555Y029430D01*
X035555Y029429D01*
X035555Y029429D01*
X035557Y029428D01*
X035558Y029427D01*
X035561Y029426D01*
X035565Y029424D01*
X035568Y029424D01*
X035571Y029423D01*
X035573Y029423D01*
X035574D01*
X035575Y029423D01*
X035576D01*
X035579Y029423D01*
X035582Y029423D01*
X035585Y029424D01*
X035587Y029425D01*
X035588Y029425D01*
X035590Y029426D01*
X035590Y029426D01*
X035591Y029426D01*
X035593Y029427D01*
X035594Y029429D01*
X035596Y029431D01*
X035597Y029432D01*
X035598Y029434D01*
X035598Y029435D01*
X035599Y029435D01*
X035599Y029436D01*
X035599Y029437D01*
X035600Y029438D01*
X035600Y029441D01*
X035601Y029444D01*
X035601Y029448D01*
X035601Y029450D01*
Y029452D01*
X035601Y029453D01*
Y029454D01*
Y029454D01*
Y029455D01*
Y029455D01*
Y029513D01*
X035615D01*
Y029455D01*
D02*
G37*
G36*
X035523Y029448D02*
Y029437D01*
X035479D01*
Y029413D01*
X035467D01*
Y029437D01*
X035453D01*
Y029448D01*
X035467D01*
Y029513D01*
X035477D01*
X035523Y029448D01*
D02*
G37*
G36*
X035588Y028143D02*
X035591Y028143D01*
X035593Y028143D01*
X035596Y028142D01*
X035598Y028142D01*
X035600Y028142D01*
X035602Y028141D01*
X035604Y028141D01*
X035605Y028140D01*
X035607Y028140D01*
X035608Y028140D01*
X035608Y028139D01*
X035609Y028139D01*
X035609Y028139D01*
X035609D01*
X035613Y028137D01*
X035616Y028135D01*
X035618Y028133D01*
X035621Y028131D01*
X035622Y028129D01*
X035623Y028128D01*
X035624Y028127D01*
X035624Y028127D01*
X035624Y028127D01*
Y028127D01*
X035626Y028124D01*
X035627Y028120D01*
X035628Y028117D01*
X035629Y028115D01*
X035630Y028112D01*
X035630Y028111D01*
Y028110D01*
X035630Y028110D01*
Y028109D01*
X035630Y028106D01*
X035629Y028104D01*
X035629Y028102D01*
X035628Y028100D01*
X035627Y028096D01*
X035626Y028094D01*
X035625Y028093D01*
X035624Y028091D01*
X035623Y028090D01*
X035623Y028089D01*
X035622Y028088D01*
X035621Y028087D01*
X035621Y028087D01*
X035621Y028086D01*
X035620Y028086D01*
X035619Y028085D01*
X035617Y028083D01*
X035615Y028082D01*
X035613Y028081D01*
X035611Y028080D01*
X035608Y028079D01*
X035605Y028078D01*
X035603Y028078D01*
X035601Y028078D01*
X035600Y028078D01*
X035598Y028077D01*
X035597Y028077D01*
X035597D01*
X035596D01*
X035596D01*
X035593Y028077D01*
X035591Y028078D01*
X035588Y028078D01*
X035586Y028079D01*
X035584Y028079D01*
X035582Y028080D01*
X035580Y028081D01*
X035578Y028082D01*
X035577Y028082D01*
X035576Y028083D01*
X035575Y028084D01*
X035574Y028085D01*
X035573Y028085D01*
X035573Y028085D01*
X035572Y028086D01*
X035572Y028086D01*
X035570Y028087D01*
X035569Y028089D01*
X035568Y028091D01*
X035567Y028093D01*
X035566Y028095D01*
X035565Y028096D01*
X035564Y028100D01*
X035564Y028101D01*
X035564Y028103D01*
X035563Y028104D01*
X035563Y028105D01*
X035563Y028106D01*
Y028107D01*
X035563Y028110D01*
X035564Y028112D01*
X035564Y028115D01*
X035565Y028117D01*
X035566Y028118D01*
X035566Y028120D01*
X035567Y028120D01*
X035567Y028121D01*
X035568Y028123D01*
X035570Y028125D01*
X035571Y028127D01*
X035573Y028128D01*
X035574Y028129D01*
X035575Y028130D01*
X035576Y028131D01*
X035576Y028131D01*
X035575D01*
X035574D01*
X035574D01*
X035574D01*
X035571Y028131D01*
X035568Y028131D01*
X035566Y028130D01*
X035563Y028130D01*
X035562Y028130D01*
X035560Y028129D01*
X035559Y028129D01*
X035559D01*
X035559Y028129D01*
X035559D01*
X035556Y028128D01*
X035554Y028128D01*
X035552Y028127D01*
X035550Y028126D01*
X035549Y028126D01*
X035548Y028125D01*
X035547Y028125D01*
X035547Y028125D01*
X035545Y028123D01*
X035544Y028122D01*
X035543Y028121D01*
X035542Y028120D01*
X035541Y028119D01*
X035540Y028118D01*
X035540Y028118D01*
X035540Y028117D01*
X035539Y028116D01*
X035538Y028114D01*
X035538Y028113D01*
X035538Y028111D01*
X035538Y028110D01*
X035537Y028109D01*
Y028108D01*
X035538Y028105D01*
X035538Y028103D01*
X035539Y028101D01*
X035539Y028100D01*
X035540Y028098D01*
X035540Y028097D01*
X035541Y028097D01*
X035541Y028097D01*
X035543Y028095D01*
X035545Y028094D01*
X035547Y028093D01*
X035549Y028092D01*
X035550Y028092D01*
X035552Y028091D01*
X035553Y028091D01*
X035553D01*
X035553Y028091D01*
X035553D01*
X035552Y028079D01*
X035548Y028080D01*
X035544Y028081D01*
X035541Y028083D01*
X035539Y028084D01*
X035537Y028086D01*
X035536Y028086D01*
X035535Y028087D01*
X035535Y028087D01*
X035534Y028088D01*
X035534Y028088D01*
X035534Y028088D01*
X035533Y028089D01*
X035532Y028091D01*
X035530Y028094D01*
X035529Y028097D01*
X035528Y028100D01*
X035528Y028103D01*
X035527Y028104D01*
Y028105D01*
X035527Y028106D01*
Y028107D01*
X035528Y028111D01*
X035528Y028115D01*
X035529Y028118D01*
X035530Y028121D01*
X035531Y028122D01*
X035531Y028123D01*
X035532Y028124D01*
X035532Y028125D01*
X035533Y028126D01*
X035533Y028126D01*
X035533Y028126D01*
Y028127D01*
X035536Y028129D01*
X035538Y028132D01*
X035541Y028134D01*
X035544Y028136D01*
X035547Y028137D01*
X035548Y028138D01*
X035549Y028138D01*
X035549Y028139D01*
X035550Y028139D01*
X035550Y028139D01*
X035550D01*
X035553Y028140D01*
X035555Y028140D01*
X035560Y028142D01*
X035565Y028142D01*
X035570Y028143D01*
X035572Y028143D01*
X035575Y028143D01*
X035576D01*
X035578Y028143D01*
X035579D01*
X035580D01*
X035581D01*
X035581D01*
X035585D01*
X035588Y028143D01*
D02*
G37*
G36*
X035564Y028053D02*
X035562Y028052D01*
X035560Y028051D01*
X035558Y028051D01*
X035556Y028050D01*
X035554Y028049D01*
X035553Y028048D01*
X035551Y028047D01*
X035550Y028046D01*
X035549Y028046D01*
X035548Y028045D01*
X035547Y028044D01*
X035546Y028043D01*
X035546Y028043D01*
X035545Y028042D01*
X035545Y028042D01*
X035545Y028042D01*
X035544Y028041D01*
X035543Y028039D01*
X035541Y028036D01*
X035540Y028033D01*
X035539Y028030D01*
X035539Y028027D01*
X035539Y028026D01*
Y028025D01*
X035539Y028024D01*
Y028023D01*
X035539Y028020D01*
X035539Y028017D01*
X035540Y028014D01*
X035541Y028011D01*
X035542Y028009D01*
X035542Y028008D01*
X035543Y028008D01*
X035543Y028007D01*
X035543Y028007D01*
X035543Y028006D01*
Y028006D01*
X035545Y028003D01*
X035547Y028001D01*
X035550Y027999D01*
X035552Y027997D01*
X035554Y027996D01*
X035556Y027995D01*
X035557Y027995D01*
X035557Y027995D01*
X035557Y027994D01*
X035558D01*
X035561Y027993D01*
X035565Y027992D01*
X035569Y027992D01*
X035572Y027991D01*
X035574Y027991D01*
X035575Y027991D01*
X035577D01*
X035578Y027991D01*
X035579D01*
X035579D01*
X035580D01*
X035580D01*
X035584Y027991D01*
X035587Y027991D01*
X035590Y027992D01*
X035593Y027992D01*
X035596Y027993D01*
X035597Y027993D01*
X035598Y027993D01*
X035598Y027994D01*
X035599Y027994D01*
X035599Y027994D01*
X035599D01*
X035603Y027995D01*
X035606Y027997D01*
X035608Y027999D01*
X035610Y028001D01*
X035612Y028002D01*
X035613Y028003D01*
X035614Y028004D01*
X035614Y028005D01*
Y028005D01*
X035616Y028008D01*
X035617Y028011D01*
X035618Y028014D01*
X035619Y028017D01*
X035620Y028020D01*
X035620Y028021D01*
Y028022D01*
X035620Y028023D01*
Y028024D01*
X035620Y028028D01*
X035619Y028031D01*
X035618Y028034D01*
X035617Y028036D01*
X035616Y028038D01*
X035616Y028040D01*
X035615Y028041D01*
X035615Y028041D01*
X035613Y028043D01*
X035610Y028045D01*
X035607Y028047D01*
X035605Y028049D01*
X035603Y028050D01*
X035601Y028050D01*
X035601Y028050D01*
X035600Y028051D01*
X035599Y028051D01*
X035599Y028051D01*
X035599D01*
X035602Y028064D01*
X035604Y028063D01*
X035607Y028062D01*
X035609Y028061D01*
X035611Y028060D01*
X035613Y028059D01*
X035615Y028058D01*
X035616Y028057D01*
X035618Y028056D01*
X035619Y028054D01*
X035620Y028053D01*
X035621Y028052D01*
X035622Y028052D01*
X035623Y028051D01*
X035623Y028050D01*
X035623Y028050D01*
X035623Y028050D01*
X035625Y028048D01*
X035626Y028046D01*
X035627Y028044D01*
X035628Y028042D01*
X035629Y028037D01*
X035630Y028033D01*
X035631Y028031D01*
X035631Y028030D01*
X035631Y028028D01*
X035631Y028027D01*
X035631Y028026D01*
Y028024D01*
X035631Y028020D01*
X035630Y028015D01*
X035629Y028011D01*
X035629Y028009D01*
X035628Y028007D01*
X035627Y028006D01*
X035627Y028004D01*
X035626Y028003D01*
X035626Y028002D01*
X035626Y028001D01*
X035625Y028001D01*
X035625Y028000D01*
X035625Y028000D01*
X035623Y027996D01*
X035620Y027993D01*
X035617Y027990D01*
X035614Y027988D01*
X035611Y027986D01*
X035610Y027985D01*
X035609Y027984D01*
X035608Y027984D01*
X035608Y027983D01*
X035607Y027983D01*
X035607Y027983D01*
X035603Y027981D01*
X035598Y027980D01*
X035593Y027979D01*
X035589Y027978D01*
X035587Y027978D01*
X035585Y027978D01*
X035584Y027977D01*
X035583D01*
X035582Y027977D01*
X035581D01*
X035580D01*
X035580D01*
X035575Y027978D01*
X035570Y027978D01*
X035565Y027979D01*
X035563Y027979D01*
X035561Y027980D01*
X035559Y027980D01*
X035558Y027981D01*
X035556Y027981D01*
X035555Y027982D01*
X035554Y027982D01*
X035554Y027982D01*
X035553Y027982D01*
X035553D01*
X035549Y027985D01*
X035545Y027987D01*
X035541Y027990D01*
X035540Y027991D01*
X035539Y027992D01*
X035538Y027993D01*
X035537Y027994D01*
X035536Y027995D01*
X035535Y027996D01*
X035535Y027997D01*
X035534Y027998D01*
X035534Y027998D01*
X035534Y027998D01*
X035533Y028000D01*
X035532Y028002D01*
X035530Y028006D01*
X035529Y028011D01*
X035528Y028015D01*
X035528Y028017D01*
X035528Y028019D01*
X035527Y028020D01*
Y028022D01*
X035527Y028023D01*
Y028024D01*
X035527Y028027D01*
X035528Y028030D01*
X035528Y028033D01*
X035529Y028035D01*
X035529Y028037D01*
X035530Y028040D01*
X035531Y028042D01*
X035532Y028043D01*
X035532Y028045D01*
X035533Y028047D01*
X035534Y028048D01*
X035535Y028049D01*
X035535Y028050D01*
X035535Y028050D01*
X035536Y028051D01*
X035536Y028051D01*
X035538Y028053D01*
X035539Y028055D01*
X035541Y028056D01*
X035543Y028058D01*
X035547Y028060D01*
X035552Y028062D01*
X035553Y028063D01*
X035555Y028064D01*
X035557Y028065D01*
X035558Y028065D01*
X035559Y028066D01*
X035560Y028066D01*
X035561Y028066D01*
X035561D01*
X035564Y028053D01*
D02*
G37*
G36*
X035588Y030194D02*
X035591Y030194D01*
X035594Y030193D01*
X035596Y030192D01*
X035598Y030191D01*
X035600Y030190D01*
X035600Y030190D01*
X035601Y030189D01*
X035601D01*
X035603Y030187D01*
X035605Y030185D01*
X035607Y030183D01*
X035608Y030181D01*
X035609Y030179D01*
X035610Y030177D01*
X035610Y030176D01*
X035610Y030176D01*
X035610Y030176D01*
Y030176D01*
X035612Y030178D01*
X035613Y030180D01*
X035614Y030182D01*
X035616Y030184D01*
X035617Y030185D01*
X035618Y030186D01*
X035618Y030186D01*
X035618Y030187D01*
X035620Y030188D01*
X035622Y030189D01*
X035625Y030189D01*
X035627Y030190D01*
X035628Y030190D01*
X035629Y030190D01*
X035630D01*
X035630D01*
X035631D01*
X035633Y030190D01*
X035635Y030190D01*
X035638Y030189D01*
X035641Y030188D01*
X035644Y030186D01*
X035646Y030185D01*
X035647Y030184D01*
X035648Y030184D01*
X035649Y030183D01*
X035649Y030183D01*
X035649Y030182D01*
X035649Y030182D01*
X035651Y030181D01*
X035652Y030179D01*
X035653Y030177D01*
X035654Y030176D01*
X035655Y030172D01*
X035656Y030169D01*
X035656Y030167D01*
X035657Y030166D01*
X035657Y030164D01*
X035657Y030163D01*
X035657Y030162D01*
Y030161D01*
X035657Y030159D01*
X035657Y030156D01*
X035656Y030152D01*
X035655Y030150D01*
X035655Y030149D01*
X035654Y030147D01*
X035653Y030146D01*
X035653Y030145D01*
X035652Y030143D01*
X035651Y030142D01*
X035651Y030142D01*
X035650Y030141D01*
X035650Y030141D01*
X035650Y030140D01*
X035649Y030140D01*
X035648Y030139D01*
X035647Y030138D01*
X035645Y030137D01*
X035643Y030136D01*
X035640Y030134D01*
X035637Y030133D01*
X035635Y030133D01*
X035634Y030133D01*
X035633Y030133D01*
X035632Y030132D01*
X035631D01*
X035631D01*
X035631D01*
X035628Y030133D01*
X035626Y030133D01*
X035624Y030134D01*
X035622Y030134D01*
X035620Y030135D01*
X035619Y030135D01*
X035619Y030136D01*
X035618Y030136D01*
X035617Y030138D01*
X035615Y030139D01*
X035614Y030141D01*
X035612Y030143D01*
X035612Y030145D01*
X035611Y030146D01*
X035611Y030147D01*
X035611Y030147D01*
X035610Y030147D01*
Y030147D01*
X035609Y030144D01*
X035608Y030141D01*
X035607Y030139D01*
X035605Y030137D01*
X035604Y030135D01*
X035602Y030134D01*
X035602Y030134D01*
X035602Y030133D01*
X035601D01*
X035599Y030132D01*
X035596Y030130D01*
X035593Y030129D01*
X035591Y030129D01*
X035589Y030129D01*
X035588Y030128D01*
X035587D01*
X035586Y030128D01*
X035586D01*
X035585D01*
X035585D01*
X035583Y030128D01*
X035580Y030129D01*
X035578Y030129D01*
X035576Y030130D01*
X035572Y030131D01*
X035571Y030132D01*
X035569Y030133D01*
X035568Y030134D01*
X035567Y030134D01*
X035566Y030135D01*
X035565Y030136D01*
X035564Y030136D01*
X035564Y030137D01*
X035563Y030137D01*
X035563Y030137D01*
X035562Y030139D01*
X035560Y030141D01*
X035559Y030143D01*
X035558Y030145D01*
X035557Y030147D01*
X035557Y030149D01*
X035556Y030153D01*
X035555Y030155D01*
X035555Y030156D01*
X035555Y030158D01*
X035555Y030159D01*
X035554Y030160D01*
Y030161D01*
X035555Y030164D01*
X035555Y030167D01*
X035555Y030169D01*
X035556Y030171D01*
X035557Y030173D01*
X035557Y030175D01*
X035558Y030177D01*
X035559Y030179D01*
X035560Y030180D01*
X035560Y030182D01*
X035561Y030183D01*
X035562Y030184D01*
X035562Y030184D01*
X035563Y030185D01*
X035563Y030185D01*
X035563Y030185D01*
X035565Y030187D01*
X035567Y030188D01*
X035568Y030189D01*
X035570Y030191D01*
X035572Y030192D01*
X035574Y030192D01*
X035577Y030193D01*
X035579Y030194D01*
X035580Y030194D01*
X035582Y030194D01*
X035583Y030194D01*
X035583Y030194D01*
X035584D01*
X035585D01*
X035585D01*
X035588Y030194D01*
D02*
G37*
G36*
X035591Y030104D02*
X035589Y030103D01*
X035587Y030103D01*
X035585Y030102D01*
X035583Y030101D01*
X035581Y030100D01*
X035580Y030099D01*
X035578Y030098D01*
X035577Y030097D01*
X035576Y030097D01*
X035575Y030096D01*
X035574Y030095D01*
X035573Y030095D01*
X035573Y030094D01*
X035572Y030094D01*
X035572Y030093D01*
X035572Y030093D01*
X035571Y030092D01*
X035570Y030090D01*
X035569Y030087D01*
X035567Y030084D01*
X035567Y030081D01*
X035566Y030078D01*
X035566Y030077D01*
Y030076D01*
X035566Y030075D01*
Y030074D01*
X035566Y030071D01*
X035567Y030068D01*
X035567Y030065D01*
X035568Y030062D01*
X035569Y030060D01*
X035569Y030059D01*
X035570Y030059D01*
X035570Y030058D01*
X035570Y030058D01*
X035570Y030057D01*
Y030057D01*
X035572Y030055D01*
X035575Y030052D01*
X035577Y030050D01*
X035579Y030049D01*
X035581Y030047D01*
X035583Y030046D01*
X035584Y030046D01*
X035584Y030046D01*
X035585Y030046D01*
X035585D01*
X035589Y030045D01*
X035592Y030044D01*
X035596Y030043D01*
X035600Y030042D01*
X035601Y030042D01*
X035603Y030042D01*
X035604D01*
X035605Y030042D01*
X035606D01*
X035607D01*
X035607D01*
X035607D01*
X035611Y030042D01*
X035614Y030042D01*
X035618Y030043D01*
X035620Y030044D01*
X035623Y030044D01*
X035624Y030044D01*
X035625Y030045D01*
X035626Y030045D01*
X035626Y030045D01*
X035626Y030045D01*
X035626D01*
X035630Y030047D01*
X035633Y030048D01*
X035635Y030050D01*
X035637Y030052D01*
X035639Y030053D01*
X035640Y030055D01*
X035641Y030056D01*
X035641Y030056D01*
Y030056D01*
X035643Y030059D01*
X035645Y030062D01*
X035646Y030066D01*
X035646Y030069D01*
X035647Y030071D01*
X035647Y030072D01*
Y030073D01*
X035647Y030074D01*
Y030075D01*
X035647Y030079D01*
X035646Y030082D01*
X035645Y030085D01*
X035645Y030088D01*
X035644Y030089D01*
X035643Y030091D01*
X035642Y030092D01*
X035642Y030092D01*
X035640Y030094D01*
X035637Y030097D01*
X035635Y030098D01*
X035632Y030100D01*
X035630Y030101D01*
X035629Y030101D01*
X035628Y030102D01*
X035627Y030102D01*
X035626Y030102D01*
X035626Y030102D01*
X035626D01*
X035629Y030115D01*
X035632Y030115D01*
X035634Y030114D01*
X035636Y030113D01*
X035638Y030111D01*
X035640Y030110D01*
X035642Y030109D01*
X035644Y030108D01*
X035645Y030107D01*
X035646Y030106D01*
X035647Y030105D01*
X035648Y030104D01*
X035649Y030103D01*
X035650Y030102D01*
X035650Y030101D01*
X035650Y030101D01*
X035651Y030101D01*
X035652Y030099D01*
X035653Y030097D01*
X035654Y030095D01*
X035655Y030093D01*
X035656Y030088D01*
X035657Y030085D01*
X035658Y030083D01*
X035658Y030081D01*
X035658Y030079D01*
X035658Y030078D01*
X035658Y030077D01*
Y030076D01*
X035658Y030071D01*
X035657Y030066D01*
X035656Y030062D01*
X035656Y030060D01*
X035655Y030059D01*
X035655Y030057D01*
X035654Y030056D01*
X035654Y030054D01*
X035653Y030053D01*
X035653Y030052D01*
X035653Y030052D01*
X035652Y030051D01*
X035652Y030051D01*
X035650Y030047D01*
X035647Y030044D01*
X035644Y030041D01*
X035641Y030039D01*
X035638Y030037D01*
X035637Y030036D01*
X035636Y030036D01*
X035636Y030035D01*
X035635Y030035D01*
X035635Y030034D01*
X035634Y030034D01*
X035630Y030032D01*
X035625Y030031D01*
X035621Y030030D01*
X035616Y030029D01*
X035615Y030029D01*
X035613Y030029D01*
X035611Y030029D01*
X035610D01*
X035609Y030028D01*
X035608D01*
X035607D01*
X035607D01*
X035602Y030029D01*
X035597Y030029D01*
X035592Y030030D01*
X035590Y030031D01*
X035588Y030031D01*
X035587Y030031D01*
X035585Y030032D01*
X035583Y030032D01*
X035582Y030033D01*
X035581Y030033D01*
X035581Y030033D01*
X035580Y030034D01*
X035580D01*
X035576Y030036D01*
X035572Y030038D01*
X035569Y030041D01*
X035567Y030042D01*
X035566Y030043D01*
X035565Y030045D01*
X035564Y030046D01*
X035563Y030047D01*
X035562Y030048D01*
X035562Y030048D01*
X035561Y030049D01*
X035561Y030049D01*
X035561Y030049D01*
X035560Y030051D01*
X035559Y030053D01*
X035557Y030058D01*
X035556Y030062D01*
X035555Y030066D01*
X035555Y030068D01*
X035555Y030070D01*
X035555Y030071D01*
Y030073D01*
X035554Y030074D01*
Y030076D01*
X035555Y030078D01*
X035555Y030081D01*
X035555Y030084D01*
X035556Y030086D01*
X035557Y030089D01*
X035557Y030091D01*
X035558Y030093D01*
X035559Y030095D01*
X035560Y030096D01*
X035560Y030098D01*
X035561Y030099D01*
X035562Y030100D01*
X035562Y030101D01*
X035563Y030102D01*
X035563Y030102D01*
X035563Y030102D01*
X035565Y030104D01*
X035567Y030106D01*
X035569Y030107D01*
X035571Y030109D01*
X035575Y030112D01*
X035579Y030114D01*
X035581Y030115D01*
X035582Y030115D01*
X035584Y030116D01*
X035585Y030116D01*
X035586Y030117D01*
X035587Y030117D01*
X035588Y030117D01*
X035588D01*
X035591Y030104D01*
D02*
G37*
G36*
X037863Y028582D02*
X037865Y028584D01*
X037866Y028585D01*
X037867Y028586D01*
X037868Y028586D01*
X037868Y028587D01*
X037869Y028587D01*
X037869Y028587D01*
X037870Y028588D01*
X037870Y028589D01*
X037872Y028591D01*
X037875Y028593D01*
X037877Y028596D01*
X037879Y028598D01*
X037879Y028599D01*
X037880Y028600D01*
X037881Y028601D01*
X037881Y028601D01*
X037882Y028602D01*
X037882Y028602D01*
X037884Y028604D01*
X037886Y028606D01*
X037888Y028608D01*
X037889Y028610D01*
X037891Y028612D01*
X037892Y028614D01*
X037894Y028615D01*
X037895Y028616D01*
X037896Y028617D01*
X037897Y028618D01*
X037897Y028619D01*
X037898Y028620D01*
X037899Y028620D01*
X037899Y028621D01*
X037902Y028623D01*
X037904Y028624D01*
X037906Y028626D01*
X037908Y028627D01*
X037909Y028628D01*
X037911Y028628D01*
X037911Y028629D01*
X037912Y028629D01*
X037914Y028630D01*
X037916Y028630D01*
X037918Y028631D01*
X037920Y028631D01*
X037921Y028631D01*
X037923Y028631D01*
X037923D01*
X037924D01*
X037926Y028631D01*
X037928Y028631D01*
X037930Y028631D01*
X037932Y028630D01*
X037935Y028629D01*
X037938Y028627D01*
X037939Y028626D01*
X037940Y028626D01*
X037941Y028625D01*
X037942Y028624D01*
X037942Y028624D01*
X037943Y028623D01*
X037943Y028623D01*
X037943Y028623D01*
X037945Y028621D01*
X037946Y028620D01*
X037947Y028618D01*
X037948Y028616D01*
X037949Y028612D01*
X037950Y028608D01*
X037951Y028607D01*
X037951Y028605D01*
X037951Y028604D01*
X037951Y028602D01*
X037951Y028601D01*
Y028600D01*
X037951Y028597D01*
X037951Y028595D01*
X037951Y028593D01*
X037950Y028590D01*
X037950Y028588D01*
X037949Y028587D01*
X037948Y028585D01*
X037948Y028583D01*
X037947Y028582D01*
X037946Y028581D01*
X037946Y028580D01*
X037945Y028579D01*
X037945Y028578D01*
X037944Y028578D01*
X037944Y028577D01*
X037944Y028577D01*
X037942Y028576D01*
X037941Y028574D01*
X037939Y028573D01*
X037937Y028572D01*
X037934Y028570D01*
X037930Y028569D01*
X037929Y028569D01*
X037927Y028568D01*
X037926Y028568D01*
X037925Y028568D01*
X037924Y028568D01*
X037923D01*
X037923Y028567D01*
X037922D01*
X037921Y028580D01*
X037924Y028580D01*
X037927Y028581D01*
X037930Y028582D01*
X037932Y028583D01*
X037934Y028584D01*
X037935Y028585D01*
X037936Y028585D01*
X037936Y028585D01*
X037938Y028588D01*
X037939Y028590D01*
X037940Y028592D01*
X037941Y028595D01*
X037941Y028597D01*
X037941Y028598D01*
X037941Y028599D01*
Y028600D01*
X037941Y028603D01*
X037941Y028606D01*
X037940Y028608D01*
X037939Y028610D01*
X037938Y028611D01*
X037937Y028612D01*
X037936Y028613D01*
X037936Y028614D01*
X037934Y028615D01*
X037932Y028617D01*
X037930Y028618D01*
X037928Y028618D01*
X037926Y028619D01*
X037925Y028619D01*
X037924Y028619D01*
X037924D01*
X037924D01*
X037921Y028619D01*
X037918Y028618D01*
X037916Y028617D01*
X037914Y028616D01*
X037912Y028615D01*
X037910Y028614D01*
X037910Y028614D01*
X037909Y028613D01*
X037909Y028613D01*
X037909D01*
X037907Y028612D01*
X037906Y028610D01*
X037904Y028609D01*
X037902Y028607D01*
X037899Y028603D01*
X037895Y028600D01*
X037894Y028598D01*
X037892Y028596D01*
X037891Y028595D01*
X037890Y028593D01*
X037889Y028592D01*
X037888Y028591D01*
X037888Y028591D01*
X037888Y028591D01*
X037885Y028587D01*
X037882Y028584D01*
X037879Y028581D01*
X037877Y028579D01*
X037875Y028577D01*
X037874Y028576D01*
X037873Y028575D01*
X037873Y028575D01*
X037873D01*
X037870Y028573D01*
X037868Y028571D01*
X037865Y028570D01*
X037863Y028568D01*
X037862Y028568D01*
X037860Y028567D01*
X037859Y028567D01*
X037859Y028567D01*
X037859D01*
X037858Y028566D01*
X037856Y028566D01*
X037855Y028565D01*
X037853Y028565D01*
X037852Y028565D01*
X037851D01*
X037851D01*
X037851D01*
Y028632D01*
X037863D01*
Y028582D01*
D02*
G37*
G36*
X037886Y028542D02*
X037883Y028542D01*
X037881Y028541D01*
X037879Y028540D01*
X037877Y028539D01*
X037876Y028539D01*
X037874Y028538D01*
X037873Y028537D01*
X037871Y028536D01*
X037870Y028535D01*
X037869Y028534D01*
X037868Y028533D01*
X037868Y028533D01*
X037867Y028532D01*
X037867Y028532D01*
X037867Y028532D01*
X037867Y028532D01*
X037865Y028530D01*
X037865Y028529D01*
X037863Y028525D01*
X037862Y028522D01*
X037861Y028519D01*
X037860Y028517D01*
X037860Y028516D01*
Y028515D01*
X037860Y028514D01*
Y028513D01*
X037860Y028509D01*
X037861Y028506D01*
X037862Y028503D01*
X037863Y028501D01*
X037863Y028499D01*
X037864Y028498D01*
X037864Y028497D01*
X037864Y028496D01*
X037865Y028496D01*
X037865Y028496D01*
Y028496D01*
X037867Y028493D01*
X037869Y028491D01*
X037871Y028489D01*
X037874Y028487D01*
X037876Y028486D01*
X037878Y028485D01*
X037878Y028484D01*
X037879Y028484D01*
X037879Y028484D01*
X037879D01*
X037883Y028483D01*
X037887Y028482D01*
X037890Y028481D01*
X037894Y028481D01*
X037896Y028481D01*
X037897Y028481D01*
X037898D01*
X037899Y028480D01*
X037900D01*
X037901D01*
X037901D01*
X037902D01*
X037905Y028481D01*
X037909Y028481D01*
X037912Y028481D01*
X037915Y028482D01*
X037917Y028482D01*
X037918Y028483D01*
X037919Y028483D01*
X037920Y028483D01*
X037920Y028483D01*
X037921Y028483D01*
X037921D01*
X037924Y028485D01*
X037927Y028486D01*
X037930Y028488D01*
X037932Y028490D01*
X037934Y028492D01*
X037935Y028493D01*
X037935Y028494D01*
X037936Y028494D01*
Y028494D01*
X037938Y028497D01*
X037939Y028501D01*
X037940Y028504D01*
X037941Y028507D01*
X037941Y028510D01*
X037941Y028511D01*
Y028512D01*
X037941Y028513D01*
Y028514D01*
X037941Y028517D01*
X037941Y028521D01*
X037940Y028523D01*
X037939Y028526D01*
X037938Y028528D01*
X037937Y028529D01*
X037937Y028530D01*
X037936Y028530D01*
X037934Y028533D01*
X037932Y028535D01*
X037929Y028537D01*
X037926Y028538D01*
X037924Y028539D01*
X037923Y028540D01*
X037922Y028540D01*
X037921Y028540D01*
X037921Y028541D01*
X037921Y028541D01*
X037920D01*
X037923Y028554D01*
X037926Y028553D01*
X037928Y028552D01*
X037931Y028551D01*
X037933Y028550D01*
X037935Y028549D01*
X037936Y028547D01*
X037938Y028546D01*
X037940Y028545D01*
X037941Y028544D01*
X037942Y028543D01*
X037943Y028542D01*
X037944Y028541D01*
X037944Y028540D01*
X037945Y028540D01*
X037945Y028540D01*
X037945Y028539D01*
X037946Y028537D01*
X037948Y028535D01*
X037949Y028533D01*
X037950Y028531D01*
X037951Y028527D01*
X037952Y028523D01*
X037952Y028521D01*
X037952Y028519D01*
X037952Y028518D01*
X037953Y028517D01*
X037953Y028516D01*
Y028514D01*
X037952Y028509D01*
X037952Y028505D01*
X037951Y028501D01*
X037950Y028499D01*
X037950Y028497D01*
X037949Y028495D01*
X037948Y028494D01*
X037948Y028493D01*
X037948Y028492D01*
X037947Y028491D01*
X037947Y028490D01*
X037947Y028490D01*
X037947Y028490D01*
X037944Y028486D01*
X037941Y028482D01*
X037938Y028480D01*
X037935Y028477D01*
X037933Y028475D01*
X037932Y028474D01*
X037931Y028474D01*
X037930Y028473D01*
X037929Y028473D01*
X037929Y028473D01*
X037929Y028473D01*
X037924Y028471D01*
X037920Y028469D01*
X037915Y028468D01*
X037911Y028468D01*
X037909Y028467D01*
X037907Y028467D01*
X037906Y028467D01*
X037904D01*
X037903Y028467D01*
X037902D01*
X037902D01*
X037902D01*
X037896Y028467D01*
X037891Y028468D01*
X037887Y028468D01*
X037885Y028469D01*
X037883Y028469D01*
X037881Y028470D01*
X037879Y028470D01*
X037878Y028471D01*
X037877Y028471D01*
X037876Y028472D01*
X037875Y028472D01*
X037875Y028472D01*
X037875D01*
X037870Y028474D01*
X037866Y028477D01*
X037863Y028479D01*
X037862Y028481D01*
X037860Y028482D01*
X037859Y028483D01*
X037858Y028484D01*
X037857Y028485D01*
X037857Y028486D01*
X037856Y028486D01*
X037856Y028487D01*
X037856Y028487D01*
X037855Y028488D01*
X037854Y028490D01*
X037853Y028492D01*
X037852Y028496D01*
X037850Y028500D01*
X037850Y028504D01*
X037849Y028507D01*
X037849Y028508D01*
X037849Y028510D01*
Y028511D01*
X037849Y028512D01*
Y028514D01*
X037849Y028517D01*
X037849Y028520D01*
X037850Y028522D01*
X037850Y028525D01*
X037851Y028527D01*
X037852Y028529D01*
X037852Y028531D01*
X037853Y028533D01*
X037854Y028535D01*
X037855Y028536D01*
X037855Y028537D01*
X037856Y028539D01*
X037857Y028539D01*
X037857Y028540D01*
X037857Y028540D01*
X037857Y028540D01*
X037859Y028542D01*
X037861Y028544D01*
X037863Y028546D01*
X037865Y028547D01*
X037869Y028550D01*
X037873Y028552D01*
X037875Y028553D01*
X037877Y028554D01*
X037878Y028554D01*
X037880Y028555D01*
X037881Y028555D01*
X037882Y028555D01*
X037882Y028556D01*
X037882D01*
X037886Y028542D01*
D02*
G37*
G36*
X037951Y029370D02*
X037949Y029368D01*
X037947Y029367D01*
X037944Y029365D01*
X037942Y029363D01*
X037941Y029361D01*
X037939Y029360D01*
X037939Y029359D01*
X037938Y029359D01*
X037938Y029359D01*
X037938Y029359D01*
X037935Y029356D01*
X037933Y029352D01*
X037931Y029350D01*
X037929Y029347D01*
X037928Y029344D01*
X037927Y029343D01*
X037927Y029342D01*
X037927Y029342D01*
X037926Y029341D01*
X037926Y029341D01*
Y029341D01*
X037914D01*
X037915Y029343D01*
X037916Y029345D01*
X037917Y029347D01*
X037918Y029349D01*
X037919Y029351D01*
X037920Y029352D01*
X037920Y029353D01*
X037921Y029353D01*
Y029353D01*
X037922Y029356D01*
X037924Y029358D01*
X037925Y029360D01*
X037926Y029362D01*
X037927Y029363D01*
X037928Y029364D01*
X037929Y029365D01*
X037929Y029365D01*
X037851D01*
Y029378D01*
X037951D01*
Y029370D01*
D02*
G37*
G36*
X037886Y029306D02*
X037883Y029306D01*
X037881Y029305D01*
X037879Y029304D01*
X037877Y029304D01*
X037876Y029303D01*
X037874Y029302D01*
X037873Y029301D01*
X037871Y029300D01*
X037870Y029299D01*
X037869Y029299D01*
X037868Y029298D01*
X037868Y029297D01*
X037867Y029297D01*
X037867Y029296D01*
X037867Y029296D01*
X037867Y029296D01*
X037865Y029294D01*
X037865Y029293D01*
X037863Y029290D01*
X037862Y029287D01*
X037861Y029284D01*
X037860Y029281D01*
X037860Y029280D01*
Y029279D01*
X037860Y029278D01*
Y029277D01*
X037860Y029274D01*
X037861Y029271D01*
X037862Y029268D01*
X037863Y029265D01*
X037863Y029263D01*
X037864Y029262D01*
X037864Y029261D01*
X037864Y029261D01*
X037865Y029260D01*
X037865Y029260D01*
Y029260D01*
X037867Y029257D01*
X037869Y029255D01*
X037871Y029253D01*
X037874Y029251D01*
X037876Y029250D01*
X037878Y029249D01*
X037878Y029249D01*
X037879Y029248D01*
X037879Y029248D01*
X037879D01*
X037883Y029247D01*
X037887Y029246D01*
X037890Y029246D01*
X037894Y029245D01*
X037896Y029245D01*
X037897Y029245D01*
X037898D01*
X037899Y029245D01*
X037900D01*
X037901D01*
X037901D01*
X037902D01*
X037905Y029245D01*
X037909Y029245D01*
X037912Y029246D01*
X037915Y029246D01*
X037917Y029247D01*
X037918Y029247D01*
X037919Y029247D01*
X037920Y029247D01*
X037920Y029248D01*
X037921Y029248D01*
X037921D01*
X037924Y029249D01*
X037927Y029251D01*
X037930Y029253D01*
X037932Y029254D01*
X037934Y029256D01*
X037935Y029257D01*
X037935Y029258D01*
X037936Y029259D01*
Y029259D01*
X037938Y029262D01*
X037939Y029265D01*
X037940Y029268D01*
X037941Y029271D01*
X037941Y029274D01*
X037941Y029275D01*
Y029276D01*
X037941Y029277D01*
Y029278D01*
X037941Y029282D01*
X037941Y029285D01*
X037940Y029288D01*
X037939Y029290D01*
X037938Y029292D01*
X037937Y029294D01*
X037937Y029294D01*
X037936Y029295D01*
X037934Y029297D01*
X037932Y029299D01*
X037929Y029301D01*
X037926Y029302D01*
X037924Y029304D01*
X037923Y029304D01*
X037922Y029304D01*
X037921Y029305D01*
X037921Y029305D01*
X037921Y029305D01*
X037920D01*
X037923Y029318D01*
X037926Y029317D01*
X037928Y029316D01*
X037931Y029315D01*
X037933Y029314D01*
X037935Y029313D01*
X037936Y029312D01*
X037938Y029311D01*
X037940Y029309D01*
X037941Y029308D01*
X037942Y029307D01*
X037943Y029306D01*
X037944Y029305D01*
X037944Y029305D01*
X037945Y029304D01*
X037945Y029304D01*
X037945Y029304D01*
X037946Y029302D01*
X037948Y029300D01*
X037949Y029298D01*
X037950Y029295D01*
X037951Y029291D01*
X037952Y029287D01*
X037952Y029285D01*
X037952Y029284D01*
X037952Y029282D01*
X037953Y029281D01*
X037953Y029280D01*
Y029278D01*
X037952Y029274D01*
X037952Y029269D01*
X037951Y029265D01*
X037950Y029263D01*
X037950Y029261D01*
X037949Y029260D01*
X037948Y029258D01*
X037948Y029257D01*
X037948Y029256D01*
X037947Y029255D01*
X037947Y029255D01*
X037947Y029254D01*
X037947Y029254D01*
X037944Y029250D01*
X037941Y029247D01*
X037938Y029244D01*
X037935Y029241D01*
X037933Y029240D01*
X037932Y029239D01*
X037931Y029238D01*
X037930Y029238D01*
X037929Y029237D01*
X037929Y029237D01*
X037929Y029237D01*
X037924Y029235D01*
X037920Y029234D01*
X037915Y029233D01*
X037911Y029232D01*
X037909Y029232D01*
X037907Y029231D01*
X037906Y029231D01*
X037904D01*
X037903Y029231D01*
X037902D01*
X037902D01*
X037902D01*
X037896Y029231D01*
X037891Y029232D01*
X037887Y029233D01*
X037885Y029233D01*
X037883Y029234D01*
X037881Y029234D01*
X037879Y029235D01*
X037878Y029235D01*
X037877Y029235D01*
X037876Y029236D01*
X037875Y029236D01*
X037875Y029236D01*
X037875D01*
X037870Y029239D01*
X037866Y029241D01*
X037863Y029244D01*
X037862Y029245D01*
X037860Y029246D01*
X037859Y029247D01*
X037858Y029248D01*
X037857Y029249D01*
X037857Y029250D01*
X037856Y029251D01*
X037856Y029251D01*
X037856Y029252D01*
X037855Y029252D01*
X037854Y029254D01*
X037853Y029256D01*
X037852Y029260D01*
X037850Y029265D01*
X037850Y029269D01*
X037849Y029271D01*
X037849Y029273D01*
X037849Y029274D01*
Y029275D01*
X037849Y029277D01*
Y029278D01*
X037849Y029281D01*
X037849Y029284D01*
X037850Y029286D01*
X037850Y029289D01*
X037851Y029291D01*
X037852Y029293D01*
X037852Y029295D01*
X037853Y029297D01*
X037854Y029299D01*
X037855Y029301D01*
X037855Y029302D01*
X037856Y029303D01*
X037857Y029304D01*
X037857Y029304D01*
X037857Y029305D01*
X037857Y029305D01*
X037859Y029307D01*
X037861Y029309D01*
X037863Y029310D01*
X037865Y029312D01*
X037869Y029314D01*
X037873Y029316D01*
X037875Y029317D01*
X037877Y029318D01*
X037878Y029319D01*
X037880Y029319D01*
X037881Y029319D01*
X037882Y029320D01*
X037882Y029320D01*
X037882D01*
X037886Y029306D01*
D02*
G37*
%LPC*%
G36*
X035628Y029752D02*
X035628D01*
X035628D01*
X035626Y029752D01*
X035624Y029752D01*
X035623Y029752D01*
X035621Y029751D01*
X035620Y029751D01*
X035619Y029750D01*
X035619Y029750D01*
X035619Y029750D01*
X035617Y029749D01*
X035616Y029747D01*
X035615Y029746D01*
X035614Y029745D01*
X035614Y029744D01*
X035613Y029743D01*
X035613Y029742D01*
X035613Y029742D01*
X035612Y029740D01*
X035612Y029738D01*
X035611Y029735D01*
X035611Y029733D01*
X035611Y029731D01*
X035611Y029729D01*
Y029699D01*
X035644D01*
Y029731D01*
X035644Y029735D01*
X035643Y029738D01*
X035643Y029741D01*
X035642Y029743D01*
X035641Y029745D01*
X035640Y029746D01*
X035640Y029747D01*
X035639Y029747D01*
X035638Y029749D01*
X035636Y029750D01*
X035634Y029751D01*
X035632Y029752D01*
X035630Y029752D01*
X035629Y029752D01*
X035628Y029752D01*
D02*
G37*
G36*
X035479Y029493D02*
Y029448D01*
X035511D01*
X035479Y029493D01*
D02*
G37*
G36*
X035597Y028130D02*
X035597D01*
X035597D01*
X035596D01*
X035593Y028129D01*
X035589Y028129D01*
X035587Y028128D01*
X035584Y028127D01*
X035582Y028126D01*
X035581Y028125D01*
X035580Y028124D01*
X035580Y028124D01*
X035578Y028122D01*
X035576Y028119D01*
X035575Y028117D01*
X035575Y028115D01*
X035574Y028113D01*
X035574Y028111D01*
X035574Y028111D01*
Y028110D01*
X035574Y028107D01*
X035575Y028104D01*
X035576Y028102D01*
X035577Y028099D01*
X035578Y028098D01*
X035579Y028097D01*
X035580Y028096D01*
X035580Y028096D01*
X035582Y028094D01*
X035585Y028092D01*
X035587Y028091D01*
X035590Y028091D01*
X035592Y028090D01*
X035593Y028090D01*
X035594D01*
X035595Y028090D01*
X035595D01*
X035595D01*
X035595D01*
X035599Y028090D01*
X035603Y028091D01*
X035606Y028092D01*
X035608Y028093D01*
X035610Y028094D01*
X035612Y028095D01*
X035612Y028095D01*
X035613Y028096D01*
X035613Y028096D01*
X035613D01*
X035614Y028097D01*
X035615Y028098D01*
X035617Y028101D01*
X035618Y028103D01*
X035619Y028105D01*
X035619Y028107D01*
X035620Y028109D01*
X035620Y028109D01*
Y028112D01*
X035619Y028113D01*
X035619Y028116D01*
X035618Y028118D01*
X035617Y028120D01*
X035615Y028122D01*
X035614Y028123D01*
X035614Y028124D01*
X035614Y028124D01*
X035613D01*
X035611Y028126D01*
X035608Y028127D01*
X035605Y028128D01*
X035603Y028129D01*
X035600Y028129D01*
X035599Y028129D01*
X035598D01*
X035597Y028130D01*
D02*
G37*
G36*
X035632Y030178D02*
X035631D01*
X035631D01*
X035631D01*
X035628Y030178D01*
X035626Y030177D01*
X035624Y030176D01*
X035623Y030175D01*
X035621Y030175D01*
X035621Y030174D01*
X035620Y030173D01*
X035620Y030173D01*
X035618Y030171D01*
X035617Y030169D01*
X035616Y030167D01*
X035616Y030166D01*
X035616Y030164D01*
X035615Y030163D01*
X035615Y030162D01*
Y030161D01*
X035615Y030159D01*
X035616Y030156D01*
X035617Y030154D01*
X035618Y030153D01*
X035618Y030151D01*
X035619Y030150D01*
X035620Y030150D01*
X035620Y030149D01*
X035621Y030148D01*
X035624Y030147D01*
X035625Y030146D01*
X035627Y030146D01*
X035629Y030145D01*
X035630Y030145D01*
X035631Y030145D01*
X035631D01*
X035631D01*
X035634Y030145D01*
X035636Y030146D01*
X035638Y030146D01*
X035639Y030147D01*
X035640Y030148D01*
X035641Y030149D01*
X035642Y030149D01*
X035642Y030149D01*
X035644Y030151D01*
X035645Y030153D01*
X035646Y030155D01*
X035646Y030157D01*
X035647Y030159D01*
X035647Y030160D01*
Y030161D01*
X035647Y030164D01*
X035646Y030166D01*
X035645Y030168D01*
X035645Y030170D01*
X035644Y030171D01*
X035643Y030172D01*
X035642Y030173D01*
X035642Y030173D01*
X035640Y030175D01*
X035638Y030176D01*
X035637Y030177D01*
X035635Y030177D01*
X035633Y030177D01*
X035632Y030178D01*
D02*
G37*
G36*
X035586Y030182D02*
X035585D01*
X035585D01*
X035585D01*
X035582Y030182D01*
X035579Y030181D01*
X035576Y030180D01*
X035574Y030179D01*
X035573Y030178D01*
X035571Y030177D01*
X035571Y030176D01*
X035570Y030176D01*
X035568Y030174D01*
X035567Y030171D01*
X035566Y030169D01*
X035565Y030167D01*
X035565Y030165D01*
X035565Y030163D01*
X035565Y030162D01*
Y030161D01*
X035565Y030159D01*
X035565Y030157D01*
X035566Y030155D01*
X035566Y030154D01*
X035566Y030153D01*
X035567Y030152D01*
X035567Y030151D01*
X035567Y030151D01*
X035568Y030149D01*
X035570Y030147D01*
X035571Y030146D01*
X035572Y030145D01*
X035573Y030144D01*
X035574Y030144D01*
X035575Y030143D01*
X035575Y030143D01*
X035577Y030143D01*
X035579Y030142D01*
X035580Y030141D01*
X035582Y030141D01*
X035583Y030141D01*
X035584Y030141D01*
X035585D01*
X035585D01*
X035588Y030141D01*
X035591Y030142D01*
X035593Y030143D01*
X035596Y030144D01*
X035597Y030145D01*
X035598Y030146D01*
X035599Y030146D01*
X035599Y030147D01*
X035601Y030149D01*
X035603Y030151D01*
X035604Y030154D01*
X035605Y030156D01*
X035605Y030158D01*
X035605Y030159D01*
X035605Y030160D01*
Y030161D01*
X035605Y030164D01*
X035604Y030167D01*
X035603Y030170D01*
X035602Y030172D01*
X035601Y030174D01*
X035600Y030175D01*
X035600Y030176D01*
X035599Y030176D01*
X035597Y030178D01*
X035595Y030179D01*
X035592Y030180D01*
X035590Y030181D01*
X035588Y030182D01*
X035586Y030182D01*
X035586Y030182D01*
D02*
G37*
%LPD*%
D10*
X035047Y029353D02*
G03*
X035047Y029353I-000005J000000D01*
G01*
X037330Y029529D02*
G03*
X037330Y029529I-000005J000000D01*
G01*
X035082Y029363D02*
X036002D01*
X035082Y028543D02*
X036002D01*
X035082D02*
Y029363D01*
X036002Y028543D02*
Y029363D01*
X037335Y028415D02*
Y029485D01*
X036065Y028415D02*
Y029485D01*
X037335D01*
X036065Y028415D02*
X037335D01*
D33*
X036621Y028850D02*
X036779D01*
Y029007D01*
M02*
