G04*
G04 #@! TF.GenerationSoftware,Altium Limited,Altium Designer,23.4.1 (23)*
G04*
G04 Layer_Color=16711935*
%FSAX24Y24*%
%MOIN*%
G70*
G04*
G04 #@! TF.SameCoordinates,053CF3D6-A104-4983-855F-C29F7C55F3EF*
G04*
G04*
G04 #@! TF.FilePolarity,Positive*
G04*
G01*
G75*
%ADD32C,0.0010*%
%ADD34C,0.0000*%
D32*
X037389Y029027D02*
X037889Y028527D01*
X037389Y029354D02*
X038098D01*
Y028527D02*
Y029354D01*
X037389Y028527D02*
X038098D01*
X037389D02*
Y029354D01*
X035771Y029346D02*
X036181D01*
X035771Y028936D02*
Y029346D01*
Y028936D02*
X036181D01*
Y029346D01*
X036306Y029056D02*
X036806Y028556D01*
X037094D02*
Y029344D01*
X036306D02*
X037094D01*
X036306Y028556D02*
Y029344D01*
Y028556D02*
X037094D01*
X036710Y028340D02*
X037210Y028840D01*
Y029098D02*
Y029196D01*
X037170D02*
X037210D01*
X037170Y029098D02*
Y029196D01*
Y029098D02*
X037210D01*
Y028901D02*
Y028999D01*
X037170D02*
X037210D01*
X037170Y028901D02*
Y028999D01*
Y028901D02*
X037210D01*
Y028704D02*
Y028802D01*
X037170D02*
X037210D01*
X037170Y028704D02*
Y028802D01*
Y028704D02*
X037210D01*
X036946Y028340D02*
X037044D01*
Y028380D01*
X036946D02*
X037044D01*
X036946Y028340D02*
Y028380D01*
X036749Y028340D02*
X036848D01*
Y028380D01*
X036749D02*
X036848D01*
X036749Y028340D02*
Y028380D01*
X036552Y028340D02*
X036651D01*
Y028380D01*
X036552D02*
X036651D01*
X036552Y028340D02*
Y028380D01*
X036356Y028340D02*
X036454D01*
Y028380D01*
X036356D02*
X036454D01*
X036356Y028340D02*
Y028380D01*
X036190Y028704D02*
Y028802D01*
Y028704D02*
X036230D01*
Y028802D01*
X036190D02*
X036230D01*
X036190Y028901D02*
Y028999D01*
Y028901D02*
X036230D01*
Y028999D01*
X036190D02*
X036230D01*
X036190Y029098D02*
Y029196D01*
Y029098D02*
X036230D01*
Y029196D01*
X036190D02*
X036230D01*
X036356Y029560D02*
X036454D01*
X036356Y029520D02*
Y029560D01*
Y029520D02*
X036454D01*
Y029560D01*
X036552D02*
X036651D01*
X036552Y029520D02*
Y029560D01*
Y029520D02*
X036651D01*
Y029560D01*
X036749D02*
X036848D01*
X036749Y029520D02*
Y029560D01*
Y029520D02*
X036848D01*
Y029560D01*
X036946D02*
X037044D01*
X036946Y029520D02*
Y029560D01*
Y029520D02*
X037044D01*
Y029560D01*
X036190Y028340D02*
Y029560D01*
X037210D01*
Y028340D02*
Y029560D01*
X036190Y028340D02*
X037210D01*
X037849Y028642D02*
X038069D01*
X037849D02*
Y029072D01*
X038069D01*
Y028642D02*
Y029072D01*
X037849Y028912D02*
Y029072D01*
X038069D01*
Y028912D02*
Y029072D01*
X037849Y028912D02*
X038069D01*
Y028642D02*
Y028802D01*
X037849Y028642D02*
X038069D01*
X037849D02*
Y028802D01*
X038069D01*
X037663Y028097D02*
Y028377D01*
X037503Y028097D02*
X037663D01*
X037503D02*
Y028377D01*
X037663D01*
X037823Y028097D02*
Y028377D01*
X037983D01*
Y028097D02*
Y028377D01*
X037823Y028097D02*
X037983D01*
X037503Y028377D02*
X037983D01*
Y028097D02*
Y028377D01*
X037503Y028097D02*
X037983D01*
X037503D02*
Y028377D01*
X035362Y028358D02*
Y028638D01*
X035202Y028358D02*
X035362D01*
X035202D02*
Y028638D01*
X035362D01*
X035522Y028358D02*
Y028638D01*
X035682D01*
Y028358D02*
Y028638D01*
X035522Y028358D02*
X035682D01*
X035202Y028638D02*
X035682D01*
Y028358D02*
Y028638D01*
X035202Y028358D02*
X035682D01*
X035202D02*
Y028638D01*
X035283Y028562D02*
Y028842D01*
X035123D02*
X035283D01*
X035123Y028562D02*
Y028842D01*
Y028562D02*
X035283D01*
X035443D02*
Y028842D01*
Y028562D02*
X035603D01*
Y028842D01*
X035443D02*
X035603D01*
X035123Y028562D02*
X035603D01*
Y028842D01*
X035123D02*
X035603D01*
X035123Y028562D02*
Y028842D01*
X035446Y028992D02*
Y029272D01*
Y028992D02*
X035606D01*
Y029272D01*
X035446D02*
X035606D01*
X035286Y028992D02*
Y029272D01*
X035126D02*
X035286D01*
X035126Y028992D02*
Y029272D01*
Y028992D02*
X035286D01*
X035126Y029272D02*
X035606D01*
X035126Y028992D02*
Y029272D01*
Y028992D02*
X035606D01*
Y029272D01*
X037663Y029479D02*
Y029759D01*
X037503Y029479D02*
X037663D01*
X037503D02*
Y029759D01*
X037663D01*
X037823Y029479D02*
Y029759D01*
X037983D01*
Y029479D02*
Y029759D01*
X037823Y029479D02*
X037983D01*
X037503Y029759D02*
X037983D01*
Y029479D02*
Y029759D01*
X037503Y029479D02*
X037983D01*
X037503D02*
Y029759D01*
X037427Y028562D02*
Y028842D01*
X037267D02*
X037427D01*
X037267Y028562D02*
Y028842D01*
Y028562D02*
X037427D01*
X037587D02*
Y028842D01*
Y028562D02*
X037747D01*
Y028842D01*
X037587D02*
X037747D01*
X037267Y028562D02*
X037747D01*
Y028842D01*
X037267D02*
X037747D01*
X037267Y028562D02*
Y028842D01*
X037587Y028992D02*
Y029272D01*
Y028992D02*
X037747D01*
Y029272D01*
X037587D02*
X037747D01*
X037427Y028992D02*
Y029272D01*
X037267D02*
X037427D01*
X037267Y028992D02*
Y029272D01*
Y028992D02*
X037427D01*
X037267Y029272D02*
X037747D01*
X037267Y028992D02*
Y029272D01*
Y028992D02*
X037747D01*
Y029272D01*
X035362Y028801D02*
Y029081D01*
X035202Y028801D02*
X035362D01*
X035202D02*
Y029081D01*
X035362D01*
X035522Y028801D02*
Y029081D01*
X035682D01*
Y028801D02*
Y029081D01*
X035522Y028801D02*
X035682D01*
X035202Y029081D02*
X035682D01*
Y028801D02*
Y029081D01*
X035202Y028801D02*
X035682D01*
X035202D02*
Y029081D01*
X035362Y029244D02*
Y029524D01*
X035202Y029244D02*
X035362D01*
X035202D02*
Y029524D01*
X035362D01*
X035522Y029244D02*
Y029524D01*
X035682D01*
Y029244D02*
Y029524D01*
X035522Y029244D02*
X035682D01*
X035202Y029524D02*
X035682D01*
Y029244D02*
Y029524D01*
X035202Y029244D02*
X035682D01*
X035202D02*
Y029524D01*
D34*
X036096Y028936D02*
G03*
X035856Y028936I-000120J000000D01*
G01*
M02*
