G04*
G04 #@! TF.GenerationSoftware,Altium Limited,Altium Designer,23.4.1 (23)*
G04*
G04 Layer_Color=32896*
%FSAX24Y24*%
%MOIN*%
G70*
G04*
G04 #@! TF.SameCoordinates,053CF3D6-A104-4983-855F-C29F7C55F3EF*
G04*
G04*
G04 #@! TF.FilePolarity,Positive*
G04*
G01*
G75*
%ADD10C,0.0020*%
%ADD24C,0.0039*%
%ADD32C,0.0010*%
G36*
X036602Y029097D02*
X036617Y029077D01*
X036610D01*
X036601Y029090D01*
Y029090D01*
X036601Y029090D01*
X036600Y029091D01*
X036600Y029092D01*
X036599Y029093D01*
Y029092D01*
X036599Y029092D01*
X036599Y029092D01*
X036598Y029092D01*
X036598Y029091D01*
X036598Y029090D01*
X036597Y029090D01*
X036588Y029077D01*
X036581D01*
X036596Y029097D01*
X036583Y029115D01*
X036589D01*
X036596Y029105D01*
X036596Y029105D01*
X036597Y029105D01*
X036597Y029104D01*
X036597Y029103D01*
X036598Y029102D01*
X036599Y029101D01*
X036599Y029101D01*
X036599Y029101D01*
X036599Y029101D01*
X036600Y029101D01*
X036600Y029102D01*
X036601Y029103D01*
X036601Y029103D01*
X036602Y029105D01*
X036610Y029115D01*
X036616D01*
X036602Y029097D01*
D02*
G37*
G36*
X036841Y028881D02*
X036856Y028859D01*
X036850D01*
X036843Y028870D01*
X036842Y028871D01*
X036841Y028873D01*
X036840Y028874D01*
X036840Y028875D01*
X036839Y028876D01*
X036839Y028876D01*
X036839Y028877D01*
X036838Y028877D01*
X036837Y028874D01*
X036836Y028873D01*
X036836Y028872D01*
X036835Y028872D01*
X036835Y028871D01*
X036835Y028870D01*
X036835Y028870D01*
X036827Y028859D01*
X036821D01*
X036836Y028881D01*
Y028897D01*
X036841D01*
Y028881D01*
D02*
G37*
G36*
X036062Y030203D02*
X036066Y030203D01*
X036070Y030202D01*
X036074Y030202D01*
X036078Y030201D01*
X036081Y030200D01*
X036084Y030198D01*
X036087Y030197D01*
X036089Y030196D01*
X036091Y030195D01*
X036093Y030194D01*
X036095Y030193D01*
X036096Y030192D01*
X036097Y030191D01*
X036097Y030191D01*
X036097Y030190D01*
X036100Y030188D01*
X036102Y030185D01*
X036105Y030182D01*
X036106Y030179D01*
X036109Y030173D01*
X036111Y030167D01*
X036112Y030164D01*
X036113Y030161D01*
X036113Y030159D01*
X036114Y030157D01*
X036114Y030155D01*
Y030154D01*
X036115Y030153D01*
Y030153D01*
X036092Y030150D01*
X036092Y030156D01*
X036091Y030161D01*
X036089Y030166D01*
X036087Y030170D01*
X036086Y030173D01*
X036084Y030175D01*
X036083Y030176D01*
X036083Y030176D01*
X036079Y030180D01*
X036075Y030182D01*
X036071Y030184D01*
X036067Y030185D01*
X036063Y030185D01*
X036060Y030186D01*
X036059Y030186D01*
X036058D01*
X036052Y030186D01*
X036047Y030185D01*
X036043Y030183D01*
X036040Y030182D01*
X036037Y030180D01*
X036035Y030179D01*
X036034Y030177D01*
X036033Y030177D01*
X036030Y030173D01*
X036028Y030170D01*
X036026Y030166D01*
X036025Y030163D01*
X036024Y030160D01*
X036024Y030157D01*
X036024Y030156D01*
Y030156D01*
Y030155D01*
X036024Y030151D01*
X036026Y030146D01*
X036027Y030142D01*
X036029Y030137D01*
X036031Y030134D01*
X036033Y030131D01*
X036033Y030130D01*
X036034Y030130D01*
X036034Y030129D01*
Y030129D01*
X036036Y030126D01*
X036039Y030123D01*
X036042Y030120D01*
X036045Y030117D01*
X036051Y030111D01*
X036058Y030105D01*
X036061Y030102D01*
X036064Y030100D01*
X036067Y030097D01*
X036069Y030095D01*
X036071Y030094D01*
X036072Y030093D01*
X036073Y030092D01*
X036073Y030092D01*
X036080Y030086D01*
X036086Y030081D01*
X036091Y030077D01*
X036094Y030073D01*
X036098Y030069D01*
X036100Y030067D01*
X036101Y030066D01*
X036102Y030065D01*
Y030065D01*
X036105Y030061D01*
X036108Y030057D01*
X036111Y030053D01*
X036113Y030049D01*
X036114Y030046D01*
X036115Y030044D01*
X036116Y030042D01*
X036116Y030042D01*
Y030042D01*
X036117Y030039D01*
X036118Y030036D01*
X036118Y030034D01*
X036118Y030031D01*
X036119Y030029D01*
Y030028D01*
Y030027D01*
Y030027D01*
X036002D01*
Y030047D01*
X036089D01*
X036085Y030052D01*
X036084Y030054D01*
X036083Y030055D01*
X036081Y030057D01*
X036080Y030058D01*
X036080Y030059D01*
X036079Y030059D01*
X036078Y030060D01*
X036077Y030061D01*
X036073Y030065D01*
X036069Y030069D01*
X036065Y030072D01*
X036060Y030076D01*
X036059Y030077D01*
X036057Y030079D01*
X036056Y030080D01*
X036055Y030081D01*
X036054Y030081D01*
X036054Y030081D01*
X036050Y030085D01*
X036046Y030088D01*
X036042Y030092D01*
X036039Y030094D01*
X036036Y030097D01*
X036033Y030100D01*
X036031Y030102D01*
X036029Y030104D01*
X036027Y030106D01*
X036025Y030108D01*
X036024Y030109D01*
X036023Y030110D01*
X036021Y030112D01*
X036021Y030112D01*
X036017Y030117D01*
X036014Y030120D01*
X036012Y030124D01*
X036010Y030127D01*
X036008Y030130D01*
X036007Y030132D01*
X036007Y030133D01*
X036006Y030134D01*
X036005Y030138D01*
X036004Y030142D01*
X036003Y030145D01*
X036002Y030148D01*
X036002Y030151D01*
X036002Y030153D01*
Y030154D01*
Y030155D01*
X036002Y030159D01*
X036003Y030162D01*
X036003Y030166D01*
X036004Y030169D01*
X036007Y030175D01*
X036009Y030180D01*
X036011Y030182D01*
X036012Y030184D01*
X036013Y030186D01*
X036015Y030187D01*
X036016Y030188D01*
X036016Y030189D01*
X036017Y030189D01*
X036017Y030189D01*
X036020Y030192D01*
X036023Y030194D01*
X036026Y030196D01*
X036029Y030198D01*
X036036Y030200D01*
X036043Y030202D01*
X036045Y030202D01*
X036048Y030203D01*
X036051Y030203D01*
X036053Y030203D01*
X036055Y030204D01*
X036057D01*
X036062Y030203D01*
D02*
G37*
G36*
X036729Y030118D02*
X036797Y030027D01*
X036769D01*
X036724Y030088D01*
X036723Y030089D01*
X036722Y030091D01*
X036719Y030095D01*
X036718Y030097D01*
X036717Y030099D01*
X036716Y030100D01*
X036716Y030100D01*
X036713Y030096D01*
X036711Y030093D01*
X036710Y030091D01*
X036709Y030090D01*
X036709Y030090D01*
X036708Y030089D01*
X036664Y030027D01*
X036635D01*
X036701Y030119D01*
X036640Y030203D01*
X036665D01*
X036700Y030156D01*
X036704Y030152D01*
X036706Y030149D01*
X036709Y030145D01*
X036711Y030142D01*
X036712Y030140D01*
X036714Y030138D01*
X036715Y030137D01*
X036715Y030136D01*
X036717Y030139D01*
X036719Y030143D01*
X036721Y030146D01*
X036723Y030150D01*
X036725Y030153D01*
X036727Y030155D01*
X036728Y030156D01*
X036728Y030157D01*
X036729Y030157D01*
Y030158D01*
X036761Y030203D01*
X036789D01*
X036729Y030118D01*
D02*
G37*
G36*
X037388Y030203D02*
X037393Y030203D01*
X037397Y030202D01*
X037401Y030201D01*
X037405Y030199D01*
X037409Y030197D01*
X037412Y030195D01*
X037416Y030194D01*
X037418Y030192D01*
X037421Y030190D01*
X037423Y030188D01*
X037424Y030187D01*
X037425Y030185D01*
X037426Y030184D01*
X037427Y030184D01*
X037427Y030183D01*
X037431Y030179D01*
X037433Y030173D01*
X037436Y030168D01*
X037438Y030162D01*
X037440Y030156D01*
X037442Y030150D01*
X037443Y030143D01*
X037444Y030137D01*
X037445Y030132D01*
X037445Y030126D01*
X037446Y030121D01*
X037446Y030117D01*
Y030114D01*
X037446Y030111D01*
Y030110D01*
Y030109D01*
Y030109D01*
Y030109D01*
X037446Y030101D01*
X037445Y030093D01*
X037445Y030086D01*
X037443Y030079D01*
X037442Y030073D01*
X037441Y030068D01*
X037439Y030063D01*
X037437Y030059D01*
X037436Y030055D01*
X037434Y030052D01*
X037433Y030049D01*
X037432Y030047D01*
X037431Y030045D01*
X037430Y030044D01*
X037429Y030044D01*
X037429Y030043D01*
X037426Y030040D01*
X037422Y030037D01*
X037419Y030034D01*
X037415Y030032D01*
X037411Y030030D01*
X037408Y030028D01*
X037404Y030027D01*
X037400Y030026D01*
X037397Y030025D01*
X037394Y030024D01*
X037392Y030024D01*
X037390Y030024D01*
X037387D01*
X037386Y030023D01*
X037385D01*
X037379Y030024D01*
X037374Y030025D01*
X037369Y030026D01*
X037365Y030027D01*
X037361Y030029D01*
X037359Y030030D01*
X037358Y030030D01*
X037357Y030031D01*
X037357Y030031D01*
X037356D01*
X037352Y030034D01*
X037348Y030038D01*
X037345Y030041D01*
X037342Y030045D01*
X037340Y030048D01*
X037338Y030050D01*
X037337Y030052D01*
X037337Y030052D01*
X037337Y030053D01*
Y030053D01*
X037334Y030058D01*
X037332Y030064D01*
X037331Y030069D01*
X037330Y030074D01*
X037330Y030078D01*
Y030079D01*
X037329Y030081D01*
Y030082D01*
Y030083D01*
Y030083D01*
Y030084D01*
X037330Y030088D01*
X037330Y030093D01*
X037331Y030097D01*
X037332Y030101D01*
X037333Y030104D01*
X037334Y030108D01*
X037335Y030111D01*
X037337Y030114D01*
X037339Y030116D01*
X037340Y030119D01*
X037341Y030120D01*
X037342Y030122D01*
X037343Y030123D01*
X037344Y030124D01*
X037344Y030125D01*
X037345Y030125D01*
X037347Y030128D01*
X037350Y030130D01*
X037354Y030132D01*
X037357Y030134D01*
X037360Y030136D01*
X037363Y030137D01*
X037369Y030139D01*
X037371Y030140D01*
X037374Y030140D01*
X037376Y030141D01*
X037378Y030141D01*
X037380Y030141D01*
X037382D01*
X037386Y030141D01*
X037391Y030140D01*
X037395Y030139D01*
X037398Y030138D01*
X037401Y030137D01*
X037404Y030136D01*
X037405Y030135D01*
X037405Y030135D01*
X037406D01*
X037410Y030133D01*
X037413Y030130D01*
X037417Y030127D01*
X037419Y030124D01*
X037421Y030121D01*
X037423Y030119D01*
X037424Y030118D01*
X037424Y030118D01*
Y030122D01*
X037424Y030127D01*
X037424Y030131D01*
X037423Y030135D01*
X037423Y030138D01*
X037423Y030142D01*
X037422Y030145D01*
X037421Y030148D01*
X037421Y030150D01*
X037420Y030152D01*
X037420Y030154D01*
X037420Y030156D01*
X037419Y030157D01*
X037419Y030157D01*
X037419Y030158D01*
Y030158D01*
X037416Y030163D01*
X037413Y030168D01*
X037411Y030171D01*
X037408Y030174D01*
X037406Y030177D01*
X037404Y030179D01*
X037403Y030180D01*
X037402Y030180D01*
X037399Y030182D01*
X037396Y030183D01*
X037393Y030184D01*
X037390Y030185D01*
X037388Y030186D01*
X037386Y030186D01*
X037384D01*
X037379Y030185D01*
X037375Y030184D01*
X037371Y030183D01*
X037368Y030181D01*
X037366Y030180D01*
X037364Y030178D01*
X037363Y030177D01*
X037362Y030176D01*
X037360Y030174D01*
X037359Y030171D01*
X037357Y030168D01*
X037356Y030165D01*
X037355Y030162D01*
X037354Y030160D01*
X037354Y030159D01*
X037354Y030158D01*
Y030158D01*
X037332Y030160D01*
X037334Y030167D01*
X037336Y030173D01*
X037339Y030179D01*
X037341Y030184D01*
X037344Y030187D01*
X037345Y030189D01*
X037346Y030190D01*
X037347Y030191D01*
X037348Y030192D01*
X037348Y030192D01*
X037348Y030192D01*
X037351Y030194D01*
X037354Y030196D01*
X037359Y030199D01*
X037365Y030201D01*
X037370Y030202D01*
X037375Y030203D01*
X037377Y030203D01*
X037379D01*
X037381Y030204D01*
X037383D01*
X037388Y030203D01*
D02*
G37*
G36*
X037642Y030027D02*
X037620D01*
Y030177D01*
X037569Y030027D01*
X037548D01*
X037497Y030174D01*
Y030027D01*
X037474D01*
Y030203D01*
X037506D01*
X037548Y030080D01*
X037550Y030073D01*
X037552Y030068D01*
X037554Y030063D01*
X037555Y030059D01*
X037556Y030056D01*
X037557Y030054D01*
X037557Y030052D01*
X037557Y030052D01*
X037558Y030055D01*
X037560Y030059D01*
X037561Y030064D01*
X037562Y030068D01*
X037564Y030072D01*
X037565Y030075D01*
X037565Y030076D01*
X037565Y030077D01*
X037566Y030078D01*
Y030078D01*
X037608Y030203D01*
X037642D01*
Y030027D01*
D02*
G37*
G36*
X035970D02*
X035948D01*
Y030177D01*
X035897Y030027D01*
X035876D01*
X035824Y030174D01*
Y030027D01*
X035802D01*
Y030203D01*
X035833D01*
X035876Y030080D01*
X035878Y030073D01*
X035880Y030068D01*
X035881Y030063D01*
X035883Y030059D01*
X035884Y030056D01*
X035884Y030054D01*
X035885Y030052D01*
X035885Y030052D01*
X035886Y030055D01*
X035887Y030059D01*
X035889Y030064D01*
X035890Y030068D01*
X035891Y030072D01*
X035892Y030075D01*
X035893Y030076D01*
X035893Y030077D01*
X035893Y030078D01*
Y030078D01*
X035935Y030203D01*
X035970D01*
Y030027D01*
D02*
G37*
G36*
X037944D02*
X037834D01*
Y030047D01*
X037921D01*
Y030203D01*
X037944D01*
Y030027D01*
D02*
G37*
G36*
X037299D02*
X037235D01*
X037230Y030027D01*
X037224Y030027D01*
X037219Y030028D01*
X037215Y030028D01*
X037212Y030029D01*
X037209Y030029D01*
X037208Y030029D01*
X037208Y030029D01*
X037207D01*
X037203Y030031D01*
X037199Y030032D01*
X037195Y030033D01*
X037192Y030035D01*
X037189Y030036D01*
X037188Y030037D01*
X037187Y030038D01*
X037186Y030038D01*
X037183Y030041D01*
X037180Y030043D01*
X037177Y030046D01*
X037175Y030048D01*
X037173Y030051D01*
X037171Y030053D01*
X037170Y030054D01*
X037170Y030054D01*
X037167Y030058D01*
X037165Y030063D01*
X037163Y030067D01*
X037161Y030071D01*
X037160Y030074D01*
X037159Y030077D01*
X037158Y030078D01*
X037158Y030079D01*
X037158Y030080D01*
Y030080D01*
X037156Y030086D01*
X037155Y030092D01*
X037154Y030098D01*
X037154Y030104D01*
X037153Y030108D01*
Y030110D01*
X037153Y030112D01*
Y030113D01*
Y030115D01*
Y030115D01*
Y030116D01*
X037153Y030124D01*
X037154Y030132D01*
X037155Y030139D01*
X037156Y030143D01*
X037157Y030145D01*
X037157Y030148D01*
X037158Y030150D01*
X037158Y030152D01*
X037159Y030154D01*
X037160Y030156D01*
X037160Y030157D01*
X037160Y030157D01*
Y030158D01*
X037163Y030164D01*
X037166Y030170D01*
X037170Y030175D01*
X037173Y030180D01*
X037176Y030183D01*
X037179Y030186D01*
X037180Y030186D01*
X037181Y030187D01*
X037181Y030187D01*
X037181Y030188D01*
X037185Y030191D01*
X037190Y030194D01*
X037194Y030196D01*
X037198Y030198D01*
X037202Y030199D01*
X037204Y030200D01*
X037205Y030200D01*
X037206D01*
X037207Y030200D01*
X037207D01*
X037211Y030201D01*
X037216Y030202D01*
X037221Y030202D01*
X037227Y030203D01*
X037231Y030203D01*
X037299D01*
Y030027D01*
D02*
G37*
G36*
X036956D02*
X036933D01*
Y030105D01*
X036903D01*
X036900Y030105D01*
X036898D01*
X036896Y030104D01*
X036895Y030104D01*
X036894D01*
X036893Y030104D01*
X036893D01*
X036889Y030103D01*
X036887Y030102D01*
X036886Y030101D01*
X036884Y030100D01*
X036883Y030100D01*
X036883Y030099D01*
X036882Y030099D01*
X036880Y030098D01*
X036878Y030096D01*
X036874Y030092D01*
X036873Y030090D01*
X036871Y030089D01*
X036871Y030088D01*
X036870Y030087D01*
X036868Y030084D01*
X036865Y030080D01*
X036862Y030076D01*
X036859Y030072D01*
X036857Y030069D01*
X036855Y030066D01*
X036855Y030065D01*
X036854Y030064D01*
X036853Y030064D01*
Y030063D01*
X036830Y030027D01*
X036801D01*
X036832Y030074D01*
X036835Y030080D01*
X036838Y030084D01*
X036842Y030088D01*
X036845Y030092D01*
X036847Y030094D01*
X036849Y030096D01*
X036850Y030097D01*
X036851Y030098D01*
X036853Y030099D01*
X036855Y030101D01*
X036860Y030104D01*
X036862Y030105D01*
X036863Y030106D01*
X036864Y030107D01*
X036865Y030107D01*
X036860Y030108D01*
X036856Y030108D01*
X036852Y030110D01*
X036848Y030111D01*
X036845Y030112D01*
X036842Y030113D01*
X036839Y030115D01*
X036837Y030116D01*
X036835Y030118D01*
X036833Y030119D01*
X036831Y030120D01*
X036830Y030121D01*
X036829Y030122D01*
X036828Y030122D01*
X036828Y030123D01*
X036827Y030123D01*
X036825Y030125D01*
X036823Y030128D01*
X036820Y030133D01*
X036818Y030139D01*
X036817Y030144D01*
X036816Y030148D01*
X036816Y030150D01*
Y030152D01*
X036815Y030153D01*
Y030154D01*
Y030155D01*
Y030155D01*
X036816Y030160D01*
X036816Y030165D01*
X036818Y030170D01*
X036819Y030173D01*
X036820Y030177D01*
X036821Y030179D01*
X036822Y030181D01*
X036823Y030181D01*
Y030181D01*
X036826Y030185D01*
X036829Y030189D01*
X036832Y030192D01*
X036835Y030194D01*
X036838Y030196D01*
X036840Y030197D01*
X036842Y030198D01*
X036842Y030198D01*
X036842D01*
X036845Y030199D01*
X036847Y030200D01*
X036853Y030201D01*
X036859Y030202D01*
X036865Y030202D01*
X036870Y030203D01*
X036872D01*
X036874Y030203D01*
X036956D01*
Y030027D01*
D02*
G37*
G36*
X036478D02*
X036367D01*
Y030047D01*
X036454D01*
Y030203D01*
X036478D01*
Y030027D01*
D02*
G37*
G36*
X036336D02*
X036312D01*
Y030203D01*
X036336D01*
Y030027D01*
D02*
G37*
G36*
X035764D02*
X035700D01*
X035695Y030027D01*
X035689Y030027D01*
X035684Y030028D01*
X035680Y030028D01*
X035677Y030029D01*
X035674Y030029D01*
X035673Y030029D01*
X035673Y030029D01*
X035672D01*
X035667Y030031D01*
X035663Y030032D01*
X035660Y030033D01*
X035657Y030035D01*
X035654Y030036D01*
X035652Y030037D01*
X035651Y030038D01*
X035651Y030038D01*
X035648Y030041D01*
X035645Y030043D01*
X035642Y030046D01*
X035640Y030048D01*
X035638Y030051D01*
X035636Y030053D01*
X035635Y030054D01*
X035635Y030054D01*
X035632Y030058D01*
X035630Y030063D01*
X035628Y030067D01*
X035626Y030071D01*
X035625Y030074D01*
X035624Y030077D01*
X035623Y030078D01*
X035623Y030079D01*
X035623Y030080D01*
Y030080D01*
X035621Y030086D01*
X035620Y030092D01*
X035619Y030098D01*
X035619Y030104D01*
X035618Y030108D01*
Y030110D01*
X035618Y030112D01*
Y030113D01*
Y030115D01*
Y030115D01*
Y030116D01*
X035618Y030124D01*
X035619Y030132D01*
X035620Y030139D01*
X035621Y030143D01*
X035622Y030145D01*
X035622Y030148D01*
X035623Y030150D01*
X035623Y030152D01*
X035624Y030154D01*
X035624Y030156D01*
X035625Y030157D01*
X035625Y030157D01*
Y030158D01*
X035628Y030164D01*
X035631Y030170D01*
X035635Y030175D01*
X035638Y030180D01*
X035641Y030183D01*
X035644Y030186D01*
X035645Y030186D01*
X035646Y030187D01*
X035646Y030187D01*
X035646Y030188D01*
X035650Y030191D01*
X035654Y030194D01*
X035659Y030196D01*
X035663Y030198D01*
X035666Y030199D01*
X035669Y030200D01*
X035670Y030200D01*
X035671D01*
X035672Y030200D01*
X035672D01*
X035676Y030201D01*
X035681Y030202D01*
X035686Y030202D01*
X035691Y030203D01*
X035696Y030203D01*
X035764D01*
Y030027D01*
D02*
G37*
G36*
X035587D02*
X035477D01*
Y030047D01*
X035563D01*
Y030203D01*
X035587D01*
Y030027D01*
D02*
G37*
G36*
X037752Y030206D02*
X037758Y030205D01*
X037764Y030204D01*
X037768Y030203D01*
X037772Y030202D01*
X037774Y030201D01*
X037775Y030201D01*
X037776Y030200D01*
X037777Y030200D01*
X037778Y030200D01*
X037778D01*
X037783Y030197D01*
X037788Y030195D01*
X037791Y030192D01*
X037794Y030189D01*
X037797Y030186D01*
X037799Y030184D01*
X037800Y030183D01*
X037800Y030182D01*
Y030182D01*
X037803Y030178D01*
X037804Y030173D01*
X037806Y030169D01*
X037806Y030165D01*
X037807Y030162D01*
X037807Y030159D01*
Y030158D01*
Y030158D01*
Y030157D01*
Y030157D01*
X037807Y030153D01*
X037806Y030149D01*
X037805Y030145D01*
X037804Y030142D01*
X037803Y030139D01*
X037802Y030137D01*
X037802Y030136D01*
X037801Y030135D01*
X037799Y030132D01*
X037796Y030128D01*
X037793Y030125D01*
X037790Y030123D01*
X037787Y030121D01*
X037785Y030120D01*
X037783Y030119D01*
X037783Y030119D01*
X037783D01*
X037781Y030118D01*
X037778Y030117D01*
X037773Y030115D01*
X037767Y030113D01*
X037762Y030111D01*
X037757Y030110D01*
X037754Y030109D01*
X037752Y030109D01*
X037751Y030108D01*
X037750Y030108D01*
X037749Y030108D01*
X037749D01*
X037744Y030107D01*
X037740Y030106D01*
X037737Y030105D01*
X037734Y030104D01*
X037730Y030103D01*
X037728Y030102D01*
X037726Y030102D01*
X037724Y030101D01*
X037722Y030100D01*
X037721Y030100D01*
X037719Y030099D01*
X037717Y030099D01*
X037717Y030099D01*
X037713Y030097D01*
X037710Y030096D01*
X037707Y030094D01*
X037705Y030092D01*
X037703Y030091D01*
X037702Y030090D01*
X037702Y030089D01*
X037701Y030089D01*
X037700Y030086D01*
X037698Y030084D01*
X037698Y030081D01*
X037697Y030079D01*
X037697Y030077D01*
X037696Y030076D01*
Y030074D01*
Y030074D01*
X037697Y030071D01*
X037697Y030068D01*
X037698Y030066D01*
X037699Y030064D01*
X037700Y030062D01*
X037701Y030060D01*
X037701Y030059D01*
X037701Y030059D01*
X037703Y030057D01*
X037706Y030055D01*
X037709Y030053D01*
X037711Y030051D01*
X037713Y030050D01*
X037715Y030049D01*
X037716Y030048D01*
X037717Y030048D01*
X037720Y030047D01*
X037725Y030046D01*
X037729Y030045D01*
X037732Y030045D01*
X037735Y030045D01*
X037738Y030044D01*
X037740D01*
X037746Y030045D01*
X037751Y030045D01*
X037755Y030046D01*
X037760Y030047D01*
X037763Y030048D01*
X037765Y030049D01*
X037766Y030049D01*
X037767Y030049D01*
X037767Y030049D01*
X037767D01*
X037771Y030052D01*
X037775Y030054D01*
X037778Y030056D01*
X037781Y030058D01*
X037783Y030060D01*
X037784Y030062D01*
X037785Y030063D01*
X037785Y030063D01*
X037787Y030067D01*
X037789Y030070D01*
X037790Y030074D01*
X037791Y030077D01*
X037791Y030081D01*
X037792Y030083D01*
Y030084D01*
X037792Y030085D01*
Y030085D01*
Y030085D01*
X037814Y030083D01*
X037814Y030077D01*
X037813Y030071D01*
X037811Y030065D01*
X037809Y030060D01*
X037807Y030057D01*
X037807Y030055D01*
X037806Y030054D01*
X037805Y030053D01*
X037805Y030052D01*
X037805Y030052D01*
Y030051D01*
X037801Y030046D01*
X037797Y030042D01*
X037792Y030039D01*
X037788Y030035D01*
X037785Y030033D01*
X037782Y030032D01*
X037781Y030031D01*
X037780Y030031D01*
X037779Y030030D01*
X037779D01*
X037773Y030028D01*
X037766Y030026D01*
X037760Y030025D01*
X037753Y030024D01*
X037750Y030024D01*
X037748Y030024D01*
X037745D01*
X037743Y030023D01*
X037739D01*
X037732Y030024D01*
X037726Y030024D01*
X037720Y030026D01*
X037715Y030027D01*
X037711Y030028D01*
X037709Y030029D01*
X037708Y030029D01*
X037707Y030030D01*
X037706Y030030D01*
X037705Y030030D01*
X037705D01*
X037700Y030033D01*
X037695Y030036D01*
X037691Y030040D01*
X037688Y030043D01*
X037685Y030045D01*
X037684Y030047D01*
X037682Y030049D01*
X037682Y030049D01*
Y030049D01*
X037679Y030054D01*
X037677Y030059D01*
X037676Y030063D01*
X037675Y030067D01*
X037674Y030071D01*
X037674Y030074D01*
Y030075D01*
Y030075D01*
Y030076D01*
Y030076D01*
X037674Y030081D01*
X037675Y030086D01*
X037676Y030090D01*
X037677Y030094D01*
X037679Y030097D01*
X037680Y030099D01*
X037681Y030100D01*
X037681Y030101D01*
X037684Y030105D01*
X037688Y030108D01*
X037692Y030111D01*
X037696Y030114D01*
X037699Y030116D01*
X037702Y030118D01*
X037703Y030118D01*
X037703Y030119D01*
X037704Y030119D01*
X037704D01*
X037706Y030120D01*
X037709Y030121D01*
X037712Y030122D01*
X037715Y030123D01*
X037721Y030125D01*
X037728Y030126D01*
X037731Y030127D01*
X037734Y030128D01*
X037736Y030129D01*
X037739Y030129D01*
X037740Y030130D01*
X037742Y030130D01*
X037743Y030130D01*
X037743D01*
X037748Y030132D01*
X037753Y030133D01*
X037757Y030134D01*
X037761Y030135D01*
X037764Y030136D01*
X037767Y030137D01*
X037769Y030138D01*
X037771Y030139D01*
X037773Y030140D01*
X037775Y030141D01*
X037776Y030141D01*
X037777Y030142D01*
X037778Y030143D01*
X037778Y030143D01*
X037781Y030146D01*
X037782Y030148D01*
X037783Y030151D01*
X037784Y030153D01*
X037785Y030155D01*
X037785Y030157D01*
Y030158D01*
Y030159D01*
X037785Y030163D01*
X037783Y030166D01*
X037782Y030169D01*
X037780Y030172D01*
X037779Y030174D01*
X037777Y030176D01*
X037776Y030177D01*
X037776Y030177D01*
X037774Y030179D01*
X037771Y030180D01*
X037767Y030182D01*
X037762Y030183D01*
X037756Y030184D01*
X037752Y030185D01*
X037750Y030185D01*
X037748Y030185D01*
X037745D01*
X037738Y030185D01*
X037731Y030184D01*
X037726Y030182D01*
X037722Y030181D01*
X037718Y030179D01*
X037716Y030178D01*
X037715Y030177D01*
X037714Y030176D01*
X037711Y030173D01*
X037708Y030169D01*
X037705Y030165D01*
X037704Y030161D01*
X037703Y030157D01*
X037702Y030154D01*
X037702Y030153D01*
X037702Y030152D01*
Y030152D01*
Y030151D01*
X037679Y030153D01*
X037680Y030159D01*
X037681Y030164D01*
X037682Y030169D01*
X037684Y030173D01*
X037686Y030176D01*
X037687Y030179D01*
X037687Y030180D01*
X037688Y030180D01*
X037688Y030181D01*
Y030181D01*
X037691Y030185D01*
X037695Y030189D01*
X037699Y030192D01*
X037703Y030195D01*
X037706Y030197D01*
X037709Y030198D01*
X037710Y030199D01*
X037710Y030199D01*
X037711Y030200D01*
X037711D01*
X037717Y030202D01*
X037723Y030203D01*
X037728Y030205D01*
X037734Y030205D01*
X037739Y030206D01*
X037740D01*
X037742Y030206D01*
X037745D01*
X037752Y030206D01*
D02*
G37*
G36*
X037067D02*
X037073Y030205D01*
X037078Y030204D01*
X037083Y030203D01*
X037087Y030202D01*
X037089Y030201D01*
X037090Y030201D01*
X037091Y030200D01*
X037092Y030200D01*
X037092Y030200D01*
X037093D01*
X037098Y030197D01*
X037102Y030195D01*
X037106Y030192D01*
X037109Y030189D01*
X037112Y030186D01*
X037113Y030184D01*
X037115Y030183D01*
X037115Y030182D01*
Y030182D01*
X037117Y030178D01*
X037119Y030173D01*
X037120Y030169D01*
X037121Y030165D01*
X037122Y030162D01*
X037122Y030159D01*
Y030158D01*
Y030158D01*
Y030157D01*
Y030157D01*
X037122Y030153D01*
X037121Y030149D01*
X037120Y030145D01*
X037119Y030142D01*
X037118Y030139D01*
X037117Y030137D01*
X037116Y030136D01*
X037116Y030135D01*
X037114Y030132D01*
X037111Y030128D01*
X037107Y030125D01*
X037104Y030123D01*
X037102Y030121D01*
X037100Y030120D01*
X037098Y030119D01*
X037098Y030119D01*
X037098D01*
X037095Y030118D01*
X037093Y030117D01*
X037088Y030115D01*
X037082Y030113D01*
X037077Y030111D01*
X037072Y030110D01*
X037069Y030109D01*
X037067Y030109D01*
X037066Y030108D01*
X037064Y030108D01*
X037064Y030108D01*
X037063D01*
X037059Y030107D01*
X037055Y030106D01*
X037051Y030105D01*
X037048Y030104D01*
X037045Y030103D01*
X037043Y030102D01*
X037040Y030102D01*
X037039Y030101D01*
X037037Y030100D01*
X037036Y030100D01*
X037034Y030099D01*
X037032Y030099D01*
X037032Y030099D01*
X037028Y030097D01*
X037025Y030096D01*
X037022Y030094D01*
X037020Y030092D01*
X037018Y030091D01*
X037017Y030090D01*
X037016Y030089D01*
X037016Y030089D01*
X037014Y030086D01*
X037013Y030084D01*
X037012Y030081D01*
X037012Y030079D01*
X037011Y030077D01*
X037011Y030076D01*
Y030074D01*
Y030074D01*
X037011Y030071D01*
X037012Y030068D01*
X037013Y030066D01*
X037014Y030064D01*
X037015Y030062D01*
X037015Y030060D01*
X037016Y030059D01*
X037016Y030059D01*
X037018Y030057D01*
X037021Y030055D01*
X037023Y030053D01*
X037026Y030051D01*
X037028Y030050D01*
X037030Y030049D01*
X037031Y030048D01*
X037031Y030048D01*
X037035Y030047D01*
X037039Y030046D01*
X037043Y030045D01*
X037047Y030045D01*
X037050Y030045D01*
X037053Y030044D01*
X037055D01*
X037061Y030045D01*
X037066Y030045D01*
X037070Y030046D01*
X037074Y030047D01*
X037078Y030048D01*
X037080Y030049D01*
X037081Y030049D01*
X037082Y030049D01*
X037082Y030049D01*
X037082D01*
X037086Y030052D01*
X037090Y030054D01*
X037093Y030056D01*
X037095Y030058D01*
X037098Y030060D01*
X037099Y030062D01*
X037100Y030063D01*
X037100Y030063D01*
X037102Y030067D01*
X037103Y030070D01*
X037104Y030074D01*
X037105Y030077D01*
X037106Y030081D01*
X037107Y030083D01*
Y030084D01*
X037107Y030085D01*
Y030085D01*
Y030085D01*
X037129Y030083D01*
X037128Y030077D01*
X037127Y030071D01*
X037126Y030065D01*
X037124Y030060D01*
X037122Y030057D01*
X037122Y030055D01*
X037121Y030054D01*
X037120Y030053D01*
X037120Y030052D01*
X037119Y030052D01*
Y030051D01*
X037116Y030046D01*
X037112Y030042D01*
X037107Y030039D01*
X037103Y030035D01*
X037100Y030033D01*
X037097Y030032D01*
X037095Y030031D01*
X037095Y030031D01*
X037094Y030030D01*
X037094D01*
X037088Y030028D01*
X037081Y030026D01*
X037074Y030025D01*
X037068Y030024D01*
X037065Y030024D01*
X037062Y030024D01*
X037060D01*
X037058Y030023D01*
X037054D01*
X037047Y030024D01*
X037041Y030024D01*
X037035Y030026D01*
X037030Y030027D01*
X037026Y030028D01*
X037024Y030029D01*
X037023Y030029D01*
X037022Y030030D01*
X037021Y030030D01*
X037020Y030030D01*
X037020D01*
X037015Y030033D01*
X037010Y030036D01*
X037006Y030040D01*
X037003Y030043D01*
X037000Y030045D01*
X036998Y030047D01*
X036997Y030049D01*
X036997Y030049D01*
Y030049D01*
X036994Y030054D01*
X036992Y030059D01*
X036991Y030063D01*
X036990Y030067D01*
X036989Y030071D01*
X036989Y030074D01*
Y030075D01*
Y030075D01*
Y030076D01*
Y030076D01*
X036989Y030081D01*
X036990Y030086D01*
X036991Y030090D01*
X036992Y030094D01*
X036994Y030097D01*
X036995Y030099D01*
X036996Y030100D01*
X036996Y030101D01*
X036999Y030105D01*
X037003Y030108D01*
X037006Y030111D01*
X037010Y030114D01*
X037014Y030116D01*
X037016Y030118D01*
X037017Y030118D01*
X037018Y030119D01*
X037019Y030119D01*
X037019D01*
X037021Y030120D01*
X037024Y030121D01*
X037026Y030122D01*
X037029Y030123D01*
X037036Y030125D01*
X037042Y030126D01*
X037046Y030127D01*
X037048Y030128D01*
X037051Y030129D01*
X037053Y030129D01*
X037055Y030130D01*
X037057Y030130D01*
X037058Y030130D01*
X037058D01*
X037063Y030132D01*
X037068Y030133D01*
X037072Y030134D01*
X037075Y030135D01*
X037079Y030136D01*
X037081Y030137D01*
X037084Y030138D01*
X037086Y030139D01*
X037088Y030140D01*
X037090Y030141D01*
X037091Y030141D01*
X037092Y030142D01*
X037093Y030143D01*
X037093Y030143D01*
X037095Y030146D01*
X037097Y030148D01*
X037098Y030151D01*
X037099Y030153D01*
X037100Y030155D01*
X037100Y030157D01*
Y030158D01*
Y030159D01*
X037099Y030163D01*
X037098Y030166D01*
X037097Y030169D01*
X037095Y030172D01*
X037093Y030174D01*
X037092Y030176D01*
X037091Y030177D01*
X037090Y030177D01*
X037088Y030179D01*
X037086Y030180D01*
X037081Y030182D01*
X037076Y030183D01*
X037071Y030184D01*
X037067Y030185D01*
X037065Y030185D01*
X037063Y030185D01*
X037060D01*
X037052Y030185D01*
X037046Y030184D01*
X037041Y030182D01*
X037037Y030181D01*
X037033Y030179D01*
X037031Y030178D01*
X037029Y030177D01*
X037029Y030176D01*
X037025Y030173D01*
X037023Y030169D01*
X037020Y030165D01*
X037019Y030161D01*
X037018Y030157D01*
X037017Y030154D01*
X037017Y030153D01*
X037016Y030152D01*
Y030152D01*
Y030151D01*
X036994Y030153D01*
X036995Y030159D01*
X036996Y030164D01*
X036997Y030169D01*
X036999Y030173D01*
X037000Y030176D01*
X037002Y030179D01*
X037002Y030180D01*
X037003Y030180D01*
X037003Y030181D01*
Y030181D01*
X037006Y030185D01*
X037010Y030189D01*
X037014Y030192D01*
X037017Y030195D01*
X037021Y030197D01*
X037023Y030198D01*
X037024Y030199D01*
X037025Y030199D01*
X037026Y030200D01*
X037026D01*
X037031Y030202D01*
X037038Y030203D01*
X037043Y030205D01*
X037049Y030205D01*
X037053Y030206D01*
X037055D01*
X037057Y030206D01*
X037060D01*
X037067Y030206D01*
D02*
G37*
G36*
X036217D02*
X036223Y030205D01*
X036228Y030204D01*
X036233Y030203D01*
X036237Y030202D01*
X036239Y030201D01*
X036240Y030201D01*
X036241Y030200D01*
X036242Y030200D01*
X036243Y030200D01*
X036243D01*
X036248Y030197D01*
X036252Y030195D01*
X036256Y030192D01*
X036259Y030189D01*
X036262Y030186D01*
X036263Y030184D01*
X036265Y030183D01*
X036265Y030182D01*
Y030182D01*
X036268Y030178D01*
X036269Y030173D01*
X036271Y030169D01*
X036271Y030165D01*
X036272Y030162D01*
X036272Y030159D01*
Y030158D01*
Y030158D01*
Y030157D01*
Y030157D01*
X036272Y030153D01*
X036271Y030149D01*
X036270Y030145D01*
X036269Y030142D01*
X036268Y030139D01*
X036267Y030137D01*
X036266Y030136D01*
X036266Y030135D01*
X036264Y030132D01*
X036261Y030128D01*
X036258Y030125D01*
X036254Y030123D01*
X036252Y030121D01*
X036250Y030120D01*
X036248Y030119D01*
X036248Y030119D01*
X036248D01*
X036246Y030118D01*
X036243Y030117D01*
X036238Y030115D01*
X036232Y030113D01*
X036227Y030111D01*
X036222Y030110D01*
X036219Y030109D01*
X036217Y030109D01*
X036216Y030108D01*
X036214Y030108D01*
X036214Y030108D01*
X036213D01*
X036209Y030107D01*
X036205Y030106D01*
X036201Y030105D01*
X036198Y030104D01*
X036195Y030103D01*
X036193Y030102D01*
X036191Y030102D01*
X036189Y030101D01*
X036187Y030100D01*
X036186Y030100D01*
X036184Y030099D01*
X036182Y030099D01*
X036182Y030099D01*
X036178Y030097D01*
X036175Y030096D01*
X036172Y030094D01*
X036170Y030092D01*
X036168Y030091D01*
X036167Y030090D01*
X036167Y030089D01*
X036166Y030089D01*
X036164Y030086D01*
X036163Y030084D01*
X036162Y030081D01*
X036162Y030079D01*
X036161Y030077D01*
X036161Y030076D01*
Y030074D01*
Y030074D01*
X036161Y030071D01*
X036162Y030068D01*
X036163Y030066D01*
X036164Y030064D01*
X036165Y030062D01*
X036166Y030060D01*
X036166Y030059D01*
X036166Y030059D01*
X036168Y030057D01*
X036171Y030055D01*
X036173Y030053D01*
X036176Y030051D01*
X036178Y030050D01*
X036180Y030049D01*
X036181Y030048D01*
X036182Y030048D01*
X036185Y030047D01*
X036189Y030046D01*
X036194Y030045D01*
X036197Y030045D01*
X036200Y030045D01*
X036203Y030044D01*
X036205D01*
X036211Y030045D01*
X036216Y030045D01*
X036220Y030046D01*
X036224Y030047D01*
X036228Y030048D01*
X036230Y030049D01*
X036231Y030049D01*
X036232Y030049D01*
X036232Y030049D01*
X036232D01*
X036236Y030052D01*
X036240Y030054D01*
X036243Y030056D01*
X036246Y030058D01*
X036248Y030060D01*
X036249Y030062D01*
X036250Y030063D01*
X036250Y030063D01*
X036252Y030067D01*
X036253Y030070D01*
X036254Y030074D01*
X036256Y030077D01*
X036256Y030081D01*
X036257Y030083D01*
Y030084D01*
X036257Y030085D01*
Y030085D01*
Y030085D01*
X036279Y030083D01*
X036278Y030077D01*
X036277Y030071D01*
X036276Y030065D01*
X036274Y030060D01*
X036272Y030057D01*
X036272Y030055D01*
X036271Y030054D01*
X036270Y030053D01*
X036270Y030052D01*
X036270Y030052D01*
Y030051D01*
X036266Y030046D01*
X036262Y030042D01*
X036257Y030039D01*
X036253Y030035D01*
X036250Y030033D01*
X036247Y030032D01*
X036246Y030031D01*
X036245Y030031D01*
X036244Y030030D01*
X036244D01*
X036238Y030028D01*
X036231Y030026D01*
X036224Y030025D01*
X036218Y030024D01*
X036215Y030024D01*
X036212Y030024D01*
X036210D01*
X036208Y030023D01*
X036204D01*
X036197Y030024D01*
X036191Y030024D01*
X036185Y030026D01*
X036180Y030027D01*
X036176Y030028D01*
X036174Y030029D01*
X036173Y030029D01*
X036172Y030030D01*
X036171Y030030D01*
X036170Y030030D01*
X036170D01*
X036165Y030033D01*
X036160Y030036D01*
X036156Y030040D01*
X036153Y030043D01*
X036150Y030045D01*
X036148Y030047D01*
X036147Y030049D01*
X036147Y030049D01*
Y030049D01*
X036144Y030054D01*
X036142Y030059D01*
X036141Y030063D01*
X036140Y030067D01*
X036139Y030071D01*
X036139Y030074D01*
Y030075D01*
Y030075D01*
Y030076D01*
Y030076D01*
X036139Y030081D01*
X036140Y030086D01*
X036141Y030090D01*
X036142Y030094D01*
X036144Y030097D01*
X036145Y030099D01*
X036146Y030100D01*
X036146Y030101D01*
X036149Y030105D01*
X036153Y030108D01*
X036157Y030111D01*
X036160Y030114D01*
X036164Y030116D01*
X036167Y030118D01*
X036168Y030118D01*
X036168Y030119D01*
X036169Y030119D01*
X036169D01*
X036171Y030120D01*
X036174Y030121D01*
X036176Y030122D01*
X036180Y030123D01*
X036186Y030125D01*
X036193Y030126D01*
X036196Y030127D01*
X036198Y030128D01*
X036201Y030129D01*
X036203Y030129D01*
X036205Y030130D01*
X036207Y030130D01*
X036208Y030130D01*
X036208D01*
X036213Y030132D01*
X036218Y030133D01*
X036222Y030134D01*
X036225Y030135D01*
X036229Y030136D01*
X036232Y030137D01*
X036234Y030138D01*
X036236Y030139D01*
X036238Y030140D01*
X036240Y030141D01*
X036241Y030141D01*
X036242Y030142D01*
X036243Y030143D01*
X036243Y030143D01*
X036246Y030146D01*
X036247Y030148D01*
X036248Y030151D01*
X036249Y030153D01*
X036250Y030155D01*
X036250Y030157D01*
Y030158D01*
Y030159D01*
X036249Y030163D01*
X036248Y030166D01*
X036247Y030169D01*
X036245Y030172D01*
X036244Y030174D01*
X036242Y030176D01*
X036241Y030177D01*
X036240Y030177D01*
X036238Y030179D01*
X036236Y030180D01*
X036232Y030182D01*
X036226Y030183D01*
X036221Y030184D01*
X036217Y030185D01*
X036215Y030185D01*
X036213Y030185D01*
X036210D01*
X036202Y030185D01*
X036196Y030184D01*
X036191Y030182D01*
X036187Y030181D01*
X036183Y030179D01*
X036181Y030178D01*
X036180Y030177D01*
X036179Y030176D01*
X036175Y030173D01*
X036173Y030169D01*
X036170Y030165D01*
X036169Y030161D01*
X036168Y030157D01*
X036167Y030154D01*
X036167Y030153D01*
X036167Y030152D01*
Y030152D01*
Y030151D01*
X036144Y030153D01*
X036145Y030159D01*
X036146Y030164D01*
X036147Y030169D01*
X036149Y030173D01*
X036150Y030176D01*
X036152Y030179D01*
X036152Y030180D01*
X036153Y030180D01*
X036153Y030181D01*
Y030181D01*
X036156Y030185D01*
X036160Y030189D01*
X036164Y030192D01*
X036168Y030195D01*
X036171Y030197D01*
X036173Y030198D01*
X036174Y030199D01*
X036175Y030199D01*
X036176Y030200D01*
X036176D01*
X036182Y030202D01*
X036188Y030203D01*
X036193Y030205D01*
X036199Y030205D01*
X036203Y030206D01*
X036205D01*
X036207Y030206D01*
X036210D01*
X036217Y030206D01*
D02*
G37*
G36*
X036637Y029978D02*
X036493D01*
Y029993D01*
X036637D01*
Y029978D01*
D02*
G37*
G36*
X036022Y028046D02*
X036021Y028040D01*
X036021Y028038D01*
Y028035D01*
X036021Y028033D01*
X036021Y028031D01*
X036021Y028031D01*
Y028030D01*
X036029Y028038D01*
X036076Y028077D01*
X036084D01*
Y028018D01*
X036074D01*
Y028050D01*
X036074Y028052D01*
Y028054D01*
X036074Y028057D01*
Y028058D01*
X036074Y028060D01*
Y028061D01*
X036021Y028015D01*
X036011D01*
Y028079D01*
X036022D01*
Y028046D01*
D02*
G37*
G36*
X036563Y028221D02*
X036521Y028205D01*
X036518Y028204D01*
X036515Y028203D01*
X036512Y028202D01*
X036510Y028201D01*
X036507Y028201D01*
X036507Y028200D01*
X036506Y028200D01*
X036505Y028200D01*
X036505Y028200D01*
X036504Y028200D01*
X036504D01*
X036508Y028199D01*
X036511Y028198D01*
X036514Y028197D01*
X036516Y028196D01*
X036518Y028196D01*
X036519Y028195D01*
X036520Y028195D01*
X036520Y028195D01*
X036521Y028195D01*
X036521Y028195D01*
X036521D01*
X036563Y028179D01*
Y028166D01*
X036491Y028194D01*
X036489Y028193D01*
X036488Y028193D01*
X036488Y028193D01*
X036488D01*
X036485Y028192D01*
X036483Y028191D01*
X036481Y028190D01*
X036480Y028190D01*
X036479Y028189D01*
X036479Y028189D01*
X036478Y028189D01*
X036478D01*
X036477Y028188D01*
X036475Y028186D01*
X036475Y028186D01*
X036475Y028185D01*
X036474Y028185D01*
Y028185D01*
X036474Y028184D01*
X036474Y028183D01*
X036473Y028181D01*
Y028180D01*
X036473Y028179D01*
Y028178D01*
X036473Y028176D01*
X036474Y028174D01*
X036474Y028173D01*
X036474Y028172D01*
X036474Y028172D01*
Y028172D01*
X036463Y028173D01*
X036462Y028174D01*
X036462Y028176D01*
X036462Y028177D01*
X036461Y028178D01*
Y028179D01*
X036461Y028180D01*
Y028181D01*
X036461Y028183D01*
X036462Y028185D01*
X036462Y028186D01*
X036463Y028188D01*
X036463Y028189D01*
X036464Y028190D01*
X036464Y028191D01*
X036464Y028191D01*
X036465Y028192D01*
X036467Y028194D01*
X036468Y028195D01*
X036470Y028196D01*
X036471Y028197D01*
X036472Y028198D01*
X036473Y028198D01*
X036473Y028198D01*
X036474Y028199D01*
X036475Y028199D01*
X036477Y028201D01*
X036480Y028202D01*
X036483Y028203D01*
X036485Y028204D01*
X036487Y028204D01*
X036488Y028205D01*
X036488Y028205D01*
X036489Y028205D01*
X036489Y028205D01*
X036489D01*
X036563Y028233D01*
Y028221D01*
D02*
G37*
G36*
X036111Y028625D02*
X036089Y028610D01*
X036083Y028606D01*
X036111Y028587D01*
Y028572D01*
X036073Y028598D01*
X036038Y028574D01*
Y028589D01*
X036056Y028600D01*
X036056Y028600D01*
X036056Y028601D01*
X036057Y028601D01*
X036058Y028602D01*
X036060Y028603D01*
X036061Y028604D01*
X036062Y028605D01*
X036064Y028605D01*
X036063Y028605D01*
X036063Y028606D01*
X036062Y028606D01*
X036061Y028607D01*
X036060Y028608D01*
X036058Y028609D01*
X036056Y028611D01*
X036038Y028623D01*
Y028638D01*
X036073Y028613D01*
X036111Y028640D01*
Y028625D01*
D02*
G37*
G36*
X038219Y029014D02*
X038284D01*
Y029004D01*
X038219Y028958D01*
X038208D01*
Y029001D01*
X038184D01*
Y029014D01*
X038208D01*
Y029027D01*
X038219D01*
Y029014D01*
D02*
G37*
G36*
X038284Y028931D02*
X038226D01*
X038223D01*
X038220Y028931D01*
X038217Y028931D01*
X038214Y028930D01*
X038212Y028930D01*
X038210Y028929D01*
X038208Y028929D01*
X038207Y028928D01*
X038205Y028928D01*
X038204Y028927D01*
X038203Y028927D01*
X038202Y028926D01*
X038202Y028926D01*
X038201Y028925D01*
X038201Y028925D01*
X038201Y028925D01*
X038200Y028924D01*
X038199Y028922D01*
X038197Y028919D01*
X038196Y028916D01*
X038195Y028912D01*
X038195Y028909D01*
X038194Y028908D01*
Y028907D01*
X038194Y028906D01*
Y028904D01*
X038194Y028901D01*
X038195Y028898D01*
X038195Y028896D01*
X038196Y028894D01*
X038197Y028892D01*
X038197Y028891D01*
X038198Y028890D01*
X038198Y028890D01*
X038199Y028888D01*
X038201Y028886D01*
X038202Y028885D01*
X038204Y028884D01*
X038205Y028883D01*
X038206Y028882D01*
X038207Y028882D01*
X038207Y028881D01*
X038208Y028881D01*
X038210Y028881D01*
X038213Y028880D01*
X038216Y028880D01*
X038219Y028879D01*
X038222Y028879D01*
X038223D01*
X038224Y028879D01*
X038225D01*
X038226D01*
X038226D01*
X038226D01*
X038284D01*
Y028866D01*
X038226D01*
X038223D01*
X038221Y028866D01*
X038218Y028866D01*
X038216Y028866D01*
X038213Y028867D01*
X038211Y028867D01*
X038210Y028867D01*
X038208Y028868D01*
X038206Y028868D01*
X038205Y028868D01*
X038204Y028869D01*
X038203Y028869D01*
X038202Y028869D01*
X038202Y028869D01*
X038201Y028870D01*
X038201D01*
X038198Y028871D01*
X038195Y028873D01*
X038193Y028875D01*
X038191Y028877D01*
X038189Y028879D01*
X038188Y028881D01*
X038188Y028881D01*
X038187Y028882D01*
X038187Y028882D01*
Y028882D01*
X038185Y028886D01*
X038184Y028890D01*
X038183Y028894D01*
X038183Y028897D01*
X038183Y028899D01*
X038183Y028900D01*
X038182Y028902D01*
Y028903D01*
X038182Y028904D01*
Y028905D01*
X038183Y028911D01*
X038183Y028913D01*
X038183Y028915D01*
X038184Y028917D01*
X038184Y028919D01*
X038184Y028921D01*
X038185Y028923D01*
X038186Y028924D01*
X038186Y028925D01*
X038186Y028926D01*
X038187Y028927D01*
X038187Y028928D01*
X038188Y028928D01*
X038188Y028929D01*
Y028929D01*
X038190Y028932D01*
X038192Y028935D01*
X038195Y028937D01*
X038197Y028938D01*
X038199Y028940D01*
X038201Y028941D01*
X038201Y028941D01*
X038202Y028941D01*
X038202Y028941D01*
X038202D01*
X038204Y028942D01*
X038206Y028942D01*
X038210Y028943D01*
X038214Y028944D01*
X038218Y028944D01*
X038219Y028944D01*
X038221Y028945D01*
X038223D01*
X038224Y028945D01*
X038225D01*
X038226D01*
X038226D01*
X038226D01*
X038284D01*
Y028931D01*
D02*
G37*
G36*
X036645Y029716D02*
X036646Y029714D01*
X036648Y029711D01*
X036650Y029709D01*
X036651Y029708D01*
X036653Y029706D01*
X036653Y029706D01*
X036654Y029705D01*
X036654Y029705D01*
X036654Y029705D01*
X036657Y029703D01*
X036660Y029700D01*
X036663Y029698D01*
X036666Y029697D01*
X036668Y029695D01*
X036669Y029695D01*
X036670Y029694D01*
X036671Y029694D01*
X036672Y029694D01*
X036672Y029693D01*
X036672D01*
Y029681D01*
X036670Y029682D01*
X036668Y029683D01*
X036666Y029684D01*
X036664Y029685D01*
X036662Y029686D01*
X036660Y029687D01*
X036659Y029688D01*
X036659Y029688D01*
X036659D01*
X036657Y029689D01*
X036654Y029691D01*
X036652Y029692D01*
X036651Y029694D01*
X036649Y029695D01*
X036648Y029696D01*
X036648Y029696D01*
X036647Y029696D01*
Y029618D01*
X036635D01*
Y029719D01*
X036643D01*
X036645Y029716D01*
D02*
G37*
G36*
X036777Y029660D02*
Y029657D01*
X036777Y029654D01*
X036777Y029652D01*
X036777Y029649D01*
X036777Y029647D01*
X036776Y029645D01*
X036776Y029643D01*
X036776Y029642D01*
X036775Y029640D01*
X036775Y029639D01*
X036775Y029638D01*
X036774Y029637D01*
X036774Y029636D01*
X036774Y029635D01*
X036774Y029635D01*
Y029635D01*
X036772Y029632D01*
X036770Y029629D01*
X036768Y029627D01*
X036766Y029624D01*
X036764Y029623D01*
X036762Y029622D01*
X036762Y029621D01*
X036761Y029621D01*
X036761Y029621D01*
X036761D01*
X036757Y029619D01*
X036754Y029618D01*
X036750Y029617D01*
X036746Y029617D01*
X036744Y029616D01*
X036743Y029616D01*
X036741Y029616D01*
X036740D01*
X036739Y029616D01*
X036738D01*
X036733Y029616D01*
X036730Y029617D01*
X036728Y029617D01*
X036726Y029617D01*
X036724Y029618D01*
X036722Y029618D01*
X036721Y029619D01*
X036719Y029619D01*
X036718Y029620D01*
X036717Y029620D01*
X036716Y029621D01*
X036715Y029621D01*
X036715Y029621D01*
X036715Y029622D01*
X036715D01*
X036711Y029624D01*
X036709Y029626D01*
X036707Y029629D01*
X036705Y029631D01*
X036704Y029633D01*
X036703Y029634D01*
X036703Y029635D01*
X036702Y029636D01*
X036702Y029636D01*
Y029636D01*
X036702Y029638D01*
X036701Y029640D01*
X036700Y029643D01*
X036699Y029648D01*
X036699Y029651D01*
X036699Y029653D01*
X036699Y029655D01*
Y029656D01*
X036699Y029658D01*
Y029659D01*
Y029659D01*
Y029660D01*
Y029660D01*
Y029718D01*
X036712D01*
Y029660D01*
Y029657D01*
X036712Y029654D01*
X036713Y029651D01*
X036713Y029648D01*
X036713Y029646D01*
X036714Y029644D01*
X036714Y029642D01*
X036715Y029640D01*
X036716Y029639D01*
X036716Y029638D01*
X036717Y029637D01*
X036717Y029636D01*
X036718Y029635D01*
X036718Y029635D01*
X036718Y029635D01*
X036718Y029635D01*
X036719Y029633D01*
X036721Y029632D01*
X036724Y029631D01*
X036727Y029630D01*
X036731Y029629D01*
X036734Y029628D01*
X036735Y029628D01*
X036737D01*
X036738Y029628D01*
X036739D01*
X036742Y029628D01*
X036745Y029629D01*
X036747Y029629D01*
X036750Y029630D01*
X036751Y029630D01*
X036753Y029631D01*
X036753Y029631D01*
X036754Y029631D01*
X036756Y029633D01*
X036757Y029634D01*
X036759Y029636D01*
X036760Y029637D01*
X036761Y029639D01*
X036761Y029640D01*
X036762Y029641D01*
X036762Y029641D01*
X036762Y029642D01*
X036763Y029643D01*
X036763Y029647D01*
X036764Y029650D01*
X036764Y029653D01*
X036764Y029656D01*
Y029657D01*
X036764Y029658D01*
Y029659D01*
Y029660D01*
Y029660D01*
Y029660D01*
Y029718D01*
X036777D01*
Y029660D01*
D02*
G37*
G36*
X038094Y028333D02*
X038096Y028333D01*
X038099Y028333D01*
X038102Y028333D01*
X038104Y028332D01*
X038106Y028332D01*
X038108Y028331D01*
X038110Y028331D01*
X038111Y028331D01*
X038112Y028330D01*
X038113Y028330D01*
X038114Y028330D01*
X038115Y028329D01*
X038115Y028329D01*
X038115D01*
X038119Y028328D01*
X038122Y028326D01*
X038124Y028323D01*
X038127Y028322D01*
X038128Y028320D01*
X038129Y028318D01*
X038130Y028318D01*
X038130Y028317D01*
X038130Y028317D01*
Y028317D01*
X038132Y028314D01*
X038133Y028311D01*
X038134Y028308D01*
X038135Y028305D01*
X038135Y028303D01*
X038135Y028302D01*
Y028301D01*
X038136Y028300D01*
Y028299D01*
X038135Y028297D01*
X038135Y028294D01*
X038135Y028292D01*
X038134Y028290D01*
X038133Y028286D01*
X038132Y028284D01*
X038131Y028283D01*
X038130Y028281D01*
X038129Y028280D01*
X038128Y028279D01*
X038128Y028278D01*
X038127Y028278D01*
X038127Y028277D01*
X038126Y028277D01*
X038126Y028277D01*
X038124Y028275D01*
X038122Y028274D01*
X038121Y028272D01*
X038119Y028271D01*
X038116Y028271D01*
X038114Y028270D01*
X038111Y028269D01*
X038109Y028268D01*
X038107Y028268D01*
X038105Y028268D01*
X038104Y028268D01*
X038103Y028268D01*
X038102D01*
X038102D01*
X038102D01*
X038099Y028268D01*
X038096Y028268D01*
X038094Y028268D01*
X038092Y028269D01*
X038090Y028270D01*
X038088Y028270D01*
X038086Y028271D01*
X038084Y028272D01*
X038083Y028273D01*
X038082Y028273D01*
X038081Y028274D01*
X038080Y028275D01*
X038079Y028275D01*
X038078Y028276D01*
X038078Y028276D01*
X038078Y028276D01*
X038076Y028278D01*
X038075Y028280D01*
X038074Y028281D01*
X038073Y028283D01*
X038072Y028285D01*
X038071Y028287D01*
X038070Y028290D01*
X038070Y028291D01*
X038069Y028293D01*
X038069Y028294D01*
X038069Y028295D01*
X038069Y028296D01*
Y028297D01*
X038069Y028300D01*
X038070Y028303D01*
X038070Y028305D01*
X038071Y028307D01*
X038071Y028309D01*
X038072Y028310D01*
X038072Y028311D01*
X038073Y028311D01*
X038074Y028313D01*
X038076Y028315D01*
X038077Y028317D01*
X038079Y028319D01*
X038080Y028320D01*
X038081Y028321D01*
X038082Y028321D01*
X038082Y028321D01*
X038081D01*
X038080D01*
X038080D01*
X038080D01*
X038077Y028321D01*
X038074Y028321D01*
X038072Y028321D01*
X038069Y028320D01*
X038067Y028320D01*
X038066Y028320D01*
X038065Y028320D01*
X038065D01*
X038065Y028319D01*
X038065D01*
X038062Y028319D01*
X038060Y028318D01*
X038058Y028317D01*
X038056Y028317D01*
X038055Y028316D01*
X038054Y028315D01*
X038053Y028315D01*
X038053Y028315D01*
X038051Y028314D01*
X038050Y028313D01*
X038049Y028311D01*
X038048Y028310D01*
X038047Y028309D01*
X038046Y028309D01*
X038046Y028308D01*
X038046Y028308D01*
X038045Y028306D01*
X038044Y028304D01*
X038044Y028303D01*
X038044Y028301D01*
X038043Y028300D01*
X038043Y028299D01*
Y028298D01*
X038043Y028296D01*
X038044Y028293D01*
X038044Y028292D01*
X038045Y028290D01*
X038046Y028289D01*
X038046Y028288D01*
X038047Y028287D01*
X038047Y028287D01*
X038049Y028286D01*
X038050Y028284D01*
X038052Y028283D01*
X038054Y028283D01*
X038056Y028282D01*
X038058Y028282D01*
X038058Y028282D01*
X038059D01*
X038059Y028281D01*
X038059D01*
X038058Y028270D01*
X038054Y028270D01*
X038050Y028272D01*
X038047Y028273D01*
X038044Y028274D01*
X038042Y028276D01*
X038042Y028277D01*
X038041Y028277D01*
X038040Y028278D01*
X038040Y028278D01*
X038040Y028278D01*
X038040Y028278D01*
X038038Y028280D01*
X038037Y028281D01*
X038036Y028285D01*
X038035Y028288D01*
X038034Y028291D01*
X038033Y028294D01*
X038033Y028295D01*
Y028296D01*
X038033Y028297D01*
Y028298D01*
X038033Y028302D01*
X038034Y028305D01*
X038035Y028309D01*
X038036Y028311D01*
X038037Y028313D01*
X038037Y028314D01*
X038038Y028315D01*
X038038Y028315D01*
X038038Y028316D01*
X038039Y028317D01*
X038039Y028317D01*
Y028317D01*
X038042Y028320D01*
X038044Y028322D01*
X038047Y028324D01*
X038050Y028326D01*
X038052Y028328D01*
X038054Y028328D01*
X038054Y028329D01*
X038055Y028329D01*
X038056Y028329D01*
X038056Y028329D01*
X038056D01*
X038059Y028330D01*
X038061Y028331D01*
X038066Y028332D01*
X038071Y028333D01*
X038076Y028333D01*
X038078Y028333D01*
X038080Y028333D01*
X038082D01*
X038084Y028334D01*
X038085D01*
X038086D01*
X038087D01*
X038087D01*
X038090D01*
X038094Y028333D01*
D02*
G37*
G36*
X038070Y028243D02*
X038068Y028242D01*
X038065Y028242D01*
X038063Y028241D01*
X038062Y028240D01*
X038060Y028239D01*
X038058Y028239D01*
X038057Y028237D01*
X038056Y028237D01*
X038054Y028236D01*
X038054Y028235D01*
X038053Y028234D01*
X038052Y028234D01*
X038052Y028233D01*
X038051Y028233D01*
X038051Y028233D01*
X038051Y028232D01*
X038050Y028231D01*
X038049Y028229D01*
X038047Y028226D01*
X038046Y028223D01*
X038045Y028220D01*
X038045Y028217D01*
X038045Y028216D01*
Y028215D01*
X038044Y028215D01*
Y028214D01*
X038045Y028210D01*
X038045Y028207D01*
X038046Y028204D01*
X038047Y028202D01*
X038048Y028200D01*
X038048Y028199D01*
X038048Y028198D01*
X038049Y028197D01*
X038049Y028197D01*
X038049Y028197D01*
Y028196D01*
X038051Y028194D01*
X038053Y028191D01*
X038056Y028189D01*
X038058Y028188D01*
X038060Y028186D01*
X038062Y028186D01*
X038063Y028185D01*
X038063Y028185D01*
X038063Y028185D01*
X038063D01*
X038067Y028184D01*
X038071Y028183D01*
X038075Y028182D01*
X038078Y028182D01*
X038080Y028182D01*
X038081Y028181D01*
X038083D01*
X038084Y028181D01*
X038084D01*
X038085D01*
X038086D01*
X038086D01*
X038090Y028181D01*
X038093Y028182D01*
X038096Y028182D01*
X038099Y028183D01*
X038102Y028183D01*
X038103Y028184D01*
X038103Y028184D01*
X038104Y028184D01*
X038105Y028184D01*
X038105Y028184D01*
X038105D01*
X038108Y028186D01*
X038111Y028187D01*
X038114Y028189D01*
X038116Y028191D01*
X038118Y028193D01*
X038119Y028194D01*
X038120Y028195D01*
X038120Y028195D01*
Y028195D01*
X038122Y028198D01*
X038123Y028202D01*
X038124Y028205D01*
X038125Y028208D01*
X038125Y028211D01*
X038125Y028212D01*
Y028213D01*
X038126Y028213D01*
Y028215D01*
X038125Y028218D01*
X038125Y028222D01*
X038124Y028224D01*
X038123Y028227D01*
X038122Y028229D01*
X038121Y028230D01*
X038121Y028231D01*
X038121Y028231D01*
X038118Y028234D01*
X038116Y028236D01*
X038113Y028237D01*
X038111Y028239D01*
X038108Y028240D01*
X038107Y028241D01*
X038106Y028241D01*
X038106Y028241D01*
X038105Y028241D01*
X038105Y028242D01*
X038105D01*
X038108Y028255D01*
X038110Y028254D01*
X038113Y028253D01*
X038115Y028252D01*
X038117Y028251D01*
X038119Y028250D01*
X038121Y028248D01*
X038122Y028247D01*
X038124Y028246D01*
X038125Y028245D01*
X038126Y028244D01*
X038127Y028243D01*
X038128Y028242D01*
X038129Y028241D01*
X038129Y028241D01*
X038129Y028240D01*
X038129Y028240D01*
X038131Y028238D01*
X038132Y028236D01*
X038133Y028234D01*
X038134Y028232D01*
X038135Y028228D01*
X038136Y028224D01*
X038136Y028222D01*
X038137Y028220D01*
X038137Y028219D01*
X038137Y028217D01*
X038137Y028216D01*
Y028215D01*
X038137Y028210D01*
X038136Y028205D01*
X038135Y028201D01*
X038134Y028200D01*
X038134Y028198D01*
X038133Y028196D01*
X038133Y028195D01*
X038132Y028194D01*
X038132Y028192D01*
X038131Y028192D01*
X038131Y028191D01*
X038131Y028191D01*
X038131Y028191D01*
X038128Y028187D01*
X038125Y028183D01*
X038123Y028180D01*
X038120Y028178D01*
X038117Y028176D01*
X038116Y028175D01*
X038115Y028175D01*
X038114Y028174D01*
X038114Y028174D01*
X038113Y028174D01*
X038113Y028174D01*
X038109Y028172D01*
X038104Y028170D01*
X038099Y028169D01*
X038095Y028168D01*
X038093Y028168D01*
X038091Y028168D01*
X038090Y028168D01*
X038088D01*
X038087Y028168D01*
X038086D01*
X038086D01*
X038086D01*
X038081Y028168D01*
X038075Y028168D01*
X038071Y028169D01*
X038069Y028170D01*
X038067Y028170D01*
X038065Y028171D01*
X038064Y028171D01*
X038062Y028172D01*
X038061Y028172D01*
X038060Y028172D01*
X038059Y028173D01*
X038059Y028173D01*
X038059D01*
X038054Y028175D01*
X038051Y028177D01*
X038047Y028180D01*
X038046Y028181D01*
X038045Y028183D01*
X038043Y028184D01*
X038042Y028185D01*
X038042Y028186D01*
X038041Y028187D01*
X038040Y028187D01*
X038040Y028188D01*
X038040Y028188D01*
X038040Y028188D01*
X038038Y028190D01*
X038037Y028192D01*
X038036Y028197D01*
X038035Y028201D01*
X038034Y028205D01*
X038034Y028207D01*
X038033Y028209D01*
X038033Y028211D01*
Y028212D01*
X038033Y028213D01*
Y028215D01*
X038033Y028218D01*
X038034Y028220D01*
X038034Y028223D01*
X038034Y028225D01*
X038035Y028228D01*
X038036Y028230D01*
X038037Y028232D01*
X038037Y028234D01*
X038038Y028235D01*
X038039Y028237D01*
X038040Y028238D01*
X038040Y028239D01*
X038041Y028240D01*
X038041Y028241D01*
X038042Y028241D01*
X038042Y028241D01*
X038043Y028243D01*
X038045Y028245D01*
X038047Y028247D01*
X038049Y028248D01*
X038053Y028251D01*
X038057Y028253D01*
X038059Y028254D01*
X038061Y028254D01*
X038063Y028255D01*
X038064Y028255D01*
X038065Y028256D01*
X038066Y028256D01*
X038066Y028256D01*
X038067D01*
X038070Y028243D01*
D02*
G37*
G36*
X035757Y028584D02*
X035760Y028583D01*
X035763Y028582D01*
X035765Y028581D01*
X035767Y028580D01*
X035769Y028580D01*
X035770Y028579D01*
X035770Y028579D01*
X035770D01*
X035772Y028577D01*
X035774Y028575D01*
X035776Y028572D01*
X035777Y028570D01*
X035778Y028568D01*
X035779Y028566D01*
X035779Y028566D01*
X035780Y028565D01*
X035780Y028565D01*
Y028565D01*
X035781Y028568D01*
X035782Y028570D01*
X035783Y028572D01*
X035785Y028573D01*
X035786Y028574D01*
X035787Y028575D01*
X035787Y028576D01*
X035788Y028576D01*
X035790Y028577D01*
X035792Y028578D01*
X035794Y028579D01*
X035796Y028579D01*
X035797Y028580D01*
X035799Y028580D01*
X035800D01*
X035800D01*
X035800D01*
X035802Y028580D01*
X035804Y028579D01*
X035807Y028578D01*
X035811Y028577D01*
X035813Y028576D01*
X035815Y028574D01*
X035816Y028574D01*
X035817Y028573D01*
X035818Y028572D01*
X035818Y028572D01*
X035818Y028572D01*
X035819Y028572D01*
X035820Y028570D01*
X035821Y028568D01*
X035822Y028567D01*
X035823Y028565D01*
X035824Y028561D01*
X035825Y028558D01*
X035826Y028557D01*
X035826Y028555D01*
X035826Y028554D01*
X035826Y028553D01*
X035826Y028552D01*
Y028550D01*
X035826Y028548D01*
X035826Y028546D01*
X035825Y028542D01*
X035824Y028540D01*
X035824Y028538D01*
X035823Y028537D01*
X035822Y028535D01*
X035822Y028534D01*
X035821Y028533D01*
X035820Y028532D01*
X035820Y028531D01*
X035819Y028530D01*
X035819Y028530D01*
X035819Y028530D01*
X035819Y028530D01*
X035817Y028528D01*
X035816Y028527D01*
X035814Y028526D01*
X035813Y028525D01*
X035810Y028524D01*
X035807Y028523D01*
X035804Y028522D01*
X035803Y028522D01*
X035802Y028522D01*
X035801Y028522D01*
X035801D01*
X035800D01*
X035800D01*
X035798Y028522D01*
X035795Y028522D01*
X035793Y028523D01*
X035791Y028524D01*
X035790Y028524D01*
X035789Y028525D01*
X035788Y028525D01*
X035788Y028525D01*
X035786Y028527D01*
X035784Y028529D01*
X035783Y028531D01*
X035782Y028532D01*
X035781Y028534D01*
X035780Y028536D01*
X035780Y028536D01*
X035780Y028537D01*
X035780Y028537D01*
Y028537D01*
X035779Y028533D01*
X035777Y028531D01*
X035776Y028528D01*
X035774Y028526D01*
X035773Y028525D01*
X035772Y028523D01*
X035771Y028523D01*
X035771Y028523D01*
X035771D01*
X035768Y028521D01*
X035765Y028520D01*
X035763Y028519D01*
X035760Y028518D01*
X035758Y028518D01*
X035757Y028518D01*
X035756D01*
X035755Y028518D01*
X035755D01*
X035754D01*
X035754D01*
X035752Y028518D01*
X035750Y028518D01*
X035747Y028519D01*
X035745Y028519D01*
X035742Y028521D01*
X035740Y028521D01*
X035738Y028522D01*
X035737Y028523D01*
X035736Y028524D01*
X035735Y028525D01*
X035734Y028525D01*
X035733Y028526D01*
X035733Y028526D01*
X035733Y028527D01*
X035732Y028527D01*
X035731Y028528D01*
X035729Y028530D01*
X035728Y028532D01*
X035727Y028534D01*
X035727Y028536D01*
X035726Y028538D01*
X035725Y028542D01*
X035724Y028544D01*
X035724Y028546D01*
X035724Y028547D01*
X035724Y028548D01*
X035724Y028549D01*
Y028551D01*
X035724Y028553D01*
X035724Y028556D01*
X035725Y028558D01*
X035725Y028561D01*
X035726Y028563D01*
X035726Y028565D01*
X035727Y028567D01*
X035728Y028568D01*
X035729Y028570D01*
X035730Y028571D01*
X035730Y028572D01*
X035731Y028573D01*
X035732Y028574D01*
X035732Y028574D01*
X035732Y028575D01*
X035732Y028575D01*
X035734Y028576D01*
X035736Y028578D01*
X035738Y028579D01*
X035739Y028580D01*
X035741Y028581D01*
X035743Y028582D01*
X035746Y028583D01*
X035748Y028583D01*
X035749Y028583D01*
X035751Y028584D01*
X035752Y028584D01*
X035753Y028584D01*
X035753D01*
X035754D01*
X035754D01*
X035757Y028584D01*
D02*
G37*
G36*
X035761Y028493D02*
X035758Y028493D01*
X035756Y028492D01*
X035754Y028491D01*
X035752Y028490D01*
X035750Y028490D01*
X035749Y028489D01*
X035747Y028488D01*
X035746Y028487D01*
X035745Y028486D01*
X035744Y028485D01*
X035743Y028484D01*
X035743Y028484D01*
X035742Y028483D01*
X035742Y028483D01*
X035742Y028483D01*
X035741Y028483D01*
X035740Y028481D01*
X035739Y028480D01*
X035738Y028476D01*
X035737Y028473D01*
X035736Y028470D01*
X035735Y028468D01*
X035735Y028467D01*
Y028466D01*
X035735Y028465D01*
Y028464D01*
X035735Y028460D01*
X035736Y028457D01*
X035736Y028454D01*
X035737Y028452D01*
X035738Y028450D01*
X035739Y028449D01*
X035739Y028448D01*
X035739Y028447D01*
X035739Y028447D01*
X035740Y028447D01*
Y028447D01*
X035742Y028444D01*
X035744Y028442D01*
X035746Y028440D01*
X035749Y028438D01*
X035751Y028437D01*
X035752Y028436D01*
X035753Y028435D01*
X035754Y028435D01*
X035754Y028435D01*
X035754D01*
X035758Y028434D01*
X035762Y028433D01*
X035765Y028432D01*
X035769Y028432D01*
X035770Y028432D01*
X035772Y028432D01*
X035773D01*
X035774Y028431D01*
X035775D01*
X035776D01*
X035776D01*
X035776D01*
X035780Y028432D01*
X035784Y028432D01*
X035787Y028432D01*
X035790Y028433D01*
X035792Y028433D01*
X035793Y028434D01*
X035794Y028434D01*
X035795Y028434D01*
X035795Y028434D01*
X035795Y028434D01*
X035796D01*
X035799Y028436D01*
X035802Y028437D01*
X035804Y028439D01*
X035807Y028441D01*
X035808Y028443D01*
X035810Y028444D01*
X035810Y028445D01*
X035811Y028445D01*
Y028445D01*
X035812Y028448D01*
X035814Y028452D01*
X035815Y028455D01*
X035815Y028458D01*
X035816Y028461D01*
X035816Y028462D01*
Y028463D01*
X035816Y028464D01*
Y028465D01*
X035816Y028468D01*
X035815Y028472D01*
X035815Y028474D01*
X035814Y028477D01*
X035813Y028479D01*
X035812Y028480D01*
X035811Y028481D01*
X035811Y028481D01*
X035809Y028484D01*
X035806Y028486D01*
X035804Y028488D01*
X035801Y028489D01*
X035799Y028490D01*
X035798Y028491D01*
X035797Y028491D01*
X035796Y028491D01*
X035796Y028492D01*
X035795Y028492D01*
X035795D01*
X035798Y028505D01*
X035801Y028504D01*
X035803Y028503D01*
X035805Y028502D01*
X035807Y028501D01*
X035809Y028500D01*
X035811Y028498D01*
X035813Y028497D01*
X035814Y028496D01*
X035815Y028495D01*
X035817Y028494D01*
X035818Y028493D01*
X035818Y028492D01*
X035819Y028491D01*
X035820Y028491D01*
X035820Y028491D01*
X035820Y028490D01*
X035821Y028488D01*
X035822Y028486D01*
X035823Y028484D01*
X035824Y028482D01*
X035826Y028478D01*
X035826Y028474D01*
X035827Y028472D01*
X035827Y028470D01*
X035827Y028469D01*
X035827Y028468D01*
X035828Y028466D01*
Y028465D01*
X035827Y028460D01*
X035826Y028456D01*
X035826Y028452D01*
X035825Y028450D01*
X035824Y028448D01*
X035824Y028446D01*
X035823Y028445D01*
X035823Y028444D01*
X035822Y028443D01*
X035822Y028442D01*
X035822Y028441D01*
X035822Y028441D01*
X035821Y028441D01*
X035819Y028437D01*
X035816Y028433D01*
X035813Y028431D01*
X035810Y028428D01*
X035808Y028426D01*
X035806Y028425D01*
X035805Y028425D01*
X035805Y028424D01*
X035804Y028424D01*
X035804Y028424D01*
X035804Y028424D01*
X035799Y028422D01*
X035794Y028420D01*
X035790Y028419D01*
X035786Y028419D01*
X035784Y028418D01*
X035782Y028418D01*
X035780Y028418D01*
X035779D01*
X035778Y028418D01*
X035777D01*
X035776D01*
X035776D01*
X035771Y028418D01*
X035766Y028419D01*
X035762Y028419D01*
X035759Y028420D01*
X035757Y028420D01*
X035756Y028421D01*
X035754Y028421D01*
X035753Y028422D01*
X035752Y028422D01*
X035751Y028423D01*
X035750Y028423D01*
X035749Y028423D01*
X035749D01*
X035745Y028425D01*
X035741Y028428D01*
X035738Y028430D01*
X035736Y028432D01*
X035735Y028433D01*
X035734Y028434D01*
X035733Y028435D01*
X035732Y028436D01*
X035732Y028437D01*
X035731Y028437D01*
X035731Y028438D01*
X035730Y028438D01*
X035730Y028439D01*
X035729Y028441D01*
X035728Y028443D01*
X035726Y028447D01*
X035725Y028451D01*
X035725Y028455D01*
X035724Y028458D01*
X035724Y028459D01*
X035724Y028461D01*
Y028462D01*
X035724Y028463D01*
Y028465D01*
X035724Y028468D01*
X035724Y028471D01*
X035724Y028473D01*
X035725Y028476D01*
X035726Y028478D01*
X035726Y028480D01*
X035727Y028482D01*
X035728Y028484D01*
X035729Y028486D01*
X035729Y028487D01*
X035730Y028488D01*
X035731Y028490D01*
X035732Y028490D01*
X035732Y028491D01*
X035732Y028491D01*
X035732Y028491D01*
X035734Y028493D01*
X035736Y028495D01*
X035738Y028497D01*
X035740Y028498D01*
X035744Y028501D01*
X035748Y028503D01*
X035750Y028504D01*
X035752Y028505D01*
X035753Y028505D01*
X035754Y028506D01*
X035756Y028506D01*
X035756Y028506D01*
X035757Y028507D01*
X035757D01*
X035761Y028493D01*
D02*
G37*
G36*
X038071Y029711D02*
X038074Y029711D01*
X038076Y029711D01*
X038079Y029710D01*
X038081Y029709D01*
X038083Y029709D01*
X038084Y029708D01*
X038086Y029707D01*
X038087Y029706D01*
X038089Y029705D01*
X038090Y029705D01*
X038091Y029704D01*
X038091Y029703D01*
X038092Y029703D01*
X038092Y029703D01*
X038092Y029703D01*
X038094Y029701D01*
X038095Y029699D01*
X038096Y029697D01*
X038098Y029695D01*
X038099Y029693D01*
X038099Y029691D01*
X038100Y029688D01*
X038101Y029686D01*
X038101Y029685D01*
X038101Y029684D01*
X038101Y029683D01*
X038101Y029682D01*
Y029678D01*
X038101Y029677D01*
X038100Y029673D01*
X038099Y029670D01*
X038098Y029667D01*
X038097Y029665D01*
X038096Y029664D01*
X038096Y029663D01*
X038096Y029662D01*
X038095Y029662D01*
X038095Y029661D01*
X038095Y029661D01*
X038122Y029667D01*
Y029707D01*
X038134D01*
Y029657D01*
X038082Y029647D01*
X038081Y029659D01*
X038082Y029660D01*
X038084Y029661D01*
X038085Y029662D01*
X038086Y029664D01*
X038087Y029665D01*
X038087Y029666D01*
X038088Y029666D01*
X038088Y029666D01*
X038089Y029668D01*
X038089Y029670D01*
X038090Y029672D01*
X038090Y029674D01*
X038090Y029675D01*
X038091Y029676D01*
Y029679D01*
X038090Y029681D01*
X038090Y029684D01*
X038089Y029686D01*
X038087Y029689D01*
X038086Y029690D01*
X038085Y029692D01*
X038085Y029692D01*
X038084Y029693D01*
X038084D01*
X038082Y029695D01*
X038079Y029696D01*
X038076Y029697D01*
X038074Y029698D01*
X038071Y029698D01*
X038070Y029698D01*
X038070D01*
X038069Y029699D01*
X038068D01*
X038068D01*
X038068D01*
X038066D01*
X038064Y029698D01*
X038060Y029698D01*
X038057Y029697D01*
X038055Y029696D01*
X038053Y029694D01*
X038051Y029693D01*
X038051Y029693D01*
X038050Y029693D01*
X038050Y029693D01*
X038050Y029692D01*
X038049Y029691D01*
X038048Y029690D01*
X038046Y029687D01*
X038045Y029685D01*
X038044Y029683D01*
X038044Y029680D01*
X038043Y029679D01*
X038043Y029678D01*
Y029677D01*
X038043Y029675D01*
X038044Y029672D01*
X038045Y029670D01*
X038046Y029668D01*
X038046Y029667D01*
X038047Y029665D01*
X038048Y029665D01*
X038048Y029665D01*
X038050Y029663D01*
X038052Y029661D01*
X038055Y029660D01*
X038057Y029659D01*
X038059Y029659D01*
X038061Y029658D01*
X038061Y029658D01*
X038062Y029658D01*
X038062D01*
X038062D01*
X038061Y029645D01*
X038059Y029645D01*
X038057Y029646D01*
X038053Y029647D01*
X038049Y029649D01*
X038047Y029650D01*
X038046Y029650D01*
X038045Y029651D01*
X038044Y029652D01*
X038043Y029653D01*
X038042Y029653D01*
X038042Y029654D01*
X038041Y029654D01*
X038041Y029655D01*
X038041Y029655D01*
X038039Y029657D01*
X038038Y029658D01*
X038037Y029660D01*
X038036Y029662D01*
X038035Y029666D01*
X038034Y029669D01*
X038034Y029671D01*
X038034Y029673D01*
X038033Y029674D01*
X038033Y029675D01*
X038033Y029676D01*
Y029677D01*
X038033Y029680D01*
X038034Y029683D01*
X038034Y029686D01*
X038035Y029688D01*
X038036Y029691D01*
X038037Y029693D01*
X038038Y029695D01*
X038039Y029697D01*
X038040Y029698D01*
X038041Y029700D01*
X038043Y029701D01*
X038043Y029702D01*
X038044Y029703D01*
X038045Y029703D01*
X038045Y029704D01*
X038045Y029704D01*
X038047Y029705D01*
X038049Y029706D01*
X038051Y029707D01*
X038053Y029708D01*
X038057Y029710D01*
X038061Y029711D01*
X038062Y029711D01*
X038064Y029711D01*
X038065Y029711D01*
X038066Y029711D01*
X038067Y029712D01*
X038068D01*
X038069D01*
X038069D01*
X038071Y029711D01*
D02*
G37*
G36*
X038070Y029620D02*
X038068Y029620D01*
X038065Y029619D01*
X038063Y029618D01*
X038062Y029618D01*
X038060Y029617D01*
X038058Y029616D01*
X038057Y029615D01*
X038056Y029614D01*
X038054Y029613D01*
X038054Y029612D01*
X038053Y029612D01*
X038052Y029611D01*
X038052Y029611D01*
X038051Y029610D01*
X038051Y029610D01*
X038051Y029610D01*
X038050Y029608D01*
X038049Y029607D01*
X038047Y029604D01*
X038046Y029601D01*
X038045Y029598D01*
X038045Y029595D01*
X038045Y029594D01*
Y029593D01*
X038044Y029592D01*
Y029591D01*
X038045Y029588D01*
X038045Y029584D01*
X038046Y029582D01*
X038047Y029579D01*
X038048Y029577D01*
X038048Y029576D01*
X038048Y029575D01*
X038049Y029575D01*
X038049Y029574D01*
X038049Y029574D01*
Y029574D01*
X038051Y029571D01*
X038053Y029569D01*
X038056Y029567D01*
X038058Y029565D01*
X038060Y029564D01*
X038062Y029563D01*
X038063Y029563D01*
X038063Y029562D01*
X038063Y029562D01*
X038063D01*
X038067Y029561D01*
X038071Y029560D01*
X038075Y029560D01*
X038078Y029559D01*
X038080Y029559D01*
X038081Y029559D01*
X038083D01*
X038084Y029559D01*
X038084D01*
X038085D01*
X038086D01*
X038086D01*
X038090Y029559D01*
X038093Y029559D01*
X038096Y029560D01*
X038099Y029560D01*
X038102Y029561D01*
X038103Y029561D01*
X038103Y029561D01*
X038104Y029561D01*
X038105Y029562D01*
X038105Y029562D01*
X038105D01*
X038108Y029563D01*
X038111Y029565D01*
X038114Y029567D01*
X038116Y029568D01*
X038118Y029570D01*
X038119Y029571D01*
X038120Y029572D01*
X038120Y029572D01*
Y029573D01*
X038122Y029576D01*
X038123Y029579D01*
X038124Y029582D01*
X038125Y029585D01*
X038125Y029588D01*
X038125Y029589D01*
Y029590D01*
X038126Y029591D01*
Y029592D01*
X038125Y029596D01*
X038125Y029599D01*
X038124Y029602D01*
X038123Y029604D01*
X038122Y029606D01*
X038121Y029608D01*
X038121Y029608D01*
X038121Y029609D01*
X038118Y029611D01*
X038116Y029613D01*
X038113Y029615D01*
X038111Y029616D01*
X038108Y029618D01*
X038107Y029618D01*
X038106Y029618D01*
X038106Y029619D01*
X038105Y029619D01*
X038105Y029619D01*
X038105D01*
X038108Y029632D01*
X038110Y029631D01*
X038113Y029630D01*
X038115Y029629D01*
X038117Y029628D01*
X038119Y029627D01*
X038121Y029626D01*
X038122Y029625D01*
X038124Y029623D01*
X038125Y029622D01*
X038126Y029621D01*
X038127Y029620D01*
X038128Y029619D01*
X038129Y029619D01*
X038129Y029618D01*
X038129Y029618D01*
X038129Y029618D01*
X038131Y029616D01*
X038132Y029614D01*
X038133Y029612D01*
X038134Y029609D01*
X038135Y029605D01*
X038136Y029601D01*
X038136Y029599D01*
X038137Y029598D01*
X038137Y029596D01*
X038137Y029595D01*
X038137Y029594D01*
Y029592D01*
X038137Y029588D01*
X038136Y029583D01*
X038135Y029579D01*
X038134Y029577D01*
X038134Y029575D01*
X038133Y029574D01*
X038133Y029572D01*
X038132Y029571D01*
X038132Y029570D01*
X038131Y029569D01*
X038131Y029569D01*
X038131Y029568D01*
X038131Y029568D01*
X038128Y029564D01*
X038125Y029561D01*
X038123Y029558D01*
X038120Y029555D01*
X038117Y029553D01*
X038116Y029553D01*
X038115Y029552D01*
X038114Y029552D01*
X038114Y029551D01*
X038113Y029551D01*
X038113Y029551D01*
X038109Y029549D01*
X038104Y029548D01*
X038099Y029546D01*
X038095Y029546D01*
X038093Y029545D01*
X038091Y029545D01*
X038090Y029545D01*
X038088D01*
X038087Y029545D01*
X038086D01*
X038086D01*
X038086D01*
X038081Y029545D01*
X038075Y029546D01*
X038071Y029547D01*
X038069Y029547D01*
X038067Y029548D01*
X038065Y029548D01*
X038064Y029549D01*
X038062Y029549D01*
X038061Y029549D01*
X038060Y029550D01*
X038059Y029550D01*
X038059Y029550D01*
X038059D01*
X038054Y029552D01*
X038051Y029555D01*
X038047Y029558D01*
X038046Y029559D01*
X038045Y029560D01*
X038043Y029561D01*
X038042Y029562D01*
X038042Y029563D01*
X038041Y029564D01*
X038040Y029565D01*
X038040Y029565D01*
X038040Y029566D01*
X038040Y029566D01*
X038038Y029568D01*
X038037Y029570D01*
X038036Y029574D01*
X038035Y029579D01*
X038034Y029583D01*
X038034Y029585D01*
X038033Y029587D01*
X038033Y029588D01*
Y029589D01*
X038033Y029591D01*
Y029592D01*
X038033Y029595D01*
X038034Y029598D01*
X038034Y029600D01*
X038034Y029603D01*
X038035Y029605D01*
X038036Y029607D01*
X038037Y029609D01*
X038037Y029611D01*
X038038Y029613D01*
X038039Y029615D01*
X038040Y029616D01*
X038040Y029617D01*
X038041Y029618D01*
X038041Y029618D01*
X038042Y029619D01*
X038042Y029619D01*
X038043Y029621D01*
X038045Y029622D01*
X038047Y029624D01*
X038049Y029626D01*
X038053Y029628D01*
X038057Y029630D01*
X038059Y029631D01*
X038061Y029632D01*
X038063Y029632D01*
X038064Y029633D01*
X038065Y029633D01*
X038066Y029634D01*
X038066Y029634D01*
X038067D01*
X038070Y029620D01*
D02*
G37*
G36*
X035737Y028966D02*
X035740Y028968D01*
X035741Y028969D01*
X035742Y028970D01*
X035743Y028971D01*
X035743Y028971D01*
X035744Y028972D01*
X035744Y028972D01*
X035745Y028972D01*
X035745Y028973D01*
X035747Y028975D01*
X035749Y028978D01*
X035752Y028980D01*
X035753Y028982D01*
X035754Y028983D01*
X035755Y028984D01*
X035756Y028985D01*
X035756Y028986D01*
X035756Y028986D01*
X035757Y028986D01*
X035759Y028988D01*
X035761Y028991D01*
X035762Y028993D01*
X035764Y028995D01*
X035766Y028996D01*
X035767Y028998D01*
X035768Y028999D01*
X035770Y029000D01*
X035771Y029002D01*
X035772Y029002D01*
X035772Y029003D01*
X035773Y029004D01*
X035774Y029005D01*
X035774Y029005D01*
X035777Y029007D01*
X035779Y029009D01*
X035781Y029010D01*
X035783Y029011D01*
X035784Y029012D01*
X035785Y029013D01*
X035786Y029013D01*
X035786Y029013D01*
X035789Y029014D01*
X035791Y029015D01*
X035793Y029015D01*
X035795Y029015D01*
X035796Y029016D01*
X035797Y029016D01*
X035798D01*
X035798D01*
X035801Y029016D01*
X035803Y029015D01*
X035805Y029015D01*
X035806Y029014D01*
X035810Y029013D01*
X035813Y029012D01*
X035814Y029011D01*
X035815Y029010D01*
X035816Y029009D01*
X035817Y029009D01*
X035817Y029008D01*
X035818Y029008D01*
X035818Y029007D01*
X035818Y029007D01*
X035820Y029006D01*
X035821Y029004D01*
X035822Y029002D01*
X035823Y029000D01*
X035824Y028996D01*
X035825Y028993D01*
X035825Y028991D01*
X035826Y028989D01*
X035826Y028988D01*
X035826Y028987D01*
X035826Y028986D01*
Y028984D01*
X035826Y028982D01*
X035826Y028979D01*
X035825Y028977D01*
X035825Y028975D01*
X035824Y028973D01*
X035824Y028971D01*
X035823Y028969D01*
X035822Y028967D01*
X035822Y028966D01*
X035821Y028965D01*
X035820Y028964D01*
X035820Y028963D01*
X035819Y028962D01*
X035819Y028962D01*
X035819Y028962D01*
X035819Y028961D01*
X035817Y028960D01*
X035816Y028959D01*
X035814Y028957D01*
X035812Y028956D01*
X035809Y028955D01*
X035805Y028953D01*
X035804Y028953D01*
X035802Y028953D01*
X035801Y028952D01*
X035800Y028952D01*
X035798Y028952D01*
X035798D01*
X035797Y028952D01*
X035797D01*
X035796Y028964D01*
X035799Y028965D01*
X035802Y028965D01*
X035805Y028966D01*
X035807Y028967D01*
X035809Y028968D01*
X035810Y028969D01*
X035810Y028969D01*
X035811Y028970D01*
X035812Y028972D01*
X035814Y028974D01*
X035815Y028977D01*
X035815Y028979D01*
X035816Y028981D01*
X035816Y028983D01*
X035816Y028983D01*
Y028984D01*
X035816Y028987D01*
X035815Y028990D01*
X035814Y028992D01*
X035814Y028994D01*
X035813Y028996D01*
X035812Y028997D01*
X035811Y028997D01*
X035811Y028998D01*
X035809Y029000D01*
X035807Y029001D01*
X035805Y029002D01*
X035803Y029002D01*
X035801Y029003D01*
X035800Y029003D01*
X035799Y029003D01*
X035799D01*
X035799D01*
X035796Y029003D01*
X035793Y029002D01*
X035791Y029001D01*
X035789Y029000D01*
X035787Y028999D01*
X035785Y028998D01*
X035784Y028998D01*
X035784Y028997D01*
X035784Y028997D01*
X035784D01*
X035782Y028996D01*
X035781Y028995D01*
X035779Y028993D01*
X035777Y028991D01*
X035774Y028988D01*
X035770Y028984D01*
X035768Y028982D01*
X035767Y028981D01*
X035766Y028979D01*
X035765Y028978D01*
X035764Y028977D01*
X035763Y028976D01*
X035763Y028975D01*
X035762Y028975D01*
X035759Y028971D01*
X035756Y028968D01*
X035754Y028965D01*
X035752Y028963D01*
X035750Y028961D01*
X035748Y028960D01*
X035748Y028959D01*
X035747Y028959D01*
X035747D01*
X035745Y028957D01*
X035743Y028955D01*
X035740Y028954D01*
X035738Y028953D01*
X035736Y028952D01*
X035735Y028951D01*
X035734Y028951D01*
X035734Y028951D01*
X035734D01*
X035732Y028950D01*
X035731Y028950D01*
X035729Y028950D01*
X035728Y028949D01*
X035727Y028949D01*
X035726D01*
X035726D01*
X035725D01*
Y029016D01*
X035737D01*
Y028966D01*
D02*
G37*
G36*
X035761Y028926D02*
X035758Y028926D01*
X035756Y028925D01*
X035754Y028924D01*
X035752Y028924D01*
X035750Y028923D01*
X035749Y028922D01*
X035747Y028921D01*
X035746Y028920D01*
X035745Y028919D01*
X035744Y028918D01*
X035743Y028918D01*
X035743Y028917D01*
X035742Y028917D01*
X035742Y028916D01*
X035742Y028916D01*
X035741Y028916D01*
X035740Y028914D01*
X035739Y028913D01*
X035738Y028910D01*
X035737Y028907D01*
X035736Y028904D01*
X035735Y028901D01*
X035735Y028900D01*
Y028899D01*
X035735Y028898D01*
Y028897D01*
X035735Y028894D01*
X035736Y028890D01*
X035736Y028888D01*
X035737Y028885D01*
X035738Y028883D01*
X035739Y028882D01*
X035739Y028881D01*
X035739Y028881D01*
X035739Y028880D01*
X035740Y028880D01*
Y028880D01*
X035742Y028877D01*
X035744Y028875D01*
X035746Y028873D01*
X035749Y028871D01*
X035751Y028870D01*
X035752Y028869D01*
X035753Y028869D01*
X035754Y028868D01*
X035754Y028868D01*
X035754D01*
X035758Y028867D01*
X035762Y028866D01*
X035765Y028866D01*
X035769Y028865D01*
X035770Y028865D01*
X035772Y028865D01*
X035773D01*
X035774Y028865D01*
X035775D01*
X035776D01*
X035776D01*
X035776D01*
X035780Y028865D01*
X035784Y028865D01*
X035787Y028866D01*
X035790Y028866D01*
X035792Y028867D01*
X035793Y028867D01*
X035794Y028867D01*
X035795Y028867D01*
X035795Y028868D01*
X035795Y028868D01*
X035796D01*
X035799Y028869D01*
X035802Y028871D01*
X035804Y028872D01*
X035807Y028874D01*
X035808Y028876D01*
X035810Y028877D01*
X035810Y028878D01*
X035811Y028878D01*
Y028879D01*
X035812Y028882D01*
X035814Y028885D01*
X035815Y028888D01*
X035815Y028891D01*
X035816Y028894D01*
X035816Y028895D01*
Y028896D01*
X035816Y028897D01*
Y028898D01*
X035816Y028902D01*
X035815Y028905D01*
X035815Y028908D01*
X035814Y028910D01*
X035813Y028912D01*
X035812Y028914D01*
X035811Y028914D01*
X035811Y028915D01*
X035809Y028917D01*
X035806Y028919D01*
X035804Y028921D01*
X035801Y028922D01*
X035799Y028924D01*
X035798Y028924D01*
X035797Y028924D01*
X035796Y028925D01*
X035796Y028925D01*
X035795Y028925D01*
X035795D01*
X035798Y028938D01*
X035801Y028937D01*
X035803Y028936D01*
X035805Y028935D01*
X035807Y028934D01*
X035809Y028933D01*
X035811Y028932D01*
X035813Y028930D01*
X035814Y028929D01*
X035815Y028928D01*
X035817Y028927D01*
X035818Y028926D01*
X035818Y028925D01*
X035819Y028925D01*
X035820Y028924D01*
X035820Y028924D01*
X035820Y028924D01*
X035821Y028922D01*
X035822Y028920D01*
X035823Y028918D01*
X035824Y028915D01*
X035826Y028911D01*
X035826Y028907D01*
X035827Y028905D01*
X035827Y028904D01*
X035827Y028902D01*
X035827Y028901D01*
X035828Y028900D01*
Y028898D01*
X035827Y028894D01*
X035826Y028889D01*
X035826Y028885D01*
X035825Y028883D01*
X035824Y028881D01*
X035824Y028880D01*
X035823Y028878D01*
X035823Y028877D01*
X035822Y028876D01*
X035822Y028875D01*
X035822Y028875D01*
X035822Y028874D01*
X035821Y028874D01*
X035819Y028870D01*
X035816Y028867D01*
X035813Y028864D01*
X035810Y028861D01*
X035808Y028859D01*
X035806Y028859D01*
X035805Y028858D01*
X035805Y028858D01*
X035804Y028857D01*
X035804Y028857D01*
X035804Y028857D01*
X035799Y028855D01*
X035794Y028853D01*
X035790Y028852D01*
X035786Y028852D01*
X035784Y028851D01*
X035782Y028851D01*
X035780Y028851D01*
X035779D01*
X035778Y028851D01*
X035777D01*
X035776D01*
X035776D01*
X035771Y028851D01*
X035766Y028852D01*
X035762Y028853D01*
X035759Y028853D01*
X035757Y028854D01*
X035756Y028854D01*
X035754Y028855D01*
X035753Y028855D01*
X035752Y028855D01*
X035751Y028856D01*
X035750Y028856D01*
X035749Y028856D01*
X035749D01*
X035745Y028858D01*
X035741Y028861D01*
X035738Y028863D01*
X035736Y028865D01*
X035735Y028866D01*
X035734Y028867D01*
X035733Y028868D01*
X035732Y028869D01*
X035732Y028870D01*
X035731Y028871D01*
X035731Y028871D01*
X035730Y028872D01*
X035730Y028872D01*
X035729Y028874D01*
X035728Y028876D01*
X035726Y028880D01*
X035725Y028885D01*
X035725Y028889D01*
X035724Y028891D01*
X035724Y028893D01*
X035724Y028894D01*
Y028895D01*
X035724Y028897D01*
Y028898D01*
X035724Y028901D01*
X035724Y028904D01*
X035724Y028906D01*
X035725Y028909D01*
X035726Y028911D01*
X035726Y028913D01*
X035727Y028915D01*
X035728Y028917D01*
X035729Y028919D01*
X035729Y028920D01*
X035730Y028922D01*
X035731Y028923D01*
X035732Y028924D01*
X035732Y028924D01*
X035732Y028925D01*
X035732Y028925D01*
X035734Y028927D01*
X035736Y028928D01*
X035738Y028930D01*
X035740Y028932D01*
X035744Y028934D01*
X035748Y028936D01*
X035750Y028937D01*
X035752Y028938D01*
X035753Y028938D01*
X035754Y028939D01*
X035756Y028939D01*
X035756Y028940D01*
X035757Y028940D01*
X035757D01*
X035761Y028926D01*
D02*
G37*
G36*
X035826Y029455D02*
X035824Y029454D01*
X035821Y029452D01*
X035819Y029450D01*
X035817Y029449D01*
X035815Y029447D01*
X035814Y029446D01*
X035813Y029445D01*
X035813Y029445D01*
X035813Y029445D01*
X035813Y029444D01*
X035810Y029441D01*
X035808Y029438D01*
X035806Y029435D01*
X035804Y029432D01*
X035803Y029430D01*
X035802Y029429D01*
X035802Y029428D01*
X035801Y029427D01*
X035801Y029427D01*
X035801Y029427D01*
Y029426D01*
X035789D01*
X035790Y029429D01*
X035791Y029431D01*
X035792Y029433D01*
X035793Y029435D01*
X035794Y029437D01*
X035795Y029438D01*
X035795Y029439D01*
X035795Y029439D01*
Y029439D01*
X035797Y029442D01*
X035798Y029444D01*
X035800Y029446D01*
X035801Y029448D01*
X035802Y029449D01*
X035803Y029450D01*
X035804Y029451D01*
X035804Y029451D01*
X035725D01*
Y029463D01*
X035826D01*
Y029455D01*
D02*
G37*
G36*
X035761Y029392D02*
X035758Y029392D01*
X035756Y029391D01*
X035754Y029390D01*
X035752Y029390D01*
X035750Y029389D01*
X035749Y029388D01*
X035747Y029387D01*
X035746Y029386D01*
X035745Y029385D01*
X035744Y029384D01*
X035743Y029384D01*
X035743Y029383D01*
X035742Y029382D01*
X035742Y029382D01*
X035742Y029382D01*
X035741Y029382D01*
X035740Y029380D01*
X035739Y029379D01*
X035738Y029376D01*
X035737Y029372D01*
X035736Y029369D01*
X035735Y029367D01*
X035735Y029366D01*
Y029365D01*
X035735Y029364D01*
Y029363D01*
X035735Y029360D01*
X035736Y029356D01*
X035736Y029353D01*
X035737Y029351D01*
X035738Y029349D01*
X035739Y029348D01*
X035739Y029347D01*
X035739Y029347D01*
X035739Y029346D01*
X035740Y029346D01*
Y029346D01*
X035742Y029343D01*
X035744Y029341D01*
X035746Y029339D01*
X035749Y029337D01*
X035751Y029336D01*
X035752Y029335D01*
X035753Y029335D01*
X035754Y029334D01*
X035754Y029334D01*
X035754D01*
X035758Y029333D01*
X035762Y029332D01*
X035765Y029331D01*
X035769Y029331D01*
X035770Y029331D01*
X035772Y029331D01*
X035773D01*
X035774Y029331D01*
X035775D01*
X035776D01*
X035776D01*
X035776D01*
X035780Y029331D01*
X035784Y029331D01*
X035787Y029332D01*
X035790Y029332D01*
X035792Y029333D01*
X035793Y029333D01*
X035794Y029333D01*
X035795Y029333D01*
X035795Y029333D01*
X035795Y029334D01*
X035796D01*
X035799Y029335D01*
X035802Y029337D01*
X035804Y029338D01*
X035807Y029340D01*
X035808Y029342D01*
X035810Y029343D01*
X035810Y029344D01*
X035811Y029344D01*
Y029344D01*
X035812Y029348D01*
X035814Y029351D01*
X035815Y029354D01*
X035815Y029357D01*
X035816Y029360D01*
X035816Y029361D01*
Y029362D01*
X035816Y029363D01*
Y029364D01*
X035816Y029368D01*
X035815Y029371D01*
X035815Y029374D01*
X035814Y029376D01*
X035813Y029378D01*
X035812Y029379D01*
X035811Y029380D01*
X035811Y029381D01*
X035809Y029383D01*
X035806Y029385D01*
X035804Y029387D01*
X035801Y029388D01*
X035799Y029389D01*
X035798Y029390D01*
X035797Y029390D01*
X035796Y029390D01*
X035796Y029391D01*
X035795Y029391D01*
X035795D01*
X035798Y029404D01*
X035801Y029403D01*
X035803Y029402D01*
X035805Y029401D01*
X035807Y029400D01*
X035809Y029399D01*
X035811Y029398D01*
X035813Y029396D01*
X035814Y029395D01*
X035815Y029394D01*
X035817Y029393D01*
X035818Y029392D01*
X035818Y029391D01*
X035819Y029391D01*
X035820Y029390D01*
X035820Y029390D01*
X035820Y029390D01*
X035821Y029388D01*
X035822Y029386D01*
X035823Y029383D01*
X035824Y029381D01*
X035826Y029377D01*
X035826Y029373D01*
X035827Y029371D01*
X035827Y029370D01*
X035827Y029368D01*
X035827Y029367D01*
X035828Y029366D01*
Y029364D01*
X035827Y029359D01*
X035826Y029355D01*
X035826Y029351D01*
X035825Y029349D01*
X035824Y029347D01*
X035824Y029346D01*
X035823Y029344D01*
X035823Y029343D01*
X035822Y029342D01*
X035822Y029341D01*
X035822Y029340D01*
X035822Y029340D01*
X035821Y029340D01*
X035819Y029336D01*
X035816Y029333D01*
X035813Y029330D01*
X035810Y029327D01*
X035808Y029325D01*
X035806Y029325D01*
X035805Y029324D01*
X035805Y029323D01*
X035804Y029323D01*
X035804Y029323D01*
X035804Y029323D01*
X035799Y029321D01*
X035794Y029319D01*
X035790Y029318D01*
X035786Y029318D01*
X035784Y029317D01*
X035782Y029317D01*
X035780Y029317D01*
X035779D01*
X035778Y029317D01*
X035777D01*
X035776D01*
X035776D01*
X035771Y029317D01*
X035766Y029318D01*
X035762Y029319D01*
X035759Y029319D01*
X035757Y029320D01*
X035756Y029320D01*
X035754Y029321D01*
X035753Y029321D01*
X035752Y029321D01*
X035751Y029322D01*
X035750Y029322D01*
X035749Y029322D01*
X035749D01*
X035745Y029324D01*
X035741Y029327D01*
X035738Y029329D01*
X035736Y029331D01*
X035735Y029332D01*
X035734Y029333D01*
X035733Y029334D01*
X035732Y029335D01*
X035732Y029336D01*
X035731Y029337D01*
X035731Y029337D01*
X035730Y029338D01*
X035730Y029338D01*
X035729Y029340D01*
X035728Y029342D01*
X035726Y029346D01*
X035725Y029350D01*
X035725Y029355D01*
X035724Y029357D01*
X035724Y029358D01*
X035724Y029360D01*
Y029361D01*
X035724Y029362D01*
Y029364D01*
X035724Y029367D01*
X035724Y029370D01*
X035724Y029372D01*
X035725Y029375D01*
X035726Y029377D01*
X035726Y029379D01*
X035727Y029381D01*
X035728Y029383D01*
X035729Y029385D01*
X035729Y029386D01*
X035730Y029388D01*
X035731Y029389D01*
X035732Y029389D01*
X035732Y029390D01*
X035732Y029390D01*
X035732Y029391D01*
X035734Y029393D01*
X035736Y029394D01*
X035738Y029396D01*
X035740Y029398D01*
X035744Y029400D01*
X035748Y029402D01*
X035750Y029403D01*
X035752Y029404D01*
X035753Y029404D01*
X035754Y029405D01*
X035756Y029405D01*
X035756Y029406D01*
X035757Y029406D01*
X035757D01*
X035761Y029392D01*
D02*
G37*
%LPC*%
G36*
X037387Y030122D02*
X037386D01*
X037381Y030121D01*
X037376Y030120D01*
X037372Y030119D01*
X037368Y030117D01*
X037365Y030115D01*
X037363Y030113D01*
X037362Y030112D01*
X037361Y030111D01*
X037358Y030107D01*
X037356Y030102D01*
X037354Y030097D01*
X037353Y030093D01*
X037352Y030089D01*
X037352Y030087D01*
Y030085D01*
X037352Y030084D01*
Y030083D01*
Y030083D01*
Y030082D01*
X037352Y030075D01*
X037353Y030070D01*
X037355Y030065D01*
X037356Y030060D01*
X037358Y030057D01*
X037360Y030054D01*
X037361Y030053D01*
X037361Y030053D01*
Y030052D01*
X037363Y030050D01*
X037365Y030049D01*
X037369Y030046D01*
X037373Y030044D01*
X037377Y030043D01*
X037380Y030042D01*
X037383Y030042D01*
X037384Y030041D01*
X037385D01*
X037389Y030042D01*
X037392Y030042D01*
X037395Y030043D01*
X037398Y030044D01*
X037400Y030045D01*
X037402Y030046D01*
X037403Y030046D01*
X037403Y030047D01*
X037406Y030049D01*
X037409Y030051D01*
X037411Y030054D01*
X037413Y030056D01*
X037415Y030059D01*
X037416Y030060D01*
X037416Y030062D01*
X037417Y030062D01*
X037418Y030066D01*
X037419Y030070D01*
X037420Y030073D01*
X037421Y030077D01*
X037421Y030080D01*
X037421Y030082D01*
Y030083D01*
Y030084D01*
X037421Y030090D01*
X037420Y030095D01*
X037418Y030100D01*
X037416Y030104D01*
X037414Y030107D01*
X037412Y030109D01*
X037411Y030111D01*
X037411Y030111D01*
X037407Y030115D01*
X037403Y030117D01*
X037398Y030119D01*
X037395Y030121D01*
X037391Y030121D01*
X037388Y030122D01*
X037387Y030122D01*
D02*
G37*
G36*
X037276Y030182D02*
X037235D01*
X037231Y030182D01*
X037228D01*
X037225Y030182D01*
X037220Y030181D01*
X037216Y030180D01*
X037213Y030180D01*
X037210Y030179D01*
X037209Y030179D01*
X037208Y030178D01*
X037204Y030176D01*
X037200Y030173D01*
X037196Y030170D01*
X037192Y030167D01*
X037190Y030163D01*
X037188Y030161D01*
X037187Y030160D01*
X037187Y030159D01*
X037186Y030159D01*
Y030158D01*
X037185Y030156D01*
X037183Y030152D01*
X037181Y030146D01*
X037179Y030138D01*
X037178Y030132D01*
X037178Y030129D01*
X037178Y030125D01*
X037177Y030123D01*
Y030121D01*
X037177Y030119D01*
Y030117D01*
Y030116D01*
Y030116D01*
X037177Y030109D01*
X037178Y030102D01*
X037179Y030096D01*
X037179Y030091D01*
X037180Y030089D01*
X037180Y030087D01*
X037181Y030086D01*
X037181Y030084D01*
X037181Y030083D01*
X037182Y030083D01*
X037182Y030082D01*
Y030082D01*
X037184Y030077D01*
X037186Y030073D01*
X037188Y030069D01*
X037190Y030066D01*
X037192Y030063D01*
X037193Y030061D01*
X037194Y030060D01*
X037195Y030060D01*
X037197Y030058D01*
X037200Y030056D01*
X037202Y030054D01*
X037205Y030053D01*
X037207Y030052D01*
X037209Y030051D01*
X037210Y030051D01*
X037211Y030050D01*
X037215Y030049D01*
X037219Y030049D01*
X037224Y030048D01*
X037228Y030048D01*
X037232Y030048D01*
X037234Y030047D01*
X037276D01*
Y030182D01*
D02*
G37*
G36*
X036933Y030183D02*
X036877D01*
X036870Y030183D01*
X036864Y030182D01*
X036859Y030181D01*
X036856Y030179D01*
X036852Y030178D01*
X036850Y030176D01*
X036849Y030175D01*
X036848Y030175D01*
X036845Y030172D01*
X036843Y030169D01*
X036842Y030165D01*
X036840Y030162D01*
X036840Y030159D01*
X036839Y030157D01*
X036839Y030155D01*
Y030155D01*
Y030155D01*
X036839Y030151D01*
X036840Y030148D01*
X036841Y030146D01*
X036842Y030144D01*
X036843Y030142D01*
X036843Y030140D01*
X036844Y030139D01*
X036844Y030139D01*
X036846Y030136D01*
X036848Y030134D01*
X036850Y030132D01*
X036853Y030131D01*
X036855Y030130D01*
X036856Y030129D01*
X036857Y030128D01*
X036858Y030128D01*
X036861Y030127D01*
X036865Y030126D01*
X036870Y030126D01*
X036874Y030125D01*
X036877Y030125D01*
X036880Y030125D01*
X036933D01*
Y030183D01*
D02*
G37*
G36*
X035740Y030182D02*
X035700D01*
X035696Y030182D01*
X035693D01*
X035690Y030182D01*
X035685Y030181D01*
X035681Y030180D01*
X035677Y030180D01*
X035675Y030179D01*
X035674Y030179D01*
X035673Y030178D01*
X035669Y030176D01*
X035664Y030173D01*
X035661Y030170D01*
X035657Y030167D01*
X035655Y030163D01*
X035653Y030161D01*
X035652Y030160D01*
X035652Y030159D01*
X035651Y030159D01*
Y030158D01*
X035650Y030156D01*
X035648Y030152D01*
X035646Y030146D01*
X035644Y030138D01*
X035643Y030132D01*
X035643Y030129D01*
X035642Y030125D01*
X035642Y030123D01*
Y030121D01*
X035642Y030119D01*
Y030117D01*
Y030116D01*
Y030116D01*
X035642Y030109D01*
X035643Y030102D01*
X035644Y030096D01*
X035644Y030091D01*
X035645Y030089D01*
X035645Y030087D01*
X035646Y030086D01*
X035646Y030084D01*
X035646Y030083D01*
X035647Y030083D01*
X035647Y030082D01*
Y030082D01*
X035649Y030077D01*
X035651Y030073D01*
X035653Y030069D01*
X035655Y030066D01*
X035657Y030063D01*
X035658Y030061D01*
X035659Y030060D01*
X035660Y030060D01*
X035662Y030058D01*
X035665Y030056D01*
X035667Y030054D01*
X035670Y030053D01*
X035672Y030052D01*
X035674Y030051D01*
X035675Y030051D01*
X035676Y030050D01*
X035679Y030049D01*
X035684Y030049D01*
X035689Y030048D01*
X035693Y030048D01*
X035697Y030048D01*
X035699Y030047D01*
X035740D01*
Y030182D01*
D02*
G37*
G36*
X038264Y029001D02*
X038219D01*
Y028970D01*
X038264Y029001D01*
D02*
G37*
G36*
X038103Y028320D02*
X038103D01*
X038102D01*
X038102D01*
X038099Y028320D01*
X038095Y028319D01*
X038092Y028318D01*
X038090Y028317D01*
X038088Y028316D01*
X038087Y028315D01*
X038086Y028315D01*
X038086Y028314D01*
X038084Y028312D01*
X038082Y028310D01*
X038081Y028308D01*
X038081Y028305D01*
X038080Y028303D01*
X038080Y028302D01*
X038080Y028301D01*
Y028300D01*
X038080Y028297D01*
X038081Y028294D01*
X038082Y028292D01*
X038083Y028290D01*
X038084Y028288D01*
X038085Y028287D01*
X038085Y028286D01*
X038086Y028286D01*
X038088Y028284D01*
X038091Y028283D01*
X038093Y028282D01*
X038096Y028281D01*
X038098Y028281D01*
X038099Y028280D01*
X038100D01*
X038100Y028280D01*
X038101D01*
X038101D01*
X038101D01*
X038105Y028281D01*
X038109Y028281D01*
X038112Y028282D01*
X038114Y028283D01*
X038116Y028284D01*
X038118Y028285D01*
X038118Y028286D01*
X038118Y028286D01*
X038119Y028286D01*
X038119D01*
X038120Y028287D01*
X038121Y028289D01*
X038123Y028291D01*
X038124Y028293D01*
X038125Y028296D01*
X038125Y028298D01*
X038125Y028299D01*
X038125Y028300D01*
Y028302D01*
X038125Y028304D01*
X038124Y028306D01*
X038123Y028309D01*
X038122Y028311D01*
X038121Y028312D01*
X038120Y028313D01*
X038120Y028314D01*
X038119Y028314D01*
X038119D01*
X038117Y028316D01*
X038114Y028318D01*
X038111Y028319D01*
X038108Y028319D01*
X038106Y028320D01*
X038105Y028320D01*
X038104D01*
X038103Y028320D01*
D02*
G37*
G36*
X035801Y028567D02*
X035800D01*
X035800D01*
X035800D01*
X035798Y028567D01*
X035795Y028566D01*
X035794Y028566D01*
X035792Y028565D01*
X035791Y028564D01*
X035790Y028563D01*
X035789Y028563D01*
X035789Y028562D01*
X035787Y028561D01*
X035786Y028559D01*
X035786Y028557D01*
X035785Y028555D01*
X035785Y028553D01*
X035785Y028552D01*
X035784Y028551D01*
Y028551D01*
X035785Y028548D01*
X035785Y028546D01*
X035786Y028544D01*
X035787Y028542D01*
X035787Y028541D01*
X035788Y028540D01*
X035789Y028539D01*
X035789Y028539D01*
X035791Y028537D01*
X035793Y028536D01*
X035795Y028536D01*
X035796Y028535D01*
X035798Y028535D01*
X035799Y028535D01*
X035800Y028534D01*
X035800D01*
X035801D01*
X035803Y028535D01*
X035805Y028535D01*
X035807Y028536D01*
X035808Y028537D01*
X035810Y028537D01*
X035811Y028538D01*
X035811Y028539D01*
X035811Y028539D01*
X035813Y028541D01*
X035814Y028543D01*
X035815Y028545D01*
X035815Y028547D01*
X035816Y028548D01*
X035816Y028550D01*
Y028551D01*
X035816Y028553D01*
X035815Y028556D01*
X035815Y028557D01*
X035814Y028559D01*
X035813Y028560D01*
X035812Y028561D01*
X035812Y028562D01*
X035811Y028562D01*
X035810Y028564D01*
X035808Y028565D01*
X035806Y028566D01*
X035804Y028567D01*
X035802Y028567D01*
X035801Y028567D01*
D02*
G37*
G36*
X035755Y028571D02*
X035754D01*
X035754D01*
X035754D01*
X035751Y028571D01*
X035748Y028570D01*
X035745Y028569D01*
X035743Y028568D01*
X035742Y028567D01*
X035740Y028566D01*
X035740Y028566D01*
X035739Y028565D01*
X035738Y028563D01*
X035736Y028561D01*
X035735Y028558D01*
X035735Y028556D01*
X035734Y028554D01*
X035734Y028552D01*
X035734Y028552D01*
Y028551D01*
X035734Y028549D01*
X035734Y028547D01*
X035735Y028545D01*
X035735Y028543D01*
X035736Y028542D01*
X035736Y028541D01*
X035736Y028540D01*
X035736Y028540D01*
X035738Y028538D01*
X035739Y028537D01*
X035740Y028536D01*
X035741Y028535D01*
X035742Y028534D01*
X035743Y028533D01*
X035744Y028533D01*
X035744Y028533D01*
X035746Y028532D01*
X035748Y028531D01*
X035749Y028531D01*
X035751Y028531D01*
X035752Y028530D01*
X035753Y028530D01*
X035754D01*
X035754D01*
X035757Y028531D01*
X035760Y028531D01*
X035763Y028532D01*
X035765Y028533D01*
X035766Y028534D01*
X035768Y028535D01*
X035768Y028536D01*
X035769Y028536D01*
X035771Y028538D01*
X035772Y028541D01*
X035773Y028543D01*
X035774Y028545D01*
X035774Y028547D01*
X035774Y028549D01*
X035774Y028549D01*
Y028550D01*
X035774Y028553D01*
X035774Y028556D01*
X035773Y028559D01*
X035772Y028561D01*
X035770Y028563D01*
X035769Y028564D01*
X035769Y028565D01*
X035768Y028565D01*
X035766Y028567D01*
X035764Y028569D01*
X035761Y028570D01*
X035759Y028570D01*
X035757Y028571D01*
X035755Y028571D01*
X035755Y028571D01*
D02*
G37*
%LPD*%
D10*
X037404Y028482D02*
G03*
X037404Y028482I-000005J000000D01*
G01*
X037250Y028350D02*
G03*
X037250Y028350I-000005J000000D01*
G01*
D24*
X036077Y028206D02*
G03*
X036077Y028206I-000020J000000D01*
G01*
X036058D02*
X036333D01*
X036058D02*
Y028481D01*
D32*
X036600Y028871D02*
Y029029D01*
Y028871D02*
X036757D01*
M02*
