G04*
G04 #@! TF.GenerationSoftware,Altium Limited,Altium Designer,23.4.1 (23)*
G04*
G04 Layer_Color=255*
%FSAX24Y24*%
%MOIN*%
G70*
G04*
G04 #@! TF.SameCoordinates,053CF3D6-A104-4983-855F-C29F7C55F3EF*
G04*
G04*
G04 #@! TF.FilePolarity,Positive*
G04*
G01*
G75*
%ADD17R,0.0150X0.0280*%
%ADD26R,0.0236X0.0079*%
%ADD27R,0.0079X0.0236*%
%ADD28R,0.0138X0.0227*%
%ADD29R,0.0227X0.0138*%
D17*
X037568Y028237D02*
D03*
X037918D02*
D03*
X035267Y028498D02*
D03*
X035617D02*
D03*
X037568Y029619D02*
D03*
X037918D02*
D03*
X035267Y028941D02*
D03*
X035617D02*
D03*
X035267Y029384D02*
D03*
X035617D02*
D03*
D26*
X037468Y028625D02*
D03*
Y028783D02*
D03*
Y028940D02*
D03*
Y029098D02*
D03*
Y029255D02*
D03*
X038019D02*
D03*
Y029098D02*
D03*
Y028940D02*
D03*
Y028783D02*
D03*
Y028625D02*
D03*
D27*
X037743Y029255D02*
D03*
Y028625D02*
D03*
D28*
X036995Y028473D02*
D03*
X036798D02*
D03*
X036602D02*
D03*
X036405D02*
D03*
Y029427D02*
D03*
X036602D02*
D03*
X036798D02*
D03*
X036995D02*
D03*
D29*
X036323Y028753D02*
D03*
Y028950D02*
D03*
Y029147D02*
D03*
X037076D02*
D03*
Y028950D02*
D03*
Y028753D02*
D03*
M02*
