G04*
G04 #@! TF.GenerationSoftware,Altium Limited,Altium Designer,23.4.1 (23)*
G04*
G04 Layer_Color=255*
%FSAX24Y24*%
%MOIN*%
G70*
G04*
G04 #@! TF.SameCoordinates,053CF3D6-A104-4983-855F-C29F7C55F3EF*
G04*
G04*
G04 #@! TF.FilePolarity,Positive*
G04*
G01*
G75*
%ADD12R,0.0138X0.0148*%
%ADD13R,0.0148X0.0138*%
%ADD14R,0.0200X0.0150*%
%ADD15R,0.0315X0.0354*%
%ADD16R,0.0157X0.0236*%
%ADD17R,0.0150X0.0280*%
%ADD18P,0.0311X4X270.0*%
%ADD23R,0.0050X0.0050*%
D12*
X036405Y028655D02*
D03*
X036602D02*
D03*
X036798D02*
D03*
X036995D02*
D03*
Y029245D02*
D03*
X036798D02*
D03*
X036602D02*
D03*
X036405D02*
D03*
D13*
X036995Y028852D02*
D03*
Y029048D02*
D03*
X036405D02*
D03*
Y028852D02*
D03*
D14*
X037959Y028682D02*
D03*
Y029032D02*
D03*
D15*
X038137Y030151D02*
D03*
X035263D02*
D03*
Y027749D02*
D03*
X038137D02*
D03*
D16*
X036346Y029619D02*
D03*
X037054D02*
D03*
X036818D02*
D03*
X036582D02*
D03*
X036109D02*
D03*
X037291D02*
D03*
X037527D02*
D03*
X037763D02*
D03*
X035873D02*
D03*
X035637D02*
D03*
X037054Y028281D02*
D03*
X036346D02*
D03*
X036582D02*
D03*
X036818D02*
D03*
X037291D02*
D03*
X036109D02*
D03*
X035873D02*
D03*
X035637D02*
D03*
X037527D02*
D03*
X037763D02*
D03*
D17*
X035188Y028702D02*
D03*
X035538D02*
D03*
X035541Y029132D02*
D03*
X035191D02*
D03*
X037332Y028702D02*
D03*
X037682D02*
D03*
Y029132D02*
D03*
X037332D02*
D03*
D18*
X035976Y029141D02*
D03*
D23*
X036123Y029013D02*
D03*
Y029268D02*
D03*
X035828D02*
D03*
Y029013D02*
D03*
M02*
