G04*
G04 #@! TF.GenerationSoftware,Altium Limited,Altium Designer,23.4.1 (23)*
G04*
G04 Layer_Color=65535*
%FSAX24Y24*%
%MOIN*%
G70*
G04*
G04 #@! TF.SameCoordinates,D8FA6299-1ACC-4B52-9C68-12A60D61546D*
G04*
G04*
G04 #@! TF.FilePolarity,Positive*
G04*
G01*
G75*
%ADD10C,0.0020*%
%ADD11C,0.0059*%
G36*
X035781Y029328D02*
X035783D01*
X035784Y029328D01*
X035786Y029328D01*
X035788Y029327D01*
X035792Y029327D01*
X035797Y029326D01*
X035801Y029324D01*
X035806Y029322D01*
X035806Y029322D01*
X035807Y029322D01*
X035807Y029321D01*
X035808Y029321D01*
X035809Y029320D01*
X035810Y029320D01*
X035813Y029318D01*
X035816Y029315D01*
X035818Y029312D01*
X035821Y029309D01*
X035824Y029305D01*
X035824Y029305D01*
X035824Y029305D01*
X035824Y029304D01*
X035825Y029303D01*
X035825Y029302D01*
X035826Y029301D01*
X035826Y029299D01*
X035827Y029298D01*
X035827Y029296D01*
X035828Y029294D01*
X035829Y029290D01*
X035830Y029286D01*
X035830Y029281D01*
Y029279D01*
X035830Y029278D01*
X035830Y029277D01*
X035829Y029275D01*
X035829Y029274D01*
X035829Y029272D01*
X035828Y029268D01*
X035827Y029264D01*
X035826Y029261D01*
X035825Y029259D01*
X035824Y029257D01*
X035822Y029255D01*
X035822Y029255D01*
X035822Y029255D01*
X035821Y029254D01*
X035821Y029254D01*
X035820Y029253D01*
X035819Y029252D01*
X035818Y029251D01*
X035817Y029250D01*
X035815Y029249D01*
X035814Y029247D01*
X035812Y029246D01*
X035810Y029245D01*
X035808Y029244D01*
X035806Y029243D01*
X035803Y029242D01*
X035801Y029241D01*
X035798Y029254D01*
X035798D01*
X035798Y029254D01*
X035799Y029254D01*
X035799Y029255D01*
X035800Y029255D01*
X035801Y029255D01*
X035804Y029257D01*
X035806Y029258D01*
X035809Y029260D01*
X035811Y029262D01*
X035814Y029264D01*
X035814Y029265D01*
X035814Y029265D01*
X035815Y029267D01*
X035816Y029269D01*
X035817Y029271D01*
X035818Y029274D01*
X035818Y029277D01*
X035819Y029281D01*
Y029282D01*
X035818Y029283D01*
Y029284D01*
X035818Y029285D01*
X035818Y029288D01*
X035817Y029291D01*
X035816Y029294D01*
X035815Y029297D01*
X035813Y029300D01*
Y029301D01*
X035813Y029301D01*
X035812Y029302D01*
X035811Y029303D01*
X035809Y029305D01*
X035807Y029307D01*
X035804Y029308D01*
X035801Y029310D01*
X035798Y029311D01*
X035798D01*
X035798Y029311D01*
X035797Y029312D01*
X035796Y029312D01*
X035796Y029312D01*
X035795Y029312D01*
X035792Y029313D01*
X035789Y029313D01*
X035786Y029314D01*
X035782Y029314D01*
X035779Y029314D01*
X035779D01*
X035778D01*
X035777D01*
X035777D01*
X035776Y029314D01*
X035774D01*
X035773Y029314D01*
X035771Y029314D01*
X035768Y029313D01*
X035764Y029313D01*
X035760Y029312D01*
X035756Y029311D01*
X035756D01*
X035756Y029311D01*
X035756Y029310D01*
X035755Y029310D01*
X035753Y029309D01*
X035751Y029308D01*
X035749Y029306D01*
X035746Y029304D01*
X035744Y029302D01*
X035742Y029299D01*
Y029299D01*
X035742Y029299D01*
X035742Y029298D01*
X035741Y029298D01*
X035741Y029297D01*
X035741Y029296D01*
X035740Y029294D01*
X035739Y029291D01*
X035738Y029289D01*
X035738Y029285D01*
X035737Y029282D01*
Y029281D01*
X035738Y029280D01*
Y029279D01*
X035738Y029278D01*
X035738Y029276D01*
X035739Y029272D01*
X035740Y029269D01*
X035742Y029266D01*
X035743Y029265D01*
X035744Y029263D01*
X035744Y029263D01*
X035744Y029263D01*
X035744Y029262D01*
X035745Y029262D01*
X035746Y029261D01*
X035747Y029261D01*
X035747Y029260D01*
X035749Y029259D01*
X035750Y029258D01*
X035751Y029257D01*
X035753Y029256D01*
X035754Y029255D01*
X035756Y029255D01*
X035758Y029254D01*
X035761Y029253D01*
X035763Y029253D01*
X035760Y029239D01*
X035759D01*
X035759Y029239D01*
X035758Y029240D01*
X035757Y029240D01*
X035756Y029241D01*
X035754Y029241D01*
X035752Y029242D01*
X035750Y029243D01*
X035746Y029245D01*
X035742Y029247D01*
X035740Y029249D01*
X035738Y029251D01*
X035736Y029252D01*
X035735Y029254D01*
X035734Y029254D01*
X035734Y029255D01*
X035734Y029255D01*
X035733Y029256D01*
X035733Y029257D01*
X035732Y029259D01*
X035731Y029260D01*
X035730Y029262D01*
X035730Y029264D01*
X035729Y029266D01*
X035728Y029268D01*
X035727Y029270D01*
X035727Y029273D01*
X035727Y029275D01*
X035726Y029278D01*
X035726Y029281D01*
Y029282D01*
X035726Y029284D01*
Y029285D01*
X035726Y029287D01*
X035727Y029288D01*
X035727Y029290D01*
X035728Y029295D01*
X035729Y029299D01*
X035730Y029303D01*
X035731Y029305D01*
X035733Y029307D01*
X035733Y029307D01*
X035733Y029308D01*
X035733Y029308D01*
X035734Y029309D01*
X035734Y029310D01*
X035735Y029311D01*
X035736Y029312D01*
X035738Y029313D01*
X035739Y029314D01*
X035740Y029316D01*
X035743Y029318D01*
X035747Y029321D01*
X035752Y029323D01*
X035752D01*
X035752Y029323D01*
X035753Y029323D01*
X035754Y029324D01*
X035755Y029324D01*
X035757Y029324D01*
X035758Y029325D01*
X035760Y029325D01*
X035762Y029326D01*
X035764Y029326D01*
X035768Y029327D01*
X035773Y029328D01*
X035779Y029328D01*
X035779D01*
X035779D01*
X035780D01*
X035781Y029328D01*
D02*
G37*
G36*
X035828Y029186D02*
Y029176D01*
X035763D01*
Y029163D01*
X035752D01*
Y029176D01*
X035728D01*
Y029189D01*
X035752D01*
Y029232D01*
X035763D01*
X035828Y029186D01*
D02*
G37*
G36*
X037286Y029017D02*
X037228D01*
X037228D01*
X037227D01*
X037227D01*
X037226D01*
X037225Y029017D01*
X037223D01*
X037221Y029017D01*
X037217Y029016D01*
X037214Y029016D01*
X037211Y029015D01*
X037210Y029015D01*
X037209Y029015D01*
X037208Y029015D01*
X037208Y029014D01*
X037207Y029014D01*
X037205Y029013D01*
X037204Y029012D01*
X037202Y029010D01*
X037200Y029009D01*
X037199Y029006D01*
X037199Y029006D01*
X037199Y029005D01*
X037198Y029004D01*
X037198Y029002D01*
X037197Y029000D01*
X037196Y028998D01*
X037196Y028995D01*
X037196Y028992D01*
Y028991D01*
X037196Y028990D01*
Y028988D01*
X037196Y028987D01*
X037197Y028984D01*
X037197Y028980D01*
X037199Y028977D01*
X037200Y028974D01*
X037201Y028972D01*
X037202Y028971D01*
X037202Y028971D01*
X037203Y028971D01*
X037203Y028971D01*
X037204Y028970D01*
X037204Y028970D01*
X037205Y028969D01*
X037207Y028968D01*
X037208Y028968D01*
X037210Y028967D01*
X037211Y028967D01*
X037214Y028966D01*
X037216Y028966D01*
X037219Y028965D01*
X037221Y028965D01*
X037224Y028965D01*
X037228D01*
X037286D01*
Y028952D01*
X037228D01*
X037228D01*
X037227D01*
X037226D01*
X037225D01*
X037224Y028952D01*
X037223D01*
X037221Y028952D01*
X037219Y028952D01*
X037215Y028952D01*
X037211Y028953D01*
X037207Y028954D01*
X037205Y028954D01*
X037204Y028955D01*
X037203D01*
X037203Y028955D01*
X037203Y028955D01*
X037202Y028956D01*
X037201Y028957D01*
X037199Y028958D01*
X037196Y028960D01*
X037194Y028962D01*
X037191Y028964D01*
X037189Y028967D01*
Y028968D01*
X037189Y028968D01*
X037189Y028968D01*
X037188Y028969D01*
X037188Y028970D01*
X037188Y028971D01*
X037187Y028972D01*
X037187Y028974D01*
X037186Y028975D01*
X037185Y028977D01*
X037185Y028979D01*
X037185Y028981D01*
X037184Y028983D01*
X037184Y028986D01*
X037184Y028991D01*
Y028992D01*
X037184Y028993D01*
Y028994D01*
X037184Y028996D01*
X037184Y028997D01*
X037184Y028999D01*
X037185Y029003D01*
X037186Y029006D01*
X037187Y029010D01*
X037189Y029014D01*
Y029014D01*
X037189Y029014D01*
X037189Y029015D01*
X037189Y029015D01*
X037191Y029017D01*
X037192Y029019D01*
X037194Y029021D01*
X037197Y029023D01*
X037199Y029025D01*
X037203Y029027D01*
X037203D01*
X037203Y029027D01*
X037204Y029027D01*
X037204Y029027D01*
X037205Y029028D01*
X037206Y029028D01*
X037208Y029028D01*
X037209Y029029D01*
X037211Y029029D01*
X037213Y029029D01*
X037215Y029030D01*
X037217Y029030D01*
X037220Y029030D01*
X037222Y029030D01*
X037225Y029030D01*
X037228D01*
X037286D01*
Y029017D01*
D02*
G37*
G36*
X037188Y028936D02*
X037190Y028936D01*
X037191Y028936D01*
X037192Y028935D01*
X037194Y028935D01*
X037194D01*
X037194Y028935D01*
X037195Y028934D01*
X037197Y028934D01*
X037198Y028933D01*
X037200Y028932D01*
X037203Y028930D01*
X037205Y028929D01*
X037207Y028927D01*
X037208D01*
X037208Y028926D01*
X037209Y028926D01*
X037210Y028924D01*
X037212Y028922D01*
X037214Y028920D01*
X037217Y028917D01*
X037219Y028914D01*
X037222Y028910D01*
X037223Y028910D01*
X037223Y028910D01*
X037224Y028909D01*
X037225Y028908D01*
X037226Y028907D01*
X037227Y028905D01*
X037229Y028903D01*
X037230Y028902D01*
X037234Y028898D01*
X037237Y028894D01*
X037239Y028893D01*
X037241Y028891D01*
X037242Y028889D01*
X037244Y028888D01*
X037244D01*
X037244Y028888D01*
X037245Y028888D01*
X037245Y028887D01*
X037247Y028886D01*
X037249Y028885D01*
X037251Y028884D01*
X037253Y028883D01*
X037256Y028883D01*
X037259Y028882D01*
X037259D01*
X037259D01*
X037260Y028883D01*
X037261Y028883D01*
X037263Y028883D01*
X037265Y028884D01*
X037267Y028885D01*
X037269Y028886D01*
X037271Y028888D01*
X037271Y028888D01*
X037272Y028889D01*
X037273Y028890D01*
X037274Y028891D01*
X037275Y028893D01*
X037275Y028896D01*
X037276Y028898D01*
X037276Y028902D01*
Y028902D01*
X037276Y028903D01*
X037276Y028905D01*
X037275Y028907D01*
X037275Y028909D01*
X037274Y028911D01*
X037272Y028914D01*
X037271Y028916D01*
X037270Y028916D01*
X037270Y028917D01*
X037269Y028918D01*
X037267Y028918D01*
X037265Y028919D01*
X037262Y028920D01*
X037259Y028921D01*
X037256Y028921D01*
X037257Y028934D01*
X037257D01*
X037258Y028934D01*
X037259D01*
X037260Y028934D01*
X037261Y028933D01*
X037262Y028933D01*
X037264Y028933D01*
X037265Y028932D01*
X037269Y028931D01*
X037272Y028929D01*
X037274Y028928D01*
X037276Y028927D01*
X037277Y028926D01*
X037279Y028924D01*
X037279Y028924D01*
X037279Y028924D01*
X037279Y028923D01*
X037280Y028923D01*
X037280Y028922D01*
X037281Y028921D01*
X037282Y028919D01*
X037282Y028918D01*
X037283Y028916D01*
X037284Y028915D01*
X037285Y028913D01*
X037285Y028911D01*
X037286Y028909D01*
X037286Y028906D01*
X037286Y028904D01*
X037286Y028901D01*
Y028900D01*
X037286Y028899D01*
X037286Y028898D01*
X037286Y028896D01*
X037286Y028895D01*
X037285Y028893D01*
X037284Y028889D01*
X037283Y028885D01*
X037282Y028884D01*
X037281Y028882D01*
X037280Y028880D01*
X037278Y028878D01*
X037278Y028878D01*
X037278Y028878D01*
X037277Y028878D01*
X037277Y028877D01*
X037276Y028876D01*
X037275Y028876D01*
X037274Y028875D01*
X037273Y028874D01*
X037270Y028872D01*
X037266Y028871D01*
X037265Y028870D01*
X037263Y028870D01*
X037261Y028870D01*
X037258Y028870D01*
X037258D01*
X037257D01*
X037256Y028870D01*
X037255Y028870D01*
X037253Y028870D01*
X037251Y028871D01*
X037249Y028871D01*
X037247Y028872D01*
X037246Y028872D01*
X037246Y028873D01*
X037244Y028873D01*
X037243Y028874D01*
X037241Y028875D01*
X037239Y028877D01*
X037237Y028879D01*
X037234Y028881D01*
X037234Y028881D01*
X037233Y028882D01*
X037232Y028882D01*
X037232Y028883D01*
X037231Y028884D01*
X037230Y028885D01*
X037228Y028886D01*
X037227Y028888D01*
X037226Y028889D01*
X037224Y028891D01*
X037222Y028893D01*
X037221Y028895D01*
X037219Y028897D01*
X037217Y028899D01*
X037217Y028900D01*
X037216Y028900D01*
X037216Y028900D01*
X037215Y028901D01*
X037214Y028902D01*
X037213Y028903D01*
X037212Y028905D01*
X037209Y028908D01*
X037207Y028910D01*
X037205Y028912D01*
X037205Y028913D01*
X037204Y028914D01*
X037204Y028914D01*
X037203Y028914D01*
X037203Y028915D01*
X037202Y028916D01*
X037201Y028916D01*
X037200Y028917D01*
X037197Y028919D01*
Y028870D01*
X037185D01*
Y028936D01*
X037186D01*
X037186D01*
X037187D01*
X037188Y028936D01*
D02*
G37*
G36*
X037972Y029461D02*
X037974D01*
X037977Y029461D01*
X037980Y029461D01*
X037982Y029460D01*
X037989Y029459D01*
X037996Y029458D01*
X038002Y029456D01*
X038009Y029453D01*
X038009D01*
X038009Y029453D01*
X038010Y029452D01*
X038011Y029452D01*
X038014Y029449D01*
X038017Y029447D01*
X038021Y029443D01*
X038025Y029439D01*
X038028Y029434D01*
X038031Y029428D01*
Y029428D01*
X038031Y029428D01*
X038032Y029427D01*
X038032Y029425D01*
X038033Y029424D01*
X038033Y029422D01*
X038034Y029419D01*
X038034Y029417D01*
X038035Y029414D01*
X038036Y029410D01*
X038036Y029407D01*
X038037Y029403D01*
X038037Y029398D01*
X038038Y029394D01*
X038038Y029389D01*
Y029384D01*
Y029282D01*
X038014D01*
Y029384D01*
Y029384D01*
Y029385D01*
Y029386D01*
Y029388D01*
X038014Y029390D01*
Y029392D01*
X038014Y029397D01*
X038013Y029402D01*
X038013Y029408D01*
X038012Y029413D01*
X038011Y029416D01*
X038010Y029418D01*
X038010Y029418D01*
X038009Y029420D01*
X038008Y029421D01*
X038007Y029424D01*
X038005Y029427D01*
X038002Y029429D01*
X037999Y029432D01*
X037996Y029434D01*
X037995Y029435D01*
X037994Y029435D01*
X037992Y029436D01*
X037989Y029437D01*
X037985Y029439D01*
X037980Y029439D01*
X037976Y029440D01*
X037970Y029440D01*
X037968D01*
X037966Y029440D01*
X037964D01*
X037962Y029440D01*
X037956Y029439D01*
X037950Y029437D01*
X037944Y029435D01*
X037938Y029433D01*
X037936Y029431D01*
X037933Y029429D01*
X037933Y029429D01*
X037933Y029428D01*
X037932Y029428D01*
X037932Y029427D01*
X037931Y029425D01*
X037930Y029423D01*
X037929Y029421D01*
X037928Y029419D01*
X037927Y029416D01*
X037926Y029413D01*
X037925Y029409D01*
X037924Y029405D01*
X037924Y029400D01*
X037923Y029395D01*
X037923Y029390D01*
Y029384D01*
Y029282D01*
X037899D01*
Y029384D01*
Y029384D01*
Y029385D01*
Y029386D01*
Y029388D01*
X037899Y029391D01*
Y029393D01*
X037900Y029396D01*
X037900Y029399D01*
X037901Y029406D01*
X037902Y029413D01*
X037903Y029420D01*
X037904Y029423D01*
X037905Y029427D01*
Y029427D01*
X037905Y029427D01*
X037906Y029428D01*
X037906Y029429D01*
X037908Y029432D01*
X037910Y029435D01*
X037913Y029440D01*
X037917Y029444D01*
X037922Y029448D01*
X037927Y029452D01*
X037927D01*
X037928Y029452D01*
X037929Y029453D01*
X037930Y029453D01*
X037931Y029454D01*
X037933Y029455D01*
X037936Y029456D01*
X037938Y029457D01*
X037941Y029458D01*
X037944Y029458D01*
X037947Y029459D01*
X037951Y029460D01*
X037955Y029460D01*
X037959Y029461D01*
X037968Y029461D01*
X037970D01*
X037972Y029461D01*
D02*
G37*
G36*
X037815Y029303D02*
X037873D01*
Y029282D01*
X037734D01*
Y029303D01*
X037792D01*
Y029458D01*
X037815D01*
Y029303D01*
D02*
G37*
G36*
X038157Y029461D02*
X038159D01*
X038161Y029461D01*
X038164Y029460D01*
X038168Y029460D01*
X038174Y029458D01*
X038182Y029456D01*
X038190Y029453D01*
X038193Y029452D01*
X038197Y029449D01*
X038197Y029449D01*
X038198Y029449D01*
X038199Y029448D01*
X038200Y029447D01*
X038202Y029446D01*
X038204Y029445D01*
X038208Y029441D01*
X038213Y029436D01*
X038218Y029431D01*
X038223Y029424D01*
X038227Y029417D01*
Y029417D01*
X038228Y029416D01*
X038228Y029415D01*
X038229Y029413D01*
X038229Y029411D01*
X038230Y029409D01*
X038231Y029406D01*
X038232Y029404D01*
X038233Y029400D01*
X038234Y029397D01*
X038235Y029389D01*
X038236Y029381D01*
X038237Y029373D01*
Y029372D01*
Y029372D01*
Y029371D01*
X038237Y029368D01*
Y029365D01*
X038236Y029362D01*
X038236Y029357D01*
X038235Y029353D01*
X038234Y029347D01*
X038233Y029342D01*
X038231Y029337D01*
X038229Y029331D01*
X038227Y029325D01*
X038224Y029319D01*
X038221Y029314D01*
X038218Y029309D01*
X038213Y029304D01*
X038213Y029304D01*
X038212Y029303D01*
X038211Y029302D01*
X038209Y029300D01*
X038207Y029298D01*
X038204Y029296D01*
X038201Y029294D01*
X038197Y029291D01*
X038193Y029289D01*
X038188Y029287D01*
X038183Y029285D01*
X038178Y029283D01*
X038172Y029281D01*
X038166Y029280D01*
X038159Y029279D01*
X038153Y029279D01*
X038150D01*
X038148Y029279D01*
X038146D01*
X038144Y029279D01*
X038141Y029280D01*
X038138Y029280D01*
X038131Y029282D01*
X038123Y029284D01*
X038116Y029287D01*
X038112Y029289D01*
X038108Y029291D01*
X038108Y029291D01*
X038108Y029291D01*
X038107Y029292D01*
X038105Y029293D01*
X038104Y029294D01*
X038102Y029295D01*
X038097Y029299D01*
X038093Y029304D01*
X038088Y029309D01*
X038083Y029316D01*
X038079Y029323D01*
Y029323D01*
X038078Y029324D01*
X038078Y029325D01*
X038077Y029327D01*
X038076Y029329D01*
X038075Y029331D01*
X038074Y029334D01*
X038073Y029337D01*
X038072Y029340D01*
X038071Y029344D01*
X038070Y029348D01*
X038070Y029352D01*
X038069Y029361D01*
X038068Y029371D01*
Y029371D01*
Y029372D01*
Y029373D01*
X038068Y029375D01*
Y029378D01*
X038069Y029380D01*
X038069Y029383D01*
X038069Y029387D01*
X038071Y029394D01*
X038073Y029402D01*
X038076Y029410D01*
X038077Y029415D01*
X038079Y029419D01*
Y029419D01*
X038080Y029420D01*
X038080Y029421D01*
X038081Y029422D01*
X038082Y029424D01*
X038083Y029426D01*
X038087Y029431D01*
X038091Y029436D01*
X038096Y029441D01*
X038103Y029446D01*
X038110Y029451D01*
X038110D01*
X038110Y029451D01*
X038112Y029452D01*
X038113Y029453D01*
X038115Y029453D01*
X038117Y029454D01*
X038120Y029455D01*
X038122Y029456D01*
X038126Y029457D01*
X038129Y029458D01*
X038136Y029460D01*
X038144Y029461D01*
X038153Y029461D01*
X038155D01*
X038157Y029461D01*
D02*
G37*
G36*
X035382Y028433D02*
X035357D01*
X035265Y028571D01*
Y028433D01*
X035243D01*
Y028609D01*
X035267D01*
X035359Y028471D01*
Y028609D01*
X035382D01*
Y028433D01*
D02*
G37*
G36*
X035202D02*
X035178D01*
Y028609D01*
X035202D01*
Y028433D01*
D02*
G37*
G36*
X035781Y028912D02*
X035783D01*
X035784Y028912D01*
X035786Y028911D01*
X035788Y028911D01*
X035792Y028910D01*
X035797Y028909D01*
X035801Y028908D01*
X035806Y028906D01*
X035806Y028906D01*
X035807Y028906D01*
X035807Y028905D01*
X035808Y028905D01*
X035809Y028904D01*
X035810Y028903D01*
X035813Y028902D01*
X035816Y028899D01*
X035818Y028896D01*
X035821Y028893D01*
X035824Y028889D01*
X035824Y028889D01*
X035824Y028888D01*
X035824Y028888D01*
X035825Y028887D01*
X035825Y028886D01*
X035826Y028885D01*
X035826Y028883D01*
X035827Y028882D01*
X035827Y028880D01*
X035828Y028878D01*
X035829Y028874D01*
X035830Y028869D01*
X035830Y028865D01*
Y028863D01*
X035830Y028862D01*
X035830Y028861D01*
X035829Y028859D01*
X035829Y028858D01*
X035829Y028856D01*
X035828Y028852D01*
X035827Y028847D01*
X035826Y028845D01*
X035825Y028843D01*
X035824Y028841D01*
X035822Y028839D01*
X035822Y028839D01*
X035822Y028839D01*
X035821Y028838D01*
X035821Y028837D01*
X035820Y028837D01*
X035819Y028836D01*
X035818Y028835D01*
X035817Y028834D01*
X035815Y028832D01*
X035814Y028831D01*
X035812Y028830D01*
X035810Y028829D01*
X035808Y028828D01*
X035806Y028827D01*
X035803Y028826D01*
X035801Y028825D01*
X035798Y028838D01*
X035798D01*
X035798Y028838D01*
X035799Y028838D01*
X035799Y028839D01*
X035800Y028839D01*
X035801Y028839D01*
X035804Y028841D01*
X035806Y028842D01*
X035809Y028844D01*
X035811Y028846D01*
X035814Y028848D01*
X035814Y028849D01*
X035814Y028849D01*
X035815Y028851D01*
X035816Y028853D01*
X035817Y028855D01*
X035818Y028858D01*
X035818Y028861D01*
X035819Y028865D01*
Y028866D01*
X035818Y028867D01*
Y028868D01*
X035818Y028869D01*
X035818Y028872D01*
X035817Y028875D01*
X035816Y028878D01*
X035815Y028881D01*
X035813Y028884D01*
Y028884D01*
X035813Y028885D01*
X035812Y028886D01*
X035811Y028887D01*
X035809Y028889D01*
X035807Y028890D01*
X035804Y028892D01*
X035801Y028894D01*
X035798Y028895D01*
X035798D01*
X035798Y028895D01*
X035797Y028895D01*
X035796Y028896D01*
X035796Y028896D01*
X035795Y028896D01*
X035792Y028897D01*
X035789Y028897D01*
X035786Y028898D01*
X035782Y028898D01*
X035779Y028898D01*
X035779D01*
X035778D01*
X035777D01*
X035777D01*
X035776Y028898D01*
X035774D01*
X035773Y028898D01*
X035771Y028898D01*
X035768Y028897D01*
X035764Y028897D01*
X035760Y028896D01*
X035756Y028895D01*
X035756D01*
X035756Y028894D01*
X035756Y028894D01*
X035755Y028894D01*
X035753Y028893D01*
X035751Y028892D01*
X035749Y028890D01*
X035746Y028888D01*
X035744Y028886D01*
X035742Y028883D01*
Y028883D01*
X035742Y028883D01*
X035742Y028882D01*
X035741Y028882D01*
X035741Y028881D01*
X035741Y028880D01*
X035740Y028878D01*
X035739Y028875D01*
X035738Y028872D01*
X035738Y028869D01*
X035737Y028866D01*
Y028865D01*
X035738Y028864D01*
Y028863D01*
X035738Y028862D01*
X035738Y028859D01*
X035739Y028856D01*
X035740Y028853D01*
X035742Y028850D01*
X035743Y028849D01*
X035744Y028847D01*
X035744Y028847D01*
X035744Y028847D01*
X035744Y028846D01*
X035745Y028846D01*
X035746Y028845D01*
X035747Y028844D01*
X035747Y028844D01*
X035749Y028843D01*
X035750Y028842D01*
X035751Y028841D01*
X035753Y028840D01*
X035754Y028839D01*
X035756Y028838D01*
X035758Y028838D01*
X035761Y028837D01*
X035763Y028836D01*
X035760Y028823D01*
X035759D01*
X035759Y028823D01*
X035758Y028824D01*
X035757Y028824D01*
X035756Y028824D01*
X035754Y028825D01*
X035752Y028826D01*
X035750Y028827D01*
X035746Y028829D01*
X035742Y028831D01*
X035740Y028833D01*
X035738Y028834D01*
X035736Y028836D01*
X035735Y028838D01*
X035734Y028838D01*
X035734Y028839D01*
X035734Y028839D01*
X035733Y028840D01*
X035733Y028841D01*
X035732Y028842D01*
X035731Y028844D01*
X035730Y028846D01*
X035730Y028847D01*
X035729Y028850D01*
X035728Y028852D01*
X035727Y028854D01*
X035727Y028856D01*
X035727Y028859D01*
X035726Y028862D01*
X035726Y028865D01*
Y028866D01*
X035726Y028867D01*
Y028869D01*
X035726Y028870D01*
X035727Y028872D01*
X035727Y028874D01*
X035728Y028878D01*
X035729Y028883D01*
X035730Y028887D01*
X035731Y028889D01*
X035733Y028891D01*
X035733Y028891D01*
X035733Y028892D01*
X035733Y028892D01*
X035734Y028893D01*
X035734Y028894D01*
X035735Y028895D01*
X035736Y028896D01*
X035738Y028897D01*
X035739Y028898D01*
X035740Y028899D01*
X035743Y028902D01*
X035747Y028904D01*
X035752Y028907D01*
X035752D01*
X035752Y028907D01*
X035753Y028907D01*
X035754Y028908D01*
X035755Y028908D01*
X035757Y028908D01*
X035758Y028909D01*
X035760Y028909D01*
X035762Y028910D01*
X035764Y028910D01*
X035768Y028911D01*
X035773Y028912D01*
X035779Y028912D01*
X035779D01*
X035779D01*
X035780D01*
X035781Y028912D01*
D02*
G37*
G36*
X035755Y028799D02*
X035755D01*
X035755D01*
X035754Y028799D01*
X035753Y028799D01*
X035752Y028798D01*
X035750Y028798D01*
X035748Y028797D01*
X035745Y028796D01*
X035743Y028794D01*
X035741Y028792D01*
X035741Y028792D01*
X035740Y028792D01*
X035739Y028790D01*
X035739Y028789D01*
X035738Y028787D01*
X035737Y028785D01*
X035736Y028782D01*
X035736Y028780D01*
Y028779D01*
X035736Y028778D01*
X035737Y028776D01*
X035737Y028774D01*
X035738Y028772D01*
X035739Y028769D01*
X035741Y028767D01*
X035742Y028766D01*
X035743Y028765D01*
X035743Y028764D01*
X035743Y028764D01*
X035744Y028764D01*
X035744Y028764D01*
X035746Y028763D01*
X035748Y028761D01*
X035750Y028760D01*
X035753Y028759D01*
X035757Y028759D01*
X035759Y028758D01*
X035761D01*
X035761D01*
X035761D01*
X035762D01*
X035762Y028758D01*
X035763D01*
X035764Y028759D01*
X035767Y028759D01*
X035769Y028760D01*
X035772Y028761D01*
X035775Y028762D01*
X035777Y028764D01*
X035777D01*
X035778Y028765D01*
X035778Y028765D01*
X035779Y028767D01*
X035780Y028768D01*
X035781Y028771D01*
X035782Y028773D01*
X035783Y028776D01*
X035783Y028778D01*
Y028781D01*
X035783Y028782D01*
X035783Y028783D01*
X035783Y028785D01*
X035782Y028787D01*
X035782Y028789D01*
X035781Y028791D01*
X035781Y028791D01*
X035780Y028791D01*
X035780Y028792D01*
X035779Y028793D01*
X035778Y028795D01*
X035777Y028796D01*
X035775Y028797D01*
X035774Y028798D01*
X035775Y028810D01*
X035827Y028800D01*
Y028750D01*
X035815D01*
Y028790D01*
X035788Y028796D01*
X035788Y028795D01*
X035788Y028795D01*
X035789Y028795D01*
X035789Y028794D01*
X035789Y028793D01*
X035790Y028792D01*
X035791Y028790D01*
X035792Y028787D01*
X035793Y028784D01*
X035794Y028780D01*
X035794Y028778D01*
Y028775D01*
X035794Y028774D01*
X035794Y028773D01*
X035794Y028772D01*
X035794Y028770D01*
X035793Y028769D01*
X035792Y028765D01*
X035791Y028764D01*
X035790Y028762D01*
X035789Y028760D01*
X035788Y028758D01*
X035787Y028756D01*
X035785Y028754D01*
X035785Y028754D01*
X035785Y028754D01*
X035784Y028754D01*
X035784Y028753D01*
X035783Y028752D01*
X035782Y028751D01*
X035780Y028751D01*
X035779Y028750D01*
X035777Y028749D01*
X035776Y028748D01*
X035773Y028747D01*
X035771Y028747D01*
X035769Y028746D01*
X035767Y028746D01*
X035764Y028745D01*
X035762Y028745D01*
X035762D01*
X035761D01*
X035760D01*
X035759Y028745D01*
X035758Y028746D01*
X035757Y028746D01*
X035755Y028746D01*
X035754Y028746D01*
X035750Y028747D01*
X035746Y028749D01*
X035744Y028749D01*
X035742Y028751D01*
X035740Y028752D01*
X035738Y028753D01*
X035738Y028753D01*
X035738Y028754D01*
X035737Y028754D01*
X035736Y028755D01*
X035735Y028756D01*
X035734Y028757D01*
X035733Y028759D01*
X035732Y028760D01*
X035731Y028762D01*
X035730Y028764D01*
X035729Y028766D01*
X035728Y028768D01*
X035727Y028771D01*
X035727Y028774D01*
X035726Y028777D01*
X035726Y028780D01*
Y028781D01*
X035726Y028782D01*
X035726Y028783D01*
X035727Y028784D01*
X035727Y028786D01*
X035727Y028788D01*
X035728Y028791D01*
X035729Y028795D01*
X035730Y028797D01*
X035731Y028799D01*
X035732Y028800D01*
X035734Y028802D01*
X035734Y028802D01*
X035734Y028803D01*
X035734Y028803D01*
X035735Y028803D01*
X035736Y028804D01*
X035737Y028805D01*
X035738Y028806D01*
X035739Y028806D01*
X035740Y028807D01*
X035742Y028808D01*
X035745Y028810D01*
X035750Y028811D01*
X035752Y028812D01*
X035754Y028812D01*
X035755Y028799D01*
D02*
G37*
%LPC*%
G36*
X035763Y029220D02*
Y029189D01*
X035808D01*
X035763Y029220D01*
D02*
G37*
G36*
X038153Y029442D02*
X038152D01*
X038150Y029441D01*
X038148D01*
X038146Y029441D01*
X038144Y029441D01*
X038141Y029440D01*
X038138Y029439D01*
X038134Y029438D01*
X038131Y029437D01*
X038127Y029436D01*
X038123Y029434D01*
X038120Y029432D01*
X038116Y029429D01*
X038113Y029427D01*
X038109Y029423D01*
X038109Y029423D01*
X038108Y029422D01*
X038108Y029421D01*
X038106Y029420D01*
X038105Y029418D01*
X038104Y029416D01*
X038102Y029413D01*
X038101Y029410D01*
X038099Y029406D01*
X038097Y029402D01*
X038096Y029398D01*
X038095Y029393D01*
X038094Y029388D01*
X038093Y029382D01*
X038092Y029377D01*
X038092Y029370D01*
Y029370D01*
Y029369D01*
Y029368D01*
Y029367D01*
X038092Y029365D01*
Y029363D01*
X038093Y029360D01*
X038093Y029358D01*
X038094Y029352D01*
X038095Y029346D01*
X038097Y029339D01*
X038100Y029333D01*
Y029333D01*
X038100Y029332D01*
X038100Y029331D01*
X038101Y029330D01*
X038103Y029327D01*
X038105Y029324D01*
X038108Y029320D01*
X038112Y029316D01*
X038116Y029312D01*
X038121Y029308D01*
X038121D01*
X038121Y029307D01*
X038122Y029307D01*
X038123Y029306D01*
X038125Y029306D01*
X038126Y029305D01*
X038130Y029303D01*
X038135Y029302D01*
X038140Y029300D01*
X038146Y029299D01*
X038153Y029299D01*
X038155D01*
X038157Y029299D01*
X038159Y029300D01*
X038161Y029300D01*
X038164Y029301D01*
X038167Y029301D01*
X038174Y029303D01*
X038177Y029305D01*
X038181Y029306D01*
X038185Y029308D01*
X038188Y029311D01*
X038192Y029313D01*
X038195Y029316D01*
X038195Y029316D01*
X038196Y029317D01*
X038197Y029318D01*
X038198Y029319D01*
X038199Y029321D01*
X038201Y029323D01*
X038202Y029326D01*
X038204Y029330D01*
X038206Y029333D01*
X038207Y029338D01*
X038209Y029342D01*
X038210Y029347D01*
X038211Y029353D01*
X038212Y029359D01*
X038213Y029366D01*
X038213Y029373D01*
Y029373D01*
Y029374D01*
Y029376D01*
X038213Y029378D01*
X038212Y029381D01*
X038212Y029384D01*
X038211Y029388D01*
X038211Y029391D01*
X038209Y029399D01*
X038207Y029403D01*
X038206Y029408D01*
X038204Y029412D01*
X038201Y029416D01*
X038199Y029420D01*
X038196Y029423D01*
X038196Y029423D01*
X038195Y029424D01*
X038194Y029425D01*
X038193Y029426D01*
X038191Y029428D01*
X038189Y029429D01*
X038187Y029431D01*
X038184Y029432D01*
X038181Y029434D01*
X038178Y029436D01*
X038174Y029437D01*
X038170Y029439D01*
X038166Y029440D01*
X038162Y029441D01*
X038158Y029441D01*
X038153Y029442D01*
D02*
G37*
%LPD*%
D10*
X036288Y029411D02*
G03*
X036288Y029411I-000005J000000D01*
G01*
D11*
X038320Y029619D02*
G03*
X038320Y029619I-000020J000000D01*
G01*
X035120Y028281D02*
G03*
X035120Y028281I-000020J000000D01*
G01*
M02*
