G04*
G04 #@! TF.GenerationSoftware,Altium Limited,Altium Designer,23.4.1 (23)*
G04*
G04 Layer_Color=16711935*
%FSAX24Y24*%
%MOIN*%
G70*
G04*
G04 #@! TF.SameCoordinates,D8FA6299-1ACC-4B52-9C68-12A60D61546D*
G04*
G04*
G04 #@! TF.FilePolarity,Negative*
G04*
G01*
G75*
%ADD16R,0.0150X0.0280*%
%ADD23R,0.0236X0.0079*%
%ADD24R,0.0079X0.0236*%
%ADD26P,0.0311X4X180.0*%
%ADD29R,0.0150X0.0200*%
%ADD30R,0.0280X0.0150*%
%ADD31R,0.0218X0.0307*%
%ADD32R,0.0307X0.0218*%
G36*
X035542Y029387D02*
X035482D01*
X035422Y029467D01*
Y029517D01*
X035542D01*
Y029387D01*
D02*
G37*
G36*
X035247Y029467D02*
X035187Y029387D01*
X035127D01*
Y029517D01*
X035247D01*
Y029467D01*
D02*
G37*
G36*
X035542Y029132D02*
X035422D01*
Y029182D01*
X035482Y029262D01*
X035542D01*
Y029132D01*
D02*
G37*
G36*
X035247Y029182D02*
Y029132D01*
X035127D01*
Y029262D01*
X035187D01*
X035247Y029182D01*
D02*
G37*
D16*
X035934Y029800D02*
D03*
X036284D02*
D03*
D23*
X037418Y028438D02*
D03*
Y028596D02*
D03*
Y028753D02*
D03*
Y028911D02*
D03*
Y029068D02*
D03*
X037970D02*
D03*
Y028911D02*
D03*
Y028753D02*
D03*
Y028596D02*
D03*
Y028438D02*
D03*
D24*
X037694Y029068D02*
D03*
Y028438D02*
D03*
D26*
X035334Y029325D02*
D03*
D29*
X037622Y028106D02*
D03*
X037272D02*
D03*
D30*
X037956Y027814D02*
D03*
Y028164D02*
D03*
X036917Y027814D02*
D03*
Y028164D02*
D03*
X035174Y030073D02*
D03*
Y029723D02*
D03*
X035332Y028869D02*
D03*
Y028519D02*
D03*
Y027871D02*
D03*
Y028221D02*
D03*
X035627Y030073D02*
D03*
Y029723D02*
D03*
D31*
X036995Y028473D02*
D03*
X036798D02*
D03*
X036602D02*
D03*
X036405D02*
D03*
Y029427D02*
D03*
X036602D02*
D03*
X036798D02*
D03*
X036995D02*
D03*
D32*
X036323Y028753D02*
D03*
Y028950D02*
D03*
Y029147D02*
D03*
X037076D02*
D03*
Y028950D02*
D03*
Y028753D02*
D03*
M02*
