G04*
G04 #@! TF.GenerationSoftware,Altium Limited,Altium Designer,23.4.1 (23)*
G04*
G04 Layer_Color=128*
%FSAX24Y24*%
%MOIN*%
G70*
G04*
G04 #@! TF.SameCoordinates,D8FA6299-1ACC-4B52-9C68-12A60D61546D*
G04*
G04*
G04 #@! TF.FilePolarity,Positive*
G04*
G01*
G75*
%ADD10C,0.0020*%
D10*
X037430Y027916D02*
X037509D01*
X037469Y027877D02*
Y027956D01*
X037446Y029378D02*
X037525D01*
X037485Y029339D02*
Y029418D01*
X037269Y029293D02*
X037348D01*
X037308Y029253D02*
Y029332D01*
X037640Y029346D02*
X037719D01*
X037680Y029306D02*
Y029385D01*
X037837Y029358D02*
X037915D01*
X037876Y029318D02*
Y029397D01*
X038033Y029605D02*
X038112D01*
X038072Y029566D02*
Y029645D01*
X037561Y029821D02*
X037640D01*
X037601Y029782D02*
Y029860D01*
X035341Y029019D02*
X035420D01*
X035381Y028980D02*
Y029058D01*
X036620Y029856D02*
X036699D01*
X036659Y029816D02*
Y029895D01*
X037033Y029973D02*
X037112D01*
X037072Y029934D02*
Y030012D01*
X036509Y027829D02*
X036588D01*
X036549Y027789D02*
Y027868D01*
X038295Y028045D02*
X038373D01*
X038334Y028005D02*
Y028084D01*
X035834Y027995D02*
X035913D01*
X035873Y027956D02*
Y028035D01*
X035740Y029035D02*
X035819D01*
X035779Y028995D02*
Y029074D01*
X036055Y029054D02*
X036134D01*
X036094Y029015D02*
Y029094D01*
X035886Y029366D02*
X035965D01*
X035925Y029327D02*
Y029405D01*
X035734Y028655D02*
X035813D01*
X035773Y028615D02*
Y028694D01*
X038097Y028918D02*
X038176D01*
X038137Y028879D02*
Y028958D01*
X038173Y028737D02*
X038252D01*
X038212Y028697D02*
Y028776D01*
X035925Y030059D02*
X036003D01*
X035964Y030019D02*
Y030098D01*
X036462Y029974D02*
X036541D01*
X036502Y029934D02*
Y030013D01*
X035106Y029855D02*
X035184D01*
X035145Y029816D02*
Y029895D01*
X035625Y029856D02*
X035704D01*
X035664Y029816D02*
Y029895D01*
X037261Y030190D02*
X037340D01*
X037301Y030151D02*
Y030230D01*
X038039Y028300D02*
X038117D01*
X038078Y028261D02*
Y028340D01*
X035489Y028641D02*
X035568D01*
X035528Y028602D02*
Y028681D01*
X036287Y030062D02*
X036365D01*
X036326Y030023D02*
Y030102D01*
X035647Y028094D02*
X035726D01*
X035686Y028054D02*
Y028133D01*
X037684Y028783D02*
X037763D01*
X037724Y028743D02*
Y028822D01*
X036765Y028807D02*
X036843D01*
X036804Y028767D02*
Y028846D01*
X035401Y028326D02*
X035480D01*
X035440Y028287D02*
Y028365D01*
M02*
