G04*
G04 #@! TF.GenerationSoftware,Altium Limited,Altium Designer,23.4.1 (23)*
G04*
G04 Layer_Physical_Order=1*
G04 Layer_Color=255*
%FSAX24Y24*%
%MOIN*%
G70*
G04*
G04 #@! TF.SameCoordinates,D8FA6299-1ACC-4B52-9C68-12A60D61546D*
G04*
G04*
G04 #@! TF.FilePolarity,Positive*
G04*
G01*
G75*
%ADD12R,0.0148X0.0138*%
%ADD13R,0.0138X0.0148*%
%ADD14R,0.0315X0.0354*%
%ADD15R,0.0157X0.0236*%
%ADD16R,0.0150X0.0280*%
%ADD21C,0.0039*%
%ADD22C,0.0157*%
G36*
X037228Y030160D02*
X037224Y030168D01*
X037220Y030175D01*
X037216Y030181D01*
X037211Y030186D01*
X037206Y030190D01*
X037201Y030194D01*
X037195Y030196D01*
X037189Y030198D01*
X037182Y030200D01*
X037175Y030200D01*
X037192Y030239D01*
X037197Y030240D01*
X037203Y030240D01*
X037209Y030241D01*
X037223Y030245D01*
X037231Y030248D01*
X037259Y030258D01*
X037269Y030262D01*
X037228Y030160D01*
D02*
G37*
G36*
X036268Y030009D02*
X036266Y030011D01*
X036263Y030013D01*
X036260Y030015D01*
X036256Y030016D01*
X036251Y030017D01*
X036247Y030018D01*
X036241Y030019D01*
X036229Y030020D01*
X036222Y030020D01*
Y030059D01*
X036226Y030059D01*
X036230Y030060D01*
X036234Y030061D01*
X036238Y030062D01*
X036240Y030063D01*
X036243Y030065D01*
X036245Y030067D01*
X036246Y030069D01*
X036248Y030071D01*
X036248Y030074D01*
X036268Y030009D01*
D02*
G37*
G36*
X035921Y029992D02*
X035914Y029997D01*
X035899Y030004D01*
X035892Y030008D01*
X035885Y030010D01*
X035878Y030012D01*
X035871Y030014D01*
X035864Y030015D01*
X035857Y030016D01*
X035850Y030016D01*
X035845Y030056D01*
X035851Y030056D01*
X035857Y030057D01*
X035862Y030059D01*
X035868Y030061D01*
X035873Y030064D01*
X035877Y030068D01*
X035881Y030073D01*
X035885Y030078D01*
X035889Y030084D01*
X035892Y030090D01*
X035921Y029992D01*
D02*
G37*
G36*
X036492Y029896D02*
X036483Y029896D01*
X036474Y029897D01*
X036466Y029896D01*
X036458Y029896D01*
X036450Y029894D01*
X036444Y029892D01*
X036437Y029889D01*
X036431Y029886D01*
X036426Y029882D01*
X036421Y029878D01*
X036396Y029909D01*
X036400Y029914D01*
X036404Y029919D01*
X036408Y029925D01*
X036411Y029931D01*
X036414Y029938D01*
X036417Y029946D01*
X036419Y029954D01*
X036422Y029972D01*
X036424Y029982D01*
X036492Y029896D01*
D02*
G37*
G36*
X037071Y029894D02*
X037062Y029894D01*
X037044Y029893D01*
X037036Y029891D01*
X037029Y029889D01*
X037022Y029886D01*
X037015Y029884D01*
X037009Y029880D01*
X037004Y029876D01*
X036999Y029872D01*
X036971Y029900D01*
X036975Y029905D01*
X036979Y029910D01*
X036983Y029916D01*
X036986Y029922D01*
X036988Y029929D01*
X036990Y029937D01*
X036992Y029945D01*
X036993Y029953D01*
X036993Y029963D01*
X036994Y029972D01*
X037071Y029894D01*
D02*
G37*
G36*
X035766Y029929D02*
X035761Y029924D01*
X035757Y029919D01*
X035754Y029913D01*
X035751Y029906D01*
X035748Y029899D01*
X035746Y029892D01*
X035745Y029884D01*
X035744Y029875D01*
X035743Y029866D01*
X035743Y029856D01*
X035665Y029934D01*
X035675Y029934D01*
X035692Y029936D01*
X035701Y029938D01*
X035708Y029940D01*
X035715Y029942D01*
X035722Y029945D01*
X035727Y029948D01*
X035733Y029952D01*
X035738Y029957D01*
X035766Y029929D01*
D02*
G37*
G36*
X035208Y029904D02*
X035222Y029893D01*
X035229Y029888D01*
X035235Y029884D01*
X035242Y029881D01*
X035249Y029878D01*
X035255Y029877D01*
X035262Y029876D01*
X035268Y029875D01*
Y029836D01*
X035262Y029835D01*
X035255Y029834D01*
X035249Y029833D01*
X035242Y029830D01*
X035235Y029827D01*
X035229Y029823D01*
X035222Y029818D01*
X035215Y029813D01*
X035208Y029807D01*
X035201Y029800D01*
Y029911D01*
X035208Y029904D01*
D02*
G37*
G36*
X037368Y029736D02*
X037310D01*
X037314Y029737D01*
X037317Y029738D01*
X037320Y029740D01*
X037323Y029743D01*
X037325Y029746D01*
X037327Y029750D01*
X037328Y029755D01*
X037329Y029761D01*
X037330Y029768D01*
X037330Y029776D01*
X037369D01*
X037368Y029736D01*
D02*
G37*
G36*
X036896D02*
X036838D01*
X036842Y029737D01*
X036845Y029738D01*
X036848Y029740D01*
X036850Y029743D01*
X036853Y029746D01*
X036854Y029750D01*
X036856Y029755D01*
X036857Y029761D01*
X036857Y029768D01*
X036857Y029776D01*
X036897D01*
X036896Y029736D01*
D02*
G37*
G36*
X037644Y029755D02*
X037637Y029750D01*
X037630Y029745D01*
X037624Y029739D01*
X037619Y029733D01*
X037615Y029727D01*
X037612Y029721D01*
X037609Y029715D01*
X037607Y029709D01*
X037606Y029702D01*
X037606Y029695D01*
X037566Y029703D01*
X037566Y029709D01*
X037565Y029715D01*
X037563Y029722D01*
X037561Y029729D01*
X037559Y029736D01*
X037555Y029743D01*
X037547Y029759D01*
X037542Y029768D01*
X037536Y029776D01*
X037644Y029755D01*
D02*
G37*
G36*
X037840Y029641D02*
X037841Y029638D01*
X037843Y029635D01*
X037846Y029632D01*
X037849Y029630D01*
X037854Y029628D01*
X037859Y029627D01*
X037865Y029626D01*
X037872Y029625D01*
X037880Y029625D01*
Y029586D01*
X037872Y029585D01*
X037865Y029585D01*
X037859Y029584D01*
X037854Y029582D01*
X037849Y029581D01*
X037846Y029579D01*
X037843Y029576D01*
X037841Y029573D01*
X037840Y029570D01*
X037839Y029566D01*
Y029645D01*
X037840Y029641D01*
D02*
G37*
G36*
X038016Y029550D02*
X038009Y029557D01*
X037995Y029568D01*
X037989Y029573D01*
X037982Y029577D01*
X037975Y029580D01*
X037968Y029582D01*
X037962Y029584D01*
X037955Y029585D01*
X037949Y029586D01*
Y029625D01*
X037955Y029625D01*
X037962Y029626D01*
X037968Y029628D01*
X037975Y029631D01*
X037982Y029634D01*
X037989Y029638D01*
X037995Y029642D01*
X038002Y029648D01*
X038009Y029654D01*
X038016Y029660D01*
Y029550D01*
D02*
G37*
G36*
X038121Y029542D02*
X038109Y029528D01*
X038105Y029522D01*
X038101Y029515D01*
X038098Y029508D01*
X038095Y029502D01*
X038093Y029495D01*
X038092Y029488D01*
X038092Y029482D01*
X038053D01*
X038052Y029488D01*
X038051Y029495D01*
X038049Y029502D01*
X038047Y029508D01*
X038044Y029515D01*
X038040Y029522D01*
X038035Y029528D01*
X038030Y029535D01*
X038024Y029542D01*
X038017Y029549D01*
X038127D01*
X038121Y029542D01*
D02*
G37*
G36*
X036618Y029503D02*
X036614Y029502D01*
X036611Y029500D01*
X036609Y029497D01*
X036607Y029493D01*
X036605Y029489D01*
X036603Y029484D01*
X036602Y029478D01*
X036602Y029471D01*
X036602Y029463D01*
X036562D01*
X036562Y029471D01*
X036561Y029478D01*
X036560Y029484D01*
X036559Y029489D01*
X036557Y029493D01*
X036555Y029497D01*
X036553Y029500D01*
X036550Y029502D01*
X036546Y029503D01*
X036543Y029504D01*
X036621D01*
X036618Y029503D01*
D02*
G37*
G36*
X035856Y029329D02*
X035851Y029337D01*
X035847Y029344D01*
X035842Y029350D01*
X035837Y029355D01*
X035831Y029359D01*
X035825Y029363D01*
X035819Y029365D01*
X035813Y029367D01*
X035806Y029369D01*
X035799Y029369D01*
X035812Y029408D01*
X035817Y029409D01*
X035823Y029409D01*
X035830Y029411D01*
X035837Y029413D01*
X035844Y029415D01*
X035860Y029421D01*
X035869Y029425D01*
X035887Y029435D01*
X035856Y029329D01*
D02*
G37*
G36*
X037526Y029311D02*
X037519Y029306D01*
X037512Y029301D01*
X037507Y029296D01*
X037501Y029290D01*
X037497Y029285D01*
X037494Y029279D01*
X037491Y029272D01*
X037489Y029266D01*
X037488Y029259D01*
X037487Y029252D01*
X037448Y029262D01*
X037448Y029268D01*
X037447Y029274D01*
X037445Y029281D01*
X037443Y029288D01*
X037441Y029295D01*
X037438Y029302D01*
X037430Y029319D01*
X037425Y029327D01*
X037419Y029336D01*
X037526Y029311D01*
D02*
G37*
G36*
X037679Y029267D02*
X037669Y029267D01*
X037651Y029265D01*
X037643Y029264D01*
X037636Y029262D01*
X037629Y029259D01*
X037622Y029256D01*
X037616Y029253D01*
X037611Y029249D01*
X037606Y029245D01*
X037578Y029272D01*
X037583Y029277D01*
X037587Y029283D01*
X037590Y029289D01*
X037593Y029295D01*
X037595Y029302D01*
X037597Y029310D01*
X037599Y029318D01*
X037600Y029326D01*
X037601Y029335D01*
X037601Y029345D01*
X037679Y029267D01*
D02*
G37*
G36*
X037917Y029290D02*
X037909Y029285D01*
X037903Y029280D01*
X037897Y029275D01*
X037892Y029270D01*
X037888Y029264D01*
X037884Y029258D01*
X037881Y029252D01*
X037879Y029245D01*
X037878Y029239D01*
X037878Y029232D01*
X037838Y029241D01*
X037838Y029247D01*
X037837Y029253D01*
X037836Y029260D01*
X037834Y029267D01*
X037831Y029274D01*
X037824Y029290D01*
X037820Y029298D01*
X037810Y029315D01*
X037917Y029290D01*
D02*
G37*
G36*
X036332Y029177D02*
X036331Y029180D01*
X036330Y029183D01*
X036328Y029185D01*
X036325Y029187D01*
X036322Y029188D01*
X036318Y029190D01*
X036312Y029191D01*
X036307Y029191D01*
X036300Y029192D01*
X036292Y029192D01*
Y029231D01*
X036300Y029232D01*
X036307Y029232D01*
X036313Y029233D01*
X036318Y029234D01*
X036323Y029236D01*
X036326Y029238D01*
X036329Y029241D01*
X036331Y029244D01*
X036333Y029247D01*
X036333Y029251D01*
X036332Y029177D01*
D02*
G37*
G36*
X037357Y029230D02*
X037345Y029216D01*
X037341Y029209D01*
X037337Y029202D01*
X037334Y029196D01*
X037331Y029189D01*
X037329Y029182D01*
X037328Y029176D01*
X037328Y029169D01*
X037288D01*
X037288Y029176D01*
X037287Y029182D01*
X037285Y029189D01*
X037283Y029196D01*
X037280Y029202D01*
X037276Y029209D01*
X037271Y029216D01*
X037266Y029223D01*
X037260Y029230D01*
X037253Y029237D01*
X037363D01*
X037357Y029230D01*
D02*
G37*
G36*
X037031Y029178D02*
X037028Y029177D01*
X037025Y029175D01*
X037022Y029172D01*
X037020Y029168D01*
X037018Y029164D01*
X037017Y029159D01*
X037016Y029153D01*
X037015Y029147D01*
X037016Y029142D01*
X037017Y029136D01*
X037018Y029131D01*
X037020Y029126D01*
X037022Y029123D01*
X037025Y029120D01*
X037028Y029118D01*
X037031Y029117D01*
X037035Y029116D01*
X036956D01*
X036960Y029117D01*
X036963Y029118D01*
X036966Y029120D01*
X036969Y029123D01*
X036971Y029126D01*
X036972Y029131D01*
X036974Y029136D01*
X036975Y029142D01*
X036975Y029147D01*
X036975Y029153D01*
X036974Y029159D01*
X036972Y029164D01*
X036971Y029168D01*
X036969Y029172D01*
X036966Y029175D01*
X036963Y029177D01*
X036960Y029178D01*
X036956Y029178D01*
X037035D01*
X037031Y029178D01*
D02*
G37*
G36*
X035890Y029085D02*
X035886Y029081D01*
X035882Y029076D01*
X035878Y029071D01*
X035875Y029064D01*
X035871Y029057D01*
X035864Y029042D01*
X035861Y029033D01*
X035855Y029013D01*
X035803Y029110D01*
X035811Y029108D01*
X035819Y029106D01*
X035827Y029105D01*
X035834Y029105D01*
X035841Y029106D01*
X035848Y029108D01*
X035854Y029110D01*
X035860Y029113D01*
X035865Y029117D01*
X035870Y029122D01*
X035890Y029085D01*
D02*
G37*
G36*
X035574Y029086D02*
X035570Y029085D01*
X035567Y029083D01*
X035565Y029080D01*
X035563Y029077D01*
X035561Y029073D01*
X035559Y029067D01*
X035558Y029062D01*
X035558Y029055D01*
X035558Y029047D01*
X035518D01*
X035518Y029055D01*
X035517Y029073D01*
X035516Y029077D01*
X035515Y029080D01*
X035514Y029083D01*
X035513Y029085D01*
X035511Y029086D01*
X035510Y029087D01*
X035577D01*
X035574Y029086D01*
D02*
G37*
G36*
X035224D02*
X035220Y029085D01*
X035217Y029083D01*
X035215Y029080D01*
X035213Y029077D01*
X035211Y029073D01*
X035209Y029067D01*
X035208Y029062D01*
X035208Y029055D01*
X035208Y029047D01*
X035168D01*
X035168Y029055D01*
X035167Y029073D01*
X035166Y029077D01*
X035165Y029080D01*
X035164Y029083D01*
X035163Y029085D01*
X035161Y029086D01*
X035160Y029087D01*
X035227D01*
X035224Y029086D01*
D02*
G37*
G36*
X036922Y028980D02*
X036922Y028980D01*
X036921Y028980D01*
X036912Y028980D01*
X036883Y028980D01*
Y029019D01*
X036891Y029019D01*
X036897Y029020D01*
X036903Y029021D01*
X036909Y029022D01*
X036913Y029024D01*
X036917Y029026D01*
X036920Y029029D01*
X036922Y029032D01*
X036923Y029035D01*
X036924Y029039D01*
X036922Y028980D01*
D02*
G37*
G36*
X035558Y028993D02*
X035558Y028986D01*
X035559Y028980D01*
X035561Y028974D01*
X035563Y028970D01*
X035565Y028966D01*
X035567Y028963D01*
X035570Y028961D01*
X035574Y028960D01*
X035577Y028960D01*
X035510Y028961D01*
X035511Y028961D01*
X035513Y028962D01*
X035514Y028964D01*
X035515Y028967D01*
X035516Y028971D01*
X035517Y028975D01*
X035518Y028980D01*
X035518Y028993D01*
X035518Y029000D01*
X035558D01*
X035558Y028993D01*
D02*
G37*
G36*
X035208D02*
X035208Y028986D01*
X035209Y028980D01*
X035211Y028974D01*
X035213Y028970D01*
X035215Y028966D01*
X035217Y028963D01*
X035220Y028961D01*
X035224Y028960D01*
X035227Y028960D01*
X035160Y028961D01*
X035161Y028961D01*
X035163Y028962D01*
X035164Y028964D01*
X035165Y028967D01*
X035166Y028971D01*
X035167Y028975D01*
X035168Y028980D01*
X035168Y028993D01*
X035168Y029000D01*
X035208D01*
X035208Y028993D01*
D02*
G37*
G36*
X036173Y029044D02*
X036175Y029026D01*
X036176Y029018D01*
X036178Y029010D01*
X036181Y029003D01*
X036184Y028997D01*
X036187Y028991D01*
X036191Y028986D01*
X036195Y028981D01*
X036168Y028953D01*
X036163Y028957D01*
X036157Y028961D01*
X036151Y028965D01*
X036145Y028968D01*
X036138Y028970D01*
X036130Y028972D01*
X036122Y028974D01*
X036114Y028975D01*
X036105Y028975D01*
X036095Y028975D01*
X036173Y029053D01*
X036173Y029044D01*
D02*
G37*
G36*
X036093Y028975D02*
X036084Y028975D01*
X036066Y028974D01*
X036058Y028972D01*
X036051Y028970D01*
X036044Y028968D01*
X036037Y028965D01*
X036031Y028961D01*
X036026Y028957D01*
X036021Y028953D01*
X035993Y028981D01*
X035997Y028986D01*
X036001Y028991D01*
X036005Y028997D01*
X036008Y029003D01*
X036010Y029010D01*
X036012Y029018D01*
X036014Y029026D01*
X036015Y029035D01*
X036015Y029044D01*
X036016Y029053D01*
X036093Y028975D01*
D02*
G37*
G36*
X035369Y028941D02*
X035360Y028942D01*
X035351Y028943D01*
X035343Y028942D01*
X035335Y028942D01*
X035328Y028940D01*
X035321Y028938D01*
X035315Y028936D01*
X035309Y028932D01*
X035303Y028928D01*
X035298Y028924D01*
X035274Y028956D01*
X035278Y028960D01*
X035282Y028965D01*
X035286Y028971D01*
X035289Y028978D01*
X035292Y028985D01*
X035295Y028992D01*
X035297Y029001D01*
X035301Y029019D01*
X035302Y029029D01*
X035369Y028941D01*
D02*
G37*
G36*
X038234Y028997D02*
X038230Y028992D01*
X038226Y028987D01*
X038223Y028981D01*
X038220Y028974D01*
X038218Y028968D01*
X038216Y028960D01*
X038215Y028952D01*
X038215Y028944D01*
X038215Y028935D01*
X038215Y028926D01*
X038131Y028997D01*
X038141Y028998D01*
X038159Y029001D01*
X038167Y029003D01*
X038175Y029005D01*
X038182Y029008D01*
X038188Y029011D01*
X038194Y029015D01*
X038200Y029019D01*
X038204Y029023D01*
X038234Y028997D01*
D02*
G37*
G36*
X036332Y028920D02*
X036333Y028861D01*
X036332Y028865D01*
X036331Y028868D01*
X036329Y028871D01*
X036326Y028874D01*
X036323Y028876D01*
X036318Y028878D01*
X036313Y028879D01*
X036307Y028880D01*
X036300Y028881D01*
X036292Y028881D01*
Y028920D01*
X036332Y028920D01*
D02*
G37*
G36*
X035656Y028913D02*
X035658Y028909D01*
X035660Y028907D01*
X035663Y028904D01*
X035666Y028902D01*
X035671Y028900D01*
X035676Y028899D01*
X035682Y028898D01*
X035689Y028897D01*
X035697Y028897D01*
Y028858D01*
X035689Y028857D01*
X035682Y028857D01*
X035676Y028856D01*
X035671Y028854D01*
X035666Y028853D01*
X035663Y028850D01*
X035660Y028848D01*
X035658Y028845D01*
X035656Y028842D01*
X035656Y028838D01*
Y028917D01*
X035656Y028913D01*
D02*
G37*
G36*
X036477Y028887D02*
X036478Y028884D01*
X036480Y028881D01*
X036483Y028878D01*
X036487Y028876D01*
X036491Y028874D01*
X036496Y028873D01*
X036502Y028872D01*
X036509Y028871D01*
X036517Y028871D01*
Y028832D01*
X036509Y028832D01*
X036502Y028831D01*
X036496Y028830D01*
X036491Y028829D01*
X036487Y028827D01*
X036483Y028825D01*
X036480Y028822D01*
X036478Y028819D01*
X036477Y028816D01*
X036476Y028812D01*
Y028891D01*
X036477Y028887D01*
D02*
G37*
G36*
X038158Y028843D02*
X038148Y028840D01*
X038121Y028830D01*
X038114Y028827D01*
X038100Y028820D01*
X038095Y028816D01*
X038090Y028812D01*
X038086Y028808D01*
X038049Y028828D01*
X038054Y028833D01*
X038058Y028838D01*
X038061Y028844D01*
X038063Y028851D01*
X038065Y028857D01*
X038066Y028864D01*
X038066Y028871D01*
X038065Y028879D01*
X038064Y028887D01*
X038061Y028896D01*
X038158Y028843D01*
D02*
G37*
G36*
X037825Y028856D02*
X037820Y028851D01*
X037817Y028846D01*
X037813Y028840D01*
X037810Y028833D01*
X037808Y028826D01*
X037806Y028819D01*
X037804Y028811D01*
X037803Y028802D01*
X037802Y028793D01*
X037802Y028783D01*
X037724Y028861D01*
X037734Y028862D01*
X037752Y028863D01*
X037760Y028865D01*
X037767Y028867D01*
X037774Y028869D01*
X037781Y028872D01*
X037787Y028876D01*
X037792Y028880D01*
X037797Y028884D01*
X037825Y028856D01*
D02*
G37*
G36*
X036922Y028784D02*
X036922Y028783D01*
X036921Y028783D01*
X036917Y028783D01*
X036889Y028783D01*
Y028822D01*
X036895Y028822D01*
X036906Y028824D01*
X036911Y028825D01*
X036915Y028826D01*
X036918Y028827D01*
X036920Y028829D01*
X036922Y028831D01*
X036923Y028834D01*
X036924Y028836D01*
X036922Y028784D01*
D02*
G37*
G36*
X038314Y028810D02*
X038309Y028805D01*
X038305Y028800D01*
X038302Y028794D01*
X038299Y028788D01*
X038297Y028781D01*
X038295Y028773D01*
X038293Y028765D01*
X038292Y028756D01*
X038291Y028747D01*
X038291Y028738D01*
X038213Y028816D01*
X038223Y028816D01*
X038241Y028817D01*
X038249Y028819D01*
X038256Y028821D01*
X038263Y028823D01*
X038270Y028826D01*
X038276Y028830D01*
X038281Y028834D01*
X038286Y028838D01*
X038314Y028810D01*
D02*
G37*
G36*
X035548Y028758D02*
X035549Y028751D01*
X035551Y028745D01*
X035554Y028738D01*
X035557Y028731D01*
X035561Y028725D01*
X035565Y028718D01*
X035570Y028711D01*
X035576Y028705D01*
X035583Y028698D01*
X035474D01*
X035480Y028705D01*
X035486Y028711D01*
X035491Y028718D01*
X035496Y028725D01*
X035500Y028731D01*
X035503Y028738D01*
X035505Y028745D01*
X035507Y028751D01*
X035508Y028758D01*
X035509Y028765D01*
X035548D01*
X035548Y028758D01*
D02*
G37*
G36*
X036852Y028744D02*
X036841Y028730D01*
X036836Y028723D01*
X036832Y028716D01*
X036829Y028710D01*
X036827Y028703D01*
X036825Y028696D01*
X036824Y028690D01*
X036824Y028683D01*
X036784D01*
X036784Y028690D01*
X036783Y028696D01*
X036781Y028703D01*
X036779Y028710D01*
X036775Y028716D01*
X036771Y028723D01*
X036767Y028730D01*
X036762Y028737D01*
X036756Y028744D01*
X036749Y028751D01*
X036859D01*
X036852Y028744D01*
D02*
G37*
G36*
X037772Y028720D02*
X037761Y028706D01*
X037756Y028699D01*
X037752Y028692D01*
X037749Y028686D01*
X037747Y028679D01*
X037745Y028672D01*
X037744Y028666D01*
X037743Y028659D01*
X037704D01*
X037704Y028666D01*
X037703Y028672D01*
X037701Y028679D01*
X037698Y028686D01*
X037695Y028692D01*
X037691Y028699D01*
X037687Y028706D01*
X037681Y028713D01*
X037675Y028720D01*
X037668Y028726D01*
X037779D01*
X037772Y028720D01*
D02*
G37*
G36*
X035306Y028683D02*
X035306Y028682D01*
X035305Y028680D01*
X035304Y028677D01*
X035304Y028673D01*
X035303Y028664D01*
X035302Y028644D01*
X035263D01*
X035263Y028651D01*
X035262Y028658D01*
X035261Y028664D01*
X035260Y028669D01*
X035258Y028673D01*
X035256Y028677D01*
X035253Y028680D01*
X035250Y028682D01*
X035247Y028683D01*
X035243Y028683D01*
X035307D01*
X035306Y028683D01*
D02*
G37*
G36*
X038291Y028726D02*
X038293Y028709D01*
X038295Y028701D01*
X038297Y028693D01*
X038299Y028686D01*
X038302Y028680D01*
X038305Y028674D01*
X038309Y028668D01*
X038314Y028663D01*
X038286Y028636D01*
X038281Y028640D01*
X038276Y028644D01*
X038270Y028647D01*
X038263Y028650D01*
X038256Y028653D01*
X038249Y028655D01*
X038241Y028656D01*
X038232Y028657D01*
X038223Y028658D01*
X038213Y028658D01*
X038291Y028736D01*
X038291Y028726D01*
D02*
G37*
G36*
X036333Y028615D02*
X036333Y028619D01*
X036331Y028622D01*
X036329Y028625D01*
X036326Y028628D01*
X036323Y028630D01*
X036318Y028632D01*
X036313Y028633D01*
X036307Y028634D01*
X036300Y028635D01*
X036292Y028635D01*
Y028674D01*
X036300Y028675D01*
X036307Y028675D01*
X036313Y028676D01*
X036318Y028678D01*
X036323Y028679D01*
X036326Y028681D01*
X036329Y028684D01*
X036331Y028687D01*
X036333Y028690D01*
X036333Y028694D01*
Y028615D01*
D02*
G37*
G36*
X035837Y028703D02*
X035850Y028692D01*
X035857Y028687D01*
X035864Y028683D01*
X035871Y028680D01*
X035877Y028678D01*
X035884Y028676D01*
X035890Y028675D01*
X035897Y028674D01*
Y028635D01*
X035890Y028635D01*
X035884Y028634D01*
X035877Y028632D01*
X035871Y028629D01*
X035864Y028626D01*
X035857Y028622D01*
X035850Y028618D01*
X035843Y028612D01*
X035837Y028606D01*
X035830Y028600D01*
Y028710D01*
X035837Y028703D01*
D02*
G37*
G36*
X036585Y028583D02*
X036583Y028582D01*
X036582Y028580D01*
X036581Y028578D01*
X036580Y028575D01*
X036579Y028572D01*
X036578Y028568D01*
X036578Y028564D01*
X036577Y028553D01*
X036538D01*
X036538Y028558D01*
X036537Y028575D01*
X036536Y028577D01*
X036536Y028579D01*
X036535Y028581D01*
X036534Y028581D01*
X036534Y028582D01*
X036586Y028583D01*
X036585Y028583D01*
D02*
G37*
G36*
X037724Y028429D02*
X037724Y028423D01*
X037725Y028416D01*
X037727Y028411D01*
X037729Y028407D01*
X037731Y028403D01*
X037733Y028400D01*
X037736Y028398D01*
X037740Y028397D01*
X037743Y028396D01*
X037685Y028398D01*
X037685Y028398D01*
X037685Y028399D01*
X037685Y028401D01*
X037684Y028412D01*
X037684Y028437D01*
X037724D01*
X037724Y028429D01*
D02*
G37*
G36*
X037488D02*
X037488Y028423D01*
X037489Y028416D01*
X037491Y028411D01*
X037492Y028407D01*
X037494Y028403D01*
X037497Y028400D01*
X037500Y028398D01*
X037503Y028397D01*
X037507Y028396D01*
X037449Y028398D01*
X037449Y028398D01*
X037449Y028399D01*
X037449Y028401D01*
X037448Y028412D01*
X037448Y028437D01*
X037487D01*
X037488Y028429D01*
D02*
G37*
G36*
X037328Y028429D02*
X037329Y028422D01*
X037330Y028416D01*
X037331Y028411D01*
X037333Y028407D01*
X037335Y028403D01*
X037337Y028400D01*
X037340Y028398D01*
X037344Y028397D01*
X037348Y028396D01*
X037269D01*
X037273Y028397D01*
X037276Y028398D01*
X037279Y028400D01*
X037281Y028403D01*
X037284Y028407D01*
X037285Y028411D01*
X037287Y028416D01*
X037288Y028422D01*
X037288Y028429D01*
X037288Y028437D01*
X037328D01*
X037328Y028429D01*
D02*
G37*
G36*
X037132Y028398D02*
X037074Y028396D01*
X037078Y028397D01*
X037081Y028398D01*
X037084Y028400D01*
X037087Y028403D01*
X037089Y028407D01*
X037091Y028411D01*
X037092Y028416D01*
X037093Y028423D01*
X037094Y028429D01*
X037094Y028437D01*
X037133D01*
X037132Y028398D01*
D02*
G37*
G36*
X038098Y028417D02*
X038099Y028411D01*
X038101Y028404D01*
X038103Y028398D01*
X038107Y028391D01*
X038110Y028384D01*
X038115Y028377D01*
X038120Y028370D01*
X038126Y028364D01*
X038133Y028357D01*
X038023D01*
X038030Y028364D01*
X038041Y028377D01*
X038046Y028384D01*
X038049Y028391D01*
X038053Y028398D01*
X038055Y028404D01*
X038057Y028411D01*
X038058Y028417D01*
X038058Y028424D01*
X038098D01*
X038098Y028417D01*
D02*
G37*
G36*
X035706Y028211D02*
X035707Y028204D01*
X035709Y028198D01*
X035712Y028191D01*
X035715Y028184D01*
X035719Y028177D01*
X035723Y028171D01*
X035729Y028164D01*
X035735Y028157D01*
X035741Y028150D01*
X035631D01*
X035638Y028157D01*
X035649Y028171D01*
X035654Y028177D01*
X035658Y028184D01*
X035661Y028191D01*
X035663Y028198D01*
X035665Y028204D01*
X035666Y028211D01*
X035667Y028217D01*
X035706D01*
X035706Y028211D01*
D02*
G37*
G36*
X036381Y028163D02*
X036378Y028162D01*
X036375Y028160D01*
X036372Y028157D01*
X036370Y028154D01*
X036368Y028150D01*
X036367Y028145D01*
X036366Y028139D01*
X036366Y028132D01*
X036365Y028124D01*
X036326D01*
X036326Y028132D01*
X036325Y028139D01*
X036324Y028145D01*
X036323Y028150D01*
X036321Y028154D01*
X036319Y028157D01*
X036316Y028160D01*
X036313Y028162D01*
X036310Y028163D01*
X036306Y028164D01*
X036385D01*
X036381Y028163D01*
D02*
G37*
G36*
X036145D02*
X036142Y028162D01*
X036139Y028160D01*
X036136Y028157D01*
X036134Y028154D01*
X036132Y028150D01*
X036131Y028145D01*
X036130Y028139D01*
X036129Y028132D01*
X036129Y028124D01*
X036090D01*
X036090Y028132D01*
X036089Y028139D01*
X036088Y028145D01*
X036087Y028150D01*
X036085Y028154D01*
X036083Y028157D01*
X036080Y028160D01*
X036077Y028162D01*
X036074Y028163D01*
X036070Y028164D01*
X036149D01*
X036145Y028163D01*
D02*
G37*
G36*
X035909D02*
X035906Y028162D01*
X035903Y028160D01*
X035900Y028157D01*
X035898Y028154D01*
X035896Y028150D01*
X035895Y028145D01*
X035894Y028139D01*
X035893Y028132D01*
X035893Y028124D01*
X035854D01*
X035853Y028132D01*
X035853Y028139D01*
X035852Y028145D01*
X035850Y028150D01*
X035849Y028154D01*
X035846Y028157D01*
X035844Y028160D01*
X035841Y028162D01*
X035838Y028163D01*
X035834Y028164D01*
X035913D01*
X035909Y028163D01*
D02*
G37*
G36*
X038354Y028161D02*
X038355Y028155D01*
X038357Y028148D01*
X038359Y028142D01*
X038362Y028135D01*
X038366Y028128D01*
X038371Y028121D01*
X038376Y028115D01*
X038382Y028108D01*
X038389Y028101D01*
X038279D01*
X038285Y028108D01*
X038297Y028121D01*
X038301Y028128D01*
X038305Y028135D01*
X038309Y028142D01*
X038311Y028148D01*
X038313Y028155D01*
X038314Y028161D01*
X038314Y028168D01*
X038354D01*
X038354Y028161D01*
D02*
G37*
G36*
X035893Y028112D02*
X035894Y028106D01*
X035896Y028099D01*
X035899Y028092D01*
X035902Y028086D01*
X035906Y028079D01*
X035910Y028072D01*
X035916Y028065D01*
X035922Y028058D01*
X035928Y028052D01*
X035818D01*
X035825Y028058D01*
X035836Y028072D01*
X035841Y028079D01*
X035845Y028086D01*
X035848Y028092D01*
X035850Y028099D01*
X035852Y028106D01*
X035853Y028112D01*
X035854Y028119D01*
X035893D01*
X035893Y028112D01*
D02*
G37*
G36*
X035828Y027931D02*
X035826Y027932D01*
X035823Y027933D01*
X035820Y027934D01*
X035816Y027934D01*
X035813Y027933D01*
X035810Y027932D01*
X035807Y027931D01*
X035803Y027928D01*
X035800Y027926D01*
X035796Y027922D01*
X035768Y027950D01*
X035773Y027955D01*
X035782Y027965D01*
X035785Y027970D01*
X035788Y027974D01*
X035791Y027979D01*
X035792Y027983D01*
X035794Y027986D01*
X035794Y027990D01*
X035795Y027993D01*
X035828Y027931D01*
D02*
G37*
G36*
X037413Y027861D02*
X037406Y027868D01*
X037392Y027879D01*
X037386Y027884D01*
X037379Y027888D01*
X037372Y027891D01*
X037365Y027893D01*
X037359Y027895D01*
X037352Y027896D01*
X037346Y027897D01*
Y027936D01*
X037352Y027936D01*
X037359Y027937D01*
X037365Y027939D01*
X037372Y027942D01*
X037379Y027945D01*
X037386Y027949D01*
X037392Y027953D01*
X037399Y027959D01*
X037406Y027965D01*
X037413Y027971D01*
Y027861D01*
D02*
G37*
G36*
X036480Y027925D02*
X036485Y027921D01*
X036491Y027918D01*
X036498Y027915D01*
X036505Y027913D01*
X036512Y027911D01*
X036520Y027909D01*
X036529Y027908D01*
X036538Y027907D01*
X036548Y027907D01*
X036470Y027829D01*
X036470Y027839D01*
X036468Y027857D01*
X036466Y027865D01*
X036464Y027872D01*
X036462Y027879D01*
X036459Y027886D01*
X036456Y027892D01*
X036452Y027897D01*
X036447Y027902D01*
X036475Y027930D01*
X036480Y027925D01*
D02*
G37*
D12*
X036405Y029245D02*
D03*
Y029048D02*
D03*
Y028852D02*
D03*
Y028655D02*
D03*
X036995D02*
D03*
Y028852D02*
D03*
Y029048D02*
D03*
Y029245D02*
D03*
D13*
X036602Y028655D02*
D03*
X036798D02*
D03*
Y029245D02*
D03*
X036602D02*
D03*
D14*
X038137Y030151D02*
D03*
X035263D02*
D03*
Y027749D02*
D03*
X038137D02*
D03*
D15*
X036346Y029619D02*
D03*
X037054D02*
D03*
X036818D02*
D03*
X036582D02*
D03*
X036109D02*
D03*
X037291D02*
D03*
X037527D02*
D03*
X037763D02*
D03*
X035873D02*
D03*
X035637D02*
D03*
X037054Y028281D02*
D03*
X036346D02*
D03*
X036582D02*
D03*
X036818D02*
D03*
X037291D02*
D03*
X036109D02*
D03*
X035873D02*
D03*
X035637D02*
D03*
X037527D02*
D03*
X037763D02*
D03*
D16*
X035233Y028822D02*
D03*
X035583D02*
D03*
X035233Y029226D02*
D03*
X035583D02*
D03*
D21*
X036602Y028644D02*
Y028655D01*
X037110Y027916D02*
X037469D01*
X036877Y028150D02*
Y028222D01*
X036889Y028803D02*
X036941D01*
X036877Y028150D02*
X037110Y027916D01*
X037350Y029678D02*
Y029792D01*
X036109Y028045D02*
X036494Y027660D01*
X036582Y028281D02*
X036641Y028222D01*
X036877Y029678D02*
Y029778D01*
X037724Y028628D02*
X037920Y028431D01*
X037666Y029978D02*
X037724D01*
X036168Y029678D02*
Y029750D01*
X037468Y029361D02*
X037485Y029378D01*
X037291Y028281D02*
X037308Y028298D01*
Y029293D01*
X036222Y030040D02*
X036303D01*
X037566Y029232D02*
X037680Y029346D01*
X035873Y029619D02*
X035932Y029678D01*
X037566Y028647D02*
Y029232D01*
X037858Y029340D02*
X037876Y029358D01*
X037858Y028917D02*
Y029340D01*
X037724Y028628D02*
Y028783D01*
X037858Y028917D01*
X035188Y028868D02*
X035272Y028783D01*
X036990Y028852D02*
X036995D01*
X035283Y028261D02*
X035607Y027936D01*
X037586Y029806D02*
X037601Y029821D01*
X035272Y028783D02*
X035283Y028773D01*
X037549Y027759D02*
X037920Y028130D01*
X036641Y028150D02*
Y028222D01*
Y028150D02*
X037032Y027759D01*
X037920Y028130D02*
Y028431D01*
X035283Y028261D02*
Y028773D01*
X035873Y027995D02*
Y028281D01*
X035607Y027936D02*
X035782D01*
X036346Y028031D02*
X036549Y027829D01*
X036346Y028031D02*
Y028281D01*
X036109Y028045D02*
Y028281D01*
X038212Y028737D02*
X038334Y028615D01*
Y028045D02*
Y028615D01*
X035782Y027936D02*
X035841Y027995D01*
X035873D01*
X036941Y028803D02*
X036990Y028852D01*
X035779Y029035D02*
X035811D01*
X035917Y028877D02*
X036094Y029054D01*
X036248Y028900D02*
X036356D01*
X035988Y029212D02*
X036371D01*
X035811Y029035D02*
X035988Y029212D01*
X035903Y029389D02*
X035925Y029366D01*
X035773Y028655D02*
X036405D01*
X035532Y028484D02*
X036488D01*
X035639Y028877D02*
X035917D01*
X038055Y028615D02*
Y028805D01*
X038137Y028887D01*
Y028918D01*
X038148Y028939D02*
X038230Y029020D01*
Y029540D01*
X038148Y028907D02*
Y028939D01*
X036582Y029442D02*
X036626Y029398D01*
X037113Y028518D02*
X037148Y028553D01*
X037054Y028281D02*
X037113Y028340D01*
Y028518D01*
X037763Y029619D02*
X037777Y029605D01*
X038072D01*
X037440Y030077D02*
X037765D01*
X038328Y028853D02*
Y029711D01*
X037113Y029678D02*
Y029750D01*
X037054Y029619D02*
X037113Y029678D01*
X037765Y030077D02*
X037948Y029894D01*
X038145D01*
X038212Y028737D02*
X038328Y028853D01*
X038145Y029894D02*
X038328Y029711D01*
X037113Y029750D02*
X037440Y030077D01*
X038137Y029763D02*
X038230Y029671D01*
X037666Y029978D02*
X037666Y029978D01*
X037947Y028005D02*
X038005D01*
X037724Y029978D02*
X037940Y029763D01*
X038137D01*
X037291Y029619D02*
X037350Y029678D01*
X038005Y028005D02*
X038235Y028235D01*
X038230Y029540D02*
Y029671D01*
X038230Y029540D02*
X038230Y029540D01*
X037536Y029978D02*
X037666D01*
X037602Y027660D02*
X037947Y028005D01*
X038072Y029131D02*
Y029605D01*
X036582Y029442D02*
Y029619D01*
X037957Y029016D02*
X038072Y029131D01*
X037957Y028574D02*
Y029016D01*
Y028574D02*
X038078Y028452D01*
X035188Y029170D02*
X035243Y029226D01*
X035188Y028868D02*
Y029170D01*
X035538D02*
X035593Y029226D01*
X035538Y028868D02*
Y029170D01*
Y028868D02*
X035583Y028822D01*
X035664Y029856D02*
X035845Y030036D01*
X035941D01*
X035964Y030059D01*
X036489Y029974D02*
X036502D01*
X036627Y029856D02*
X036659D01*
X036405Y029678D02*
Y029750D01*
X036588Y029816D02*
X036627Y029856D01*
X036471Y029816D02*
X036588D01*
X037704Y028340D02*
Y028509D01*
X036303Y030040D02*
X036326Y030062D01*
X035145Y029855D02*
X035442D01*
X037269Y030190D02*
X037301D01*
X037239Y030220D02*
X037269Y030190D01*
X035806Y030220D02*
X037239D01*
X035442Y029855D02*
X035806Y030220D01*
X038235Y028235D02*
Y028434D01*
X035796Y029389D02*
X035903D01*
X035696Y029488D02*
Y029560D01*
X038078Y028300D02*
Y028452D01*
X038055Y028615D02*
X038235Y028434D01*
X037350Y029792D02*
X037536Y029978D01*
X037148Y028553D02*
Y029347D01*
X036626Y029398D02*
X037097D01*
X037148Y029347D01*
X036371Y029212D02*
X036405Y029245D01*
X037566Y028647D02*
X037704Y028509D01*
X035932Y029750D02*
X036222Y030040D01*
X035932Y029678D02*
Y029750D01*
X036494Y027660D02*
X037602D01*
X036818Y028281D02*
X036877Y028222D01*
X036798Y028655D02*
X036804Y028660D01*
Y028807D01*
X035583Y028822D02*
X035639Y028877D01*
X035528Y028767D02*
X035583Y028822D01*
X037032Y027759D02*
X037549D01*
X036877Y029778D02*
X037072Y029973D01*
X036818Y029619D02*
X036877Y029678D01*
X036346Y029619D02*
X036405Y029678D01*
Y029750D02*
X036471Y029816D01*
X037468Y028340D02*
Y029361D01*
X036269Y029851D02*
X036366D01*
X037468Y028340D02*
X037527Y028281D01*
X036109Y029619D02*
X036168Y029678D01*
X035637Y028281D02*
X035686Y028231D01*
Y028094D02*
Y028231D01*
X035272Y028926D02*
X035365Y029019D01*
X035381D01*
X037586Y029678D02*
Y029806D01*
X035528Y028641D02*
Y028767D01*
X035463Y028415D02*
X035532Y028484D01*
X036488D02*
X036558Y028553D01*
X036168Y029750D02*
X036269Y029851D01*
X035272Y028783D02*
Y028926D01*
X037527Y029619D02*
X037586Y029678D01*
X036774Y029000D02*
X036946D01*
X036356Y028900D02*
X036405Y028852D01*
X036626D01*
X036094Y029054D02*
X036248Y028900D01*
X036946Y029000D02*
X036995Y029048D01*
X036626Y028852D02*
X036774Y029000D01*
X036995Y029048D02*
Y029245D01*
X037704Y028340D02*
X037763Y028281D01*
X036366Y029851D02*
X036489Y029974D01*
X036558Y028600D02*
X036602Y028644D01*
X036558Y028553D02*
Y028600D01*
X035463Y028349D02*
Y028415D01*
X035440Y028326D02*
X035463Y028349D01*
X035637Y029619D02*
X035696Y029560D01*
Y029488D02*
X035796Y029389D01*
D22*
X037469Y027916D02*
D03*
X037485Y029378D02*
D03*
X037308Y029293D02*
D03*
X037680Y029346D02*
D03*
X037876Y029358D02*
D03*
X038072Y029605D02*
D03*
X037601Y029821D02*
D03*
X035381Y029019D02*
D03*
X036659Y029856D02*
D03*
X037072Y029973D02*
D03*
X036549Y027829D02*
D03*
X038334Y028045D02*
D03*
X035873Y027995D02*
D03*
X035779Y029035D02*
D03*
X036094Y029054D02*
D03*
X035925Y029366D02*
D03*
X035773Y028655D02*
D03*
X038137Y028918D02*
D03*
X038212Y028737D02*
D03*
X035964Y030059D02*
D03*
X036502Y029974D02*
D03*
X035145Y029855D02*
D03*
X035664Y029856D02*
D03*
X037301Y030190D02*
D03*
X038078Y028300D02*
D03*
X035528Y028641D02*
D03*
X036326Y030062D02*
D03*
X035686Y028094D02*
D03*
X037724Y028783D02*
D03*
X036804Y028807D02*
D03*
X035440Y028326D02*
D03*
M02*
