G04*
G04 #@! TF.GenerationSoftware,Altium Limited,Altium Designer,23.4.1 (23)*
G04*
G04 Layer_Color=255*
%FSAX24Y24*%
%MOIN*%
G70*
G04*
G04 #@! TF.SameCoordinates,D8FA6299-1ACC-4B52-9C68-12A60D61546D*
G04*
G04*
G04 #@! TF.FilePolarity,Positive*
G04*
G01*
G75*
%ADD12R,0.0148X0.0138*%
%ADD13R,0.0138X0.0148*%
%ADD14R,0.0315X0.0354*%
%ADD15R,0.0157X0.0236*%
%ADD16R,0.0150X0.0280*%
D12*
X036405Y029245D02*
D03*
Y029048D02*
D03*
Y028852D02*
D03*
Y028655D02*
D03*
X036995D02*
D03*
Y028852D02*
D03*
Y029048D02*
D03*
Y029245D02*
D03*
D13*
X036602Y028655D02*
D03*
X036798D02*
D03*
Y029245D02*
D03*
X036602D02*
D03*
D14*
X038137Y030151D02*
D03*
X035263D02*
D03*
Y027749D02*
D03*
X038137D02*
D03*
D15*
X036346Y029619D02*
D03*
X037054D02*
D03*
X036818D02*
D03*
X036582D02*
D03*
X036109D02*
D03*
X037291D02*
D03*
X037527D02*
D03*
X037763D02*
D03*
X035873D02*
D03*
X035637D02*
D03*
X037054Y028281D02*
D03*
X036346D02*
D03*
X036582D02*
D03*
X036818D02*
D03*
X037291D02*
D03*
X036109D02*
D03*
X035873D02*
D03*
X035637D02*
D03*
X037527D02*
D03*
X037763D02*
D03*
D16*
X035233Y028822D02*
D03*
X035583D02*
D03*
X035233Y029226D02*
D03*
X035583D02*
D03*
M02*
