G04*
G04 #@! TF.GenerationSoftware,Altium Limited,Altium Designer,23.4.1 (23)*
G04*
G04 Layer_Color=16711935*
%FSAX24Y24*%
%MOIN*%
G70*
G04*
G04 #@! TF.SameCoordinates,D8FA6299-1ACC-4B52-9C68-12A60D61546D*
G04*
G04*
G04 #@! TF.FilePolarity,Positive*
G04*
G01*
G75*
%ADD33C,0.0010*%
%ADD35C,0.0000*%
D33*
X037340Y028840D02*
X037840Y028340D01*
X037340Y029167D02*
X038048D01*
Y028340D02*
Y029167D01*
X037340Y028340D02*
X038048D01*
X037340D02*
Y029167D01*
X035129Y029120D02*
X035539D01*
X035129D02*
Y029530D01*
X035539D01*
Y029120D02*
Y029530D01*
X036306Y028844D02*
X036806Y029344D01*
X036306Y028556D02*
X037094D01*
Y029344D01*
X036306D02*
X037094D01*
X036306Y028556D02*
Y029344D01*
X036710Y028340D02*
X037210Y028840D01*
Y029098D02*
Y029196D01*
X037170D02*
X037210D01*
X037170Y029098D02*
Y029196D01*
Y029098D02*
X037210D01*
Y028901D02*
Y028999D01*
X037170D02*
X037210D01*
X037170Y028901D02*
Y028999D01*
Y028901D02*
X037210D01*
Y028704D02*
Y028802D01*
X037170D02*
X037210D01*
X037170Y028704D02*
Y028802D01*
Y028704D02*
X037210D01*
X036946Y028340D02*
X037044D01*
Y028380D01*
X036946D02*
X037044D01*
X036946Y028340D02*
Y028380D01*
X036749Y028340D02*
X036848D01*
Y028380D01*
X036749D02*
X036848D01*
X036749Y028340D02*
Y028380D01*
X036552Y028340D02*
X036651D01*
Y028380D01*
X036552D02*
X036651D01*
X036552Y028340D02*
Y028380D01*
X036356Y028340D02*
X036454D01*
Y028380D01*
X036356D02*
X036454D01*
X036356Y028340D02*
Y028380D01*
X036190Y028704D02*
Y028802D01*
Y028704D02*
X036230D01*
Y028802D01*
X036190D02*
X036230D01*
X036190Y028901D02*
Y028999D01*
Y028901D02*
X036230D01*
Y028999D01*
X036190D02*
X036230D01*
X036190Y029098D02*
Y029196D01*
Y029098D02*
X036230D01*
Y029196D01*
X036190D02*
X036230D01*
X036356Y029560D02*
X036454D01*
X036356Y029520D02*
Y029560D01*
Y029520D02*
X036454D01*
Y029560D01*
X036552D02*
X036651D01*
X036552Y029520D02*
Y029560D01*
Y029520D02*
X036651D01*
Y029560D01*
X036749D02*
X036848D01*
X036749Y029520D02*
Y029560D01*
Y029520D02*
X036848D01*
Y029560D01*
X036946D02*
X037044D01*
X036946Y029520D02*
Y029560D01*
Y029520D02*
X037044D01*
Y029560D01*
X036190Y028340D02*
Y029560D01*
X037210D01*
Y028340D02*
Y029560D01*
X036190Y028340D02*
X037210D01*
X037662Y027996D02*
Y028216D01*
X037232D02*
X037662D01*
X037232Y027996D02*
Y028216D01*
Y027996D02*
X037662D01*
X037232Y028216D02*
X037392D01*
X037232Y027996D02*
Y028216D01*
Y027996D02*
X037392D01*
Y028216D01*
X037502Y027996D02*
X037662D01*
Y028216D01*
X037502D02*
X037662D01*
X037502Y027996D02*
Y028216D01*
X037816Y027909D02*
X038096D01*
Y027749D02*
Y027909D01*
X037816Y027749D02*
X038096D01*
X037816D02*
Y027909D01*
Y028069D02*
X038096D01*
X037816D02*
Y028229D01*
X038096D01*
Y028069D02*
Y028229D01*
X037816Y027749D02*
Y028229D01*
X038096D01*
Y027749D02*
Y028229D01*
X037816Y027749D02*
X038096D01*
X036777Y027909D02*
X037057D01*
Y027749D02*
Y027909D01*
X036777Y027749D02*
X037057D01*
X036777D02*
Y027909D01*
Y028069D02*
X037057D01*
X036777D02*
Y028229D01*
X037057D01*
Y028069D02*
Y028229D01*
X036777Y027749D02*
Y028229D01*
X037057D01*
Y027749D02*
Y028229D01*
X036777Y027749D02*
X037057D01*
X035034Y029978D02*
X035314D01*
X035034D02*
Y030138D01*
X035314D01*
Y029978D02*
Y030138D01*
X035034Y029818D02*
X035314D01*
Y029658D02*
Y029818D01*
X035034Y029658D02*
X035314D01*
X035034D02*
Y029818D01*
X035314Y029658D02*
Y030138D01*
X035034Y029658D02*
X035314D01*
X035034D02*
Y030138D01*
X035314D01*
X035192Y028774D02*
X035472D01*
X035192D02*
Y028934D01*
X035472D01*
Y028774D02*
Y028934D01*
X035192Y028614D02*
X035472D01*
Y028454D02*
Y028614D01*
X035192Y028454D02*
X035472D01*
X035192D02*
Y028614D01*
X035472Y028454D02*
Y028934D01*
X035192Y028454D02*
X035472D01*
X035192D02*
Y028934D01*
X035472D01*
X035328Y028682D02*
Y028962D01*
X035168D02*
X035328D01*
X035168Y028682D02*
Y028962D01*
Y028682D02*
X035328D01*
X035488D02*
Y028962D01*
Y028682D02*
X035648D01*
Y028962D01*
X035488D02*
X035648D01*
X035168Y028682D02*
X035648D01*
Y028962D01*
X035168D02*
X035648D01*
X035168Y028682D02*
Y028962D01*
X035328Y029086D02*
Y029366D01*
X035168D02*
X035328D01*
X035168Y029086D02*
Y029366D01*
Y029086D02*
X035328D01*
X035488D02*
Y029366D01*
Y029086D02*
X035648D01*
Y029366D01*
X035488D02*
X035648D01*
X035168Y029086D02*
X035648D01*
Y029366D01*
X035168D02*
X035648D01*
X035168Y029086D02*
Y029366D01*
X035192Y027966D02*
X035472D01*
Y027806D02*
Y027966D01*
X035192Y027806D02*
X035472D01*
X035192D02*
Y027966D01*
Y028126D02*
X035472D01*
X035192D02*
Y028286D01*
X035472D01*
Y028126D02*
Y028286D01*
X035192Y027806D02*
Y028286D01*
X035472D01*
Y027806D02*
Y028286D01*
X035192Y027806D02*
X035472D01*
X035487Y029978D02*
X035767D01*
X035487D02*
Y030138D01*
X035767D01*
Y029978D02*
Y030138D01*
X035487Y029818D02*
X035767D01*
Y029659D02*
Y029818D01*
X035487Y029659D02*
X035767D01*
X035487D02*
Y029818D01*
X035767Y029659D02*
Y030138D01*
X035487Y029659D02*
X035767D01*
X035487D02*
Y030138D01*
X035767D01*
X036029Y029660D02*
Y029940D01*
X035869Y029660D02*
X036029D01*
X035869D02*
Y029940D01*
X036029D01*
X036189Y029660D02*
Y029940D01*
X036349D01*
Y029660D02*
Y029940D01*
X036189Y029660D02*
X036349D01*
X035869Y029940D02*
X036349D01*
Y029660D02*
Y029940D01*
X035869Y029660D02*
X036349D01*
X035869D02*
Y029940D01*
D35*
X035214Y029530D02*
G03*
X035454Y029530I000120J000000D01*
G01*
M02*
