G04*
G04 #@! TF.GenerationSoftware,Altium Limited,Altium Designer,23.4.1 (23)*
G04*
G04 Layer_Color=255*
%FSAX24Y24*%
%MOIN*%
G70*
G04*
G04 #@! TF.SameCoordinates,D8FA6299-1ACC-4B52-9C68-12A60D61546D*
G04*
G04*
G04 #@! TF.FilePolarity,Positive*
G04*
G01*
G75*
%ADD16R,0.0150X0.0280*%
%ADD23R,0.0236X0.0079*%
%ADD24R,0.0079X0.0236*%
%ADD25R,0.0050X0.0050*%
%ADD26P,0.0311X4X180.0*%
%ADD27R,0.0138X0.0227*%
%ADD28R,0.0227X0.0138*%
%ADD29R,0.0150X0.0200*%
%ADD30R,0.0280X0.0150*%
D16*
X035934Y029800D02*
D03*
X036284D02*
D03*
D23*
X037418Y028438D02*
D03*
Y028596D02*
D03*
Y028753D02*
D03*
Y028911D02*
D03*
Y029068D02*
D03*
X037970D02*
D03*
Y028911D02*
D03*
Y028753D02*
D03*
Y028596D02*
D03*
Y028438D02*
D03*
D24*
X037694Y029068D02*
D03*
Y028438D02*
D03*
D25*
X035482Y029452D02*
D03*
Y029197D02*
D03*
X035187D02*
D03*
Y029452D02*
D03*
D26*
X035334Y029325D02*
D03*
D27*
X036995Y028473D02*
D03*
X036798D02*
D03*
X036602D02*
D03*
X036405D02*
D03*
Y029427D02*
D03*
X036602D02*
D03*
X036798D02*
D03*
X036995D02*
D03*
D28*
X036323Y028753D02*
D03*
Y028950D02*
D03*
Y029147D02*
D03*
X037076D02*
D03*
Y028950D02*
D03*
Y028753D02*
D03*
D29*
X037622Y028106D02*
D03*
X037272D02*
D03*
D30*
X037956Y027814D02*
D03*
Y028164D02*
D03*
X036917Y027814D02*
D03*
Y028164D02*
D03*
X035174Y030073D02*
D03*
Y029723D02*
D03*
X035332Y028869D02*
D03*
Y028519D02*
D03*
Y027871D02*
D03*
Y028221D02*
D03*
X035627Y030073D02*
D03*
Y029723D02*
D03*
M02*
