G04*
G04 #@! TF.GenerationSoftware,Altium Limited,Altium Designer,23.4.1 (23)*
G04*
G04 Layer_Physical_Order=2*
G04 Layer_Color=16711680*
%FSAX24Y24*%
%MOIN*%
G70*
G04*
G04 #@! TF.SameCoordinates,D8FA6299-1ACC-4B52-9C68-12A60D61546D*
G04*
G04*
G04 #@! TF.FilePolarity,Positive*
G04*
G01*
G75*
%ADD16R,0.0150X0.0280*%
%ADD21C,0.0039*%
%ADD22C,0.0157*%
%ADD23R,0.0236X0.0079*%
%ADD24R,0.0079X0.0236*%
%ADD25R,0.0050X0.0050*%
%ADD26P,0.0311X4X180.0*%
%ADD27R,0.0138X0.0227*%
%ADD28R,0.0227X0.0138*%
%ADD29R,0.0150X0.0200*%
%ADD30R,0.0280X0.0150*%
G36*
X035794Y030147D02*
X035786Y030139D01*
X035773Y030124D01*
X035769Y030118D01*
X035765Y030112D01*
X035763Y030107D01*
X035762Y030102D01*
X035762Y030098D01*
X035763Y030095D01*
X035765Y030092D01*
X035710Y030146D01*
X035713Y030144D01*
X035717Y030143D01*
X035721Y030143D01*
X035726Y030144D01*
X035731Y030147D01*
X035737Y030150D01*
X035743Y030155D01*
X035750Y030160D01*
X035766Y030175D01*
X035794Y030147D01*
D02*
G37*
G36*
X037364Y030239D02*
X037377Y030227D01*
X037384Y030223D01*
X037391Y030219D01*
X037398Y030216D01*
X037404Y030213D01*
X037411Y030211D01*
X037418Y030210D01*
X037424Y030210D01*
Y030170D01*
X037418Y030170D01*
X037411Y030169D01*
X037404Y030167D01*
X037398Y030165D01*
X037391Y030162D01*
X037384Y030158D01*
X037377Y030153D01*
X037371Y030148D01*
X037364Y030142D01*
X037357Y030135D01*
Y030245D01*
X037364Y030239D01*
D02*
G37*
G36*
X036436Y030113D02*
X036432Y030108D01*
X036428Y030103D01*
X036424Y030097D01*
X036420Y030091D01*
X036416Y030084D01*
X036413Y030077D01*
X036407Y030062D01*
X036405Y030053D01*
X036403Y030045D01*
X036353Y030136D01*
X036361Y030134D01*
X036368Y030132D01*
X036374Y030131D01*
X036381Y030131D01*
X036387Y030131D01*
X036393Y030133D01*
X036398Y030135D01*
X036403Y030137D01*
X036408Y030141D01*
X036413Y030145D01*
X036436Y030113D01*
D02*
G37*
G36*
X035488Y030000D02*
X035488Y030001D01*
X035487Y030002D01*
X035485Y030002D01*
X035482Y030003D01*
X035478Y030003D01*
X035469Y030004D01*
X035456Y030005D01*
X035449Y030005D01*
Y030044D01*
X035456Y030044D01*
X035463Y030045D01*
X035469Y030046D01*
X035474Y030047D01*
X035478Y030049D01*
X035482Y030051D01*
X035485Y030054D01*
X035487Y030057D01*
X035488Y030060D01*
X035488Y030064D01*
Y030000D01*
D02*
G37*
G36*
X036033Y030098D02*
X036039Y030092D01*
X036045Y030086D01*
X036051Y030081D01*
X036057Y030077D01*
X036063Y030074D01*
X036070Y030071D01*
X036076Y030069D01*
X036083Y030068D01*
X036089Y030068D01*
X036084Y030028D01*
X036078Y030028D01*
X036071Y030027D01*
X036065Y030025D01*
X036058Y030023D01*
X036051Y030020D01*
X036044Y030017D01*
X036036Y030013D01*
X036021Y030002D01*
X036012Y029996D01*
X036027Y030106D01*
X036033Y030098D01*
D02*
G37*
G36*
X035763Y030052D02*
X035762Y030049D01*
X035762Y030045D01*
X035763Y030040D01*
X035765Y030035D01*
X035769Y030029D01*
X035773Y030022D01*
X035779Y030015D01*
X035794Y030000D01*
X035766Y029972D01*
X035758Y029980D01*
X035743Y029992D01*
X035737Y029997D01*
X035731Y030000D01*
X035726Y030003D01*
X035721Y030004D01*
X035717Y030004D01*
X035713Y030003D01*
X035710Y030001D01*
X035765Y030055D01*
X035763Y030052D01*
D02*
G37*
G36*
X037151Y029984D02*
X037152Y029981D01*
X037154Y029979D01*
X037156Y029976D01*
X037158Y029974D01*
X037162Y029973D01*
X037165Y029972D01*
X037169Y029971D01*
X037174Y029970D01*
X037178Y029970D01*
Y029931D01*
X037171Y029931D01*
X037158Y029930D01*
X037152Y029929D01*
X037147Y029928D01*
X037143Y029926D01*
X037138Y029925D01*
X037135Y029923D01*
X037132Y029921D01*
X037129Y029919D01*
X037150Y029987D01*
X037151Y029984D01*
D02*
G37*
G36*
X036219Y029959D02*
X036233Y029947D01*
X036240Y029942D01*
X036246Y029939D01*
X036251Y029936D01*
X036256Y029935D01*
X036260Y029935D01*
X036263Y029936D01*
X036266Y029938D01*
X036212Y029884D01*
X036214Y029886D01*
X036215Y029890D01*
X036215Y029894D01*
X036214Y029899D01*
X036211Y029904D01*
X036208Y029910D01*
X036203Y029916D01*
X036198Y029923D01*
X036183Y029939D01*
X036211Y029967D01*
X036219Y029959D01*
D02*
G37*
G36*
X037532Y029918D02*
X037538Y029914D01*
X037544Y029910D01*
X037550Y029908D01*
X037557Y029905D01*
X037565Y029903D01*
X037573Y029901D01*
X037590Y029900D01*
X037600Y029900D01*
X037522Y029822D01*
X037522Y029831D01*
X037521Y029840D01*
X037520Y029849D01*
X037519Y029857D01*
X037517Y029865D01*
X037514Y029872D01*
X037511Y029878D01*
X037508Y029884D01*
X037504Y029889D01*
X037499Y029894D01*
X037527Y029922D01*
X037532Y029918D01*
D02*
G37*
G36*
X036738Y029845D02*
X036740Y029827D01*
X036741Y029819D01*
X036743Y029812D01*
X036746Y029805D01*
X036749Y029798D01*
X036752Y029792D01*
X036756Y029787D01*
X036761Y029782D01*
X036733Y029754D01*
X036728Y029759D01*
X036722Y029763D01*
X036717Y029766D01*
X036710Y029769D01*
X036703Y029771D01*
X036696Y029773D01*
X036687Y029775D01*
X036679Y029776D01*
X036670Y029777D01*
X036660Y029777D01*
X036738Y029855D01*
X036738Y029845D01*
D02*
G37*
G36*
X035174Y029782D02*
X035172Y029780D01*
X035171Y029778D01*
X035169Y029775D01*
X035168Y029772D01*
X035167Y029769D01*
X035166Y029765D01*
X035165Y029760D01*
X035165Y029755D01*
X035165Y029749D01*
X035125D01*
X035125Y029755D01*
X035124Y029765D01*
X035123Y029769D01*
X035122Y029772D01*
X035121Y029775D01*
X035119Y029778D01*
X035117Y029780D01*
X035115Y029782D01*
X035113Y029784D01*
X035177D01*
X035174Y029782D01*
D02*
G37*
G36*
X035696Y029783D02*
X035693Y029781D01*
X035691Y029778D01*
X035689Y029775D01*
X035688Y029772D01*
X035686Y029768D01*
X035685Y029763D01*
X035685Y029758D01*
X035684Y029753D01*
X035684Y029747D01*
X035645D01*
X035645Y029753D01*
X035644Y029758D01*
X035643Y029763D01*
X035642Y029768D01*
X035641Y029772D01*
X035639Y029775D01*
X035637Y029778D01*
X035635Y029781D01*
X035633Y029783D01*
X035630Y029785D01*
X035699D01*
X035696Y029783D01*
D02*
G37*
G36*
X037680Y029810D02*
X037681Y029793D01*
X037683Y029785D01*
X037685Y029777D01*
X037687Y029770D01*
X037690Y029764D01*
X037694Y029758D01*
X037698Y029752D01*
X037702Y029748D01*
X037674Y029720D01*
X037669Y029724D01*
X037664Y029728D01*
X037658Y029731D01*
X037651Y029734D01*
X037644Y029737D01*
X037637Y029739D01*
X037629Y029740D01*
X037620Y029741D01*
X037611Y029742D01*
X037602Y029742D01*
X037679Y029820D01*
X037680Y029810D01*
D02*
G37*
G36*
X036006Y029714D02*
X036005Y029711D01*
Y029706D01*
X036006Y029702D01*
X036008Y029696D01*
X036012Y029691D01*
X036016Y029684D01*
X036022Y029677D01*
X036036Y029662D01*
X036008Y029634D01*
X036000Y029642D01*
X035986Y029654D01*
X035979Y029658D01*
X035973Y029662D01*
X035968Y029664D01*
X035963Y029665D01*
X035959D01*
X035956Y029664D01*
X035953Y029662D01*
X036008Y029717D01*
X036006Y029714D01*
D02*
G37*
G36*
X036320Y029661D02*
X036317Y029660D01*
X036314Y029658D01*
X036311Y029655D01*
X036309Y029652D01*
X036307Y029647D01*
X036306Y029642D01*
X036305Y029636D01*
X036304Y029630D01*
X036304Y029622D01*
X036265D01*
X036265Y029630D01*
X036264Y029636D01*
X036263Y029642D01*
X036262Y029647D01*
X036260Y029652D01*
X036258Y029655D01*
X036255Y029658D01*
X036252Y029660D01*
X036249Y029661D01*
X036245Y029662D01*
X036324D01*
X036320Y029661D01*
D02*
G37*
G36*
X035657Y029650D02*
X035654Y029649D01*
X035651Y029647D01*
X035649Y029644D01*
X035646Y029641D01*
X035645Y029636D01*
X035643Y029631D01*
X035642Y029625D01*
X035642Y029618D01*
X035641Y029610D01*
X035602D01*
X035602Y029618D01*
X035601Y029625D01*
X035600Y029631D01*
X035599Y029636D01*
X035597Y029641D01*
X035595Y029644D01*
X035592Y029647D01*
X035589Y029649D01*
X035586Y029650D01*
X035582Y029651D01*
X035661D01*
X035657Y029650D01*
D02*
G37*
G36*
X035542Y029650D02*
X035539Y029649D01*
X035536Y029647D01*
X035534Y029644D01*
X035531Y029641D01*
X035530Y029636D01*
X035528Y029631D01*
X035527Y029625D01*
X035527Y029618D01*
X035526Y029610D01*
X035487D01*
X035488Y029650D01*
X035546Y029651D01*
X035542Y029650D01*
D02*
G37*
G36*
X035222Y029650D02*
X035219Y029649D01*
X035216Y029647D01*
X035214Y029644D01*
X035211Y029641D01*
X035210Y029636D01*
X035208Y029631D01*
X035207Y029625D01*
X035207Y029618D01*
X035207Y029610D01*
X035167D01*
X035167Y029618D01*
X035166Y029625D01*
X035165Y029631D01*
X035164Y029636D01*
X035162Y029641D01*
X035160Y029644D01*
X035158Y029647D01*
X035155Y029649D01*
X035151Y029650D01*
X035148Y029651D01*
X035226D01*
X035222Y029650D01*
D02*
G37*
G36*
X038004Y029702D02*
X038009Y029698D01*
X038015Y029695D01*
X038022Y029692D01*
X038029Y029689D01*
X038036Y029687D01*
X038044Y029686D01*
X038053Y029685D01*
X038062Y029684D01*
X038071Y029684D01*
X037994Y029606D01*
X037993Y029616D01*
X037992Y029633D01*
X037990Y029642D01*
X037988Y029649D01*
X037986Y029656D01*
X037983Y029663D01*
X037979Y029668D01*
X037975Y029674D01*
X037971Y029679D01*
X037999Y029707D01*
X038004Y029702D01*
D02*
G37*
G36*
X036345Y029559D02*
X036359Y029547D01*
X036366Y029542D01*
X036372Y029539D01*
X036377Y029537D01*
X036382Y029535D01*
X036386D01*
X036389Y029537D01*
X036392Y029539D01*
X036337Y029483D01*
X036339Y029486D01*
X036340Y029490D01*
Y029494D01*
X036339Y029499D01*
X036337Y029504D01*
X036333Y029510D01*
X036329Y029516D01*
X036323Y029523D01*
X036309Y029539D01*
X036337Y029567D01*
X036345Y029559D01*
D02*
G37*
G36*
X035354Y029487D02*
X035356Y029468D01*
X035357Y029460D01*
X035359Y029454D01*
X035361Y029449D01*
X035364Y029444D01*
X035367Y029441D01*
X035370Y029440D01*
X035374Y029439D01*
X035295D01*
X035299Y029440D01*
X035302Y029441D01*
X035305Y029444D01*
X035308Y029449D01*
X035310Y029454D01*
X035312Y029460D01*
X035313Y029468D01*
X035314Y029477D01*
X035315Y029498D01*
X035354D01*
X035354Y029487D01*
D02*
G37*
G36*
X035542Y029387D02*
X035482D01*
X035422Y029467D01*
Y029517D01*
X035542D01*
Y029387D01*
D02*
G37*
G36*
X035247Y029467D02*
X035187Y029387D01*
X035127D01*
Y029517D01*
X035247D01*
Y029467D01*
D02*
G37*
G36*
X037417Y029475D02*
X037422Y029471D01*
X037428Y029468D01*
X037435Y029465D01*
X037442Y029462D01*
X037449Y029460D01*
X037457Y029459D01*
X037466Y029458D01*
X037475Y029457D01*
X037485Y029457D01*
X037407Y029379D01*
X037407Y029389D01*
X037405Y029407D01*
X037403Y029415D01*
X037401Y029422D01*
X037399Y029429D01*
X037396Y029436D01*
X037392Y029442D01*
X037389Y029447D01*
X037384Y029452D01*
X037412Y029480D01*
X037417Y029475D01*
D02*
G37*
G36*
X037817Y029460D02*
X037822Y029456D01*
X037828Y029452D01*
X037834Y029449D01*
X037841Y029446D01*
X037849Y029443D01*
X037857Y029441D01*
X037875Y029437D01*
X037885Y029436D01*
X037798Y029369D01*
X037799Y029378D01*
X037799Y029386D01*
X037799Y029395D01*
X037798Y029402D01*
X037797Y029410D01*
X037795Y029417D01*
X037792Y029423D01*
X037789Y029429D01*
X037785Y029435D01*
X037781Y029440D01*
X037812Y029464D01*
X037817Y029460D01*
D02*
G37*
G36*
X037306Y029412D02*
X037307Y029405D01*
X037309Y029399D01*
X037312Y029393D01*
X037315Y029387D01*
X037319Y029382D01*
X037325Y029376D01*
X037331Y029371D01*
X037337Y029367D01*
X037345Y029363D01*
X037239Y029331D01*
X037244Y029340D01*
X037256Y029366D01*
X037259Y029374D01*
X037263Y029388D01*
X037265Y029395D01*
X037266Y029401D01*
X037266Y029406D01*
X037305Y029419D01*
X037306Y029412D01*
D02*
G37*
G36*
X035982Y029310D02*
X035972Y029294D01*
X035968Y029287D01*
X035964Y029280D01*
X035962Y029273D01*
X035959Y029266D01*
X035958Y029259D01*
X035957Y029253D01*
X035956Y029246D01*
X035917Y029241D01*
X035917Y029247D01*
X035916Y029254D01*
X035914Y029260D01*
X035911Y029267D01*
X035908Y029273D01*
X035903Y029279D01*
X035898Y029285D01*
X035893Y029291D01*
X035886Y029297D01*
X035879Y029302D01*
X035988Y029318D01*
X035982Y029310D01*
D02*
G37*
G36*
X036250Y029247D02*
X036250Y029240D01*
X036251Y029234D01*
X036253Y029228D01*
X036254Y029224D01*
X036256Y029220D01*
X036259Y029217D01*
X036262Y029215D01*
X036265Y029214D01*
X036269Y029214D01*
X036211Y029215D01*
X036210Y029254D01*
X036249D01*
X036250Y029247D01*
D02*
G37*
G36*
X035436Y029273D02*
X035434Y029270D01*
X035434Y029267D01*
X035434Y029263D01*
X035435Y029259D01*
X035437Y029254D01*
X035440Y029250D01*
X035443Y029245D01*
X035448Y029239D01*
X035453Y029234D01*
X035425Y029206D01*
X035420Y029211D01*
X035414Y029216D01*
X035409Y029219D01*
X035405Y029222D01*
X035400Y029224D01*
X035396Y029225D01*
X035392Y029225D01*
X035389Y029225D01*
X035386Y029223D01*
X035383Y029221D01*
X035438Y029276D01*
X035436Y029273D01*
D02*
G37*
G36*
X035369Y029210D02*
X035366Y029209D01*
X035363Y029206D01*
X035361Y029201D01*
X035359Y029196D01*
X035357Y029189D01*
X035356Y029182D01*
X035355Y029173D01*
X035354Y029151D01*
X035315D01*
X035315Y029162D01*
X035313Y029182D01*
X035312Y029189D01*
X035310Y029196D01*
X035308Y029201D01*
X035305Y029206D01*
X035303Y029209D01*
X035299Y029210D01*
X035296Y029211D01*
X035373D01*
X035369Y029210D01*
D02*
G37*
G36*
X035542Y029132D02*
X035422D01*
Y029182D01*
X035482Y029262D01*
X035542D01*
Y029132D01*
D02*
G37*
G36*
X035247Y029182D02*
Y029132D01*
X035127D01*
Y029262D01*
X035187D01*
X035247Y029182D01*
D02*
G37*
G36*
X037772Y029147D02*
X037764Y029147D01*
X037757Y029146D01*
X037751Y029145D01*
X037746Y029144D01*
X037741Y029142D01*
X037738Y029140D01*
X037735Y029137D01*
X037733Y029134D01*
X037732Y029131D01*
X037731Y029127D01*
X037732Y029185D01*
X037772Y029186D01*
Y029147D01*
D02*
G37*
G36*
X037188Y029134D02*
X037189Y029130D01*
X037191Y029127D01*
X037194Y029125D01*
X037198Y029123D01*
X037202Y029121D01*
X037208Y029119D01*
X037214Y029118D01*
X037221Y029118D01*
X037228Y029118D01*
Y029078D01*
X037189Y029079D01*
X037188Y029137D01*
X037188Y029134D01*
D02*
G37*
G36*
X037302Y029106D02*
X037303Y029059D01*
X037302Y029062D01*
X037301Y029066D01*
X037299Y029069D01*
X037296Y029071D01*
X037292Y029073D01*
X037288Y029075D01*
X037283Y029076D01*
X037277Y029077D01*
X037270Y029078D01*
X037262Y029078D01*
Y029118D01*
X037302Y029106D01*
D02*
G37*
G36*
X038087Y029104D02*
X038088Y029102D01*
X038090Y029101D01*
X038093Y029099D01*
X038096Y029098D01*
X038101Y029097D01*
X038106Y029097D01*
X038112Y029096D01*
X038126Y029096D01*
Y029056D01*
X038118Y029056D01*
X038112Y029056D01*
X038106Y029055D01*
X038101Y029053D01*
X038096Y029051D01*
X038093Y029049D01*
X038090Y029047D01*
X038088Y029044D01*
X038087Y029040D01*
X038087Y029037D01*
Y029106D01*
X038087Y029104D01*
D02*
G37*
G36*
X036359Y029080D02*
X036356Y029078D01*
X036353Y029076D01*
X036350Y029074D01*
X036348Y029070D01*
X036346Y029065D01*
X036345Y029060D01*
X036344Y029054D01*
X036343Y029048D01*
X036344Y029043D01*
X036345Y029037D01*
X036346Y029031D01*
X036348Y029027D01*
X036350Y029023D01*
X036353Y029020D01*
X036356Y029018D01*
X036359Y029017D01*
X036363Y029017D01*
X036284D01*
X036288Y029017D01*
X036291Y029018D01*
X036294Y029020D01*
X036297Y029023D01*
X036299Y029027D01*
X036301Y029031D01*
X036302Y029037D01*
X036303Y029043D01*
X036304Y029048D01*
X036303Y029054D01*
X036302Y029060D01*
X036301Y029065D01*
X036299Y029070D01*
X036297Y029074D01*
X036294Y029076D01*
X036291Y029078D01*
X036288Y029080D01*
X036284Y029080D01*
X036363D01*
X036359Y029080D01*
D02*
G37*
G36*
X036143Y028991D02*
X036131Y028977D01*
X036127Y028970D01*
X036123Y028964D01*
X036120Y028957D01*
X036117Y028950D01*
X036115Y028944D01*
X036114Y028937D01*
X036114Y028931D01*
X036075D01*
X036074Y028937D01*
X036073Y028944D01*
X036071Y028950D01*
X036069Y028957D01*
X036066Y028964D01*
X036062Y028970D01*
X036057Y028977D01*
X036052Y028984D01*
X036046Y028991D01*
X036039Y028998D01*
X036149D01*
X036143Y028991D01*
D02*
G37*
G36*
X035405Y028944D02*
X035404Y028943D01*
X035403Y028941D01*
X035403Y028939D01*
X035402Y028937D01*
X035401Y028934D01*
X035401Y028930D01*
X035400Y028922D01*
X035400Y028918D01*
X035361D01*
X035361Y028922D01*
X035360Y028934D01*
X035359Y028937D01*
X035359Y028939D01*
X035358Y028941D01*
X035357Y028943D01*
X035356Y028944D01*
X035354Y028945D01*
X035407D01*
X035405Y028944D01*
D02*
G37*
G36*
X035833Y028976D02*
X035822Y028961D01*
X035818Y028954D01*
X035814Y028947D01*
X035811Y028940D01*
X035809Y028933D01*
X035807Y028926D01*
X035806Y028920D01*
X035806Y028913D01*
X035767Y028910D01*
X035766Y028916D01*
X035765Y028923D01*
X035763Y028930D01*
X035761Y028936D01*
X035757Y028943D01*
X035753Y028949D01*
X035748Y028955D01*
X035743Y028961D01*
X035736Y028968D01*
X035729Y028974D01*
X035839Y028984D01*
X035833Y028976D01*
D02*
G37*
G36*
X037188Y028946D02*
X037189Y028943D01*
X037191Y028940D01*
X037194Y028937D01*
X037198Y028935D01*
X037202Y028933D01*
X037208Y028932D01*
X037214Y028931D01*
X037221Y028931D01*
X037228Y028930D01*
Y028891D01*
X037221Y028891D01*
X037203Y028890D01*
X037199Y028889D01*
X037195Y028888D01*
X037192Y028887D01*
X037190Y028885D01*
X037189Y028884D01*
X037189Y028882D01*
X037188Y028950D01*
X037188Y028946D01*
D02*
G37*
G36*
X036435Y028937D02*
X036436Y028933D01*
X036438Y028930D01*
X036441Y028928D01*
X036445Y028926D01*
X036449Y028924D01*
X036455Y028923D01*
X036461Y028922D01*
X036468Y028921D01*
X036475Y028921D01*
Y028881D01*
X036436Y028882D01*
X036435Y028940D01*
X036435Y028937D01*
D02*
G37*
G36*
X037302Y028872D02*
X037301Y028876D01*
X037300Y028879D01*
X037298Y028882D01*
X037295Y028884D01*
X037292Y028886D01*
X037287Y028888D01*
X037282Y028889D01*
X037276Y028890D01*
X037270Y028891D01*
X037262Y028891D01*
Y028930D01*
X037270Y028930D01*
X037276Y028931D01*
X037282Y028932D01*
X037287Y028933D01*
X037292Y028935D01*
X037295Y028937D01*
X037298Y028939D01*
X037300Y028942D01*
X037301Y028945D01*
X037302Y028949D01*
Y028872D01*
D02*
G37*
G36*
X036732Y028901D02*
X036737Y028897D01*
X036743Y028894D01*
X036749Y028891D01*
X036756Y028889D01*
X036764Y028887D01*
X036772Y028886D01*
X036780Y028885D01*
X036789Y028885D01*
X036799Y028885D01*
X036725Y028803D01*
X036725Y028813D01*
X036722Y028831D01*
X036720Y028839D01*
X036718Y028847D01*
X036715Y028854D01*
X036712Y028860D01*
X036709Y028866D01*
X036705Y028871D01*
X036700Y028876D01*
X036727Y028906D01*
X036732Y028901D01*
D02*
G37*
G36*
X036211Y028821D02*
Y028768D01*
X036211Y028771D01*
X036210Y028773D01*
X036208Y028775D01*
X036206Y028777D01*
X036203Y028779D01*
X036199Y028780D01*
X036195Y028781D01*
X036190Y028782D01*
X036184Y028782D01*
X036177Y028782D01*
Y028822D01*
X036211Y028821D01*
D02*
G37*
G36*
X038151Y028688D02*
X038145Y028695D01*
X038139Y028701D01*
X038133Y028707D01*
X038126Y028712D01*
X038120Y028716D01*
X038114Y028719D01*
X038107Y028722D01*
X038101Y028724D01*
X038101Y028724D01*
X038096Y028723D01*
X038093Y028722D01*
X038090Y028720D01*
X038088Y028719D01*
X038087Y028717D01*
X038087Y028715D01*
Y028784D01*
X038087Y028781D01*
X038088Y028777D01*
X038090Y028774D01*
X038093Y028772D01*
X038096Y028770D01*
X038101Y028768D01*
X038106Y028766D01*
X038106Y028766D01*
X038111Y028768D01*
X038118Y028770D01*
X038125Y028773D01*
X038132Y028776D01*
X038139Y028781D01*
X038147Y028786D01*
X038162Y028797D01*
X038151Y028688D01*
D02*
G37*
G36*
X037302Y028715D02*
X037301Y028718D01*
X037300Y028722D01*
X037298Y028724D01*
X037295Y028727D01*
X037292Y028729D01*
X037287Y028731D01*
X037282Y028732D01*
X037276Y028733D01*
X037270Y028733D01*
X037262Y028733D01*
Y028773D01*
X037270Y028773D01*
X037276Y028774D01*
X037282Y028774D01*
X037287Y028776D01*
X037292Y028777D01*
X037295Y028779D01*
X037298Y028782D01*
X037300Y028785D01*
X037301Y028788D01*
X037302Y028791D01*
Y028715D01*
D02*
G37*
G36*
X037188Y028789D02*
X037189Y028785D01*
X037191Y028782D01*
X037194Y028780D01*
X037198Y028778D01*
X037202Y028776D01*
X037207Y028775D01*
X037214Y028774D01*
X037220Y028773D01*
X037228Y028773D01*
Y028733D01*
X037220Y028733D01*
X037214Y028733D01*
X037207Y028732D01*
X037202Y028730D01*
X037198Y028729D01*
X037194Y028726D01*
X037191Y028724D01*
X037189Y028721D01*
X037188Y028718D01*
X037188Y028714D01*
Y028793D01*
X037188Y028789D01*
D02*
G37*
G36*
X037789Y028738D02*
X037787Y028731D01*
X037785Y028724D01*
X037784Y028718D01*
X037784Y028711D01*
X037786Y028705D01*
X037788Y028699D01*
X037791Y028694D01*
X037794Y028688D01*
X037799Y028683D01*
X037766Y028660D01*
X037760Y028666D01*
X037747Y028677D01*
X037740Y028682D01*
X037725Y028692D01*
X037708Y028702D01*
X037690Y028712D01*
X037793Y028745D01*
X037789Y028738D01*
D02*
G37*
G36*
X035626Y028719D02*
X035622Y028715D01*
X035618Y028709D01*
X035615Y028703D01*
X035612Y028697D01*
X035610Y028690D01*
X035608Y028682D01*
X035607Y028674D01*
X035606Y028666D01*
X035606Y028657D01*
X035607Y028648D01*
X035523Y028720D01*
X035533Y028721D01*
X035551Y028723D01*
X035559Y028725D01*
X035567Y028728D01*
X035574Y028730D01*
X035581Y028734D01*
X035586Y028737D01*
X035592Y028741D01*
X035597Y028745D01*
X035626Y028719D01*
D02*
G37*
G36*
X035852Y028644D02*
X035854Y028627D01*
X035856Y028619D01*
X035858Y028611D01*
X035860Y028604D01*
X035863Y028598D01*
X035866Y028592D01*
X035870Y028586D01*
X035875Y028581D01*
X035847Y028553D01*
X035842Y028558D01*
X035837Y028562D01*
X035831Y028565D01*
X035824Y028568D01*
X035817Y028571D01*
X035810Y028573D01*
X035802Y028574D01*
X035793Y028575D01*
X035784Y028576D01*
X035774Y028576D01*
X035852Y028654D01*
X035852Y028644D01*
D02*
G37*
G36*
X037302Y028558D02*
X037301Y028556D01*
X037300Y028554D01*
X037298Y028552D01*
X037295Y028551D01*
X037292Y028550D01*
X037287Y028549D01*
X037282Y028549D01*
X037270Y028548D01*
X037262Y028548D01*
Y028587D01*
X037270Y028587D01*
X037277Y028588D01*
X037283Y028589D01*
X037288Y028590D01*
X037292Y028592D01*
X037296Y028594D01*
X037299Y028597D01*
X037301Y028600D01*
X037302Y028603D01*
X037303Y028607D01*
X037302Y028558D01*
D02*
G37*
G36*
X035607Y028631D02*
X035609Y028613D01*
X035610Y028605D01*
X035612Y028597D01*
X035615Y028590D01*
X035618Y028584D01*
X035621Y028578D01*
X035625Y028573D01*
X035630Y028568D01*
X035602Y028540D01*
X035597Y028544D01*
X035591Y028548D01*
X035585Y028552D01*
X035579Y028555D01*
X035572Y028557D01*
X035564Y028559D01*
X035556Y028561D01*
X035548Y028562D01*
X035539Y028562D01*
X035529Y028562D01*
X035607Y028640D01*
X035607Y028631D01*
D02*
G37*
G36*
X037103Y028548D02*
X037095Y028547D01*
X037088Y028547D01*
X037082Y028546D01*
X037077Y028544D01*
X037072Y028543D01*
X037069Y028541D01*
X037066Y028538D01*
X037064Y028535D01*
X037063Y028532D01*
X037062Y028528D01*
X037063Y028586D01*
X037103Y028587D01*
Y028548D01*
D02*
G37*
G36*
X036338Y028434D02*
X036338Y028438D01*
X036336Y028441D01*
X036334Y028444D01*
X036331Y028447D01*
X036328Y028449D01*
X036323Y028451D01*
X036318Y028452D01*
X036312Y028453D01*
X036305Y028454D01*
X036297Y028454D01*
Y028493D01*
X036305Y028493D01*
X036312Y028494D01*
X036318Y028495D01*
X036323Y028496D01*
X036328Y028498D01*
X036331Y028500D01*
X036334Y028503D01*
X036336Y028506D01*
X036338Y028509D01*
X036338Y028513D01*
Y028434D01*
D02*
G37*
G36*
X037346Y028401D02*
X037344Y028402D01*
X037342Y028403D01*
X037339Y028402D01*
X037335Y028400D01*
X037331Y028398D01*
X037326Y028394D01*
X037321Y028390D01*
X037309Y028379D01*
X037302Y028372D01*
X037274Y028400D01*
X037281Y028407D01*
X037296Y028425D01*
X037299Y028429D01*
X037302Y028434D01*
X037303Y028437D01*
X037304Y028440D01*
X037304Y028443D01*
X037303Y028444D01*
X037346Y028401D01*
D02*
G37*
G36*
X038088Y028419D02*
X038089Y028412D01*
X038091Y028406D01*
X038094Y028399D01*
X038097Y028393D01*
X038101Y028387D01*
X038106Y028381D01*
X038112Y028375D01*
X038118Y028369D01*
X038126Y028363D01*
X038016Y028349D01*
X038022Y028357D01*
X038033Y028373D01*
X038037Y028380D01*
X038040Y028387D01*
X038043Y028394D01*
X038046Y028401D01*
X038047Y028408D01*
X038048Y028414D01*
X038048Y028421D01*
X038088Y028426D01*
X038088Y028419D01*
D02*
G37*
G36*
X036781Y028362D02*
X036778Y028361D01*
X036776Y028359D01*
X036774Y028357D01*
X036773Y028353D01*
X036771Y028350D01*
X036770Y028345D01*
X036770Y028340D01*
X036769Y028334D01*
X036769Y028327D01*
X036730D01*
X036730Y028361D01*
X036783Y028362D01*
X036781Y028362D01*
D02*
G37*
G36*
X036584D02*
X036581Y028361D01*
X036579Y028359D01*
X036577Y028357D01*
X036576Y028353D01*
X036575Y028350D01*
X036574Y028345D01*
X036573Y028340D01*
X036572Y028334D01*
X036572Y028327D01*
X036533D01*
X036534Y028361D01*
X036586Y028362D01*
X036584Y028362D01*
D02*
G37*
G36*
X037712Y028322D02*
X037709Y028325D01*
X037705Y028326D01*
X037701Y028325D01*
X037696Y028324D01*
X037691Y028322D01*
X037685Y028318D01*
X037679Y028314D01*
X037672Y028308D01*
X037656Y028293D01*
X037628Y028321D01*
X037636Y028329D01*
X037648Y028344D01*
X037653Y028351D01*
X037657Y028356D01*
X037659Y028362D01*
X037660Y028366D01*
X037660Y028370D01*
X037659Y028374D01*
X037657Y028377D01*
X037712Y028322D01*
D02*
G37*
G36*
X035437Y028247D02*
X035427Y028247D01*
X035418Y028247D01*
X035410Y028246D01*
X035402Y028245D01*
X035394Y028243D01*
X035387Y028241D01*
X035381Y028238D01*
X035375Y028234D01*
X035370Y028230D01*
X035365Y028226D01*
X035338Y028255D01*
X035342Y028260D01*
X035346Y028265D01*
X035349Y028271D01*
X035352Y028277D01*
X035355Y028284D01*
X035357Y028292D01*
X035359Y028300D01*
X035360Y028309D01*
X035361Y028318D01*
X035361Y028328D01*
X035437Y028247D01*
D02*
G37*
G36*
X037641Y028236D02*
X037642Y028230D01*
X037643Y028224D01*
X037644Y028219D01*
X037646Y028214D01*
X037648Y028211D01*
X037651Y028208D01*
X037654Y028206D01*
X037657Y028205D01*
X037661Y028204D01*
X037582D01*
X037586Y028205D01*
X037589Y028206D01*
X037592Y028208D01*
X037595Y028211D01*
X037597Y028214D01*
X037599Y028219D01*
X037600Y028224D01*
X037601Y028230D01*
X037602Y028236D01*
X037602Y028244D01*
X037641D01*
X037641Y028236D01*
D02*
G37*
G36*
X037299D02*
X037300Y028230D01*
X037301Y028224D01*
X037302Y028219D01*
X037304Y028214D01*
X037306Y028211D01*
X037309Y028208D01*
X037312Y028206D01*
X037315Y028205D01*
X037319Y028204D01*
X037240D01*
X037244Y028205D01*
X037247Y028206D01*
X037250Y028208D01*
X037253Y028211D01*
X037255Y028214D01*
X037257Y028219D01*
X037258Y028224D01*
X037259Y028230D01*
X037260Y028236D01*
X037260Y028244D01*
X037299D01*
X037299Y028236D01*
D02*
G37*
G36*
X037199Y028125D02*
X037199Y028129D01*
X037197Y028132D01*
X037195Y028135D01*
X037193Y028138D01*
X037189Y028140D01*
X037184Y028142D01*
X037179Y028143D01*
X037173Y028144D01*
X037166Y028145D01*
X037158Y028145D01*
Y028184D01*
X037166Y028184D01*
X037173Y028185D01*
X037179Y028186D01*
X037184Y028187D01*
X037189Y028189D01*
X037193Y028191D01*
X037195Y028194D01*
X037197Y028197D01*
X037199Y028200D01*
X037199Y028204D01*
Y028125D01*
D02*
G37*
G36*
X037056Y028200D02*
X037057Y028197D01*
X037059Y028194D01*
X037062Y028191D01*
X037065Y028189D01*
X037070Y028187D01*
X037075Y028186D01*
X037081Y028185D01*
X037087Y028184D01*
X037095Y028184D01*
Y028145D01*
X037087Y028145D01*
X037081Y028144D01*
X037075Y028143D01*
X037070Y028142D01*
X037065Y028140D01*
X037062Y028138D01*
X037059Y028135D01*
X037057Y028132D01*
X037056Y028129D01*
X037055Y028125D01*
Y028204D01*
X037056Y028200D01*
D02*
G37*
G36*
X036778Y028091D02*
X036777Y028090D01*
X036776Y028090D01*
X036774Y028090D01*
X036764Y028090D01*
X036738Y028089D01*
Y028129D01*
X036746Y028129D01*
X036753Y028130D01*
X036759Y028131D01*
X036764Y028132D01*
X036769Y028134D01*
X036772Y028136D01*
X036775Y028138D01*
X036777Y028141D01*
X036778Y028145D01*
X036779Y028148D01*
X036778Y028091D01*
D02*
G37*
G36*
X035652Y028023D02*
X035642Y028028D01*
X035607Y028041D01*
X035600Y028044D01*
X035587Y028047D01*
X035581Y028047D01*
X035575Y028048D01*
X035561Y028087D01*
X035568Y028087D01*
X035574Y028089D01*
X035580Y028091D01*
X035586Y028093D01*
X035592Y028097D01*
X035597Y028101D01*
X035602Y028107D01*
X035607Y028112D01*
X035611Y028119D01*
X035615Y028127D01*
X035652Y028023D01*
D02*
G37*
G36*
X035941Y028036D02*
X035947Y028030D01*
X035953Y028024D01*
X035960Y028019D01*
X035966Y028015D01*
X035972Y028012D01*
X035979Y028009D01*
X035985Y028007D01*
X035992Y028006D01*
X035999Y028006D01*
X035994Y027966D01*
X035987Y027966D01*
X035981Y027965D01*
X035974Y027963D01*
X035968Y027961D01*
X035960Y027958D01*
X035953Y027955D01*
X035946Y027950D01*
X035931Y027940D01*
X035923Y027934D01*
X035936Y028043D01*
X035941Y028036D01*
D02*
G37*
G36*
X035846Y027921D02*
X035839Y027924D01*
X035832Y027925D01*
X035825Y027926D01*
X035819Y027927D01*
X035813Y027926D01*
X035807Y027925D01*
X035801Y027923D01*
X035796Y027920D01*
X035791Y027917D01*
X035786Y027912D01*
X035763Y027945D01*
X035767Y027950D01*
X035772Y027955D01*
X035776Y027961D01*
X035779Y027967D01*
X035783Y027973D01*
X035786Y027980D01*
X035792Y027996D01*
X035794Y028004D01*
X035797Y028013D01*
X035846Y027921D01*
D02*
G37*
G36*
X038382Y027981D02*
X038371Y027968D01*
X038366Y027961D01*
X038362Y027954D01*
X038359Y027947D01*
X038357Y027941D01*
X038355Y027934D01*
X038354Y027928D01*
X038354Y027921D01*
X038314D01*
X038314Y027928D01*
X038313Y027934D01*
X038311Y027941D01*
X038309Y027947D01*
X038305Y027954D01*
X038301Y027961D01*
X038297Y027968D01*
X038292Y027974D01*
X038285Y027981D01*
X038279Y027988D01*
X038389D01*
X038382Y027981D01*
D02*
G37*
G36*
X035510Y027907D02*
X035503Y027906D01*
X035496Y027906D01*
X035490Y027905D01*
X035485Y027904D01*
X035481Y027902D01*
X035477Y027900D01*
X035474Y027897D01*
X035472Y027894D01*
X035471Y027891D01*
X035471Y027887D01*
Y027945D01*
X035471Y027945D01*
X035472Y027945D01*
X035474Y027945D01*
X035485Y027946D01*
X035510Y027946D01*
Y027907D01*
D02*
G37*
G36*
X037532Y027965D02*
X037546Y027953D01*
X037553Y027949D01*
X037560Y027945D01*
X037566Y027942D01*
X037573Y027939D01*
X037580Y027937D01*
X037586Y027936D01*
X037593Y027936D01*
Y027897D01*
X037586Y027896D01*
X037580Y027895D01*
X037573Y027893D01*
X037566Y027891D01*
X037560Y027888D01*
X037553Y027884D01*
X037546Y027879D01*
X037539Y027874D01*
X037532Y027868D01*
X037525Y027861D01*
Y027971D01*
X037532Y027965D01*
D02*
G37*
G36*
X036786Y027908D02*
X036801Y027896D01*
X036807Y027891D01*
X036813Y027888D01*
X036818Y027885D01*
X036823Y027884D01*
X036827Y027884D01*
X036830Y027885D01*
X036833Y027887D01*
X036779Y027832D01*
X036781Y027835D01*
X036782Y027839D01*
X036782Y027843D01*
X036781Y027848D01*
X036778Y027853D01*
X036775Y027859D01*
X036770Y027865D01*
X036765Y027872D01*
X036750Y027888D01*
X036778Y027916D01*
X036786Y027908D01*
D02*
G37*
G36*
X037056Y027795D02*
X037057Y027791D01*
X037059Y027788D01*
X037062Y027786D01*
X037065Y027784D01*
X037070Y027782D01*
X037075Y027781D01*
X037081Y027780D01*
X037087Y027779D01*
X037095Y027779D01*
Y027739D01*
X037055Y027741D01*
Y027798D01*
X037056Y027795D01*
D02*
G37*
G36*
X037817Y027741D02*
X037817Y027740D01*
X037816Y027740D01*
X037814Y027740D01*
X037807Y027740D01*
X037778Y027739D01*
Y027779D01*
X037785Y027779D01*
X037792Y027779D01*
X037798Y027780D01*
X037803Y027782D01*
X037808Y027783D01*
X037812Y027786D01*
X037814Y027788D01*
X037817Y027791D01*
X037818Y027794D01*
X037818Y027798D01*
X037817Y027741D01*
D02*
G37*
G36*
X036627Y027818D02*
X036629Y027800D01*
X036631Y027792D01*
X036633Y027785D01*
X036635Y027778D01*
X036638Y027771D01*
X036642Y027765D01*
X036645Y027760D01*
X036650Y027755D01*
X036622Y027727D01*
X036617Y027732D01*
X036612Y027736D01*
X036606Y027739D01*
X036599Y027742D01*
X036592Y027744D01*
X036585Y027746D01*
X036577Y027748D01*
X036568Y027749D01*
X036559Y027750D01*
X036549Y027750D01*
X036627Y027828D01*
X036627Y027818D01*
D02*
G37*
D16*
X035934Y029800D02*
D03*
X036284D02*
D03*
D21*
X035334Y029325D02*
X035457Y029202D01*
X037404Y027759D02*
X037835D01*
X037404Y027759D02*
X037404Y027759D01*
X035182Y029447D02*
Y029447D01*
X036798Y028807D02*
X036804D01*
X035182Y029202D02*
Y029202D01*
X036230Y029196D02*
Y029440D01*
X035786Y028897D02*
Y029028D01*
X035182Y029447D02*
X035187Y029452D01*
X038068Y028310D02*
X038078Y028300D01*
X035182Y029192D02*
X035187Y029197D01*
X035113Y028113D02*
Y029123D01*
X036094Y028885D02*
Y029054D01*
X035482Y029550D02*
X035507Y029575D01*
X037279Y028378D02*
X037340Y028438D01*
X036085Y028084D02*
X036646D01*
X035964Y030059D02*
X035975Y030048D01*
X035507Y029575D02*
Y029668D01*
X035975Y030048D02*
X036102D01*
X035622Y028743D02*
Y029716D01*
X035507Y029668D02*
X035554Y029716D01*
X036094Y028885D02*
X036177Y028802D01*
X035634Y029717D02*
X035664Y029747D01*
X037783Y027968D02*
X038086D01*
X037732Y027916D02*
X037783Y027968D01*
X037403Y028911D02*
X037403Y028911D01*
X037076Y028753D02*
X037077Y028753D01*
X037469Y027916D02*
X037732D01*
X038176Y028059D02*
Y028110D01*
X037272Y028106D02*
Y028109D01*
Y028106D02*
X037279Y028113D01*
X037622Y028287D02*
X037694Y028359D01*
X037622Y028106D02*
Y028287D01*
X037694Y028359D02*
Y028438D01*
X036670Y028109D02*
X036800D01*
X035528Y028649D02*
X035622Y028743D01*
X038204Y028745D02*
X038212Y028737D01*
X037978Y028745D02*
X038204D01*
X035845Y029921D02*
X035879D01*
X035934Y029800D02*
Y029865D01*
X037907Y029515D02*
X037940D01*
X037973Y029481D01*
X037799Y029167D02*
X037833Y029200D01*
X037970Y028753D02*
X037978Y028745D01*
X035925Y029745D02*
Y029745D01*
X037839Y028615D02*
X037906D01*
X037178Y029950D02*
X037215Y029914D01*
X037746Y028708D02*
Y028760D01*
X037876Y029358D02*
Y029372D01*
X037906Y028615D02*
X037931Y028591D01*
X037285Y029914D02*
X037536Y029663D01*
X037072Y029973D02*
X037095Y029950D01*
X037215Y029914D02*
X037285D01*
X037746Y028708D02*
X037839Y028615D01*
X036765Y030111D02*
X036915Y029962D01*
X036587Y030111D02*
X036765D01*
X037007Y029816D02*
X037244D01*
X036567Y030131D02*
X036587Y030111D01*
X037657Y029368D02*
Y029430D01*
X036915Y029907D02*
Y029962D01*
X037244Y029816D02*
X037495Y029565D01*
X037522D02*
X037657Y029430D01*
X037125Y029098D02*
X037310D01*
X037340Y029068D02*
X037418D01*
X037076Y029147D02*
X037125Y029098D01*
X037310D02*
X037340Y029068D01*
X036966Y029717D02*
X037147D01*
X037286Y029315D02*
Y029430D01*
Y029315D02*
X037308Y029293D01*
X036896Y029619D02*
X037097D01*
X036659Y029856D02*
X036896Y029619D01*
X037097D02*
X037286Y029430D01*
X037657Y029368D02*
X037680Y029346D01*
X035477Y029202D02*
X035482Y029197D01*
X037389Y030033D02*
X037907Y029515D01*
X035879Y029921D02*
X035934Y029865D01*
X037973Y029481D02*
X037975D01*
X035334Y029097D02*
Y029325D01*
X037536Y029663D02*
X037585D01*
X037095Y029950D02*
X037178D01*
X037585Y029663D02*
X037876Y029372D01*
X037724Y028783D02*
X037746Y028760D01*
X037941Y029200D02*
X038034Y029292D01*
X036680Y027986D02*
X036852Y027814D01*
X035332Y027871D02*
X035387Y027926D01*
X035914Y027986D02*
X036680D01*
X035457Y029202D02*
X035477D01*
X035332Y028869D02*
X035381Y028918D01*
X036323Y028950D02*
X036372Y028901D01*
X036915Y029907D02*
X037007Y029816D01*
X037495Y029565D02*
X037522D01*
X036437Y030131D02*
X036567D01*
X036717Y027660D02*
X038128D01*
X038176Y028110D02*
X038370Y028303D01*
X038086Y027968D02*
X038176Y028059D01*
X038370Y028303D02*
Y028908D01*
X038128Y027660D02*
X038334Y027866D01*
X037216Y028164D02*
X037272Y028109D01*
X035931Y028653D02*
Y028752D01*
X037835Y027759D02*
X037895Y027818D01*
X035334Y029325D02*
X035334Y029325D01*
X037895Y027818D02*
X037956D01*
X035841Y027995D02*
X035905D01*
X035334Y029325D02*
X035334D01*
X035113Y028113D02*
X035159Y028067D01*
X035100Y029365D02*
X035182Y029447D01*
X038056Y028438D02*
X038068Y028426D01*
X035159Y028067D02*
X035628D01*
X035100Y029284D02*
X035182Y029202D01*
X035381Y028918D02*
Y029051D01*
X036703Y028901D02*
X036798Y028807D01*
X036230Y029196D02*
X036279Y029147D01*
X035393Y029616D02*
Y029946D01*
X035528Y028641D02*
X036085Y028084D01*
X037694Y029147D02*
X037714Y029167D01*
X035387Y027926D02*
X035772D01*
X037694Y029076D02*
Y029147D01*
X035182Y029202D02*
X035187Y029197D01*
X035182Y029192D02*
Y029192D01*
X035145Y029749D02*
X035187Y029707D01*
Y029452D02*
Y029707D01*
X035786Y028897D02*
X035931Y028752D01*
X036276Y028473D02*
X036405D01*
X036177Y028802D02*
X036275D01*
X035925Y029366D02*
X035937Y029355D01*
Y028903D02*
X036029Y028811D01*
Y028721D02*
Y028811D01*
X035937Y028903D02*
Y029355D01*
X036553Y028380D02*
X036602Y028429D01*
X036303Y028281D02*
X036507D01*
X036245Y028183D02*
X036605D01*
X036917Y028164D02*
X037216D01*
X035334Y029557D02*
X035393Y029616D01*
X035628Y028067D02*
X035654Y028094D01*
X035686D01*
X037833Y029200D02*
X037941D01*
X038202Y029076D02*
X038370Y028908D01*
X037970Y029076D02*
X038202D01*
X037301Y030190D02*
X037487D01*
X036800Y028109D02*
X036877Y028186D01*
X035554Y029716D02*
X035622D01*
X037235Y030033D02*
X037389D01*
X035905Y027995D02*
X035914Y027986D01*
X035627Y030073D02*
X035682Y030018D01*
X035695Y030045D02*
X035722D01*
Y030103D01*
X035314Y030024D02*
X035674D01*
X035334Y029097D02*
X035381Y029051D01*
X036972Y027759D02*
X037404D01*
X036917Y027814D02*
X036972Y027759D01*
X035482Y029197D02*
Y029197D01*
X037714Y029167D02*
X037799D01*
X036284Y029591D02*
Y029800D01*
Y029591D02*
X036405Y029471D01*
Y029427D02*
Y029471D01*
X037039Y030230D02*
X037235Y030033D01*
X035674Y030024D02*
X035695Y030045D01*
X036372Y028901D02*
X036703D01*
X036502Y029974D02*
X036534D01*
X037403Y028753D02*
X037403Y028753D01*
X037116Y028911D02*
X037403D01*
X036852Y027814D02*
X036917D01*
X035664Y029747D02*
Y029856D01*
X035145Y029749D02*
Y029855D01*
X035848Y030230D02*
X037039D01*
X036279Y029147D02*
X036323D01*
X035269Y030070D02*
X035314Y030024D01*
X038034Y029292D02*
Y029423D01*
X036817Y029867D02*
X036966Y029717D01*
X037147D02*
X037485Y029378D01*
X038068Y028310D02*
Y028426D01*
X035332Y028221D02*
X035387Y028276D01*
X035413D02*
Y028298D01*
X035387Y028276D02*
X035413D01*
Y028298D02*
X035440Y028326D01*
X035722Y030103D02*
X035848Y030230D01*
X035314Y030024D02*
X035393Y029946D01*
X035100Y029284D02*
Y029365D01*
X036549Y027829D02*
X036717Y027660D01*
X035334Y029325D02*
X035334Y029325D01*
X037975Y029481D02*
X038034Y029423D01*
X037076Y028950D02*
X037116Y028911D01*
X037487Y030190D02*
X038072Y029605D01*
X036605Y028183D02*
X036750Y028327D01*
X036602Y028429D02*
Y028473D01*
X035931Y028653D02*
X036303Y028281D01*
X035779Y029035D02*
X035786Y029028D01*
X036507Y028281D02*
X036553Y028327D01*
Y028380D01*
X036750Y028327D02*
Y028425D01*
X037340Y028438D02*
X037418D01*
X037279Y028113D02*
Y028378D01*
X036275Y029800D02*
Y029875D01*
X036646Y028084D02*
X036670Y028109D01*
X036750Y028425D02*
X036798Y028473D01*
X035773Y028655D02*
X036245Y028183D01*
X038334Y027866D02*
Y028045D01*
X036323Y028950D02*
Y029147D01*
X035334Y029325D02*
Y029557D01*
X035733Y030033D02*
X035733D01*
X035772Y027926D02*
X035841Y027995D01*
X035925Y029745D02*
X036230Y029440D01*
X035733Y030033D02*
X035845Y029921D01*
X035528Y028641D02*
Y028649D01*
X035113Y029123D02*
X035182Y029192D01*
X036358Y030062D02*
X036427Y030131D01*
X036437D01*
X036437Y030131D01*
X036326Y030062D02*
X036358D01*
X036725Y030013D02*
X036817Y029921D01*
X036573Y030013D02*
X036725D01*
X036534Y029974D02*
X036573Y030013D01*
X036817Y029867D02*
Y029921D01*
X036275Y028802D02*
X036323Y028753D01*
X036102Y030048D02*
X036275Y029875D01*
X035482Y029452D02*
Y029550D01*
X037077Y028753D02*
X037403D01*
X037311Y028567D02*
X037340Y028596D01*
X037045Y028567D02*
X037311D01*
X036029Y028721D02*
X036276Y028473D01*
X036995Y028518D02*
X037045Y028567D01*
X037340Y028596D02*
X037418D01*
X036995Y028518D02*
Y028518D01*
D22*
X037469Y027916D02*
D03*
X037485Y029378D02*
D03*
X037308Y029293D02*
D03*
X037680Y029346D02*
D03*
X037876Y029358D02*
D03*
X038072Y029605D02*
D03*
X037601Y029821D02*
D03*
X035381Y029019D02*
D03*
X036659Y029856D02*
D03*
X037072Y029973D02*
D03*
X036549Y027829D02*
D03*
X038334Y028045D02*
D03*
X035873Y027995D02*
D03*
X035779Y029035D02*
D03*
X036094Y029054D02*
D03*
X035925Y029366D02*
D03*
X035773Y028655D02*
D03*
X038137Y028918D02*
D03*
X038212Y028737D02*
D03*
X035964Y030059D02*
D03*
X036502Y029974D02*
D03*
X035145Y029855D02*
D03*
X035664Y029856D02*
D03*
X037301Y030190D02*
D03*
X038078Y028300D02*
D03*
X035528Y028641D02*
D03*
X036326Y030062D02*
D03*
X035686Y028094D02*
D03*
X037724Y028783D02*
D03*
X036804Y028807D02*
D03*
X035440Y028326D02*
D03*
D23*
X037418Y028438D02*
D03*
Y028596D02*
D03*
Y028753D02*
D03*
Y028911D02*
D03*
Y029068D02*
D03*
X037970D02*
D03*
Y028911D02*
D03*
Y028753D02*
D03*
Y028596D02*
D03*
Y028438D02*
D03*
D24*
X037694Y029068D02*
D03*
Y028438D02*
D03*
D25*
X035482Y029452D02*
D03*
Y029197D02*
D03*
X035187D02*
D03*
Y029452D02*
D03*
D26*
X035334Y029325D02*
D03*
D27*
X036995Y028473D02*
D03*
X036798D02*
D03*
X036602D02*
D03*
X036405D02*
D03*
Y029427D02*
D03*
X036602D02*
D03*
X036798D02*
D03*
X036995D02*
D03*
D28*
X036323Y028753D02*
D03*
Y028950D02*
D03*
Y029147D02*
D03*
X037076D02*
D03*
Y028950D02*
D03*
Y028753D02*
D03*
D29*
X037622Y028106D02*
D03*
X037272D02*
D03*
D30*
X037956Y027814D02*
D03*
Y028164D02*
D03*
X036917Y027814D02*
D03*
Y028164D02*
D03*
X035174Y030073D02*
D03*
Y029723D02*
D03*
X035332Y028869D02*
D03*
Y028519D02*
D03*
Y027871D02*
D03*
Y028221D02*
D03*
X035627Y030073D02*
D03*
Y029723D02*
D03*
M02*
