M48
;Layer_Color=9474304
;FILE_FORMAT=2:4
INCH
;TYPE=PLATED
T1F00S00C0.0039
%
T01
X035145Y028084
X035627Y028094
X035809Y027854
X036112Y028037
X036346Y027887
X036523Y027779
X036818Y028143
X037044Y028084
X037291Y028143
X037537Y028054
X037665Y028005
X038176Y028192
X037916Y028463
X037576Y028940
X037341Y028786
Y029098
X036808Y028999
X036616Y028817
X035873Y028953
X035873Y029865
X036109
X036346
X036572
X036720
X037192Y030249
X037340Y030151
X037783Y029314
X035627Y029767
X035277Y029747
X035227Y029452
X035745Y030102
M30
