G04*
G04 #@! TF.GenerationSoftware,Altium Limited,Altium Designer,23.4.1 (23)*
G04*
G04 Layer_Physical_Order=4*
G04 Layer_Color=16711680*
%FSAX24Y24*%
%MOIN*%
G70*
G04*
G04 #@! TF.SameCoordinates,6F517EDD-1851-421F-B134-E297A81234A1*
G04*
G04*
G04 #@! TF.FilePolarity,Positive*
G04*
G01*
G75*
%ADD14R,0.0150X0.0280*%
%ADD24C,0.0039*%
%ADD25C,0.0157*%
%ADD26R,0.0138X0.0227*%
%ADD27R,0.0227X0.0138*%
%ADD28R,0.0079X0.0236*%
%ADD29R,0.0236X0.0079*%
G36*
X035251Y028154D02*
X035255Y028150D01*
X035261Y028146D01*
X035266Y028142D01*
X035272Y028139D01*
X035279Y028135D01*
X035295Y028129D01*
X035304Y028126D01*
X035324Y028121D01*
X035230Y028064D01*
X035232Y028072D01*
X035233Y028080D01*
X035233Y028088D01*
X035233Y028096D01*
X035232Y028103D01*
X035230Y028110D01*
X035228Y028116D01*
X035225Y028122D01*
X035221Y028127D01*
X035216Y028133D01*
X035251Y028154D01*
D02*
G37*
G36*
X035196Y028320D02*
X035196Y028328D01*
X035194Y028358D01*
X035194Y028359D01*
X035193Y028360D01*
X035255D01*
X035251Y028359D01*
X035248Y028358D01*
X035245Y028356D01*
X035242Y028353D01*
X035240Y028350D01*
X035239Y028345D01*
X035237Y028340D01*
X035236Y028334D01*
X035236Y028328D01*
X035235Y028320D01*
X035196D01*
D02*
G37*
G36*
X035652Y028802D02*
X035649Y028801D01*
X035646Y028799D01*
X035643Y028796D01*
X035641Y028793D01*
X035639Y028788D01*
X035638Y028783D01*
X035637Y028777D01*
X035637Y028771D01*
X035636Y028763D01*
X035597D01*
X035597Y028771D01*
X035596Y028777D01*
X035595Y028783D01*
X035594Y028788D01*
X035592Y028793D01*
X035590Y028796D01*
X035587Y028799D01*
X035584Y028801D01*
X035581Y028802D01*
X035577Y028803D01*
X035656D01*
X035652Y028802D01*
D02*
G37*
G36*
X035312D02*
X035309Y028801D01*
X035306Y028799D01*
X035303Y028796D01*
X035301Y028793D01*
X035299Y028788D01*
X035298Y028783D01*
X035297Y028777D01*
X035296Y028771D01*
X035296Y028763D01*
X035257D01*
X035257Y028771D01*
X035256Y028777D01*
X035255Y028783D01*
X035254Y028788D01*
X035252Y028793D01*
X035250Y028796D01*
X035247Y028799D01*
X035244Y028801D01*
X035241Y028802D01*
X035237Y028803D01*
X035316D01*
X035312Y028802D01*
D02*
G37*
G36*
X035637Y028669D02*
X035637Y028662D01*
X035638Y028656D01*
X035639Y028651D01*
X035641Y028646D01*
X035643Y028643D01*
X035646Y028640D01*
X035649Y028638D01*
X035652Y028636D01*
X035656Y028636D01*
X035577D01*
X035581Y028636D01*
X035584Y028638D01*
X035587Y028640D01*
X035590Y028643D01*
X035592Y028646D01*
X035594Y028651D01*
X035595Y028656D01*
X035596Y028662D01*
X035597Y028669D01*
X035597Y028677D01*
X035636D01*
X035637Y028669D01*
D02*
G37*
G36*
X035898Y028437D02*
X035893Y028442D01*
X035887Y028446D01*
X035881Y028449D01*
X035875Y028451D01*
X035868Y028453D01*
X035861Y028454D01*
X035854Y028454D01*
X035846Y028454D01*
X035838Y028453D01*
X035829Y028451D01*
X035887Y028545D01*
X035889Y028535D01*
X035898Y028508D01*
X035901Y028500D01*
X035907Y028487D01*
X035911Y028482D01*
X035915Y028477D01*
X035919Y028472D01*
X035898Y028437D01*
D02*
G37*
G36*
X035891Y028665D02*
X035886Y028669D01*
X035881Y028673D01*
X035875Y028676D01*
X035869Y028679D01*
X035862Y028681D01*
X035855Y028682D01*
X035847Y028682D01*
X035839Y028682D01*
X035831Y028681D01*
X035822Y028679D01*
X035881Y028772D01*
X035884Y028762D01*
X035892Y028735D01*
X035895Y028728D01*
X035898Y028721D01*
X035901Y028714D01*
X035905Y028709D01*
X035909Y028704D01*
X035913Y028699D01*
X035891Y028665D01*
D02*
G37*
G36*
X036014Y028741D02*
X036008Y028746D01*
X035995Y028757D01*
X035988Y028762D01*
X035973Y028772D01*
X035956Y028782D01*
X035937Y028791D01*
X036040Y028827D01*
X036036Y028820D01*
X036034Y028813D01*
X036032Y028806D01*
X036032Y028799D01*
X036032Y028793D01*
X036033Y028786D01*
X036035Y028780D01*
X036038Y028775D01*
X036042Y028769D01*
X036047Y028764D01*
X036014Y028741D01*
D02*
G37*
G36*
X036297Y028587D02*
X036337Y028586D01*
X036338Y028528D01*
X036337Y028532D01*
X036336Y028535D01*
X036334Y028538D01*
X036331Y028541D01*
X036328Y028543D01*
X036323Y028544D01*
X036318Y028546D01*
X036312Y028547D01*
X036305Y028547D01*
X036297Y028548D01*
Y028587D01*
D02*
G37*
G36*
X036533Y028327D02*
X036534Y028361D01*
X036586Y028362D01*
X036584Y028362D01*
X036581Y028361D01*
X036579Y028359D01*
X036577Y028357D01*
X036576Y028353D01*
X036575Y028350D01*
X036574Y028345D01*
X036573Y028340D01*
X036572Y028334D01*
X036572Y028327D01*
X036533D01*
D02*
G37*
G36*
X036172Y028773D02*
X036179Y028773D01*
X036186Y028774D01*
X036192Y028775D01*
X036197Y028776D01*
X036201Y028778D01*
X036205Y028780D01*
X036208Y028782D01*
X036210Y028785D01*
X036211Y028789D01*
X036211Y028793D01*
Y028714D01*
X036211Y028718D01*
X036210Y028721D01*
X036208Y028724D01*
X036205Y028726D01*
X036201Y028729D01*
X036197Y028730D01*
X036192Y028732D01*
X036186Y028733D01*
X036179Y028733D01*
X036172Y028733D01*
Y028773D01*
D02*
G37*
G36*
X035392Y029647D02*
X035397Y029629D01*
X035400Y029621D01*
X035406Y029606D01*
X035409Y029600D01*
X035413Y029594D01*
X035417Y029589D01*
X035421Y029585D01*
X035399Y029551D01*
X035394Y029555D01*
X035388Y029559D01*
X035382Y029562D01*
X035376Y029565D01*
X035369Y029567D01*
X035362Y029568D01*
X035354Y029568D01*
X035346Y029568D01*
X035338Y029567D01*
X035329Y029565D01*
X035390Y029658D01*
X035392Y029647D01*
D02*
G37*
G36*
X035543Y029523D02*
X035544Y029465D01*
X035544Y029469D01*
X035542Y029472D01*
X035540Y029475D01*
X035537Y029478D01*
X035534Y029480D01*
X035529Y029482D01*
X035524Y029483D01*
X035518Y029484D01*
X035511Y029485D01*
X035504Y029485D01*
Y029524D01*
X035543Y029523D01*
D02*
G37*
G36*
X035662Y029245D02*
X035659Y029244D01*
X035656Y029242D01*
X035653Y029239D01*
X035651Y029236D01*
X035649Y029231D01*
X035648Y029226D01*
X035647Y029220D01*
X035646Y029214D01*
X035646Y029206D01*
X035607D01*
X035607Y029214D01*
X035606Y029220D01*
X035605Y029226D01*
X035604Y029231D01*
X035602Y029236D01*
X035600Y029239D01*
X035597Y029242D01*
X035594Y029244D01*
X035591Y029245D01*
X035587Y029245D01*
X035666D01*
X035662Y029245D01*
D02*
G37*
G36*
X035312D02*
X035309Y029244D01*
X035306Y029242D01*
X035303Y029239D01*
X035301Y029236D01*
X035299Y029231D01*
X035298Y029226D01*
X035297Y029220D01*
X035296Y029214D01*
X035296Y029206D01*
X035257D01*
X035257Y029214D01*
X035256Y029220D01*
X035255Y029226D01*
X035254Y029231D01*
X035252Y029236D01*
X035250Y029239D01*
X035247Y029242D01*
X035244Y029244D01*
X035241Y029245D01*
X035237Y029245D01*
X035316D01*
X035312Y029245D01*
D02*
G37*
G36*
X035646Y029112D02*
X035647Y029105D01*
X035648Y029099D01*
X035649Y029094D01*
X035651Y029089D01*
X035653Y029085D01*
X035656Y029083D01*
X035659Y029081D01*
X035662Y029079D01*
X035666Y029079D01*
X035587D01*
X035591Y029079D01*
X035594Y029081D01*
X035597Y029083D01*
X035600Y029085D01*
X035602Y029089D01*
X035604Y029094D01*
X035605Y029099D01*
X035606Y029105D01*
X035607Y029112D01*
X035607Y029120D01*
X035646D01*
X035646Y029112D01*
D02*
G37*
G36*
X035296D02*
X035297Y029105D01*
X035298Y029099D01*
X035299Y029094D01*
X035301Y029089D01*
X035303Y029085D01*
X035306Y029083D01*
X035309Y029081D01*
X035312Y029079D01*
X035316Y029079D01*
X035237D01*
X035241Y029079D01*
X035244Y029081D01*
X035247Y029083D01*
X035250Y029085D01*
X035252Y029089D01*
X035254Y029094D01*
X035255Y029099D01*
X035256Y029105D01*
X035257Y029112D01*
X035257Y029120D01*
X035296D01*
X035296Y029112D01*
D02*
G37*
G36*
X036670Y029539D02*
X036617D01*
X036619Y029539D01*
X036622Y029540D01*
X036624Y029542D01*
X036626Y029544D01*
X036627Y029547D01*
X036629Y029551D01*
X036630Y029555D01*
X036630Y029560D01*
X036631Y029566D01*
X036631Y029573D01*
X036670D01*
X036670Y029539D01*
D02*
G37*
G36*
X036338Y029387D02*
X036338Y029391D01*
X036336Y029394D01*
X036334Y029397D01*
X036331Y029400D01*
X036328Y029402D01*
X036323Y029404D01*
X036318Y029405D01*
X036312Y029406D01*
X036305Y029407D01*
X036297Y029407D01*
Y029446D01*
X036305Y029446D01*
X036312Y029447D01*
X036318Y029448D01*
X036323Y029449D01*
X036328Y029451D01*
X036331Y029453D01*
X036334Y029456D01*
X036336Y029459D01*
X036338Y029462D01*
X036338Y029466D01*
Y029387D01*
D02*
G37*
G36*
X035690Y029462D02*
X035691Y029459D01*
X035693Y029456D01*
X035696Y029453D01*
X035699Y029451D01*
X035704Y029449D01*
X035709Y029448D01*
X035715Y029447D01*
X035722Y029446D01*
X035730Y029446D01*
Y029407D01*
X035722Y029407D01*
X035715Y029406D01*
X035709Y029405D01*
X035704Y029404D01*
X035699Y029402D01*
X035696Y029400D01*
X035693Y029397D01*
X035691Y029394D01*
X035690Y029391D01*
X035689Y029387D01*
Y029466D01*
X035690Y029462D01*
D02*
G37*
G36*
X036435Y029182D02*
X036436Y029179D01*
X036438Y029176D01*
X036441Y029174D01*
X036445Y029171D01*
X036449Y029170D01*
X036454Y029168D01*
X036461Y029167D01*
X036467Y029167D01*
X036475Y029167D01*
Y029127D01*
X036467Y029127D01*
X036461Y029126D01*
X036454Y029125D01*
X036449Y029124D01*
X036445Y029122D01*
X036441Y029120D01*
X036438Y029118D01*
X036436Y029115D01*
X036435Y029111D01*
X036435Y029107D01*
Y029186D01*
X036435Y029182D01*
D02*
G37*
G36*
X036359Y029080D02*
X036356Y029078D01*
X036353Y029076D01*
X036350Y029074D01*
X036348Y029070D01*
X036346Y029065D01*
X036345Y029060D01*
X036344Y029054D01*
X036343Y029048D01*
X036344Y029043D01*
X036345Y029037D01*
X036346Y029031D01*
X036348Y029027D01*
X036350Y029023D01*
X036353Y029020D01*
X036356Y029018D01*
X036359Y029017D01*
X036363Y029017D01*
X036284D01*
X036288Y029017D01*
X036291Y029018D01*
X036294Y029020D01*
X036297Y029023D01*
X036299Y029027D01*
X036301Y029031D01*
X036302Y029037D01*
X036303Y029043D01*
X036304Y029048D01*
X036303Y029054D01*
X036302Y029060D01*
X036301Y029065D01*
X036299Y029070D01*
X036297Y029074D01*
X036294Y029076D01*
X036291Y029078D01*
X036288Y029080D01*
X036284Y029080D01*
X036363D01*
X036359Y029080D01*
D02*
G37*
G36*
X036730Y028327D02*
X036730Y028361D01*
X036783Y028362D01*
X036781Y028362D01*
X036778Y028361D01*
X036776Y028359D01*
X036774Y028357D01*
X036773Y028353D01*
X036771Y028350D01*
X036770Y028345D01*
X036770Y028340D01*
X036769Y028334D01*
X036769Y028327D01*
X036730D01*
D02*
G37*
G36*
X037103Y028548D02*
X037095Y028547D01*
X037088Y028547D01*
X037082Y028546D01*
X037077Y028544D01*
X037072Y028543D01*
X037069Y028541D01*
X037066Y028538D01*
X037064Y028535D01*
X037063Y028532D01*
X037062Y028528D01*
X037063Y028586D01*
X037103Y028587D01*
Y028548D01*
D02*
G37*
G36*
X037223Y028782D02*
X037216Y028782D01*
X037205Y028781D01*
X037200Y028780D01*
X037197Y028779D01*
X037193Y028777D01*
X037191Y028775D01*
X037189Y028773D01*
X037188Y028771D01*
X037188Y028768D01*
X037189Y028821D01*
X037189Y028821D01*
X037190Y028821D01*
X037194Y028822D01*
X037223Y028822D01*
Y028782D01*
D02*
G37*
G36*
X037604Y028059D02*
X037604Y028067D01*
X037603Y028073D01*
X037602Y028079D01*
X037601Y028084D01*
X037599Y028089D01*
X037597Y028092D01*
X037594Y028095D01*
X037591Y028097D01*
X037588Y028098D01*
X037584Y028099D01*
X037642D01*
X037642Y028098D01*
X037643Y028097D01*
X037643Y028095D01*
X037643Y028084D01*
X037643Y028059D01*
X037604D01*
D02*
G37*
G36*
X037724Y028469D02*
X037723Y028476D01*
X037723Y028483D01*
X037722Y028489D01*
X037721Y028494D01*
X037719Y028498D01*
X037717Y028502D01*
X037715Y028505D01*
X037712Y028507D01*
X037709Y028508D01*
X037705Y028508D01*
X037781D01*
X037778Y028508D01*
X037775Y028507D01*
X037772Y028505D01*
X037770Y028502D01*
X037768Y028498D01*
X037766Y028494D01*
X037765Y028489D01*
X037764Y028483D01*
X037763Y028476D01*
X037763Y028469D01*
X037724D01*
D02*
G37*
G36*
X037510Y028606D02*
X037528Y028586D01*
X037488Y028505D01*
X037471Y028587D01*
X037510Y028606D01*
D02*
G37*
G36*
X038164Y028704D02*
X038161Y028711D01*
X038156Y028718D01*
X038152Y028724D01*
X038147Y028729D01*
X038141Y028733D01*
X038136Y028737D01*
X038130Y028740D01*
X038123Y028742D01*
X038117Y028743D01*
X038110Y028743D01*
X038124Y028783D01*
X038129Y028783D01*
X038135Y028784D01*
X038142Y028785D01*
X038148Y028787D01*
X038164Y028792D01*
X038172Y028795D01*
X038200Y028808D01*
X038164Y028704D01*
D02*
G37*
G36*
X038094Y028588D02*
X038091Y028587D01*
X038088Y028585D01*
X038085Y028582D01*
X038083Y028578D01*
X038081Y028574D01*
X038080Y028568D01*
X038079Y028562D01*
X038078Y028559D01*
X038079Y028553D01*
X038081Y028548D01*
X038083Y028543D01*
X038086Y028538D01*
X038090Y028535D01*
X038095Y028533D01*
X038100Y028531D01*
X038105Y028530D01*
X038112Y028530D01*
X038049Y028471D01*
X038081Y028381D01*
X038074Y028385D01*
X038067Y028387D01*
X038060Y028389D01*
X038053Y028389D01*
X038047Y028389D01*
X038041Y028388D01*
X038035Y028386D01*
X038029Y028383D01*
X038023Y028379D01*
X038018Y028375D01*
X038012Y028368D01*
X038000Y028353D01*
X037995Y028347D01*
X037992Y028341D01*
X037989Y028336D01*
X037988Y028331D01*
X037988Y028327D01*
X037989Y028323D01*
X037991Y028321D01*
X037936Y028375D01*
X037939Y028373D01*
X037943Y028372D01*
X037947Y028372D01*
X037952Y028373D01*
X037957Y028376D01*
X037963Y028379D01*
X037969Y028384D01*
X037976Y028389D01*
X037992Y028404D01*
X038016Y028380D01*
X038005Y028416D01*
X038008Y028420D01*
X038012Y028425D01*
X038019Y028436D01*
X038024Y028442D01*
X038036Y028465D01*
X038039Y028471D01*
X038039Y028509D01*
X038065Y028548D01*
X038039D01*
X038038Y028555D01*
X038038Y028562D01*
X038037Y028568D01*
X038035Y028574D01*
X038034Y028578D01*
X038031Y028582D01*
X038029Y028585D01*
X038026Y028587D01*
X038023Y028588D01*
X038019Y028588D01*
X038098D01*
X038094Y028588D01*
D02*
G37*
G36*
X038323Y028302D02*
X038318Y028297D01*
X038314Y028291D01*
X038311Y028286D01*
X038309Y028279D01*
X038307Y028273D01*
X038307Y028266D01*
X038306Y028258D01*
X038307Y028251D01*
X038309Y028243D01*
X038311Y028234D01*
X038214Y028287D01*
X038224Y028290D01*
X038251Y028300D01*
X038259Y028303D01*
X038272Y028310D01*
X038277Y028314D01*
X038282Y028318D01*
X038287Y028322D01*
X038323Y028302D01*
D02*
G37*
G36*
X037645Y029931D02*
X037637Y029926D01*
X037630Y029921D01*
X037625Y029916D01*
X037620Y029910D01*
X037615Y029904D01*
X037612Y029898D01*
X037609Y029892D01*
X037607Y029886D01*
X037606Y029879D01*
X037606Y029872D01*
X037566Y029881D01*
X037566Y029887D01*
X037565Y029894D01*
X037564Y029900D01*
X037561Y029907D01*
X037559Y029914D01*
X037556Y029922D01*
X037547Y029938D01*
X037543Y029947D01*
X037537Y029955D01*
X037645Y029931D01*
D02*
G37*
G36*
X037606Y029790D02*
X037606Y029783D01*
X037607Y029777D01*
X037609Y029771D01*
X037610Y029767D01*
X037613Y029763D01*
X037615Y029761D01*
X037618Y029759D01*
X037621Y029757D01*
X037625Y029757D01*
X037546D01*
X037550Y029757D01*
X037554Y029759D01*
X037557Y029761D01*
X037559Y029763D01*
X037561Y029767D01*
X037563Y029771D01*
X037564Y029777D01*
X037565Y029783D01*
X037566Y029790D01*
X037566Y029797D01*
X037606D01*
X037606Y029790D01*
D02*
G37*
G36*
X037991Y029576D02*
X037993Y029573D01*
X037995Y029570D01*
X037997Y029567D01*
X038001Y029565D01*
X038006Y029563D01*
X038011Y029562D01*
X038017Y029561D01*
X038024Y029560D01*
X038031Y029560D01*
Y029521D01*
X038024Y029521D01*
X038017Y029520D01*
X038011Y029519D01*
X038006Y029518D01*
X038001Y029516D01*
X037997Y029514D01*
X037995Y029511D01*
X037993Y029508D01*
X037991Y029505D01*
X037991Y029501D01*
Y029580D01*
X037991Y029576D01*
D02*
G37*
G36*
X037639Y029480D02*
X037636Y029479D01*
X037634Y029477D01*
X037632Y029474D01*
X037630Y029471D01*
X037629Y029466D01*
X037628Y029461D01*
X037627Y029455D01*
X037627Y029449D01*
X037626Y029441D01*
X037587D01*
X037587Y029449D01*
X037586Y029455D01*
X037585Y029461D01*
X037584Y029466D01*
X037582Y029471D01*
X037580Y029474D01*
X037577Y029477D01*
X037574Y029479D01*
X037571Y029480D01*
X037567Y029480D01*
X037642D01*
X037639Y029480D01*
D02*
G37*
G36*
X037214Y029483D02*
X037215Y029477D01*
X037216Y029470D01*
X037217Y029464D01*
X037219Y029457D01*
X037222Y029450D01*
X037226Y029442D01*
X037230Y029435D01*
X037240Y029419D01*
X037246Y029411D01*
X037137Y029428D01*
X037144Y029433D01*
X037151Y029439D01*
X037156Y029445D01*
X037161Y029451D01*
X037166Y029457D01*
X037169Y029463D01*
X037172Y029469D01*
X037174Y029476D01*
X037175Y029482D01*
X037175Y029489D01*
X037214Y029483D01*
D02*
G37*
G36*
X037705Y029372D02*
X037706Y029314D01*
X037706Y029318D01*
X037705Y029321D01*
X037703Y029324D01*
X037700Y029327D01*
X037696Y029329D01*
X037692Y029331D01*
X037686Y029332D01*
X037680Y029333D01*
X037673Y029334D01*
X037666Y029334D01*
Y029373D01*
X037705Y029372D01*
D02*
G37*
G36*
X038164Y029293D02*
X038136Y029264D01*
X038106Y029293D01*
X038107Y029293D01*
X038108Y029294D01*
X038109Y029295D01*
X038121Y029307D01*
X038136Y029321D01*
X038164Y029293D01*
D02*
G37*
G36*
X037188Y029182D02*
X037189Y029179D01*
X037191Y029176D01*
X037194Y029174D01*
X037198Y029171D01*
X037202Y029170D01*
X037207Y029168D01*
X037214Y029167D01*
X037220Y029167D01*
X037228Y029167D01*
Y029127D01*
X037220Y029127D01*
X037214Y029126D01*
X037207Y029125D01*
X037202Y029124D01*
X037198Y029122D01*
X037194Y029120D01*
X037191Y029118D01*
X037189Y029115D01*
X037188Y029111D01*
X037188Y029107D01*
Y029186D01*
X037188Y029182D01*
D02*
G37*
G36*
X038136Y029134D02*
X038137Y029133D01*
X038139Y029132D01*
X038142Y029131D01*
X038146Y029130D01*
X038150Y029129D01*
X038155Y029129D01*
X038168Y029128D01*
X038175Y029128D01*
Y029089D01*
X038168Y029089D01*
X038161Y029088D01*
X038155Y029087D01*
X038150Y029086D01*
X038146Y029084D01*
X038142Y029082D01*
X038139Y029079D01*
X038137Y029076D01*
X038136Y029073D01*
X038136Y029069D01*
Y029136D01*
X038136Y029134D01*
D02*
G37*
G36*
X037351Y029059D02*
X037350Y029059D01*
X037350Y029059D01*
X037348Y029059D01*
X037343Y029059D01*
X037318Y029058D01*
Y029098D01*
X037325Y029098D01*
X037335Y029099D01*
X037340Y029100D01*
X037343Y029101D01*
X037346Y029102D01*
X037349Y029104D01*
X037351Y029106D01*
X037352Y029108D01*
X037352Y029110D01*
X037351Y029059D01*
D02*
G37*
G36*
X037228Y028979D02*
X037221Y028979D01*
X037214Y028978D01*
X037208Y028977D01*
X037202Y028976D01*
X037198Y028974D01*
X037194Y028972D01*
X037191Y028970D01*
X037189Y028967D01*
X037188Y028963D01*
X037188Y028960D01*
X037189Y029018D01*
X037189Y029018D01*
X037190Y029018D01*
X037199Y029018D01*
X037228Y029019D01*
Y028979D01*
D02*
G37*
G36*
X038136Y028976D02*
X038137Y028973D01*
X038139Y028971D01*
X038142Y028969D01*
X038146Y028968D01*
X038150Y028966D01*
X038155Y028965D01*
X038161Y028965D01*
X038168Y028964D01*
X038175Y028964D01*
Y028925D01*
X038168Y028925D01*
X038161Y028924D01*
X038155Y028923D01*
X038150Y028922D01*
X038146Y028920D01*
X038142Y028918D01*
X038139Y028915D01*
X038137Y028912D01*
X038136Y028909D01*
X038136Y028905D01*
Y028978D01*
X038136Y028976D01*
D02*
G37*
D14*
X035617Y029384D02*
D03*
X035267D02*
D03*
X035617Y028941D02*
D03*
X035267D02*
D03*
X037918Y029619D02*
D03*
X037568D02*
D03*
X035617Y028498D02*
D03*
X035267D02*
D03*
X037918Y028237D02*
D03*
X037568D02*
D03*
D24*
X037491Y028540D02*
X037544D01*
X037468Y028625D02*
X037471D01*
X037491Y028606D01*
Y028540D02*
Y028606D01*
X037544Y028540D02*
X037566Y028517D01*
X037568Y029619D02*
X037586Y029637D01*
Y029981D01*
X037603Y029998D01*
X037195Y029376D02*
Y029521D01*
X037097Y029619D02*
X037195Y029521D01*
X037183Y029364D02*
X037195Y029376D01*
X036697Y029619D02*
X037097D01*
X036650Y029573D02*
X036697Y029619D01*
X036650Y029475D02*
Y029573D01*
X036602Y029427D02*
X036650Y029475D01*
X035335Y029642D02*
X035473Y029505D01*
X038235Y028211D02*
Y028243D01*
X037624Y028015D02*
Y028182D01*
X037568Y028237D02*
X037624Y028182D01*
Y028015D02*
X037664Y027975D01*
Y027943D02*
Y027975D01*
X038150Y029308D02*
X038301D01*
X038098Y029255D02*
X038150Y029308D01*
X038301D02*
X038393Y029216D01*
X038019Y029255D02*
X038098D01*
X038019Y028940D02*
X038023Y028944D01*
X038231D01*
X038235Y028949D01*
X038019Y028783D02*
X038039Y028763D01*
X038178D01*
X038203Y028738D01*
X038235D01*
X038080Y028058D02*
X038112D01*
X038041Y028019D02*
X038080Y028058D01*
X037811Y028019D02*
X038041D01*
X037743Y028086D02*
X037811Y028019D01*
X036127Y028795D02*
Y029310D01*
X036169Y028753D02*
X036323D01*
X036127Y028795D02*
X036169Y028753D01*
X035836Y028527D02*
X036180Y028183D01*
X036605D01*
X035306Y028044D02*
Y028070D01*
X037743Y029255D02*
Y029334D01*
X037724Y029354D02*
X037743Y029334D01*
X035227Y028579D02*
X035267Y028619D01*
X038393Y028400D02*
Y029216D01*
X035969Y028863D02*
X035992Y028840D01*
X036739Y029109D02*
X036771D01*
X037918Y028237D02*
Y028302D01*
X038058Y028452D02*
X038117D01*
X037473Y028763D02*
X037493Y028783D01*
X037269Y028695D02*
X037337Y028763D01*
X037269Y028651D02*
Y028695D01*
X037185Y028567D02*
X037269Y028651D01*
X037018Y028567D02*
X037185D01*
X036969Y028518D02*
X037018Y028567D01*
X037337Y028763D02*
X037473D01*
Y028920D02*
X037493Y028940D01*
X037337Y028920D02*
X037473D01*
X037271Y028855D02*
X037337Y028920D01*
X037271Y028850D02*
Y028855D01*
X037223Y028802D02*
X037271Y028850D01*
X037069Y028802D02*
X037223D01*
X037050Y028783D02*
X037069Y028802D01*
X037318Y029078D02*
X037473D01*
X037493Y029098D01*
X037239Y028999D02*
X037318Y029078D01*
X037069Y028999D02*
X037239D01*
X037050Y028980D02*
X037069Y028999D01*
X038235Y029144D02*
Y029150D01*
X038077Y029102D02*
X038083Y029108D01*
X038200D01*
X037473Y029235D02*
X037493Y029255D01*
X037337Y029235D02*
X037473D01*
X037248Y029147D02*
X037337Y029235D01*
X037080Y029147D02*
X037248D01*
X037743Y028086D02*
Y028521D01*
X038058Y028452D02*
Y028639D01*
Y028442D02*
Y028452D01*
X037964Y029541D02*
X038078D01*
X038200Y029108D02*
X038235Y029144D01*
X038235Y028243D02*
X038393Y028400D01*
X035216Y028161D02*
X035306Y028070D01*
X036010Y029427D02*
X036127Y029310D01*
X035267Y028619D02*
Y028639D01*
X035216Y028161D02*
Y028579D01*
X036323Y028980D02*
Y029147D01*
X036553Y028327D02*
Y028481D01*
X036575Y028503D01*
X036507Y028281D02*
X036553Y028327D01*
X036303Y028281D02*
X036507D01*
X035828Y028756D02*
X036303Y028281D01*
X035804Y028756D02*
X035828D01*
X035810Y028527D02*
X035836D01*
X036750Y028380D02*
X036774Y028404D01*
X036605Y028183D02*
X036750Y028327D01*
Y028380D01*
X036774Y028404D02*
Y028501D01*
X035992Y028791D02*
X036215Y028567D01*
X036378Y029449D02*
Y029456D01*
X036355Y029427D02*
X036378Y029449D01*
Y028503D02*
Y028544D01*
X036355Y028567D02*
X036378Y028544D01*
X036215Y028567D02*
X036355D01*
X035992Y028791D02*
Y028840D01*
X036327Y029147D02*
X036702D01*
X036739Y029109D01*
X035276Y028649D02*
Y029384D01*
X035216Y028579D02*
X035227D01*
X035267Y028639D02*
X035276Y028649D01*
X037646Y029354D02*
X037724D01*
X037558Y029619D02*
X037607Y029571D01*
X035267Y028498D02*
Y028639D01*
X037607Y029393D02*
Y029571D01*
Y029393D02*
X037646Y029354D01*
X037918Y028302D02*
X038058Y028442D01*
X035626Y028941D02*
Y029384D01*
Y029439D01*
X036010Y029427D02*
X036355D01*
X035626Y029384D02*
X035669Y029427D01*
X036010D01*
X035561Y029505D02*
X035626Y029439D01*
X035312Y029642D02*
X035335D01*
X035617Y028932D02*
X035626Y028941D01*
X035473Y029505D02*
X035561D01*
X037908Y029596D02*
X037964Y029541D01*
X035617Y028498D02*
Y028932D01*
D25*
X037183Y029364D02*
D03*
X037861Y027861D02*
D03*
X037274Y027941D02*
D03*
X037469Y027968D02*
D03*
X037664Y027943D02*
D03*
X036109Y028019D02*
D03*
X036646Y028030D02*
D03*
X036379Y028019D02*
D03*
X035810Y028527D02*
D03*
X036771Y028882D02*
D03*
X035969Y028863D02*
D03*
X036771Y029109D02*
D03*
X038117Y028452D02*
D03*
X038235Y029150D02*
D03*
X038078Y029541D02*
D03*
X038235Y028738D02*
D03*
Y028949D02*
D03*
X037093Y028019D02*
D03*
X036866D02*
D03*
X038112Y028058D02*
D03*
X038235Y028211D02*
D03*
X035306Y028044D02*
D03*
X035373Y028230D02*
D03*
X035804Y028756D02*
D03*
X037603Y029998D02*
D03*
X037743Y029836D02*
D03*
X035312Y029642D02*
D03*
X035322Y029856D02*
D03*
X036117Y029970D02*
D03*
X035921D02*
D03*
X035637D02*
D03*
X036340Y029972D02*
D03*
X037292Y029816D02*
D03*
X037053D02*
D03*
X036828D02*
D03*
X037566Y028517D02*
D03*
D26*
X036602Y029427D02*
D03*
X036405D02*
D03*
Y028473D02*
D03*
X036602D02*
D03*
X036798D02*
D03*
X036995D02*
D03*
Y029427D02*
D03*
X036798D02*
D03*
D27*
X036323Y029147D02*
D03*
Y028950D02*
D03*
Y028753D02*
D03*
X037076D02*
D03*
Y028950D02*
D03*
Y029147D02*
D03*
D28*
X037743Y028625D02*
D03*
Y029255D02*
D03*
D29*
X038019Y028625D02*
D03*
Y028783D02*
D03*
Y028940D02*
D03*
Y029098D02*
D03*
Y029255D02*
D03*
X037468D02*
D03*
Y029098D02*
D03*
Y028940D02*
D03*
Y028783D02*
D03*
Y028625D02*
D03*
M02*
