G04*
G04 #@! TF.GenerationSoftware,Altium Limited,Altium Designer,23.4.1 (23)*
G04*
G04 Layer_Color=8388736*
%FSAX24Y24*%
%MOIN*%
G70*
G04*
G04 #@! TF.SameCoordinates,6F517EDD-1851-421F-B134-E297A81234A1*
G04*
G04*
G04 #@! TF.FilePolarity,Negative*
G04*
G01*
G75*
%ADD14R,0.0150X0.0280*%
%ADD17R,0.0200X0.0150*%
%ADD18R,0.0218X0.0228*%
%ADD19R,0.0228X0.0218*%
%ADD20P,0.0311X4X270.0*%
%ADD21R,0.0197X0.0276*%
%ADD22R,0.0395X0.0434*%
G36*
X036183Y029203D02*
X036123D01*
X036063Y029283D01*
Y029333D01*
X036183D01*
Y029203D01*
D02*
G37*
G36*
X035888Y029283D02*
X035828Y029203D01*
X035768D01*
Y029333D01*
X035888D01*
Y029283D01*
D02*
G37*
G36*
X036183Y028948D02*
X036063D01*
Y028998D01*
X036123Y029078D01*
X036183D01*
Y028948D01*
D02*
G37*
G36*
X035888Y028998D02*
Y028948D01*
X035768D01*
Y029078D01*
X035828D01*
X035888Y028998D01*
D02*
G37*
D14*
X037332Y029132D02*
D03*
X037682D02*
D03*
Y028702D02*
D03*
X037332D02*
D03*
X035191Y029132D02*
D03*
X035541D02*
D03*
X035538Y028702D02*
D03*
X035188D02*
D03*
D17*
X037959Y029032D02*
D03*
Y028682D02*
D03*
D18*
X036995Y029245D02*
D03*
Y028655D02*
D03*
X036798D02*
D03*
X036602D02*
D03*
X036405D02*
D03*
Y029245D02*
D03*
X036602D02*
D03*
X036798D02*
D03*
D19*
X036995Y029048D02*
D03*
Y028852D02*
D03*
X036405D02*
D03*
Y029048D02*
D03*
D20*
X035976Y029141D02*
D03*
D21*
X037763Y028281D02*
D03*
X037527D02*
D03*
X035637D02*
D03*
X035873D02*
D03*
X036109D02*
D03*
X037291D02*
D03*
X036818D02*
D03*
X036582D02*
D03*
X036346D02*
D03*
X037054D02*
D03*
X035637Y029619D02*
D03*
X035873D02*
D03*
X037763D02*
D03*
X037527D02*
D03*
X037291D02*
D03*
X036109D02*
D03*
X036582D02*
D03*
X036818D02*
D03*
X037054D02*
D03*
X036346D02*
D03*
D22*
X038137Y027749D02*
D03*
X035263D02*
D03*
Y030151D02*
D03*
X038137D02*
D03*
M02*
