M48
;Layer_Color=9474304
;FILE_FORMAT=2:4
INCH
;TYPE=PLATED
T1F00S00C0.0079
%
T01
X035440Y028326
X035528Y028641
X035773Y028655
X035779Y029035
X036094Y029054
X035925Y029366
X035964Y030059
X036326Y030062
X036502Y029974
X036659Y029856
X037072Y029973
X037301Y030190
X037601Y029821
X037680Y029346
X037876Y029358
X037485Y029378
X037308Y029293
X037724Y028783
X038212Y028737
X038137Y028918
X038078Y028300
X038334Y028045
X037469Y027916
X036549Y027829
X035873Y027995
X035686Y028094
X035381Y029019
X035145Y029855
X035664Y029856
X036804Y028807
X038072Y029605
M30
