M48
;Layer_Color=9474304
;FILE_FORMAT=2:4
INCH
;TYPE=PLATED
T1F00S00C0.0079
%
T01
X035306Y028044
X035373Y028230
X035810Y028527
X035804Y028756
X035969Y028863
X036771Y028882
Y029109
X036828Y029816
X037053
X037292
X037743Y029836
X037603Y029998
X038078Y029541
X038235Y029150
X038235Y028949
Y028738
X038117Y028452
X038235Y028211
X038112Y028058
X037861Y027861
X037664Y027943
X037469Y027968
X037274Y027941
X037093Y028019
X036866
X036646Y028030
X036379Y028019
X036109
X037566Y028517
X036340Y029972
X036117Y029970
X035921
X035637
X035322Y029856
X035312Y029642
M30
